<svg width="80" height="80" viewBox="0 0 80 80" fill="none" xmlns="http://www.w3.org/2000/svg">
<path d="M2.99077 29.8018C5.16553 25.2123 8.848 21.3354 13.3625 18.8849C16.9058 16.9624 20.4468 16.1378 24.3471 16.1378C28.8505 16.1378 33.3563 17.2517 37.712 18.3286C54.0246 22.3643 57.5348 19.403 65.8031 22.0935C72.4689 24.2646 77.7046 30.107 78.832 36.6314C80.0258 43.5495 76.3692 50.9587 70.3249 53.8634C65.5852 56.1403 60.0775 55.7304 54.9255 54.7741C36.3126 51.3169 39.904 52.5944 25.1015 56.8271C1.69107 63.536 -1.13477 38.5132 2.99077 29.8018ZM13.8806 19.8437C9.56923 22.1834 6.05046 25.8867 3.97538 30.2683C0.481227 37.6455 3.20738 50.9711 10.2166 55.1717C19.2898 60.6067 29.9729 52.5095 39.8055 51.7501C49.7551 50.9809 60.6572 57.3034 69.8498 52.8824C75.4708 50.1809 78.8689 43.2738 77.7538 36.8184C76.6954 30.6818 71.7551 25.1815 65.4622 23.1323C57.4745 20.5304 53.7834 23.4277 37.4474 19.3883C28.9415 17.2837 21.6443 15.6307 13.8806 19.8437Z" fill="#252525"/>
<path d="M32.5145 38.288C32.3631 38.288 32.2117 38.2818 32.0615 38.2683C29.4683 38.048 27.2283 35.9397 26.8492 33.3662C26.5785 31.5126 27.2677 29.3575 28.4886 28.2412C28.8295 27.9311 29.1975 27.7182 29.5729 27.6123C34.3335 24.816 39.6111 29.4585 38.0246 34.3175C37.264 36.6462 34.9465 38.288 32.5145 38.288ZM28.8812 29.4166C28.1378 30.3668 27.7354 31.8991 27.9274 33.2086C28.2289 35.2615 30.0849 37.008 32.1514 37.184C34.2302 37.3526 36.3434 35.952 36.9859 33.9803C38.0529 30.7163 35.0683 26.8098 31.0129 28.1575C31.0074 28.2364 30.9848 28.3131 30.9466 28.3823C30.9085 28.4515 30.8557 28.5115 30.792 28.5583C30.7283 28.605 30.6551 28.6373 30.5777 28.6529C30.5002 28.6685 30.4202 28.667 30.3434 28.6486C30.2298 28.6212 30.1119 28.6161 29.9963 28.6338C29.7134 28.8106 29.452 29.0196 29.2172 29.2566C29.1277 29.3481 29.0086 29.4047 28.8812 29.4166Z" fill="#252525"/>
<path d="M7.11015 61.2591C-1.73416 55.0732 0.859074 42.5304 1.33661 37.4584C1.35392 37.3163 1.42507 37.1861 1.53542 37.0948C1.64576 37.0034 1.78691 36.9578 1.92984 36.9674C2.07365 36.9811 2.20617 37.0512 2.29843 37.1624C2.39069 37.2736 2.43517 37.4167 2.42215 37.5606C1.97415 42.2794 -0.628926 54.5132 7.73538 60.3643C15.5926 65.8646 26.4726 60.3495 35.0105 59.6898C44.8948 58.9206 54.7114 63.4006 64.3766 61.92C69.6123 61.1175 74.0295 58.4209 76.1895 54.7064C78.7717 50.2695 78.4418 44.048 77.9692 39.7538C77.8905 39.0363 78.9723 38.9231 79.0523 39.6344C79.5422 44.0812 79.8757 50.5378 77.1323 55.2541C74.7717 59.3108 70.1822 62.1329 64.5403 62.9969C59.2751 63.8031 53.9717 62.9034 48.7557 62.0012C37.4597 60.0455 34.8628 60.3951 26.8369 62.272C21.9089 63.4301 13.3551 65.6283 7.11015 61.2591Z" fill="#252525"/>
<path d="M42.7114 41.0105C39.8868 41.0105 36.5625 39.7698 35.1865 36.8345C35.1561 36.7696 35.1388 36.6993 35.1355 36.6277C35.1323 36.5562 35.1432 36.4846 35.1676 36.4173C35.192 36.3499 35.2294 36.288 35.2777 36.2351C35.3261 36.1822 35.3843 36.1393 35.4492 36.1089C35.5141 36.0785 35.5844 36.0612 35.6559 36.058C35.7275 36.0547 35.799 36.0656 35.8664 36.09C35.9338 36.1144 35.9957 36.1519 36.0486 36.2002C36.1015 36.2485 36.1444 36.3068 36.1748 36.3717C37.4683 39.1323 40.8603 40.1317 43.4658 39.8868C46.7705 39.5791 49.5582 37.8535 52.5095 36.0271C60.3446 31.1791 64.4382 29.6615 78.1662 36.1255C78.7741 36.4098 78.512 37.4892 77.5397 37.0351C64.2437 30.7975 60.4849 32.3729 53.0831 36.9551C50.1538 38.768 47.1249 40.6412 43.5668 40.9735C43.2886 40.9969 43.0018 41.0105 42.7114 41.0105ZM6.43939 52.7483C7.46708 45.92 13.7871 40.2523 22.5969 41.888C25.5655 42.4381 28.368 42.9588 29.7969 37.2221C29.8117 37.1502 29.841 37.0819 29.8828 37.0215C29.9247 36.9612 29.9783 36.9098 30.0405 36.8707C30.1027 36.8316 30.1722 36.8054 30.2447 36.7938C30.3173 36.7822 30.3914 36.7853 30.4627 36.8031C30.534 36.8209 30.601 36.8528 30.6596 36.8972C30.7183 36.9415 30.7673 36.9971 30.8039 37.0609C30.8405 37.1246 30.8638 37.1951 30.8724 37.2681C30.881 37.341 30.8748 37.415 30.8542 37.4855C28.9428 45.1692 24.3323 43.1803 21.0942 42.7397C14.5698 41.8461 8.50092 46.3791 7.51754 52.9095C7.41046 53.6221 6.33354 53.4572 6.43939 52.7483ZM31.0929 28.1354C31.0166 28.1355 30.9411 28.1196 30.8713 28.0886C30.8016 28.0577 30.7391 28.0124 30.688 27.9557C30.2966 27.5225 29.5668 27.5151 29.2751 27.5348C29.0855 27.5458 28.8578 27.5865 28.6006 27.6308C27.3711 27.84 25.3169 28.192 23.4277 26.4726C19.8252 23.1938 23.232 19.4806 22.1908 16.992C21.9151 16.3249 22.9218 15.9114 23.1975 16.5723C24.4542 19.5889 21.0794 22.8615 24.1612 25.6665C25.6578 27.0277 27.2542 26.7557 28.416 26.5563C28.7188 26.5046 28.9871 26.4603 29.2098 26.4468C30.1674 26.3877 30.9908 26.6646 31.4966 27.2246C31.5667 27.303 31.6127 27.4 31.6291 27.5039C31.6455 27.6078 31.6315 27.7142 31.5889 27.8104C31.5463 27.9065 31.4768 27.9883 31.3888 28.046C31.3009 28.1036 31.1981 28.1347 31.0929 28.1354ZM75.3822 52.9194L73.616 51.1532C73.5651 51.102 73.5366 51.0328 73.5366 50.9606C73.5366 50.8884 73.5651 50.8192 73.616 50.768C73.6672 50.7171 73.7364 50.6885 73.8086 50.6885C73.8808 50.6885 73.95 50.7171 74.0012 50.768L75.7674 52.5341C75.8185 52.5852 75.8472 52.6545 75.8472 52.7268C75.8472 52.799 75.8185 52.8683 75.7674 52.9194C75.7163 52.9705 75.647 52.9992 75.5748 52.9992C75.5025 52.9992 75.4332 52.9705 75.3822 52.9194ZM75.2086 55.9311L73.3649 54.0886C73.1114 53.8351 73.4954 53.4474 73.7502 53.7034L75.5938 55.5458C75.6191 55.5711 75.6392 55.6012 75.6529 55.6342C75.6666 55.6673 75.6736 55.7027 75.6736 55.7384C75.6736 55.7742 75.6666 55.8096 75.6529 55.8427C75.6392 55.8757 75.6191 55.9058 75.5938 55.9311C75.5686 55.9564 75.5385 55.9764 75.5055 55.9901C75.4724 56.0038 75.437 56.0108 75.4012 56.0108C75.3655 56.0108 75.33 56.0038 75.297 55.9901C75.2639 55.9764 75.2339 55.9564 75.2086 55.9311ZM73.4031 57.7477L71.4929 55.8363C71.4674 55.8111 71.4472 55.7811 71.4334 55.7481C71.4196 55.715 71.4125 55.6795 71.4125 55.6437C71.4125 55.6078 71.4196 55.5724 71.4334 55.5393C71.4472 55.5062 71.4674 55.4763 71.4929 55.4511C71.5181 55.4256 71.5481 55.4053 71.5812 55.3915C71.6142 55.3777 71.6497 55.3706 71.6855 55.3706C71.7214 55.3706 71.7569 55.3777 71.7899 55.3915C71.823 55.4053 71.853 55.4256 71.8782 55.4511L73.7883 57.3624C74.0431 57.6172 73.6554 58.0012 73.4031 57.7477ZM70.2191 59.6861L68.1809 57.6492C67.9274 57.3957 68.3114 57.008 68.5662 57.264L70.6043 59.3009C70.6296 59.3262 70.6497 59.3562 70.6634 59.3893C70.677 59.4223 70.6841 59.4578 70.6841 59.4935C70.6841 59.5293 70.677 59.5647 70.6634 59.5978C70.6497 59.6308 70.6296 59.6608 70.6043 59.6861C70.579 59.7114 70.549 59.7315 70.5159 59.7452C70.4829 59.7589 70.4475 59.7659 70.4117 59.7659C70.3759 59.7659 70.3405 59.7589 70.3074 59.7452C70.2744 59.7315 70.2444 59.7114 70.2191 59.6861ZM67.9458 60.784L65.6837 58.5218C65.4302 58.2683 65.8142 57.8818 66.0689 58.1366L68.3311 60.3988C68.5871 60.6548 68.1994 61.0375 67.9458 60.784ZM64.5108 61.6591L62.2486 59.3969C62.2231 59.3717 62.2029 59.3417 62.1891 59.3087C62.1753 59.2756 62.1681 59.2401 62.1681 59.2043C62.1681 59.1685 62.1753 59.133 62.1891 59.0999C62.2029 59.0669 62.2231 59.0369 62.2486 59.0117C62.2738 58.9862 62.3038 58.966 62.3369 58.9521C62.3699 58.9383 62.4054 58.9312 62.4412 58.9312C62.4771 58.9312 62.5125 58.9383 62.5456 58.9521C62.5787 58.966 62.6087 58.9862 62.6338 59.0117L64.896 61.2738C64.9213 61.2991 64.9414 61.3292 64.955 61.3622C64.9687 61.3953 64.9758 61.4307 64.9758 61.4664C64.9758 61.5022 64.9687 61.5376 64.955 61.5707C64.9414 61.6037 64.9213 61.6338 64.896 61.6591C64.8707 61.6844 64.8407 61.7044 64.8076 61.7181C64.7746 61.7318 64.7392 61.7388 64.7034 61.7388C64.6676 61.7388 64.6322 61.7318 64.5991 61.7181C64.5661 61.7044 64.5361 61.6844 64.5108 61.6591ZM61.0757 62.2831L58.8135 60.0209C58.56 59.7674 58.944 59.3809 59.1988 59.6357L61.4609 61.8978C61.4864 61.923 61.5067 61.953 61.5205 61.9861C61.5343 62.0191 61.5414 62.0546 61.5414 62.0905C61.5414 62.1263 61.5343 62.1618 61.5205 62.1948C61.5067 62.2279 61.4864 62.2579 61.4609 62.2831C61.4357 62.3086 61.4057 62.3288 61.3727 62.3426C61.3396 62.3564 61.3041 62.3635 61.2683 62.3635C61.2325 62.3635 61.197 62.3564 61.1639 62.3426C61.1309 62.3288 61.1009 62.3086 61.0757 62.2831ZM57.3391 62.4812L55.3157 60.4578C55.0622 60.2043 55.4462 59.8178 55.7009 60.0726L57.7243 62.096C57.9815 62.3532 57.5889 62.7311 57.3391 62.4812ZM53.0191 61.4092L50.5686 58.96C50.3151 58.7064 50.6978 58.32 50.9538 58.5748L53.4043 61.024C53.6591 61.2788 53.2726 61.6628 53.0191 61.4092ZM50.3791 61.5175L47.5089 58.6474C47.2554 58.3938 47.6394 58.0061 47.8942 58.2621L50.7643 61.1323C51.0203 61.3883 50.6326 61.7711 50.3791 61.5175ZM46.176 61.0609L43.6369 58.5218C43.3834 58.2683 43.7674 57.8818 44.0222 58.1366L46.5612 60.6757C46.816 60.9317 46.4295 61.3144 46.176 61.0609ZM42.272 60.5415C42.0874 60.5415 40.0825 58.4652 39.952 58.3348C39.6985 58.0812 40.0825 57.6935 40.3372 57.9495L42.464 60.0763C42.4895 60.1015 42.5097 60.1315 42.5235 60.1645C42.5374 60.1976 42.5445 60.2331 42.5445 60.2689C42.5445 60.3047 42.5374 60.3402 42.5235 60.3733C42.5097 60.4063 42.4895 60.4363 42.464 60.4615C42.439 60.4871 42.4091 60.5073 42.3761 60.5211C42.3432 60.5348 42.3077 60.5418 42.272 60.5415ZM38.3988 59.9668L36.2671 57.8351C36.0135 57.5815 36.3975 57.1938 36.6523 57.4498L38.784 59.5815C38.8093 59.6068 38.8294 59.6369 38.843 59.6699C38.8567 59.7029 38.8638 59.7384 38.8638 59.7741C38.8638 59.8099 38.8567 59.8453 38.843 59.8784C38.8294 59.9114 38.8093 59.9415 38.784 59.9668C38.7587 59.9921 38.7287 60.0121 38.6956 60.0258C38.6626 60.0395 38.6272 60.0465 38.5914 60.0465C38.5556 60.0465 38.5202 60.0395 38.4871 60.0258C38.4541 60.0121 38.4241 59.9921 38.3988 59.9668ZM34.7262 60.1046L32.3323 57.7108C32.0788 57.4572 32.4628 57.0708 32.7175 57.3255L35.1126 59.7194C35.3674 59.9741 34.9797 60.3581 34.7262 60.1046ZM31.3551 60.48L29.1471 58.272C28.8935 58.0185 29.2775 57.6308 29.5323 57.8868L31.7403 60.0948C31.7658 60.1199 31.786 60.1499 31.7998 60.183C31.8137 60.2161 31.8208 60.2515 31.8208 60.2874C31.8208 60.3232 31.8137 60.3587 31.7998 60.3917C31.786 60.4248 31.7658 60.4548 31.7403 60.48C31.7151 60.5055 31.6851 60.5257 31.6521 60.5395C31.619 60.5533 31.5835 60.5605 31.5477 60.5605C31.5119 60.5605 31.4764 60.5533 31.4433 60.5395C31.4103 60.5257 31.3803 60.5055 31.3551 60.48ZM27.8708 61.0548L25.8375 59.0215C25.584 58.768 25.968 58.3815 26.2228 58.6363L28.2572 60.6695C28.3039 60.7216 28.3287 60.7896 28.3267 60.8595C28.3247 60.9294 28.296 60.9959 28.2465 61.0452C28.197 61.0946 28.1304 61.1231 28.0605 61.1249C27.9906 61.1266 27.9227 61.1015 27.8708 61.0548ZM24.5957 61.9655L22.464 59.8338C22.2105 59.5803 22.5945 59.1926 22.8492 59.4486L24.9809 61.5803C25.0062 61.6056 25.0263 61.6356 25.04 61.6687C25.0537 61.7017 25.0607 61.7371 25.0607 61.7729C25.0607 61.8087 25.0537 61.8441 25.04 61.8772C25.0263 61.9102 25.0062 61.9402 24.9809 61.9655C24.9556 61.9908 24.9256 62.0109 24.8925 62.0246C24.8595 62.0383 24.8241 62.0453 24.7883 62.0453C24.7525 62.0453 24.7171 62.0383 24.6841 62.0246C24.651 62.0109 24.621 61.9908 24.5957 61.9655ZM20.6535 62.5206L18.592 60.4591C18.3385 60.2055 18.7212 59.8191 18.9772 60.0738L21.0388 62.1354C21.2948 62.3901 20.9071 62.7729 20.6535 62.5206ZM17.1249 63.1126L14.9698 60.9575C14.7163 60.704 15.1003 60.3175 15.3551 60.5723L17.5102 62.7274C17.7662 62.9834 17.3785 63.3661 17.1249 63.1126ZM14.6018 62.9637L12.4098 60.7705C12.1563 60.5169 12.5403 60.1304 12.7951 60.3852L14.9871 62.5784C15.2418 62.8332 14.8554 63.2172 14.6018 62.9637ZM11.5126 62.7483L9.03631 60.2708C8.78277 60.0172 9.16677 59.6308 9.42154 59.8855L11.8978 62.3631C12.1538 62.6178 11.7662 63.0018 11.5126 62.7483ZM8.22523 61.2701L6.91446 59.9581C6.86338 59.9071 6.83468 59.8378 6.83468 59.7655C6.83468 59.6933 6.86338 59.624 6.91446 59.5729C6.96555 59.5218 7.03483 59.4931 7.10708 59.4931C7.17932 59.4931 7.24861 59.5218 7.29969 59.5729L8.61046 60.8849C8.63595 60.9101 8.65619 60.9401 8.67 60.9732C8.68382 61.0062 8.69093 61.0417 8.69093 61.0775C8.69093 61.1134 8.68382 61.1488 8.67 61.1819C8.65619 61.215 8.63595 61.245 8.61046 61.2701C8.58528 61.2956 8.55528 61.3159 8.52222 61.3297C8.48916 61.3435 8.45368 61.3506 8.41785 61.3506C8.38201 61.3506 8.34654 61.3435 8.31347 61.3297C8.28041 61.3159 8.25042 61.2956 8.22523 61.2701Z" fill="#252525"/>
<path d="M7.35138 60.8849L8.55138 59.6837C8.80984 59.4277 9.18892 59.8166 8.93661 60.0689L7.73661 61.2701C7.48061 61.5261 7.09784 61.1384 7.35138 60.8849ZM9.34892 61.5717L11.4929 59.4277C11.7465 59.1741 12.1342 59.5581 11.8782 59.8129L9.73415 61.9569C9.47815 62.2129 9.09538 61.8252 9.34892 61.5717ZM11.7846 62.1969L14.2757 59.7058C14.5292 59.4523 14.9169 59.8363 14.6609 60.091L12.1698 62.5821C11.9151 62.8369 11.5311 62.4504 11.7846 62.1969ZM14.2831 62.7581L17.2689 59.7723C17.5225 59.5187 17.9089 59.9027 17.6542 60.1575L14.6683 63.1434C14.4135 63.3994 14.0295 63.0117 14.2831 62.7581ZM18.592 62.3212L22.0098 58.9021C22.2634 58.6486 22.6498 59.0326 22.3951 59.2874L18.9772 62.7064C18.7225 62.9624 18.3397 62.5747 18.592 62.3212ZM22.1526 62.384L26.624 57.9126C26.8775 57.659 27.264 58.043 27.0092 58.2978L22.5378 62.7692C22.2818 63.024 21.8991 62.6375 22.1526 62.384ZM27.7723 61.3846L31.4831 57.6738C31.7366 57.4203 32.1231 57.8043 31.8683 58.059L28.1575 61.7698C27.9028 62.0258 27.52 61.6381 27.7723 61.3846ZM32.0197 60.448L35.9877 56.4787C36.2412 56.2252 36.6277 56.6092 36.3729 56.864L32.4049 60.8332C32.1501 61.0892 31.7674 60.7015 32.0197 60.448ZM35.0806 60.2609L37.5421 57.7981C37.7957 57.5446 38.1834 57.9286 37.9274 58.1834L35.4658 60.6461C35.2123 60.8997 34.8271 60.5144 35.0806 60.2609ZM40.2018 59.6984L43.4412 56.459C43.6948 56.2055 44.0825 56.5895 43.8265 56.8443L40.5871 60.0837C40.3323 60.3384 39.9483 59.952 40.2018 59.6984ZM44.0111 60.4578C43.9856 60.4326 43.9653 60.4026 43.9515 60.3696C43.9377 60.3365 43.9306 60.301 43.9306 60.2652C43.9306 60.2294 43.9377 60.1939 43.9515 60.1608C43.9653 60.1278 43.9856 60.0978 44.0111 60.0726L46.9428 57.1421C47.1988 56.8874 47.5815 57.2738 47.328 57.5274L44.3963 60.4578C44.3711 60.4833 44.3411 60.5035 44.3081 60.5174C44.275 60.5312 44.2395 60.5383 44.2037 60.5383C44.1679 60.5383 44.1324 60.5312 44.0993 60.5174C44.0662 60.5035 44.0363 60.4833 44.0111 60.4578ZM48.2585 60.5723L51.3452 57.4855C51.5988 57.232 51.9852 57.6147 51.7305 57.8707L48.6437 60.9575C48.3889 61.2135 48.0049 60.8258 48.2585 60.5723ZM50.944 61.4474L53.9581 58.4332C54.2117 58.1797 54.5994 58.5637 54.3434 58.8184L51.3292 61.8326C51.0732 62.0886 50.6905 61.7009 50.944 61.4474ZM53.9422 61.947L56.8578 59.0314C57.1114 58.7778 57.4978 59.1606 57.2431 59.4166L54.3274 62.3323C54.0714 62.587 53.6886 62.1994 53.9422 61.947ZM57.2529 62.832C57.2274 62.8068 57.2072 62.7768 57.1934 62.7437C57.1796 62.7107 57.1725 62.6752 57.1725 62.6394C57.1725 62.6035 57.1796 62.568 57.1934 62.535C57.2072 62.5019 57.2274 62.4719 57.2529 62.4467L62.0418 57.6578C62.2954 57.4043 62.6831 57.7883 62.4271 58.043L57.6381 62.832C57.6129 62.8573 57.5829 62.8774 57.5498 62.8911C57.5168 62.9049 57.4813 62.9119 57.4455 62.9119C57.4097 62.9119 57.3743 62.9049 57.3413 62.8911C57.3082 62.8774 57.2782 62.8573 57.2529 62.832ZM61.3748 62.395C61.3493 62.3699 61.329 62.3399 61.3152 62.3068C61.3014 62.2737 61.2943 62.2383 61.2943 62.2024C61.2943 62.1666 61.3014 62.1311 61.3152 62.0981C61.329 62.065 61.3493 62.035 61.3748 62.0098L65.3218 58.0627C65.5754 57.8092 65.9618 58.1932 65.7071 58.448L61.76 62.395C61.7347 62.4204 61.7047 62.4405 61.6717 62.4542C61.6386 62.4679 61.6032 62.475 61.5674 62.475C61.5316 62.475 61.4962 62.4679 61.4631 62.4542C61.4301 62.4405 61.4 62.4204 61.3748 62.395ZM65.4966 61.259L70.0308 56.7261C70.2843 56.4726 70.6708 56.8566 70.416 57.1114L65.8818 61.6443C65.6258 61.9003 65.2431 61.5126 65.4966 61.259ZM70.8677 58.512L76.0837 53.296C76.3372 53.0424 76.7237 53.4264 76.4689 53.6812L71.2529 58.8972C70.9981 59.1507 70.6129 58.7655 70.8677 58.512ZM73.8658 52.7655L75.3366 51.2947C75.5901 51.0412 75.9778 51.4252 75.7218 51.68L74.2511 53.1507C73.9951 53.4067 73.6123 53.019 73.8658 52.7655ZM76.3631 49.643L78.0812 47.9249C78.3348 47.6714 78.7212 48.0554 78.4665 48.3101L76.7483 50.0283C76.4935 50.2843 76.1095 49.8966 76.3631 49.643ZM76.3631 51.2664L77.6369 49.9926C77.8905 49.739 78.2769 50.123 78.0221 50.3778L76.7483 51.6517C76.4935 51.9077 76.1095 51.52 76.3631 51.2664Z" fill="#252525"/>
<path d="M78.2425 49.2221L76.6129 47.5926C76.3594 47.3391 76.7434 46.9526 76.9981 47.2074L78.6277 48.8369C78.653 48.8622 78.673 48.8922 78.6867 48.9253C78.7004 48.9583 78.7075 48.9937 78.7075 49.0295C78.7075 49.0653 78.7004 49.1007 78.6867 49.1338C78.673 49.1668 78.653 49.1968 78.6277 49.2221C78.6024 49.2474 78.5724 49.2675 78.5393 49.2812C78.5063 49.2949 78.4708 49.3019 78.4351 49.3019C78.3993 49.3019 78.3639 49.2949 78.3308 49.2812C78.2978 49.2675 78.2677 49.2474 78.2425 49.2221ZM31.6123 31.3723C31.5766 31.3723 31.5413 31.3652 31.5083 31.3515C31.4754 31.3377 31.4455 31.3176 31.4203 31.2923L28.9538 28.8258C28.9284 28.8006 28.9081 28.7706 28.8943 28.7376C28.8805 28.7045 28.8734 28.669 28.8734 28.6332C28.8734 28.5974 28.8805 28.5619 28.8943 28.5288C28.9081 28.4958 28.9284 28.4658 28.9538 28.4406C28.979 28.4151 29.009 28.3949 29.0421 28.3811C29.0752 28.3672 29.1106 28.3601 29.1465 28.3601C29.1823 28.3601 29.2178 28.3672 29.2508 28.3811C29.2839 28.3949 29.3139 28.4151 29.3391 28.4406L31.8055 30.9071C31.8433 30.9453 31.869 30.9939 31.8793 31.0467C31.8896 31.0995 31.8841 31.1542 31.8635 31.2039C31.8428 31.2535 31.808 31.296 31.7633 31.326C31.7186 31.3559 31.6661 31.3721 31.6123 31.3723ZM30.8628 32.6843C30.8271 32.6843 30.7917 32.6772 30.7588 32.6635C30.7258 32.6497 30.6959 32.6296 30.6708 32.6043L28.1649 30.0984C28.1394 30.0733 28.1192 30.0433 28.1054 30.0102C28.0916 29.9771 28.0845 29.9417 28.0845 29.9058C28.0845 29.87 28.0916 29.8345 28.1054 29.8014C28.1192 29.7684 28.1394 29.7384 28.1649 29.7132C28.1901 29.6877 28.2201 29.6675 28.2532 29.6537C28.2862 29.6399 28.3217 29.6327 28.3575 29.6327C28.3934 29.6327 28.4288 29.6399 28.4619 29.6537C28.495 29.6675 28.525 29.6877 28.5502 29.7132L31.056 32.2191C31.0938 32.2573 31.1195 32.3059 31.1298 32.3587C31.1401 32.4115 31.1346 32.4662 31.1139 32.5159C31.0933 32.5655 31.0585 32.608 31.0138 32.638C30.9691 32.6679 30.9166 32.6841 30.8628 32.6843ZM30.3655 34.1169C30.2931 34.1166 30.2237 34.0879 30.1723 34.0369L27.9015 31.7649C27.876 31.7397 27.8558 31.7097 27.842 31.6767C27.8282 31.6436 27.8211 31.6081 27.8211 31.5723C27.8211 31.5364 27.8282 31.501 27.842 31.4679C27.8558 31.4348 27.876 31.4049 27.9015 31.3797C27.9267 31.3542 27.9567 31.3339 27.9898 31.3201C28.0228 31.3063 28.0583 31.2992 28.0942 31.2992C28.13 31.2992 28.1655 31.3063 28.1985 31.3201C28.2316 31.3339 28.2616 31.3542 28.2868 31.3797L30.5575 33.6517C30.5953 33.6899 30.6209 33.7383 30.6313 33.791C30.6416 33.8437 30.6362 33.8983 30.6157 33.9479C30.5952 33.9975 30.5606 34.04 30.5161 34.0701C30.4716 34.1001 30.4192 34.1164 30.3655 34.1169ZM30.0997 36.3052C30.0273 36.305 29.9579 36.2762 29.9065 36.2252L27.7711 34.0886C27.7202 34.0374 27.6916 33.9682 27.6916 33.896C27.6916 33.8238 27.7202 33.7546 27.7711 33.7034C27.7963 33.6779 27.8263 33.6576 27.8593 33.6438C27.8924 33.63 27.9279 33.6229 27.9637 33.6229C27.9995 33.6229 28.035 33.63 28.0681 33.6438C28.1011 33.6576 28.1311 33.6779 28.1563 33.7034L30.2917 35.84C30.3172 35.8652 30.3374 35.8952 30.3512 35.9282C30.365 35.9613 30.3722 35.9968 30.3722 36.0326C30.3722 36.0684 30.365 36.1039 30.3512 36.137C30.3374 36.17 30.3172 36.2 30.2917 36.2252C30.2667 36.2507 30.2368 36.2709 30.2038 36.2847C30.1708 36.2984 30.1354 36.3054 30.0997 36.3052ZM33.5372 31.2172L30.7089 28.3877C30.658 28.3365 30.6295 28.2672 30.6295 28.1951C30.6295 28.1229 30.658 28.0536 30.7089 28.0024C30.7341 27.9769 30.7641 27.9567 30.7972 27.9429C30.8302 27.9291 30.8657 27.922 30.9015 27.922C30.9374 27.922 30.9728 27.9291 31.0059 27.9429C31.039 27.9567 31.069 27.9769 31.0942 28.0024L33.9225 30.832C34.1785 31.088 33.7908 31.4707 33.5372 31.2172ZM35.6492 30.4332L33.5151 28.3003C33.2615 28.0467 33.6455 27.6603 33.9003 27.9151L36.0345 30.048C36.0855 30.0991 36.1142 30.1683 36.1142 30.2406C36.1142 30.3128 36.0855 30.3821 36.0345 30.4332C35.9834 30.4843 35.9141 30.513 35.8418 30.513C35.7696 30.513 35.7003 30.4843 35.6492 30.4332Z" fill="#252525"/>
<path d="M28.9711 35.7489C28.9173 35.7486 28.8647 35.7325 28.8201 35.7026C28.7754 35.6726 28.7405 35.6301 28.7199 35.5804C28.6993 35.5308 28.6938 35.4761 28.7041 35.4233C28.7144 35.3705 28.74 35.3219 28.7778 35.2836L31.2123 32.8492C31.2635 32.7983 31.3327 32.7697 31.4049 32.7697C31.4771 32.7697 31.5463 32.7983 31.5975 32.8492C31.623 32.8744 31.6433 32.9044 31.6571 32.9374C31.6709 32.9705 31.678 33.006 31.678 33.0418C31.678 33.0776 31.6709 33.1131 31.6571 33.1462C31.6433 33.1792 31.623 33.2092 31.5975 33.2344L29.1631 35.6689C29.1379 35.6942 29.108 35.7143 29.0751 35.728C29.0421 35.7418 29.0068 35.7489 28.9711 35.7489ZM28.3138 32.9415C28.26 32.9413 28.2075 32.9252 28.1628 32.8952C28.1182 32.8652 28.0833 32.8227 28.0627 32.7731C28.042 32.7234 28.0365 32.6687 28.0468 32.6159C28.0571 32.5631 28.0828 32.5145 28.1206 32.4763L30.944 29.6529C30.9952 29.602 31.0644 29.5734 31.1366 29.5734C31.2088 29.5734 31.278 29.602 31.3292 29.6529C31.3801 29.7041 31.4087 29.7733 31.4087 29.8455C31.4087 29.9177 31.3801 29.9869 31.3292 30.0381L28.5058 32.8615C28.4807 32.8868 28.4508 32.9069 28.4178 32.9207C28.3849 32.9344 28.3495 32.9415 28.3138 32.9415ZM32.1563 29.7575L33.6012 28.3113C33.8548 28.0578 34.2425 28.4406 33.9865 28.6966L32.5415 30.1427C32.2868 30.3975 31.9028 30.011 32.1563 29.7575ZM34.0861 30.5464L35.4043 29.2283C35.6578 28.9747 36.0455 29.3587 35.7895 29.6135L34.4714 30.9316C34.2154 31.1864 33.8326 30.7999 34.0861 30.5464ZM5.97415 59.6603L7.81292 57.8215C8.06646 57.5679 8.45292 57.9519 8.19815 58.2067L6.35938 60.0455C6.10338 60.3015 5.72061 59.9138 5.97415 59.6603ZM4.7483 58.2535L6.8443 56.1563C7.09784 55.9027 7.4843 56.2867 7.22953 56.5415L5.13353 58.6375C4.87753 58.8935 4.49476 58.5058 4.7483 58.2535ZM3.43138 56.3003L5.29476 54.4356C5.5483 54.1821 5.93599 54.5661 5.67999 54.8209L3.81661 56.6855C3.56061 56.9415 3.17784 56.5538 3.43138 56.3003ZM2.20553 54.2116L4.2363 52.1809C4.48984 51.9273 4.87753 52.3113 4.62153 52.5661L2.59076 54.5969C2.33476 54.8516 1.95199 54.4652 2.20553 54.2116ZM1.34276 50.3064L2.98707 48.6621C3.24061 48.4086 3.62707 48.7926 3.3723 49.0473L1.72799 50.6916C1.47199 50.9476 1.08922 50.5599 1.34276 50.3064ZM1.20615 46.7187L2.11938 45.8067C2.37415 45.5519 2.75938 45.9372 2.50461 46.1919L1.59138 47.1039C1.33538 47.3599 0.95261 46.9723 1.20615 46.7187Z" fill="#252525"/>
<path d="M3.57907 47.616L1.56922 45.6061C1.31569 45.3526 1.69969 44.9649 1.95446 45.2209L3.9643 47.2308C3.9896 47.2561 4.00966 47.2861 4.02335 47.3191C4.03704 47.3522 4.04409 47.3876 4.04409 47.4234C4.04409 47.4591 4.03704 47.4946 4.02335 47.5276C4.00966 47.5607 3.9896 47.5907 3.9643 47.616C3.93901 47.6413 3.90898 47.6614 3.87593 47.675C3.84288 47.6887 3.80746 47.6958 3.77169 47.6958C3.73591 47.6958 3.70049 47.6887 3.66744 47.675C3.63439 47.6614 3.60436 47.6413 3.57907 47.616ZM3.79938 51.0609L1.75138 49.0117C1.49538 48.7569 1.8843 48.3729 2.13661 48.6265L4.18461 50.6757C4.23569 50.7268 4.26439 50.7961 4.26439 50.8683C4.26439 50.9405 4.23569 51.0098 4.18461 51.0609C4.13352 51.112 4.06424 51.1407 3.99199 51.1407C3.91975 51.1407 3.85046 51.112 3.79938 51.0609ZM4.58461 54.3434L1.9323 51.6911C1.67876 51.4375 2.06153 51.0498 2.31753 51.3058L4.96984 53.9581C5.02092 54.0092 5.04962 54.0785 5.04962 54.1508C5.04962 54.223 5.02092 54.2923 4.96984 54.3434C4.91875 54.3945 4.84947 54.4232 4.77722 54.4232C4.70498 54.4232 4.63569 54.3945 4.58461 54.3434ZM6.56492 58.64L3.79322 55.8683C3.53969 55.6148 3.92245 55.2271 4.17845 55.4831L6.95015 58.2548C7.20615 58.5095 6.81845 58.8935 6.56492 58.64ZM7.33661 55.7329L5.20246 53.5975C4.95015 53.3452 5.32922 52.9563 5.58769 53.2123L7.72184 55.3477C7.97661 55.6037 7.58892 55.9865 7.33661 55.7329Z" fill="#252525"/>
<path d="M5.61107 55.211L6.91446 53.9064C7.168 53.6529 7.55569 54.0369 7.29969 54.2916L5.9963 55.5963C5.74277 55.8498 5.35507 55.4658 5.61107 55.211ZM4.79384 52.8492L5.87077 51.7723C6.12677 51.5175 6.51077 51.9039 6.256 52.1575L5.17907 53.2344C4.92307 53.4904 4.5403 53.1027 4.79384 52.8492ZM4.112 50.6252C4.40492 50.3323 4.79507 49.7759 5.07077 50.0504C5.34646 50.3261 4.79015 50.7163 4.49723 51.0104C4.24369 51.2627 3.85723 50.8799 4.112 50.6252ZM8.01723 55.9138C7.74523 55.6418 8.27569 55.2701 8.56369 54.9809C8.81723 54.7273 9.20492 55.1113 8.94892 55.3661C8.66092 55.6553 8.28923 56.1858 8.01723 55.9138ZM5.44 39.5409C5.90646 35.2147 6.86154 31.6873 8.36307 28.7606C10.2191 25.1384 13.0092 22.3532 16.2191 20.9181C16.2517 20.9035 16.2869 20.8954 16.3227 20.8944C16.3585 20.8934 16.3941 20.8994 16.4275 20.9122C16.4609 20.9249 16.4915 20.9441 16.5175 20.9687C16.5435 20.9932 16.5644 21.0227 16.5791 21.0553C16.5937 21.088 16.6018 21.1232 16.6028 21.1589C16.6038 21.1947 16.5978 21.2303 16.585 21.2637C16.5723 21.2972 16.5531 21.3278 16.5285 21.3538C16.5039 21.3798 16.4745 21.4007 16.4418 21.4153C13.344 22.8012 10.6474 25.4978 8.848 29.0092C7.37846 31.8769 6.44061 35.3403 5.98277 39.5999C5.94092 39.9618 5.40184 39.8978 5.44 39.5409Z" fill="#252525"/>
<path d="M14.6043 23.6431C14.5548 23.6431 14.5063 23.6295 14.464 23.6039C14.4217 23.5783 14.3872 23.5416 14.3643 23.4978C14.0454 22.9032 13.5168 22.4483 12.8812 22.2215C12.8475 22.2096 12.8165 22.1912 12.7899 22.1674C12.7633 22.1435 12.7417 22.1146 12.7263 22.0824C12.6951 22.0173 12.6911 21.9425 12.7151 21.8744C12.7391 21.8064 12.7891 21.7506 12.8542 21.7195C12.9193 21.6883 12.9941 21.6843 13.0621 21.7083C13.8263 21.9812 14.4618 22.5281 14.8455 23.2431C14.8677 23.2846 14.8787 23.3312 14.8774 23.3782C14.8762 23.4253 14.8628 23.4712 14.8385 23.5115C14.8141 23.5518 14.7798 23.5852 14.7387 23.6082C14.6977 23.6313 14.6514 23.6433 14.6043 23.6431ZM12.5637 25.6787C12.4957 25.6789 12.4302 25.6534 12.3803 25.6074L10.9009 24.2621C10.8474 24.2135 10.8154 24.1456 10.8119 24.0733C10.8084 24.0011 10.8338 23.9304 10.8825 23.8769C10.9311 23.8234 10.999 23.7913 11.0712 23.7879C11.1435 23.7844 11.2142 23.8098 11.2677 23.8584L12.7471 25.2049C12.7879 25.2418 12.8166 25.2903 12.8294 25.3438C12.8421 25.3974 12.8383 25.4536 12.8184 25.5049C12.7985 25.5563 12.7635 25.6004 12.7181 25.6314C12.6726 25.6625 12.6188 25.679 12.5637 25.6787ZM10.5243 27.8338C10.456 27.8341 10.3901 27.8086 10.3397 27.7624L9.26522 26.7766C9.21199 26.7277 9.18028 26.6597 9.17706 26.5875C9.17383 26.5153 9.19933 26.4448 9.24799 26.3914C9.29704 26.3383 9.36511 26.3068 9.43731 26.3038C9.5095 26.3008 9.57995 26.3266 9.63322 26.3754L10.7077 27.3612C10.7481 27.3982 10.7764 27.4466 10.7889 27.4999C10.8013 27.5533 10.7974 27.6091 10.7776 27.6602C10.7578 27.7113 10.723 27.7552 10.6778 27.7862C10.6326 27.8172 10.5791 27.8338 10.5243 27.8338ZM8.94769 30.6523C8.89869 30.6523 8.85059 30.6391 8.80839 30.6142C8.76619 30.5893 8.73141 30.5536 8.70769 30.5107C8.4276 29.9992 7.9965 29.5866 7.47322 29.3292C7.33784 29.264 7.28122 29.1003 7.34769 28.9649C7.41415 28.8295 7.57538 28.7729 7.71199 28.8394C8.3323 29.1421 8.85661 29.6418 9.18646 30.2498C9.20949 30.2912 9.22127 30.3379 9.22062 30.3853C9.21997 30.4326 9.20691 30.479 9.18274 30.5197C9.15858 30.5604 9.12416 30.5941 9.08291 30.6174C9.04167 30.6406 8.99504 30.6527 8.94769 30.6523ZM7.67384 33.6935C7.63814 33.6935 7.6028 33.6864 7.56985 33.6727C7.5369 33.659 7.50699 33.6389 7.48184 33.6135L6.54153 32.6695C6.43446 32.5637 6.43446 32.3914 6.54153 32.2843C6.64861 32.1772 6.82092 32.1784 6.92676 32.2855L7.86707 33.2295C7.91795 33.2807 7.94651 33.35 7.94651 33.4221C7.94651 33.4943 7.91795 33.5636 7.86707 33.6147C7.81511 33.6648 7.74596 33.693 7.67384 33.6935ZM7.40799 36.6707C7.35876 36.6707 7.30953 36.6584 7.26646 36.6314L5.25661 35.4067C5.19492 35.3692 5.15066 35.3087 5.13358 35.2385C5.1165 35.1684 5.12799 35.0943 5.16553 35.0326C5.20307 34.9709 5.26358 34.9266 5.33375 34.9096C5.40391 34.8925 5.47799 34.904 5.53969 34.9415L7.54953 36.1661C7.60036 36.1969 7.63969 36.2435 7.66153 36.2988C7.68337 36.3541 7.6865 36.415 7.67045 36.4722C7.6544 36.5294 7.62005 36.5798 7.57265 36.6157C7.52526 36.6515 7.46742 36.6709 7.40799 36.6707ZM42.7225 36.1464C42.4517 35.9089 42.8098 35.4991 43.0818 35.7366C45.968 38.2671 50.0812 34.1944 51.4449 33.1261C56.9514 28.8184 63.9988 28.1083 64.0369 28.7704C64.0406 28.8425 64.0156 28.9131 63.9674 28.9669C63.9192 29.0206 63.8517 29.0531 63.7797 29.0572C59.4162 29.3041 55.2312 30.8731 51.7809 33.5557C50.688 34.4123 46.0431 39.0547 42.7225 36.1464Z" fill="#252525"/>
<path d="M61.8141 29.4031L61.3686 28.0603C61.2541 27.7194 61.7711 27.5471 61.8855 27.888L62.3311 29.2308C62.4443 29.5705 61.9286 29.7452 61.8141 29.4031ZM59.2714 30.4037L58.6462 28.8886C58.5083 28.5563 59.0142 28.3483 59.1508 28.6806L59.776 30.1957C59.7995 30.2618 59.7967 30.3344 59.7682 30.3984C59.7396 30.4625 59.6876 30.5132 59.6227 30.5399C59.5579 30.5666 59.4852 30.5674 59.4198 30.542C59.3544 30.5167 59.3013 30.4671 59.2714 30.4037ZM55.7292 31.5643L54.9588 30.2708C54.7754 29.9606 55.2431 29.6825 55.4265 29.9914L56.1969 31.2849C56.234 31.3469 56.2449 31.4211 56.2272 31.4912C56.2095 31.5612 56.1648 31.6214 56.1028 31.6585C56.0407 31.6955 55.9665 31.7064 55.8965 31.6887C55.8264 31.6711 55.7663 31.6263 55.7292 31.5643ZM52.6868 33.1778L52.1428 32.0061C52.1124 31.9407 52.1093 31.8659 52.1341 31.7981C52.1589 31.7304 52.2096 31.6753 52.2751 31.6449C52.3405 31.6146 52.4153 31.6114 52.4831 31.6363C52.5508 31.6611 52.6059 31.7118 52.6363 31.7772L53.1803 32.9477C53.204 33.012 53.2027 33.0828 53.1766 33.1462C53.1505 33.2096 53.1015 33.2608 53.0394 33.2898C52.9773 33.3187 52.9066 33.3233 52.8413 33.3026C52.7759 33.2818 52.7208 33.2373 52.6868 33.1778ZM49.6098 35.1372C49.619 34.9074 49.5812 34.6781 49.4989 34.4634C49.4166 34.2486 49.2915 34.0528 49.1311 33.888C48.8775 33.6308 49.264 33.2492 49.5188 33.5052C49.9446 33.936 50.1834 34.5551 50.1551 35.1618C50.1366 35.5286 49.5951 35.4929 49.6098 35.1372ZM46.7175 37.0708L45.6 35.5385C45.3883 35.2455 45.8289 34.928 46.0406 35.2172L47.1582 36.7495C47.2005 36.8081 47.2181 36.881 47.207 36.9524C47.196 37.0239 47.1572 37.0881 47.0991 37.1311C47.0404 37.1733 46.9673 37.1907 46.8959 37.1794C46.8244 37.1681 46.7603 37.1291 46.7175 37.0708ZM52.9748 50.5575C52.6375 50.4381 52.8135 49.9249 53.1557 50.0431C61.2258 52.8886 70.2265 49.0941 73.7871 41.248C73.9372 40.9206 74.4332 41.1458 74.2831 41.4732C70.6191 49.5483 61.3391 53.5052 52.9748 50.5575Z" fill="#252525"/>
<path d="M73.0634 44.4578C73.0192 44.4579 72.9758 44.4471 72.9367 44.4265C72.8977 44.4059 72.8643 44.3761 72.8394 44.3396C72.5595 43.9384 72.1728 43.6238 71.7231 43.4313C71.6568 43.4028 71.6045 43.3494 71.5773 43.2826C71.5501 43.2159 71.5503 43.1411 71.5778 43.0744C71.5917 43.0413 71.612 43.0112 71.6375 42.9859C71.6631 42.9607 71.6934 42.9408 71.7268 42.9274C71.7601 42.914 71.7958 42.9073 71.8317 42.9079C71.8676 42.9084 71.9031 42.916 71.936 42.9304C72.4763 43.1593 72.9563 43.5507 73.2886 44.0307C73.317 44.0716 73.3336 44.1196 73.3367 44.1693C73.3397 44.219 73.329 44.2686 73.3057 44.3127C73.2825 44.3567 73.2476 44.3936 73.2049 44.4192C73.1621 44.4448 73.1132 44.4581 73.0634 44.4578ZM70.6732 46.8738C70.6206 46.874 70.5691 46.8588 70.5249 46.8302C70.4808 46.8016 70.4459 46.7607 70.4246 46.7126C70.1546 46.113 69.6902 45.6221 69.1065 45.3193C68.7852 45.1544 69.0338 44.6707 69.3538 44.8344C70.0509 45.1916 70.6047 45.7766 70.9231 46.4923C70.9522 46.5582 70.954 46.633 70.9282 46.7003C70.9024 46.7677 70.851 46.822 70.7852 46.8516C70.7497 46.8662 70.7116 46.8737 70.6732 46.8738ZM68.3495 49.7698C68.2982 49.7699 68.2479 49.7555 68.2043 49.7283C68.1608 49.7011 68.1258 49.6621 68.1034 49.6159C67.7792 48.9443 67.3219 48.3456 66.7594 47.8559C66.4837 47.6172 66.848 47.211 67.1151 47.4436C67.7305 47.9741 68.2425 48.6436 68.5957 49.3784C68.6113 49.4106 68.6204 49.4456 68.6224 49.4814C68.6245 49.5171 68.6194 49.5529 68.6075 49.5867C68.5956 49.6204 68.5771 49.6515 68.5531 49.6781C68.5291 49.7046 68.5001 49.7262 68.4677 49.7415C68.4311 49.7602 68.3906 49.7699 68.3495 49.7698ZM64.0295 50.9575C64.1088 50.7614 64.1291 50.5464 64.088 50.339C64.0469 50.1315 63.9462 49.9405 63.7982 49.7895C63.7726 49.7645 63.7522 49.7346 63.7381 49.7017C63.7241 49.6688 63.7167 49.6334 63.7164 49.5976C63.716 49.5619 63.7227 49.5263 63.7361 49.4932C63.7495 49.46 63.7694 49.4298 63.7945 49.4043C64.1428 49.0436 64.9698 50.1513 64.5305 51.1729C64.3902 51.5039 63.8868 51.2886 64.0295 50.9575ZM60.2412 51.8326C60.4445 51.3508 60.4577 50.8098 60.2782 50.3187C60.2656 50.2852 60.2598 50.2495 60.2611 50.2137C60.2624 50.178 60.2708 50.1428 60.2858 50.1103C60.3008 50.0778 60.3221 50.0486 60.3485 50.0244C60.3748 50.0001 60.4057 49.9814 60.4394 49.9692C61.0437 49.7329 61.0055 51.4338 60.7422 52.048C60.6018 52.3766 60.0972 52.1649 60.2412 51.8326ZM56.9317 51.4486C57.0604 51.3183 57.1568 51.1598 57.2135 50.9856C57.2701 50.8115 57.2853 50.6265 57.2578 50.4455C57.2519 50.4102 57.2529 50.3741 57.261 50.3393C57.269 50.3045 57.2839 50.2716 57.3047 50.2425C57.3255 50.2134 57.3519 50.1888 57.3823 50.17C57.4127 50.1512 57.4465 50.1385 57.4818 50.1329C58.0825 50.027 57.7785 51.3784 57.312 51.8363C57.0609 52.0873 56.6708 51.7033 56.9317 51.4486ZM54.1945 51.0461L54.7262 50.1046C54.8997 49.7932 55.3785 50.0566 55.2012 50.3729L54.6695 51.3144C54.4923 51.6258 54.016 51.3636 54.1945 51.0461ZM11.6603 51.3919C12.8701 45.243 19.9618 43.7169 20.0012 44.8073C20.0032 44.8794 19.9767 44.9493 19.9273 45.0019C19.878 45.0544 19.8099 45.0854 19.7378 45.0879C17.9412 45.1464 16.2174 45.812 14.8477 46.9761C13.478 48.1402 12.5431 49.7341 12.1957 51.4978C12.1243 51.851 11.5914 51.7464 11.6603 51.3919Z" fill="#252525"/>
<path d="M18.1982 45.8991L17.1803 44.736C16.9452 44.4677 17.3514 44.1058 17.5914 44.3778L18.6092 45.5409C18.6567 45.5954 18.6806 45.6666 18.6757 45.7387C18.6707 45.8108 18.6373 45.878 18.5828 45.9255C18.5283 45.973 18.4571 45.9969 18.385 45.9919C18.3128 45.987 18.2456 45.9536 18.1982 45.8991ZM15.712 47.3428L14.7495 45.8843C14.5514 45.584 15.0068 45.2824 15.2049 45.584L16.1674 47.0424C16.2022 47.1028 16.2127 47.1741 16.1966 47.2419C16.1806 47.3097 16.1393 47.3688 16.0811 47.4071C16.023 47.4454 15.9524 47.4601 15.8838 47.4482C15.8152 47.4362 15.7537 47.3985 15.712 47.3428ZM13.84 48.8283L12.9317 47.6714C12.7089 47.3895 13.1385 47.0498 13.36 47.3354L14.2683 48.4923C14.2905 48.5203 14.3069 48.5524 14.3166 48.5868C14.3264 48.6211 14.3292 48.6571 14.3249 48.6925C14.3207 48.728 14.3095 48.7623 14.292 48.7934C14.2744 48.8245 14.2509 48.8518 14.2228 48.8738C14.1947 48.8962 14.1625 48.9128 14.1281 48.9226C14.0936 48.9324 14.0575 48.9353 14.0219 48.9311C13.9863 48.9268 13.9518 48.9156 13.9206 48.8979C13.8894 48.8803 13.862 48.8566 13.84 48.8283ZM13.7329 50.4246C13.1071 50.0364 12.4106 49.7758 11.6837 49.6578C11.3342 49.6012 11.4043 49.0732 11.7686 49.1188C12.3889 49.2184 14.4406 49.8031 14.1083 50.336C14.0897 50.3667 14.0651 50.3933 14.0361 50.4144C14.007 50.4355 13.9741 50.4506 13.9392 50.4588C13.9042 50.4671 13.868 50.4683 13.8326 50.4624C13.7972 50.4565 13.7633 50.4437 13.7329 50.4246Z" fill="#252525"/>
</svg>
