<svg width="80" height="80" viewBox="0 0 80 80" fill="none" xmlns="http://www.w3.org/2000/svg">
<path d="M37.2222 36.805C37.059 36.805 36.9024 36.7401 36.787 36.6247C36.6716 36.5093 36.6068 36.3528 36.6068 36.1896C36.6068 27.7662 34.3311 28.352 31.0154 22.8677C27.8573 17.6443 27.909 10.6573 31.1459 5.48064C35.9902 -2.26951 43.5853 0.413565 47.0597 5.57049C50.0911 10.0702 50.4222 16.3151 47.8856 21.1102C44.8628 26.8173 41.1299 27.1779 40.3557 36.2413C40.2856 37.0917 39.1262 36.805 37.2222 36.805ZM37.8314 35.5742H39.1902C40.3286 26.1083 43.717 26.3545 46.8 20.5354C49.1311 16.1293 48.8259 10.3926 46.0406 6.25849C43.2099 2.05418 36.6757 -1.03505 32.192 6.13418C29.1951 10.9268 29.1459 17.3957 32.0702 22.2314C35.3502 27.6665 37.6554 27.152 37.8314 35.5742Z" fill="#252525"/>
<path d="M38.3163 79.328C35.68 79.328 33.0117 77.5212 33.0117 74.0677C33.0117 71.9766 34.197 48.064 35.8462 36.1059C35.9606 35.28 36.965 35.5742 40.1723 35.5742C41.8142 35.5742 43.616 72.2179 43.616 74.0665C43.616 75.6837 43.0376 77.0486 41.9447 78.0123C40.9822 78.8603 39.6936 79.328 38.3163 79.328ZM36.9933 36.8049C35.3883 48.8763 34.2437 72.016 34.2437 74.0665C34.2437 79.4326 42.3853 79.4585 42.3853 74.0665C42.3853 72.016 41.2394 48.8751 39.6357 36.8049H36.9933ZM22.9625 79.3686C21.557 79.367 20.2095 78.808 19.2155 77.8143C18.2216 76.8206 17.6623 75.4732 17.6603 74.0677C17.6603 72.6339 18.2819 59.5225 19.2653 47.8437C19.2782 47.69 19.3484 47.5468 19.4619 47.4424C19.5754 47.338 19.724 47.2801 19.8782 47.28C25.424 47.28 26.5834 46.9231 26.6597 47.8437C27.6431 59.536 28.2646 72.6388 28.2646 74.0677C28.2627 75.4732 27.7034 76.8206 26.7094 77.8143C25.7155 78.808 24.368 79.367 22.9625 79.3686ZM20.4456 48.5108C19.493 60.0111 18.8923 72.6671 18.8923 74.0677C18.8923 79.4437 27.0339 79.4486 27.0339 74.0677C27.0339 72.672 26.4345 60.0246 25.4806 48.5108H20.4456Z" fill="#252525"/>
<path d="M25.1237 47.7846L25.4831 6.45169C25.4991 4.77785 25.1619 3.82523 24.4579 3.53723C23.5077 3.14585 22.4726 3.97785 21.6234 5.81415C18.5651 12.431 17.2119 19.7082 17.6874 26.9822C18.1502 33.9926 18.6289 41.2418 22.5674 47.4474C23.0068 48.1378 21.9569 48.7889 21.5286 48.1071C17.4203 41.6357 16.9096 33.8942 16.4591 27.0622C15.9715 19.5832 17.3626 12.1011 20.5059 5.29723C22.16 1.728 24.1465 2.08 24.9231 2.39754C26.7446 3.14092 26.7212 5.64062 26.7139 6.46277L26.3545 47.7969C26.3496 48.6142 25.1188 48.6031 25.1237 47.7846ZM57.7686 79.328C58.9994 79.328 52.464 79.8806 52.464 74.0677C52.464 71.9754 53.6493 48.0591 55.2973 36.1058C55.4117 35.28 56.416 35.5742 59.6246 35.5742C59.7733 35.5743 59.9168 35.6282 60.0288 35.7259C60.1408 35.8236 60.2136 35.9586 60.2339 36.1058C61.8819 48.0591 63.0671 71.9754 63.0671 74.0677C63.0671 75.6849 62.4886 77.0498 61.3957 78.0135C60.4333 78.8603 59.1446 79.328 57.7686 79.328ZM56.4443 36.8049C54.8406 48.8714 53.696 72.016 53.696 74.0665C53.696 79.4265 61.8363 79.4622 61.8363 74.0665C61.8363 72.0148 60.6905 48.8702 59.088 36.8049H56.4443Z" fill="#252525"/>
<path d="M58.5785 36.2892C57.28 31.5495 59.509 28.3188 60.5945 25.7391C63.5791 18.6843 62.3151 10.7557 60.981 3.24432C60.953 3.08339 60.9902 2.91797 61.0843 2.78444C61.1783 2.65092 61.3216 2.56023 61.4825 2.53232C61.6434 2.50441 61.8088 2.54157 61.9424 2.63563C62.0759 2.72968 62.1666 2.87293 62.1945 3.03385L62.224 3.20985C63.4191 10.1132 64.9059 18.704 61.728 26.2179C60.5883 28.8972 58.6056 31.7379 59.765 35.9631C59.9816 36.7471 58.7951 37.072 58.5785 36.2892ZM56.3693 36.7409C56.2744 36.7411 56.1807 36.7194 56.0957 36.6774C56.0106 36.6354 55.9363 36.5743 55.8788 36.4988C55.8212 36.4234 55.7819 36.3357 55.7639 36.2425C55.7458 36.1494 55.7496 36.0533 55.7748 35.9619C56.9342 31.7379 54.9526 28.8972 53.8117 26.2166C50.6351 18.7052 52.1206 10.1157 53.3145 3.21601L53.3453 3.03385C53.3735 2.87319 53.4642 2.73023 53.5975 2.63616C53.7307 2.54209 53.8958 2.50454 54.0566 2.5317C54.4148 2.59324 54.6265 2.86278 54.5268 3.42647C53.0388 12.0332 51.9016 19.3859 55.5643 27.0892C56.6696 29.424 58.0468 32.3311 56.9625 36.2892C56.9267 36.4191 56.8492 36.5336 56.7421 36.6152C56.6349 36.6968 56.5039 36.7409 56.3693 36.7409Z" fill="#252525"/>
<path d="M58.784 18.3397C58.784 2.77909 58.3951 2.23755 59.3994 2.23755C60.4037 2.23755 60.0148 2.77786 60.0148 18.3397C60.0148 19.1508 58.784 19.1532 58.784 18.3397ZM55.9077 18.3397C55.9077 2.77909 55.5188 2.23755 56.5231 2.23755C57.5274 2.23755 57.1385 2.77786 57.1385 18.3397C57.1385 19.1508 55.9077 19.1532 55.9077 18.3397ZM38.2597 13.2468L34.4899 9.47693C34.4613 9.44846 34.4386 9.41461 34.4231 9.37733C34.4076 9.34005 34.3996 9.30007 34.3996 9.2597C34.3996 9.21933 34.4076 9.17936 34.4231 9.14208C34.4386 9.1048 34.4613 9.07095 34.4899 9.04247C34.5184 9.01386 34.5522 8.99115 34.5895 8.97565C34.6268 8.96016 34.6667 8.95218 34.7071 8.95218C34.7475 8.95218 34.7875 8.96016 34.8247 8.97565C34.862 8.99115 34.8959 9.01386 34.9243 9.04247L38.6954 12.8135C38.9834 13.1003 38.5465 13.5335 38.2597 13.2468ZM39.7563 11.3046L36.2708 7.81909C36.2422 7.79061 36.2195 7.75676 36.204 7.71948C36.1885 7.6822 36.1805 7.64223 36.1805 7.60186C36.1805 7.56149 36.1885 7.52151 36.204 7.48423C36.2195 7.44695 36.2422 7.4131 36.2708 7.38463C36.2993 7.35601 36.3331 7.3333 36.3704 7.31781C36.4077 7.30231 36.4477 7.29433 36.488 7.29433C36.5284 7.29433 36.5684 7.30231 36.6057 7.31781C36.6429 7.3333 36.6768 7.35601 36.7053 7.38463L40.1908 10.8714C40.2193 10.8999 40.2418 10.9338 40.2572 10.971C40.2725 11.0083 40.2804 11.0482 40.2804 11.0884C40.2803 11.1287 40.2723 11.1686 40.2568 11.2058C40.2414 11.243 40.2187 11.2768 40.1902 11.3052C40.1617 11.3337 40.1278 11.3562 40.0906 11.3716C40.0533 11.387 40.0134 11.3948 39.9731 11.3948C39.9329 11.3947 39.893 11.3867 39.8558 11.3713C39.8186 11.3558 39.7848 11.3332 39.7563 11.3046ZM41.4597 9.93724L37.8056 6.28309C37.5188 5.99755 37.952 5.5594 38.2413 5.84863L41.8954 9.50278C41.9248 9.53121 41.9482 9.56519 41.9642 9.60275C41.9803 9.64031 41.9887 9.6807 41.989 9.72155C41.9893 9.76241 41.9815 9.80291 41.966 9.8407C41.9504 9.87849 41.9275 9.91282 41.8986 9.94166C41.8697 9.97051 41.8353 9.99331 41.7975 10.0087C41.7596 10.0241 41.7191 10.0319 41.6782 10.0315C41.6374 10.031 41.597 10.0225 41.5595 10.0063C41.522 9.99015 41.4881 9.96667 41.4597 9.93724Z" fill="#252525"/>
<path d="M36.0247 12.9108L39.7465 9.18893C39.7751 9.16032 39.8091 9.13763 39.8464 9.12214C39.8838 9.10666 39.9239 9.09869 39.9643 9.09869C40.0048 9.09869 40.0449 9.10666 40.0822 9.12214C40.1196 9.13763 40.1536 9.16032 40.1822 9.18893C40.2108 9.21753 40.2335 9.2515 40.249 9.28888C40.2645 9.32625 40.2724 9.36632 40.2724 9.40677C40.2724 9.44723 40.2645 9.48729 40.249 9.52467C40.2335 9.56205 40.2108 9.59601 40.1822 9.62462L36.4603 13.3465C36.1711 13.6345 35.7379 13.1963 36.0247 12.9108ZM35.7182 9.53231L39.8523 5.39816C39.881 5.36955 39.9149 5.34686 39.9523 5.33137C39.9897 5.31589 40.0297 5.30792 40.0702 5.30792C40.1106 5.30792 40.1507 5.31589 40.1881 5.33137C40.2255 5.34686 40.2594 5.36955 40.288 5.39816C40.3166 5.42677 40.3393 5.46073 40.3548 5.49811C40.3703 5.53548 40.3783 5.57555 40.3783 5.616C40.3783 5.65646 40.3703 5.69652 40.3548 5.7339C40.3393 5.77128 40.3166 5.80524 40.288 5.83385L36.1539 9.968C35.8646 10.256 35.4314 9.81908 35.7182 9.53231ZM35.5336 11.4363L37.008 9.96185C37.2936 9.67631 37.7317 10.1083 37.4425 10.3975L35.968 11.872C35.68 12.16 35.248 11.7231 35.5336 11.4363ZM39.4031 8.24247L40.5071 7.13723C40.7926 6.8517 41.2308 7.2837 40.9428 7.5717L39.8388 8.67693C39.552 8.9637 39.1151 8.5317 39.4031 8.24247ZM38.965 24.3323C42.8899 21.6554 45.4474 17.0437 45.6357 12.2966C45.6411 12.2158 45.6773 12.14 45.7368 12.0851C45.7963 12.0301 45.8747 12.0001 45.9557 12.0012C45.9961 12.0028 46.0359 12.0124 46.0726 12.0293C46.1093 12.0462 46.1423 12.0703 46.1698 12.1C46.1972 12.1297 46.2185 12.1646 46.2325 12.2025C46.2464 12.2405 46.2528 12.2808 46.2511 12.3212C46.0542 17.2591 43.3957 22.0566 39.3108 24.8406C38.9748 25.0708 38.6302 24.5588 38.965 24.3323Z" fill="#252525"/>
<path d="M45.8166 15.6468L44.2536 14.1957C44.1937 14.1402 44.1583 14.0632 44.1551 13.9816C44.152 13.9 44.1814 13.8205 44.2369 13.7606C44.2924 13.7007 44.3694 13.6653 44.451 13.6622C44.5326 13.6591 44.6121 13.6885 44.672 13.744L46.2351 15.1951C46.5342 15.4732 46.112 15.9237 45.8166 15.6468ZM45.168 18.0419L43.5754 16.7902C43.5111 16.7397 43.4695 16.6658 43.4597 16.5847C43.4498 16.5036 43.4727 16.4219 43.5231 16.3576C43.5735 16.2933 43.6474 16.2516 43.7286 16.2418C43.8097 16.232 43.8914 16.2548 43.9557 16.3052L45.5483 17.5582C45.8683 17.8092 45.4868 18.2929 45.168 18.0419ZM43.8511 20.5637C43.7157 20.318 43.5296 20.1039 43.305 19.9356C43.0805 19.7673 42.8228 19.6487 42.5489 19.5877C42.5094 19.5794 42.4718 19.5633 42.4385 19.5404C42.4052 19.5174 42.3768 19.4881 42.355 19.4541C42.3331 19.4201 42.3182 19.3821 42.3111 19.3423C42.3041 19.3024 42.305 19.2616 42.3139 19.2222C42.3321 19.1431 42.3806 19.0742 42.4488 19.0303C42.5171 18.9864 42.5998 18.9709 42.6794 18.9871C43.4376 19.152 44.9194 20.3336 44.2696 20.6868C44.1977 20.7258 44.1133 20.7348 44.0349 20.7117C43.9565 20.6886 43.8904 20.6354 43.8511 20.5637ZM42.2597 22.7126L41.0449 21.6702C41.0131 21.6441 40.9868 21.612 40.9677 21.5756C40.9485 21.5393 40.9368 21.4994 40.9332 21.4584C40.9297 21.4175 40.9344 21.3762 40.9471 21.3371C40.9598 21.298 40.9802 21.2618 41.0071 21.2307C41.034 21.1997 41.0669 21.1743 41.1037 21.1561C41.1406 21.1379 41.1808 21.1273 41.2218 21.1249C41.2628 21.1225 41.304 21.1283 41.3427 21.1421C41.3815 21.1558 41.4171 21.1772 41.4474 21.2049L42.6597 22.2462C42.9686 22.5096 42.5662 22.9772 42.2597 22.7126ZM40.5379 24.4259L39.52 23.5126C39.4892 23.4858 39.4641 23.4532 39.446 23.4166C39.428 23.38 39.4174 23.3402 39.4149 23.2994C39.4124 23.2587 39.418 23.2179 39.4314 23.1794C39.4448 23.1408 39.4658 23.1053 39.4931 23.075C39.5203 23.0446 39.5534 23.02 39.5902 23.0025C39.6271 22.985 39.6671 22.975 39.7079 22.9732C39.7486 22.9713 39.7893 22.9775 39.8277 22.9915C39.866 23.0056 39.9012 23.0271 39.9311 23.0548L40.9489 23.968C41.0082 24.0229 41.0435 24.0989 41.0472 24.1796C41.0509 24.2603 41.0228 24.3392 40.9688 24.3993C40.9148 24.4594 40.8394 24.4959 40.7588 24.5009C40.6781 24.5058 40.5988 24.4789 40.5379 24.4259ZM20.4468 12.7262C20.56 12.3348 21.1532 12.512 21.0363 12.9009C18.8378 20.3474 18.6835 28.2482 20.5896 35.7748C20.5995 35.814 20.6017 35.8548 20.5959 35.8948C20.5901 35.9348 20.5764 35.9733 20.5557 36.008C20.535 36.0428 20.5077 36.0731 20.4753 36.0973C20.4429 36.1215 20.406 36.139 20.3668 36.1489C19.552 36.3606 16.9502 24.5576 20.4468 12.7262Z" fill="#252525"/>
<path d="M20.6412 15.9299C20.3043 15.4734 19.8256 15.1414 19.28 14.9859C19.2411 14.9748 19.2048 14.9562 19.1731 14.9311C19.1414 14.906 19.115 14.8749 19.0954 14.8396C19.0757 14.8043 19.0632 14.7654 19.0585 14.7253C19.0539 14.6851 19.0572 14.6445 19.0683 14.6056C19.2751 13.8634 21.7243 15.5127 21.072 15.9939C21.0395 16.018 21.0026 16.0355 20.9634 16.0453C20.9241 16.0552 20.8833 16.0572 20.8433 16.0512C20.8033 16.0453 20.7649 16.0315 20.7302 16.0107C20.6955 15.9899 20.6653 15.9624 20.6412 15.9299ZM19.5015 18.9785L18.1957 18.1379C18.127 18.0935 18.0787 18.0236 18.0615 17.9437C18.0443 17.8637 18.0596 17.7801 18.104 17.7114C18.1484 17.6427 18.2183 17.5945 18.2982 17.5773C18.3782 17.5601 18.4617 17.5753 18.5305 17.6197L19.8363 18.4604C19.9001 18.5068 19.9438 18.576 19.9582 18.6536C19.9726 18.7312 19.9568 18.8114 19.914 18.8778C19.8711 18.9441 19.8045 18.9915 19.7278 19.0102C19.6511 19.0289 19.5701 19.0176 19.5015 18.9785ZM19.7403 22.9047L18.4345 22.3434C18.0603 22.1834 18.3052 21.6136 18.6769 21.7785L19.9828 22.3397C20.0217 22.3544 20.0572 22.3768 20.0872 22.4056C20.1172 22.4343 20.1411 22.4689 20.1574 22.5071C20.1737 22.5454 20.1821 22.5865 20.182 22.6281C20.1819 22.6697 20.1735 22.7108 20.1571 22.749C20.1407 22.7872 20.1167 22.8217 20.0866 22.8504C20.0565 22.8791 20.0209 22.9014 19.9819 22.9159C19.943 22.9305 19.9015 22.937 19.86 22.935C19.8184 22.9331 19.7777 22.9228 19.7403 22.9047ZM19.3034 26.2167L18.1157 25.957C17.7243 25.8721 17.8425 25.2739 18.2474 25.3564L19.4351 25.6148C19.6012 25.6505 19.7058 25.8154 19.6689 25.9804C19.6607 26.02 19.6448 26.0577 19.6219 26.0911C19.599 26.1246 19.5697 26.1531 19.5357 26.1751C19.5016 26.1971 19.4636 26.2121 19.4237 26.2192C19.3838 26.2264 19.3429 26.2255 19.3034 26.2167ZM19.7661 30.3361L18.6314 30.0284C18.2425 29.9237 18.3963 29.3317 18.7926 29.4351L19.9274 29.7428C19.968 29.7519 20.0063 29.7691 20.04 29.7934C20.0738 29.8177 20.1022 29.8486 20.1237 29.8842C20.1452 29.9198 20.1592 29.9594 20.165 30.0006C20.1707 30.0417 20.1681 30.0837 20.1572 30.1238C20.1463 30.1639 20.1273 30.2014 20.1015 30.234C20.0757 30.2666 20.0436 30.2937 20.007 30.3135C19.9705 30.3334 19.9303 30.3456 19.8889 30.3495C19.8475 30.3533 19.8057 30.3488 19.7661 30.3361ZM18.9034 33.1361L20.3569 32.9711C20.7594 32.9194 20.832 33.5373 20.4271 33.5828L18.9735 33.7477C18.5625 33.7896 18.5034 33.1828 18.9034 33.1361ZM58.2929 26.5945C56.2978 26.5945 55.1385 22.0161 54.912 19.9828C54.8652 19.5779 55.4794 19.5127 55.5225 19.9139C55.7083 21.5656 56.6794 25.7847 58.3286 25.9804C58.7114 26.0259 58.6757 26.5945 58.2929 26.5945Z" fill="#252525"/>
<path d="M56.6721 26.1465L57.6862 24.9625C57.9508 24.656 58.4173 25.0536 58.1527 25.3625L57.141 26.5453C56.8739 26.8554 56.4099 26.4554 56.6721 26.1465ZM55.2801 23.3785L56.4075 22.4788C56.7324 22.224 57.1041 22.7102 56.7927 22.96L55.6653 23.8597C55.3465 24.1133 54.9638 23.632 55.2801 23.3785ZM54.5145 21.344L56.2659 20.6806C56.6499 20.5379 56.8604 21.1139 56.485 21.2566L54.7336 21.92C54.3459 22.0616 54.1404 21.4856 54.5145 21.344ZM58.0567 79.1213L54.1995 75.264C53.9139 74.9785 54.3459 74.5403 54.6351 74.8283L58.4924 78.6856C58.7804 78.9748 58.3435 79.4068 58.0567 79.1213ZM59.8671 77.2603L56.6487 74.0406C56.3631 73.7551 56.7951 73.3169 57.0844 73.6049L60.3028 76.8246C60.5908 77.1126 60.1527 77.5459 59.8671 77.2603ZM61.1767 73.5914L58.2795 70.6942C57.9915 70.4062 58.4271 69.9717 58.7151 70.2585L61.6124 73.1557C61.8979 73.4425 61.4659 73.8794 61.1767 73.5914ZM62.0333 70.1243L59.2591 67.3502C58.9736 67.0646 59.4056 66.6265 59.6948 66.9145L62.469 69.6886C62.7558 69.9779 62.3188 70.4099 62.0333 70.1243ZM61.3047 65.2345L59.0142 62.944C58.7287 62.6585 59.1607 62.2203 59.4499 62.5083L61.7404 64.7988C62.0284 65.0868 61.5902 65.52 61.3047 65.2345ZM61.205 60.8099L58.8518 58.4554C58.5638 58.1674 59.0019 57.7342 59.2875 58.0197L61.6407 60.3742C61.6693 60.4028 61.692 60.4367 61.7075 60.4741C61.7229 60.5115 61.7309 60.5516 61.7309 60.592C61.7309 60.6325 61.7229 60.6725 61.7075 60.7099C61.692 60.7473 61.6693 60.7813 61.6407 60.8099C61.6121 60.8385 61.5781 60.8612 61.5407 60.8767C61.5034 60.8921 61.4633 60.9001 61.4228 60.9001C61.3824 60.9001 61.3423 60.8921 61.3049 60.8767C61.2676 60.8612 61.2336 60.8385 61.205 60.8099ZM61.8475 57.6529C61.807 57.6531 61.7669 57.6452 61.7296 57.6298C61.6922 57.6144 61.6582 57.5917 61.6296 57.5631L58.7693 54.7028C58.4825 54.4173 58.9158 53.9791 59.205 54.2671L62.0653 57.1274C62.1084 57.1704 62.1378 57.2253 62.1498 57.2851C62.1617 57.3448 62.1556 57.4068 62.1322 57.4631C62.1089 57.5194 62.0694 57.5675 62.0187 57.6013C61.968 57.6351 61.9084 57.6531 61.8475 57.6529ZM60.5268 53.0326L58.2795 50.7853C57.9939 50.4997 58.4259 50.0616 58.7151 50.3496L60.9625 52.5969C61.2505 52.8862 60.8124 53.3182 60.5268 53.0326ZM60.4518 49.0413L58.3607 46.9502C58.0751 46.6646 58.5071 46.2265 58.7964 46.5145L60.8875 48.6056C61.1755 48.8948 60.7385 49.3268 60.4518 49.0413ZM60.1256 45.7773L57.9533 43.6049C57.6678 43.3194 58.0998 42.8813 58.389 43.1693L60.5613 45.3416C60.6191 45.3993 60.6515 45.4777 60.6515 45.5594C60.6515 45.6411 60.6191 45.7195 60.5613 45.7773C60.5035 45.835 60.4252 45.8675 60.3435 45.8675C60.2617 45.8675 60.1834 45.835 60.1256 45.7773ZM59.1078 41.4954L57.9533 40.3409C57.6653 40.0529 58.1035 39.6185 58.389 39.9053L59.5435 41.0597C59.6012 41.1175 59.6337 41.1959 59.6337 41.2776C59.6337 41.3593 59.6012 41.4376 59.5435 41.4954C59.4857 41.5532 59.4073 41.5856 59.3256 41.5856C59.2439 41.5856 59.1655 41.5532 59.1078 41.4954ZM60.0198 40.2856L57.9533 38.2191C57.6678 37.9336 58.0998 37.4954 58.389 37.7834L60.4555 39.8499C60.5132 39.9076 60.5457 39.986 60.5457 40.0677C60.5457 40.1494 60.5132 40.2278 60.4555 40.2856C60.3977 40.3433 60.3193 40.3758 60.2376 40.3758C60.1559 40.3758 60.0775 40.3433 60.0198 40.2856Z" fill="#252525"/>
<path d="M53.8732 77.2776L57.8117 73.3391C58.0972 73.0536 58.5354 73.4856 58.2474 73.7748L54.3089 77.7133C54.0197 78.0013 53.5865 77.5631 53.8732 77.2776ZM57.6258 78.0923L60.5809 75.1373C60.8665 74.8517 61.3046 75.2837 61.0166 75.573L58.0615 78.528C57.7735 78.816 57.3403 78.3791 57.6258 78.0923ZM59.0129 74.0948L61.0006 72.1083C61.2861 71.8216 61.7243 72.2548 61.4363 72.544L59.4486 74.5305C59.1618 74.8173 58.7261 74.3816 59.0129 74.0948ZM58.4431 70.5859L60.5674 68.4628C60.8566 68.1748 61.2898 68.6105 61.0031 68.8985L58.8788 71.0216C58.5895 71.3096 58.1563 70.8726 58.4431 70.5859ZM59.3403 65.9348L61.5606 63.7145C61.8474 63.429 62.2843 63.861 61.9963 64.1502L59.776 66.3705C59.4868 66.6585 59.0548 66.2216 59.3403 65.9348ZM58.7692 60.7951L60.6966 58.8665C60.9821 58.5809 61.4203 59.013 61.1323 59.3022L59.2049 61.2308C58.9157 61.5188 58.4837 61.0806 58.7692 60.7951ZM59.504 58.2917C59.4753 58.2631 59.4526 58.2292 59.4371 58.1918C59.4216 58.1544 59.4136 58.1143 59.4136 58.0739C59.4136 58.0334 59.4216 57.9933 59.4371 57.9559C59.4526 57.9186 59.4753 57.8846 59.504 57.856L61.3366 56.0234C61.6221 55.7379 62.0603 56.1699 61.7723 56.4591L59.9385 58.2917C59.9101 58.3205 59.8762 58.3433 59.8389 58.3589C59.8017 58.3745 59.7616 58.3825 59.7212 58.3825C59.6808 58.3825 59.6408 58.3745 59.6035 58.3589C59.5662 58.3433 59.5324 58.3205 59.504 58.2917ZM58.8517 54.4296L60.2486 53.0326C60.5341 52.7471 60.9723 53.1791 60.6843 53.4683L59.2874 54.8653C58.9981 55.1533 58.5649 54.7163 58.8517 54.4296ZM58.1981 50.0246L60.6757 47.5459C60.9612 47.2603 61.3994 47.6923 61.1114 47.9816L58.6338 50.4603C58.3458 50.7483 57.9126 50.3102 58.1981 50.0246ZM57.872 45.1286L59.6837 43.317C59.9692 43.0314 60.4074 43.4634 60.1194 43.7526L58.3077 45.5643C58.0185 45.8523 57.5852 45.4142 57.872 45.1286ZM57.7809 42.4086V40.6511C57.7809 40.2462 58.3963 40.2437 58.3963 40.6511V42.4086C58.3963 42.8136 57.7809 42.816 57.7809 42.4086ZM58.1169 39.008L60 37.1237C60.2855 36.8382 60.7237 37.2702 60.4357 37.5582L58.5526 39.4425C58.2634 39.7317 57.8314 39.2948 58.1169 39.008ZM37.8289 78.0677L34.944 75.1828C34.6572 74.8973 35.0905 74.4591 35.3785 74.7471L38.2634 77.632C38.2928 77.6604 38.3163 77.6943 38.3325 77.7318C38.3486 77.7693 38.3572 77.8097 38.3576 77.8505C38.358 77.8914 38.3503 77.9319 38.3349 77.9698C38.3194 78.0076 38.2966 78.042 38.2678 78.0709C38.2389 78.0998 38.2046 78.1227 38.1668 78.1383C38.129 78.1538 38.0885 78.1616 38.0477 78.1613C38.0068 78.161 37.9664 78.1526 37.9289 78.1365C37.8913 78.1205 37.8573 78.0971 37.8289 78.0677ZM40.1661 76.3262L37.1458 73.3059C36.8603 73.0203 37.2923 72.5822 37.5815 72.8702L40.6018 75.8905C40.6304 75.9191 40.6531 75.9531 40.6686 75.9904C40.6841 76.0278 40.6921 76.0679 40.6921 76.1083C40.6921 76.1488 40.6841 76.1889 40.6686 76.2262C40.6531 76.2636 40.6304 76.2976 40.6018 76.3262C40.5732 76.3548 40.5393 76.3775 40.5019 76.393C40.4645 76.4085 40.4244 76.4164 40.384 76.4164C40.3435 76.4164 40.3035 76.4085 40.2661 76.393C40.2287 76.3775 40.1947 76.3548 40.1661 76.3262ZM42.1649 73.7551L39.5126 71.1028C39.2258 70.8173 39.6591 70.3791 39.9483 70.6671L42.6006 73.3194C42.8886 73.6086 42.4505 74.0406 42.1649 73.7551ZM41.5594 69.0696L39.4314 66.9416C39.1458 66.656 39.5778 66.2179 39.8671 66.5059L41.9951 68.6339C42.2831 68.9231 41.8449 69.3563 41.5594 69.0696ZM41.7181 65.6382L39.6763 63.5963C39.3908 63.3108 39.8228 62.8726 40.112 63.1606L42.1538 65.2025C42.4418 65.4917 42.0037 65.9237 41.7181 65.6382ZM41.472 61.3133L39.6751 59.5163C39.3895 59.2308 39.8215 58.7926 40.1108 59.0806L41.9077 60.8776C42.1957 61.1668 41.7588 61.5988 41.472 61.3133ZM41.6763 57.9262L39.7575 56.0074C39.472 55.7219 39.904 55.2837 40.1932 55.5717L42.112 57.4905C42.3988 57.7785 41.9618 58.2117 41.6763 57.9262ZM41.5311 54.6806L39.4301 52.581C39.1409 52.2905 39.5828 51.861 39.8658 52.1453L41.9668 54.245C42.0245 54.3027 42.057 54.3811 42.057 54.4628C42.057 54.5445 42.0245 54.6229 41.9668 54.6806C41.909 54.7384 41.8306 54.7709 41.7489 54.7709C41.6672 54.7709 41.5888 54.7384 41.5311 54.6806ZM40.8172 51.0302L38.6141 48.8271C38.3286 48.5416 38.7606 48.1034 39.0498 48.3914L41.2529 50.5945C41.2815 50.6231 41.3042 50.6571 41.3197 50.6944C41.3352 50.7318 41.3431 50.7719 41.3431 50.8123C41.3431 50.8528 41.3352 50.8929 41.3197 50.9302C41.3042 50.9676 41.2815 51.0016 41.2529 51.0302C41.2243 51.0588 41.1903 51.0815 41.153 51.097C41.1156 51.1125 41.0755 51.1204 41.0351 51.1204C40.9946 51.1204 40.9545 51.1125 40.9172 51.097C40.8798 51.0815 40.8458 51.0588 40.8172 51.0302ZM40.9058 47.8536L38.5341 45.4819C38.2474 45.1963 38.6806 44.7582 38.9698 45.0462L41.3415 47.4179C41.6283 47.7071 41.1914 48.1391 40.9058 47.8536ZM41.0252 45.3625L38.8591 43.1976C38.5735 42.9108 39.0055 42.4739 39.2948 42.7619L41.4609 44.9268C41.4895 44.9554 41.5122 44.9894 41.5277 45.0268C41.5432 45.0641 41.5511 45.1042 41.5511 45.1446C41.5511 45.1851 41.5432 45.2252 41.5277 45.2625C41.5122 45.2999 41.4895 45.3339 41.4609 45.3625C41.4323 45.3911 41.3983 45.4138 41.361 45.4293C41.3236 45.4448 41.2835 45.4527 41.2431 45.4527C41.2026 45.4527 41.1625 45.4448 41.1252 45.4293C41.0878 45.4138 41.0538 45.3911 41.0252 45.3625ZM40.3815 41.8622L38.6154 40.096C38.3298 39.8105 38.7618 39.3723 39.0511 39.6603L40.8172 41.4265C41.1052 41.7157 40.6671 42.149 40.3815 41.8622ZM40.2929 38.592L38.6966 36.997C38.4111 36.7114 38.8431 36.2733 39.1323 36.5625L40.7286 38.1576C40.8492 38.2782 40.8492 38.4726 40.7286 38.592C40.608 38.7114 40.4135 38.7126 40.2929 38.592Z" fill="#252525"/>
<path d="M34.4271 77.4757C34.3662 77.4759 34.3066 77.4579 34.2559 77.4241C34.2052 77.3903 34.1656 77.3422 34.1423 77.2859C34.119 77.2296 34.1129 77.1676 34.1248 77.1079C34.1367 77.0481 34.1661 76.9932 34.2092 76.9502L39.3108 71.8487C39.5963 71.5619 40.0345 71.9951 39.7465 72.2844L34.6449 77.3859C34.6164 77.4145 34.5824 77.4372 34.545 77.4526C34.5076 77.468 34.4675 77.4759 34.4271 77.4757ZM37.6357 77.0327L40.8591 73.8093C41.1446 73.5237 41.5828 73.9557 41.2948 74.245L38.0714 77.4684C37.7822 77.7551 37.3502 77.3182 37.6357 77.0327ZM39.4302 70.6684L41.6517 68.448C41.9336 68.1625 42.3766 68.5933 42.0862 68.8837L39.8646 71.104C39.5766 71.3908 39.1446 70.9539 39.4302 70.6684ZM38.7779 65.445L40.56 63.6628C40.8492 63.3748 41.2825 63.8105 40.9957 64.0985L39.2136 65.8807C38.9243 66.1687 38.4923 65.7317 38.7779 65.445ZM39.2677 61.6924L41.3354 59.6247C41.6209 59.3391 42.0591 59.7711 41.7711 60.0604L39.7034 62.128C39.4154 62.416 38.9822 61.9779 39.2677 61.6924ZM39.1865 57.0413L41.0979 55.1299C41.3834 54.8444 41.8216 55.2764 41.5336 55.5656L39.6222 57.477C39.3329 57.765 38.9009 57.3268 39.1865 57.0413ZM38.8591 53.7773L40.5723 52.0653C40.8591 51.7785 41.296 52.2117 41.008 52.501L39.2948 54.213C39.0068 54.501 38.5736 54.0628 38.8591 53.7773ZM38.2892 50.2684L40.5059 48.0517C40.7914 47.7662 41.2296 48.1982 40.9416 48.4862L38.7249 50.7028C38.4357 50.992 38.0025 50.5551 38.2892 50.2684ZM38.4517 46.597L40.6437 44.4037C40.9292 44.1182 41.3674 44.5502 41.0794 44.8394L38.8874 47.0327C38.5994 47.3207 38.1662 46.8825 38.4517 46.597ZM38.6966 42.517L40.0936 41.12C40.3791 40.8333 40.8172 41.2665 40.5292 41.5557L39.1323 42.9527C38.8431 43.2407 38.4099 42.8037 38.6966 42.517ZM38.2068 39.1717L39.5545 37.8253C39.8412 37.5385 40.2782 37.9717 39.9902 38.2597L38.6425 39.6062C38.3532 39.8954 37.9212 39.4573 38.2068 39.1717ZM22.9354 78.7877C22.8538 78.7875 22.7756 78.7552 22.7176 78.6979L20.1982 76.1785C19.9126 75.893 20.3446 75.4548 20.6339 75.7428L23.1532 78.2622C23.1964 78.3052 23.2258 78.3601 23.2377 78.4199C23.2496 78.4796 23.2435 78.5416 23.2202 78.5979C23.1969 78.6542 23.1573 78.7023 23.1066 78.7361C23.0559 78.7699 22.9963 78.7878 22.9354 78.7877ZM24.0099 77.1644L22.2252 75.3797C21.9397 75.0942 22.3717 74.656 22.6609 74.944L24.4456 76.7287C24.7336 77.0179 24.2954 77.4511 24.0099 77.1644ZM25.9791 75.5717L23.8216 73.4154C23.5348 73.1299 23.968 72.6917 24.256 72.9797L26.4136 75.136C26.443 75.1644 26.4665 75.1983 26.4826 75.2358C26.4988 75.2733 26.5074 75.3137 26.5078 75.3546C26.5082 75.3954 26.5005 75.4359 26.485 75.4738C26.4696 75.5116 26.4468 75.546 26.418 75.5749C26.3891 75.6039 26.3548 75.6267 26.317 75.6423C26.2792 75.6578 26.2387 75.6656 26.1979 75.6653C26.157 75.665 26.1166 75.6566 26.0791 75.6405C26.0415 75.6245 26.0075 75.6011 25.9791 75.5717ZM25.9606 72.6056L24.1292 70.773C23.8425 70.4874 24.2757 70.0493 24.5637 70.3373L26.3951 72.1699C26.4245 72.1982 26.448 72.2322 26.4642 72.2697C26.4804 72.3072 26.4889 72.3476 26.4893 72.3884C26.4897 72.4293 26.482 72.4698 26.4666 72.5076C26.4512 72.5455 26.4284 72.5798 26.3995 72.6088C26.3707 72.6377 26.3363 72.6606 26.2986 72.6761C26.2608 72.6916 26.2203 72.6995 26.1794 72.6992C26.1386 72.6989 26.0982 72.6905 26.0606 72.6744C26.023 72.6583 25.9891 72.6349 25.9606 72.6056ZM26.5243 69.1164L24.8652 67.4573C24.5797 67.1717 25.0117 66.7336 25.3009 67.0216L26.96 68.6807C27.248 68.9699 26.8099 69.4031 26.5243 69.1164ZM26.2277 65.9939L24.6203 64.3865C24.3336 64.0997 24.7668 63.6628 25.056 63.9508L26.6634 65.5582C26.692 65.5868 26.7147 65.6208 26.7302 65.6582C26.7457 65.6955 26.7536 65.7356 26.7536 65.776C26.7536 65.8165 26.7457 65.8566 26.7302 65.8939C26.7147 65.9313 26.692 65.9653 26.6634 65.9939C26.6348 66.0225 26.6008 66.0452 26.5635 66.0607C26.5261 66.0762 26.486 66.0841 26.4456 66.0841C26.4051 66.0841 26.365 66.0762 26.3277 66.0607C26.2903 66.0452 26.2563 66.0225 26.2277 65.9939ZM26.432 63.1902L24.9883 61.7465C24.7028 61.4597 25.1348 61.0228 25.424 61.3108L26.8677 62.7545C27.1557 63.0437 26.7176 63.4757 26.432 63.1902ZM26.3705 60.181L24.9883 58.7988C24.7028 58.5133 25.1348 58.0751 25.424 58.3631L26.8062 59.7453C26.8348 59.7739 26.8575 59.8078 26.873 59.8452C26.8884 59.8826 26.8964 59.9227 26.8964 59.9631C26.8964 60.0036 26.8884 60.0436 26.873 60.081C26.8575 60.1184 26.8348 60.1524 26.8062 60.181C26.7776 60.2096 26.7436 60.2323 26.7062 60.2478C26.6688 60.2632 26.6288 60.2712 26.5883 60.2712C26.5479 60.2712 26.5078 60.2632 26.4704 60.2478C26.433 60.2323 26.3991 60.2096 26.3705 60.181ZM26.5859 56.8333L25.3576 55.605C25.072 55.3194 25.504 54.8813 25.7932 55.1693L27.0216 56.3976C27.3096 56.6868 26.8714 57.12 26.5859 56.8333ZM26.064 54.224L24.4357 52.597C24.1489 52.3102 24.5822 51.8745 24.8714 52.1613L26.4997 53.7884C26.7852 54.0751 26.352 54.512 26.064 54.224ZM25.6985 51.5877L24.6819 50.5699C24.3939 50.2819 24.832 49.8487 25.1176 50.1342L26.1342 51.152C26.1628 51.1807 26.1855 51.2146 26.201 51.252C26.2164 51.2894 26.2244 51.3294 26.2244 51.3699C26.2244 51.4103 26.2164 51.4504 26.201 51.4878C26.1855 51.5252 26.1628 51.5591 26.1342 51.5877C26.1056 51.6163 26.0716 51.639 26.0342 51.6545C25.9968 51.67 25.9568 51.678 25.9163 51.678C25.8759 51.678 25.8358 51.67 25.7984 51.6545C25.761 51.639 25.7271 51.6163 25.6985 51.5877Z" fill="#252525"/>
<path d="M20.1378 77.216L23.3391 74.0136C23.6258 73.7281 24.0628 74.1601 23.7748 74.4493L20.5723 77.6517C20.2843 77.9397 19.8511 77.5028 20.1378 77.216ZM22.4701 77.1557L24.8074 74.8185C25.0905 74.533 25.5323 74.9637 25.2431 75.2542L22.9058 77.5902C22.6166 77.8782 22.1846 77.4413 22.4701 77.1557ZM24.3741 73.1028L26.4948 70.9822C26.7803 70.6967 27.2185 71.1287 26.9305 71.4179L24.8098 73.5385C24.5206 73.8265 24.0874 73.3884 24.3741 73.1028ZM24.4357 69.909L26.448 67.8979C26.7348 67.6124 27.1717 68.0444 26.8837 68.3336L24.8714 70.3447C24.5821 70.6327 24.1489 70.1945 24.4357 69.909ZM24.6203 66.4087L26.4898 64.5391C26.7754 64.2536 27.2135 64.6856 26.9243 64.9736L25.056 66.8431C24.7668 67.1324 24.3348 66.6942 24.6203 66.4087ZM24.3741 63.3994L26.1649 61.6087C26.4517 61.3231 26.8886 61.7551 26.6006 62.0444L24.8098 63.8339C24.5206 64.1231 24.0874 63.685 24.3741 63.3994ZM24.5588 60.0222L26.2498 58.3311C26.5354 58.0456 26.9735 58.4776 26.6855 58.7668L24.9945 60.4579C24.7052 60.7459 24.2732 60.3077 24.5588 60.0222ZM24.5588 55.4167L25.9914 53.9828C26.2769 53.696 26.7151 54.1293 26.4271 54.4185L24.9945 55.8524C24.7077 56.1367 24.2708 55.7047 24.5588 55.4167ZM24.3741 53.4511L26.0652 51.7588C26.3508 51.4733 26.7889 51.9053 26.5009 52.1945L24.8098 53.8868C24.5206 54.1748 24.0874 53.7367 24.3741 53.4511ZM24.4357 50.6253L25.9483 49.1127C26.2375 48.8247 26.6708 49.2604 26.384 49.5484L24.8714 51.061C24.5821 51.349 24.1489 50.912 24.4357 50.6253Z" fill="#252525"/>
</svg>
