<svg width="80" height="80" viewBox="0 0 80 80" fill="none" xmlns="http://www.w3.org/2000/svg">
<path d="M33.6886 58.2733C28.9858 58.2733 25.1631 54.6499 22.0468 51.104C11.9102 39.5779 1.34031 23.6296 1.24185 23.4782C0.672001 22.6006 0.489848 21.7133 0.700309 20.8406C1.11508 19.1225 2.93292 17.8733 4.83569 16.7791C11.1306 13.1601 16.8906 8.68181 21.9495 3.47326C22.391 3.01493 22.9206 2.65065 23.5065 2.40233C24.0924 2.15401 24.7224 2.0268 25.3588 2.02833C27.2283 2.02833 28.8837 3.07572 29.6837 4.75941C32.896 11.541 37.84 17.3391 42.6215 22.9453C46.3102 27.2702 50.1231 31.7416 53.1545 36.6634C54.2708 38.4751 55.3526 40.6253 54.9181 42.832C54.5194 44.8603 53.0055 46.3237 51.3575 47.7662C48.4824 50.2814 45.46 52.6232 42.3065 54.7791C39.8006 56.4899 37.0942 58.1674 33.9828 58.2659L33.6886 58.2733ZM25.3588 3.26033C24.4025 3.26033 23.504 3.64064 22.832 4.33233C17.6933 9.62283 11.8426 14.1716 5.44862 17.8474C4.40862 18.4456 2.24369 19.6899 1.89539 21.1299C1.76616 21.669 1.88923 22.2166 2.27323 22.8074C2.37169 22.9588 12.8898 38.8271 22.9698 50.2917C25.9065 53.6296 29.4757 57.0425 33.6886 57.0425L33.9422 57.0388C36.7212 56.9502 39.2542 55.3723 41.6086 53.7637C44.7223 51.6356 47.7065 49.3238 50.5452 46.8406C52.0271 45.5446 53.3834 44.245 53.7083 42.5957C54.0603 40.805 53.0954 38.9194 52.1034 37.3108C49.1225 32.469 45.3403 28.0333 41.6825 23.7453C36.8492 18.0763 31.8523 12.2154 28.5686 5.28741C28.2833 4.67809 27.8293 4.16332 27.2604 3.80406C26.6915 3.4448 26.0316 3.25611 25.3588 3.26033Z" fill="#252525"/>
<path d="M71.5434 77.9705C70.1806 77.9737 68.8388 77.6351 67.6406 76.9859C65.6886 75.9188 64.2929 74.1416 63.0302 72.4124C57.5469 64.9183 53.0879 56.7262 49.7711 48.053C49.7397 47.9771 49.7238 47.8957 49.7243 47.8136C49.7249 47.7315 49.7418 47.6503 49.7742 47.5749C49.8066 47.4994 49.8538 47.4312 49.9129 47.3743C49.9721 47.3173 50.0421 47.2728 50.1187 47.2433C50.1953 47.2138 50.2771 47.2 50.3592 47.2026C50.4412 47.2052 50.522 47.2242 50.5966 47.2584C50.6712 47.2927 50.7382 47.3416 50.7936 47.4021C50.8491 47.4627 50.8918 47.5338 50.9194 47.6111C54.1975 56.1841 58.6048 64.2814 64.0246 71.6887C65.2037 73.3047 66.5009 74.9625 68.2314 75.909C70.3262 77.0536 73.0769 76.997 75.0732 75.7674C77.1212 74.5059 78.3483 72.0764 78.128 69.7231C77.8646 66.9244 75.7969 64.6093 73.5188 62.2868L54.0295 42.4284C53.9229 42.3106 53.8659 42.1561 53.8706 41.9972C53.8753 41.8384 53.9412 41.6875 54.0546 41.5762C54.168 41.4649 54.3201 41.4017 54.479 41.4C54.6379 41.3982 54.7913 41.458 54.9071 41.5668L74.3975 61.4228C76.8382 63.9077 79.0535 66.405 79.3551 69.6062C79.6172 72.416 78.1563 75.312 75.7206 76.8136C74.4615 77.5769 73.0158 77.9773 71.5434 77.9705ZM24.864 13.9237C24.7889 13.9237 24.7138 13.9188 24.6375 13.909C23.728 13.7957 23.0732 13.12 22.8837 12.1022C22.6732 10.9711 23.0855 9.46466 24.1403 8.9022C25.1446 8.36559 26.1711 8.66097 26.7446 9.61605C27.2726 10.4911 27.3366 11.7293 26.8985 12.5588C26.4603 13.3884 25.6628 13.9237 24.864 13.9237ZM25.1434 9.8622C24.9943 9.8698 24.8491 9.91283 24.72 9.98774C24.2548 10.2364 23.9569 11.1373 24.0935 11.8782C24.1846 12.3693 24.4197 12.6425 24.7889 12.688L24.864 12.693C25.2 12.693 25.5902 12.4013 25.8092 11.9828C26.0443 11.541 25.9902 10.7471 25.6898 10.2511C25.5348 9.99266 25.3514 9.8622 25.1434 9.8622Z" fill="#252525"/>
<path d="M38.9341 55.7194C34.0037 55.7194 29.9938 51.9163 26.7237 48.1957C16.128 36.1489 4.96613 19.3317 4.86274 19.1705C4.54027 18.6872 4.32962 18.1381 4.24613 17.5631C4.23037 17.4429 4.25046 17.3207 4.30389 17.2119C4.35731 17.1031 4.44169 17.0124 4.54644 16.9514L4.83198 16.7816C11.1281 13.1629 16.889 8.68406 21.9483 3.47448C22.39 3.01623 22.9199 2.65201 23.5059 2.4037C24.092 2.1554 24.7222 2.02813 25.3587 2.02955C27.2271 2.02955 28.8824 3.07694 29.6824 4.76186C32.8923 11.5372 37.84 17.3403 42.6252 22.9514C46.3126 27.2776 50.1255 31.7489 53.1544 36.6659C54.2695 38.4788 55.3514 40.6289 54.9169 42.8345C54.5181 44.864 53.0043 46.3262 51.3563 47.7674C48.4813 50.2829 45.4589 52.6247 42.3052 54.7803C42.0332 54.9649 41.76 55.1483 41.4831 55.3317C41.4241 55.3708 41.3587 55.3991 41.2898 55.4154C40.6189 55.5853 39.9321 55.6851 39.2406 55.7132L38.9341 55.7194ZM5.55198 17.7883C5.62705 18.0259 5.73905 18.2609 5.89536 18.5009C5.99751 18.6597 17.1052 35.3982 27.6467 47.3834C30.7372 50.896 34.4935 54.4886 38.9341 54.4886L39.2012 54.4849C39.7722 54.4607 40.3395 54.3803 40.8947 54.2449C44.2676 51.9866 47.4915 49.5134 50.5464 46.8406C52.0283 45.5446 53.3846 44.2462 53.7095 42.5957C54.0615 40.8062 53.0966 38.9194 52.1058 37.3108C49.1274 32.4751 45.3452 28.0382 41.6874 23.7489C36.8517 18.0763 31.8511 12.2105 28.5698 5.2874C28.2845 4.67808 27.8305 4.16331 27.2616 3.80405C26.6927 3.44479 26.0328 3.2561 25.36 3.26032C24.4024 3.26032 23.504 3.64186 22.8307 4.33355C17.7203 9.59502 11.9054 14.123 5.55198 17.7883ZM78.1551 70.8997C78.1427 70.8997 78.1292 70.8997 78.1169 70.8972L72.7692 70.2203C72.6884 70.2099 72.615 70.1679 72.565 70.1036C72.515 70.0393 72.4924 69.9578 72.5021 69.8769C72.5231 69.7083 72.6523 69.5791 72.8455 69.6099L78.1932 70.2868C78.2708 70.2966 78.3417 70.3357 78.3915 70.3959C78.4413 70.4562 78.4663 70.5331 78.4615 70.6111C78.4566 70.6892 78.4222 70.7624 78.3653 70.816C78.3084 70.8696 78.2332 70.8995 78.1551 70.8997ZM78.2597 68.8345C78.2474 68.8345 78.2338 68.8345 78.2215 68.832L73.0191 68.1735C72.9383 68.1631 72.8648 68.1212 72.8148 68.0568C72.7648 67.9925 72.7422 67.911 72.752 67.8302C72.7559 67.7896 72.768 67.7503 72.7876 67.7146C72.8072 67.6789 72.8339 67.6476 72.8661 67.6226C72.8982 67.5976 72.9352 67.5794 72.9746 67.5692C73.014 67.5589 73.0551 67.5569 73.0954 67.5631L78.2978 68.2215C78.3754 68.2314 78.4463 68.2704 78.4961 68.3307C78.5459 68.3909 78.5709 68.4679 78.5661 68.5459C78.5612 68.6239 78.5269 68.6972 78.4699 68.7508C78.413 68.8044 78.3378 68.8343 78.2597 68.8345ZM77.0744 66.2191C77.0621 66.2191 77.0486 66.2191 77.0363 66.2166L73.0068 65.7071C72.9259 65.6966 72.8525 65.6547 72.8025 65.5904C72.7525 65.5261 72.7299 65.4446 72.7397 65.3637C72.7606 65.1951 72.8997 65.0671 73.0831 65.0966L77.1126 65.6062C77.1901 65.616 77.261 65.655 77.3109 65.7153C77.3607 65.7755 77.3857 65.8525 77.3809 65.9305C77.376 66.0085 77.3416 66.0818 77.2847 66.1354C77.2278 66.189 77.1526 66.2189 77.0744 66.2191ZM74.7446 63.6222C74.7323 63.6222 74.7188 63.6222 74.7064 63.6197L71.92 63.2665C71.8392 63.256 71.7658 63.2141 71.7158 63.1498C71.6657 63.0854 71.6431 63.004 71.6529 62.9231C71.6562 62.8823 71.668 62.8427 71.6875 62.8068C71.707 62.7708 71.7337 62.7392 71.7659 62.7141C71.7982 62.689 71.8354 62.6709 71.875 62.6609C71.9147 62.6509 71.956 62.6492 71.9963 62.656L74.7828 63.0092C74.8603 63.0191 74.9312 63.0581 74.981 63.1184C75.0308 63.1786 75.0559 63.2556 75.051 63.3336C75.0462 63.4116 75.0118 63.4849 74.9549 63.5385C74.8979 63.5921 74.8228 63.622 74.7446 63.6222ZM73.7255 61.936C73.7132 61.936 73.6997 61.936 73.6874 61.9335L71.0289 61.5975C70.9481 61.5871 70.8747 61.5452 70.8247 61.4808C70.7747 61.4165 70.7521 61.3351 70.7618 61.2542C70.7827 61.0855 70.9231 60.9588 71.1052 60.9871L73.7637 61.3231C73.8412 61.333 73.9121 61.372 73.9619 61.4322C74.0118 61.4925 74.0368 61.5694 74.0319 61.6474C74.0271 61.7255 73.9927 61.7987 73.9358 61.8523C73.8789 61.9059 73.8037 61.9358 73.7255 61.936ZM78.112 73.3563C78.0997 73.3563 78.0861 73.3563 78.0738 73.3539L71.6861 72.5452C71.6053 72.5348 71.5319 72.4928 71.4819 72.4285C71.4319 72.3642 71.4093 72.2827 71.4191 72.2019C71.4228 72.1612 71.4348 72.1218 71.4543 72.086C71.4739 72.0502 71.5006 72.0189 71.5328 71.9938C71.565 71.9688 71.602 71.9506 71.6415 71.9405C71.681 71.9303 71.7222 71.9284 71.7624 71.9348L78.1501 72.7434C78.2277 72.7533 78.2986 72.7923 78.3484 72.8525C78.3982 72.9128 78.4232 72.9897 78.4184 73.0677C78.4135 73.1458 78.3792 73.219 78.3223 73.2726C78.2653 73.3262 78.1902 73.3561 78.112 73.3563ZM75.6123 75.408C75.6 75.408 75.5864 75.408 75.5741 75.4055L71.0412 74.832C70.9604 74.8216 70.887 74.7796 70.837 74.7153C70.787 74.651 70.7644 74.5695 70.7741 74.4886C70.7951 74.32 70.9403 74.1896 71.1175 74.2215L75.6504 74.7951C75.728 74.805 75.7989 74.844 75.8487 74.9042C75.8985 74.9645 75.9236 75.0414 75.9187 75.1194C75.9138 75.1975 75.8795 75.2707 75.8226 75.3243C75.7656 75.3779 75.6905 75.4078 75.6123 75.408Z" fill="#252525"/>
<path d="M72.1132 76.9108C72.0697 76.9106 72.0266 76.9011 71.987 76.8831C71.9473 76.8651 71.9119 76.8389 71.8831 76.8063C71.8543 76.7736 71.8327 76.7352 71.8197 76.6936C71.8068 76.652 71.8028 76.6082 71.808 76.5649L72.4283 71.6702C72.4492 71.5015 72.5871 71.3723 72.7717 71.4031C72.8525 71.4135 72.9259 71.4555 72.9759 71.5198C73.0259 71.5841 73.0485 71.6656 73.0388 71.7465L72.4184 76.6412C72.4092 76.7156 72.373 76.7841 72.3168 76.8337C72.2606 76.8834 72.1882 76.9108 72.1132 76.9108ZM75.1003 75.8622C75.088 75.8622 75.0744 75.8622 75.0621 75.8597C74.9813 75.8492 74.9079 75.8073 74.8579 75.743C74.8079 75.6787 74.7853 75.5972 74.7951 75.5163L75.8178 67.4375C75.8388 67.2689 75.9791 67.1434 76.1612 67.1705C76.242 67.1809 76.3154 67.2229 76.3654 67.2872C76.4155 67.3515 76.4381 67.433 76.4283 67.5138L75.4055 75.5926C75.3962 75.667 75.3601 75.7355 75.3039 75.7851C75.2477 75.8347 75.1753 75.8621 75.1003 75.8622ZM73.888 70.0652C73.8444 70.065 73.8014 70.0556 73.7617 70.0376C73.7221 70.0196 73.6867 69.9934 73.6578 69.9607C73.629 69.9281 73.6074 69.8897 73.5945 69.8481C73.5815 69.8065 73.5775 69.7626 73.5828 69.7194L74.0184 66.2794C74.0394 66.1108 74.1846 65.9815 74.3618 66.0123C74.4426 66.0228 74.516 66.0647 74.5661 66.129C74.6161 66.1933 74.6387 66.2748 74.6289 66.3557L74.1932 69.7957C74.1839 69.8701 74.1478 69.9385 74.0916 69.9882C74.0354 70.0378 73.963 70.0652 73.888 70.0652ZM72.8664 64.2929C72.8541 64.2929 72.8406 64.2929 72.8283 64.2905C72.7474 64.2803 72.6737 64.2385 72.6237 64.1741C72.5736 64.1097 72.5511 64.028 72.5612 63.9471L72.8381 61.7637C72.8591 61.5951 72.9981 61.4695 73.1815 61.4966C73.2623 61.5071 73.3357 61.549 73.3858 61.6133C73.4358 61.6776 73.4584 61.7591 73.4486 61.84L73.1717 64.0234C73.1624 64.0978 73.1262 64.1662 73.07 64.2159C73.0138 64.2655 72.9414 64.2929 72.8664 64.2929ZM71.4461 61.9397C71.4338 61.9397 71.4203 61.9397 71.408 61.9372C71.3272 61.9268 71.2538 61.8848 71.2038 61.8205C71.1537 61.7562 71.1311 61.6747 71.1409 61.5938L71.3317 60.0849C71.3526 59.9163 71.4831 59.7895 71.6751 59.8179C71.7559 59.8283 71.8293 59.8702 71.8793 59.9346C71.9293 59.9989 71.9519 60.0803 71.9421 60.1612L71.7514 61.6702C71.7421 61.7446 71.7059 61.813 71.6497 61.8626C71.5935 61.9123 71.5211 61.9397 71.4461 61.9397ZM54.4148 49.2C54.4025 49.2 54.3889 49.2 54.3766 49.1975L50.5034 48.7077C50.4226 48.6972 50.3492 48.6553 50.2991 48.591C50.2491 48.5267 50.2265 48.4452 50.2363 48.3643C50.2572 48.1957 50.3901 48.0665 50.5797 48.0972L54.4529 48.5871C54.5305 48.5969 54.6014 48.636 54.6512 48.6962C54.701 48.7564 54.726 48.8334 54.7212 48.9114C54.7163 48.9895 54.6819 49.0627 54.625 49.1163C54.5681 49.1699 54.4929 49.1998 54.4148 49.2ZM54.1034 47.5151C54.0911 47.5151 54.0775 47.5151 54.0652 47.5126L51.8006 47.2258C51.7198 47.2154 51.6464 47.1735 51.5964 47.1091C51.5464 47.0448 51.5238 46.9634 51.5335 46.8825C51.5544 46.7138 51.6911 46.5834 51.8769 46.6154L54.1415 46.9022C54.2191 46.912 54.29 46.951 54.3398 47.0113C54.3896 47.0715 54.4146 47.1485 54.4098 47.2265C54.4049 47.3045 54.3706 47.3778 54.3136 47.4314C54.2567 47.485 54.1815 47.5149 54.1034 47.5151ZM55.0621 45.5397C55.0498 45.5397 55.0363 45.5397 55.024 45.5372L53.4154 45.3342C53.3346 45.3237 53.2612 45.2818 53.2111 45.2174C53.1611 45.1531 53.1385 45.0717 53.1483 44.9908C53.1516 44.95 53.1634 44.9104 53.1829 44.8744C53.2023 44.8385 53.2291 44.8069 53.2613 44.7818C53.2936 44.7567 53.3308 44.7386 53.3704 44.7286C53.4101 44.7186 53.4514 44.7169 53.4917 44.7237L55.1003 44.928C55.1762 44.9397 55.245 44.9793 55.2932 45.0391C55.3414 45.0989 55.3654 45.1746 55.3606 45.2513C55.3559 45.3279 55.3226 45.4 55.2673 45.4534C55.2121 45.5068 55.1389 45.5375 55.0621 45.5397ZM55.2148 51.4252C55.2024 51.4252 55.1889 51.4252 55.1766 51.4228L51.5384 50.9625C51.4576 50.952 51.3842 50.9101 51.3342 50.8458C51.2842 50.7814 51.2616 50.7 51.2714 50.6191C51.2911 50.4505 51.4264 50.3212 51.6148 50.352L55.2529 50.8123C55.3305 50.8222 55.4014 50.8612 55.4512 50.9214C55.501 50.9817 55.526 51.0586 55.5212 51.1367C55.5163 51.2147 55.4819 51.2879 55.425 51.3415C55.3681 51.3951 55.2929 51.4251 55.2148 51.4252ZM55.9754 53.7452C55.9631 53.7452 55.9495 53.7452 55.9372 53.7428L52.6178 53.3231C52.537 53.3126 52.4636 53.2707 52.4136 53.2064C52.3636 53.1421 52.341 53.0606 52.3508 52.9797C52.3545 52.9391 52.3665 52.8997 52.386 52.8639C52.4056 52.8281 52.4323 52.7967 52.4645 52.7717C52.4967 52.7466 52.5337 52.7285 52.5732 52.7183C52.6127 52.7081 52.6539 52.7062 52.6941 52.7126L56.0135 53.1323C56.0943 53.1428 56.1677 53.1847 56.2178 53.249C56.2678 53.3133 56.2904 53.3948 56.2806 53.4757C56.2711 53.55 56.2348 53.6183 56.1787 53.6679C56.1225 53.7175 56.0503 53.7449 55.9754 53.7452ZM56.9588 55.8388C56.9464 55.8388 56.9329 55.8388 56.9206 55.8363L53.6849 55.4265C53.5163 55.4043 53.3969 55.2505 53.4178 55.0831C53.4388 54.9157 53.5668 54.7926 53.7612 54.816L56.9969 55.2258C57.0745 55.2357 57.1454 55.2747 57.1952 55.335C57.245 55.3952 57.27 55.4722 57.2652 55.5502C57.2603 55.6282 57.2259 55.7015 57.169 55.7551C57.1121 55.8087 57.0369 55.8386 56.9588 55.8388ZM57.5865 58.4382C57.5741 58.4382 57.5606 58.4382 57.5483 58.4357L54.8086 58.0886C54.7278 58.0782 54.6544 58.0362 54.6044 57.9719C54.5544 57.9076 54.5318 57.8261 54.5415 57.7452C54.5451 57.7045 54.557 57.665 54.5765 57.6292C54.596 57.5933 54.6227 57.5618 54.6549 57.5367C54.6872 57.5117 54.7242 57.4935 54.7638 57.4834C54.8034 57.4734 54.8446 57.4716 54.8849 57.4782L57.6246 57.8252C57.7022 57.8351 57.773 57.8741 57.8229 57.9344C57.8727 57.9946 57.8977 58.0716 57.8929 58.1496C57.888 58.2276 57.8536 58.3009 57.7967 58.3545C57.7398 58.4081 57.6646 58.438 57.5865 58.4382ZM58.2486 60.6191C58.2363 60.6191 58.2228 60.6191 58.2105 60.6166L56.1108 60.3508C55.9421 60.3286 55.8228 60.1748 55.8437 60.0074C55.8646 59.84 56.0049 59.7157 56.1871 59.7403L58.2868 60.0062C58.3643 60.016 58.4352 60.055 58.485 60.1153C58.5349 60.1755 58.5599 60.2525 58.555 60.3305C58.5502 60.4085 58.5158 60.4818 58.4589 60.5354C58.402 60.589 58.3268 60.6189 58.2486 60.6191ZM58.8578 62.2634C58.8455 62.2634 58.832 62.2634 58.8197 62.2609L57.1655 62.0517C57.0847 62.0412 57.0113 61.9993 56.9613 61.935C56.9113 61.8707 56.8887 61.7892 56.8984 61.7083C56.9194 61.5397 57.0584 61.4117 57.2418 61.4412L58.896 61.6505C58.9735 61.6603 59.0444 61.6994 59.0943 61.7596C59.1441 61.8198 59.1691 61.8968 59.1642 61.9748C59.1594 62.0528 59.125 62.1261 59.0681 62.1797C59.0112 62.2333 58.936 62.2632 58.8578 62.2634ZM60.5428 64.2129C60.5305 64.2129 60.5169 64.2129 60.5046 64.2105L58.1181 63.9077C57.9495 63.8855 57.8301 63.7317 57.8511 63.5643C57.872 63.3969 58.0148 63.2726 58.1944 63.2972L60.5809 63.6C60.6617 63.6105 60.7351 63.6524 60.7851 63.7167C60.8352 63.781 60.8577 63.8625 60.848 63.9434C60.8384 64.0177 60.8022 64.086 60.7461 64.1356C60.6899 64.1852 60.6177 64.2126 60.5428 64.2129ZM60.9231 65.9754C60.9108 65.9754 60.8972 65.9754 60.8849 65.9729L59.3415 65.7785C59.2606 65.7683 59.187 65.7265 59.1369 65.6621C59.0868 65.5977 59.0644 65.516 59.0745 65.4351C59.0954 65.2665 59.232 65.1409 59.4178 65.168L60.9612 65.3625C61.0388 65.3723 61.1097 65.4114 61.1595 65.4716C61.2093 65.5318 61.2343 65.6088 61.2295 65.6868C61.2246 65.7648 61.1902 65.8381 61.1333 65.8917C61.0764 65.9453 61.0012 65.9752 60.9231 65.9754Z" fill="#252525"/>
<path d="M53.8905 46.6572C53.8782 46.6572 53.8646 46.6572 53.8523 46.6548C53.7714 46.6446 53.6978 46.6028 53.6477 46.5384C53.5976 46.474 53.5752 46.3923 53.5852 46.3114L53.8043 44.5772C53.808 44.5366 53.82 44.4972 53.8396 44.4614C53.8592 44.4256 53.8859 44.3942 53.9181 44.3692C53.9503 44.3442 53.9873 44.326 54.0268 44.3159C54.0663 44.3057 54.1074 44.3038 54.1477 44.3102C54.2287 44.3203 54.3023 44.3622 54.3523 44.4266C54.4024 44.491 54.4249 44.5726 54.4148 44.6535L54.1957 46.3877C54.1864 46.4621 54.1503 46.5306 54.0941 46.5802C54.0379 46.6298 53.9655 46.6572 53.8905 46.6572ZM52.1834 51.7563C52.1398 51.7561 52.0968 51.7467 52.0572 51.7287C52.0175 51.7107 51.9821 51.6845 51.9533 51.6518C51.9244 51.6192 51.9028 51.5808 51.8899 51.5392C51.877 51.4976 51.873 51.4537 51.8782 51.4105L52.3213 47.9077C52.3422 47.7391 52.4813 47.6136 52.6646 47.6406C52.7454 47.6511 52.8188 47.693 52.8689 47.7573C52.9189 47.8217 52.9415 47.9031 52.9317 47.984L52.4886 51.4868C52.4791 51.5611 52.4429 51.6294 52.3867 51.679C52.3306 51.7285 52.2583 51.756 52.1834 51.7563ZM53.5459 54.9046C53.5336 54.9046 53.52 54.9046 53.5077 54.9022C53.4269 54.8917 53.3535 54.8498 53.3035 54.7855C53.2535 54.7211 53.2309 54.6397 53.2406 54.5588L53.7243 50.7372C53.7453 50.5686 53.8819 50.4382 54.0677 50.4702C54.1485 50.4806 54.2219 50.5226 54.2719 50.5869C54.322 50.6512 54.3445 50.7327 54.3348 50.8136L53.8511 54.6351C53.8415 54.7094 53.8053 54.7777 53.7492 54.8273C53.693 54.8769 53.6208 54.9043 53.5459 54.9046ZM55.1988 58.6363C55.1865 58.6363 55.1729 58.6363 55.1606 58.6339C55.0798 58.6234 55.0064 58.5815 54.9564 58.5172C54.9064 58.4528 54.8838 58.3714 54.8936 58.2905L55.3145 54.9711C55.3182 54.9305 55.3302 54.8911 55.3498 54.8553C55.3693 54.8195 55.396 54.7881 55.4282 54.7631C55.4604 54.738 55.4974 54.7199 55.5369 54.7097C55.5764 54.6995 55.6176 54.6976 55.6579 54.704C55.7387 54.7145 55.8121 54.7564 55.8621 54.8207C55.9121 54.885 55.9347 54.9665 55.9249 55.0474L55.504 58.3668C55.4947 58.4412 55.4586 58.5096 55.4024 58.5593C55.3462 58.6089 55.2738 58.6363 55.1988 58.6363ZM56.5773 61.664C56.5649 61.664 56.5514 61.664 56.5391 61.6616C56.4583 61.6511 56.3849 61.6092 56.3349 61.5448C56.2848 61.4805 56.2623 61.3991 56.272 61.3182L56.7385 57.6357C56.7418 57.595 56.7536 57.5553 56.7731 57.5194C56.7925 57.4834 56.8192 57.4519 56.8515 57.4268C56.8838 57.4017 56.9209 57.3835 56.9606 57.3735C57.0002 57.3635 57.0415 57.3618 57.0819 57.3686C57.1627 57.3791 57.2361 57.421 57.2861 57.4853C57.3361 57.5497 57.3587 57.6311 57.3489 57.712L56.8825 61.3945C56.8732 61.4689 56.837 61.5373 56.7808 61.587C56.7246 61.6366 56.6522 61.664 56.5773 61.664ZM58.5305 64.4628C58.5182 64.4628 58.5046 64.4628 58.4923 64.4603C58.4114 64.4502 58.3378 64.4083 58.2877 64.3439C58.2376 64.2795 58.2152 64.1979 58.2252 64.1169L58.5169 61.8105C58.5203 61.7697 58.5321 61.7301 58.5515 61.6941C58.571 61.6582 58.5977 61.6266 58.63 61.6015C58.6623 61.5764 58.6994 61.5583 58.7391 61.5483C58.7787 61.5383 58.82 61.5366 58.8603 61.5434C58.9411 61.5539 59.0145 61.5958 59.0646 61.6601C59.1146 61.7244 59.1372 61.8059 59.1274 61.8868L58.8357 64.1932C58.8262 64.2675 58.7899 64.3358 58.7338 64.3854C58.6776 64.435 58.6054 64.4625 58.5305 64.4628ZM59.7822 66.5649C59.7699 66.5649 59.7563 66.5649 59.744 66.5625C59.6631 66.5523 59.5895 66.5105 59.5394 66.4461C59.4893 66.3817 59.4668 66.3 59.4769 66.2191L59.7551 64.032C59.776 63.8634 59.9077 63.7342 60.0985 63.7649C60.1793 63.7754 60.2527 63.8173 60.3027 63.8816C60.3527 63.946 60.3753 64.0274 60.3656 64.1083L60.0874 66.2954C60.0781 66.3698 60.042 66.4383 59.9858 66.4879C59.9296 66.5375 59.8572 66.5649 59.7822 66.5649ZM61.4191 68.7459C61.4068 68.7459 61.3933 68.7459 61.3809 68.7434C61.3001 68.733 61.2267 68.691 61.1767 68.6267C61.1267 68.5624 61.1041 68.4809 61.1139 68.4L61.3797 66.3016C61.4006 66.1329 61.5373 66.0062 61.7231 66.0345C61.8039 66.0449 61.8773 66.0869 61.9273 66.1512C61.9773 66.2155 61.9999 66.297 61.9902 66.3779L61.7243 68.4763C61.715 68.5507 61.6789 68.6192 61.6227 68.6688C61.5665 68.7184 61.4941 68.7458 61.4191 68.7459ZM53.2493 39.7674C53.2369 39.7674 53.2234 39.7674 53.2111 39.7649L45.3317 38.768C45.2508 38.7579 45.1772 38.716 45.1271 38.6516C45.077 38.5872 45.0545 38.5056 45.0646 38.4246C45.0843 38.256 45.2197 38.1292 45.408 38.1575L53.2874 39.1545C53.365 39.1643 53.4358 39.2034 53.4857 39.2636C53.5355 39.3238 53.5605 39.4008 53.5557 39.4788C53.5508 39.5568 53.5164 39.6301 53.4595 39.6837C53.4026 39.7373 53.3274 39.7672 53.2493 39.7674ZM50.8025 36.2142C50.7902 36.2142 50.7766 36.2142 50.7643 36.2117L45.2788 35.5175C45.198 35.5071 45.1246 35.4652 45.0746 35.4008C45.0245 35.3365 45.0019 35.2551 45.0117 35.1742C45.0326 35.0056 45.1693 34.8763 45.3551 34.9071L50.8406 35.6012C50.9182 35.6111 50.9891 35.6501 51.0389 35.7104C51.0887 35.7706 51.1138 35.8476 51.1089 35.9256C51.104 36.0036 51.0697 36.0769 51.0128 36.1305C50.9558 36.1841 50.8807 36.214 50.8025 36.2142ZM49.68 32.6425C49.6677 32.6425 49.6542 32.6425 49.6419 32.64L44.7016 32.0148C44.5329 31.9939 44.4136 31.84 44.4345 31.6714C44.4554 31.5028 44.5933 31.3785 44.7779 31.4043L49.7182 32.0295C49.7957 32.0394 49.8666 32.0784 49.9164 32.1387C49.9663 32.1989 49.9913 32.2759 49.9864 32.3539C49.9816 32.4319 49.9472 32.5052 49.8903 32.5588C49.8334 32.6124 49.7582 32.6423 49.68 32.6425ZM46.4111 29.0769C46.3988 29.0769 46.3853 29.0769 46.3729 29.0745L41.9926 28.5206C41.9118 28.5102 41.8384 28.4682 41.7884 28.4039C41.7384 28.3396 41.7158 28.2581 41.7256 28.1772C41.7465 28.0086 41.8757 27.8782 42.0689 27.9102L46.4493 28.464C46.5268 28.4739 46.5977 28.5129 46.6475 28.5731C46.6973 28.6334 46.7224 28.7103 46.7175 28.7884C46.7127 28.8664 46.6783 28.9396 46.6214 28.9932C46.5645 29.0468 46.4893 29.0768 46.4111 29.0769ZM44.0419 25.904C44.0296 25.904 44.016 25.904 44.0037 25.9015L40.4357 25.4499C40.2671 25.4289 40.1477 25.2751 40.1686 25.1065C40.1896 24.9379 40.3299 24.8074 40.512 24.8394L44.08 25.2911C44.1576 25.301 44.2285 25.34 44.2783 25.4002C44.3281 25.4605 44.3531 25.5374 44.3483 25.6154C44.3434 25.6935 44.309 25.7667 44.2521 25.8203C44.1952 25.8739 44.12 25.9038 44.0419 25.904ZM40.6499 21.8597C40.6376 21.8597 40.624 21.8597 40.6117 21.8572L37.5089 21.4646C37.4281 21.4542 37.3547 21.4122 37.3047 21.3479C37.2547 21.2836 37.2321 21.2021 37.2419 21.1212C37.2616 20.9526 37.3969 20.8222 37.5853 20.8542L40.688 21.2468C40.7656 21.2566 40.8365 21.2957 40.8863 21.3559C40.9361 21.4162 40.9611 21.4931 40.9563 21.5711C40.9514 21.6492 40.917 21.7224 40.8601 21.776C40.8032 21.8296 40.728 21.8595 40.6499 21.8597ZM38.3446 18.88C38.3323 18.88 38.3188 18.88 38.3065 18.8775L35.3809 18.5071C35.3001 18.4966 35.2267 18.4547 35.1767 18.3904C35.1267 18.3261 35.1041 18.2446 35.1139 18.1637C35.1348 17.9951 35.2739 17.8671 35.4573 17.8966L38.3828 18.2671C38.4603 18.277 38.5312 18.316 38.5811 18.3762C38.6309 18.4365 38.6559 18.5134 38.6511 18.5914C38.6462 18.6695 38.6118 18.7427 38.5549 18.7963C38.498 18.8499 38.4228 18.8798 38.3446 18.88ZM34.8849 15.4745C34.8726 15.4745 34.8591 15.4745 34.8468 15.472L32.6499 15.1939C32.5691 15.1834 32.4957 15.1415 32.4456 15.0771C32.3956 15.0128 32.373 14.9314 32.3828 14.8505C32.4037 14.6819 32.5403 14.5563 32.7262 14.5834L34.9231 14.8615C35.0006 14.8714 35.0715 14.9104 35.1214 14.9707C35.1712 15.0309 35.1962 15.1079 35.1914 15.1859C35.1865 15.2639 35.1521 15.3372 35.0952 15.3908C35.0383 15.4444 34.9631 15.4743 34.8849 15.4745ZM33.056 12.2782C33.0437 12.2782 33.0302 12.2782 33.0179 12.2757L31.0117 12.0209C30.9309 12.0105 30.8575 11.9685 30.8075 11.9042C30.7575 11.8399 30.7349 11.7584 30.7446 11.6775C30.7656 11.5089 30.9096 11.3785 31.088 11.4105L33.0942 11.6652C33.1717 11.6751 33.2426 11.7141 33.2924 11.7744C33.3423 11.8346 33.3673 11.9116 33.3624 11.9896C33.3576 12.0676 33.3232 12.1409 33.2663 12.1945C33.2094 12.2481 33.1342 12.278 33.056 12.2782ZM32.5145 9.98524C32.5022 9.98524 32.4886 9.98524 32.4763 9.98278L29.8302 9.64678C29.7492 9.63664 29.6756 9.59477 29.6255 9.53038C29.5755 9.46598 29.553 9.38434 29.5631 9.30339C29.584 9.13478 29.7256 9.00801 29.9065 9.03631L32.5526 9.37231C32.6302 9.38218 32.7011 9.4212 32.7509 9.48144C32.8007 9.54169 32.8258 9.61864 32.8209 9.69666C32.816 9.77469 32.7817 9.84794 32.7248 9.90154C32.6678 9.95514 32.5927 9.98506 32.5145 9.98524ZM51.8892 42.4689C51.8769 42.4689 51.8646 42.4689 51.8511 42.4665L44.5169 41.5385C44.3483 41.5163 44.2289 41.3625 44.2499 41.1951C44.2708 41.0277 44.4123 40.9034 44.5932 40.928L51.9274 41.856C52.005 41.8659 52.0758 41.9049 52.1257 41.9651C52.1755 42.0254 52.2005 42.1023 52.1957 42.1804C52.1908 42.2584 52.1564 42.3316 52.0995 42.3852C52.0426 42.4388 51.9674 42.4688 51.8892 42.4689ZM51.2591 45.0769C51.2463 45.0767 51.2336 45.0759 51.2209 45.0745L44.4566 44.2179C44.288 44.1969 44.1686 44.0431 44.1896 43.8745C44.2105 43.7059 44.3471 43.5779 44.5329 43.6074L51.2973 44.464C51.3748 44.4739 51.4457 44.5129 51.4955 44.5731C51.5453 44.6334 51.5704 44.7103 51.5655 44.7884C51.5607 44.8664 51.5263 44.9396 51.4694 44.9932C51.4125 45.0468 51.3373 45.0768 51.2591 45.0769ZM48.544 48.256C48.5317 48.256 48.5194 48.256 48.5059 48.2536L42.9219 47.5471C42.7533 47.5262 42.6339 47.3723 42.6548 47.2037C42.6757 47.0351 42.8148 46.9046 42.9982 46.9366L48.5822 47.6431C48.6597 47.653 48.7306 47.692 48.7804 47.7522C48.8303 47.8125 48.8553 47.8894 48.8504 47.9674C48.8456 48.0455 48.8112 48.1187 48.7543 48.1723C48.6974 48.2259 48.6222 48.2558 48.544 48.256ZM44.9736 51.5114C44.9613 51.5114 44.9477 51.5114 44.9354 51.5089L41.5483 51.0806C41.3797 51.0585 41.2603 50.9046 41.2812 50.7372C41.3022 50.5699 41.4314 50.4456 41.6246 50.4702L45.0117 50.8985C45.0893 50.9083 45.1602 50.9474 45.21 51.0076C45.2598 51.0678 45.2848 51.1448 45.28 51.2228C45.2751 51.3009 45.2407 51.3741 45.1838 51.4277C45.1269 51.4813 45.0517 51.5112 44.9736 51.5114ZM41.6419 53.5926C41.6296 53.5926 41.616 53.5926 41.6037 53.5902L39.6849 53.3477C39.6041 53.3373 39.5307 53.2953 39.4807 53.231C39.4307 53.1667 39.4081 53.0852 39.4179 53.0043C39.4388 52.8357 39.5705 52.7089 39.7612 52.7372L41.68 52.9797C41.7576 52.9896 41.8285 53.0286 41.8783 53.0888C41.9281 53.1491 41.9531 53.226 41.9483 53.3041C41.9434 53.3821 41.909 53.4553 41.8521 53.5089C41.7952 53.5625 41.72 53.5925 41.6419 53.5926Z" fill="#252525"/>
<path d="M40.7594 54.6868C40.7471 54.6868 40.7335 54.6868 40.7212 54.6844C40.6404 54.6739 40.567 54.632 40.517 54.5677C40.467 54.5033 40.4444 54.4219 40.4541 54.341L41.184 48.5798C41.2049 48.4124 41.3329 48.2893 41.5274 48.3127C41.6082 48.3231 41.6816 48.3651 41.7316 48.4294C41.7816 48.4937 41.8042 48.5752 41.7944 48.6561L41.0646 54.4173C41.0553 54.4917 41.0192 54.5601 40.9629 54.6098C40.9067 54.6594 40.8344 54.6868 40.7594 54.6868ZM43.6148 52.6376C43.6024 52.6376 43.5889 52.6376 43.5766 52.6351C43.4958 52.6247 43.4224 52.5827 43.3724 52.5184C43.3223 52.4541 43.2998 52.3726 43.3095 52.2917L44.528 42.6622C44.5317 42.6216 44.5437 42.5822 44.5633 42.5464C44.5828 42.5106 44.6095 42.4792 44.6417 42.4542C44.6739 42.4291 44.7109 42.411 44.7504 42.4008C44.7899 42.3907 44.8311 42.3887 44.8714 42.3951C44.9522 42.4056 45.0256 42.4475 45.0756 42.5118C45.1256 42.5762 45.1482 42.6576 45.1384 42.7385L43.92 52.3681C43.9107 52.4425 43.8745 52.5109 43.8183 52.5605C43.7621 52.6102 43.6897 52.6376 43.6148 52.6376ZM47.8757 49.0056C47.8634 49.0056 47.8498 49.0056 47.8375 49.0031C47.7567 48.9927 47.6833 48.9507 47.6333 48.8864C47.5833 48.8221 47.5607 48.7406 47.5704 48.6597L48.9095 38.0702C48.9304 37.9016 49.0732 37.7748 49.2529 37.8031C49.3337 37.8136 49.4071 37.8555 49.4571 37.9198C49.5072 37.9842 49.5297 38.0656 49.52 38.1465L48.1809 48.7361C48.1716 48.8105 48.1355 48.8789 48.0793 48.9285C48.0231 48.9782 47.9507 49.0056 47.8757 49.0056ZM51.3243 45.1779C51.312 45.1779 51.2984 45.1779 51.2861 45.1754C51.2053 45.165 51.1319 45.123 51.0819 45.0587C51.0319 44.9944 51.0093 44.9129 51.0191 44.8321L51.7255 39.2481C51.7464 39.0794 51.888 38.9514 52.0689 38.981C52.1497 38.9914 52.2231 39.0334 52.2731 39.0977C52.3232 39.162 52.3457 39.2435 52.336 39.3244L51.6295 44.9084C51.6202 44.9828 51.5841 45.0512 51.5279 45.1008C51.4717 45.1505 51.3993 45.1779 51.3243 45.1779ZM45.6775 38.5305C45.6652 38.5305 45.6517 38.5305 45.6394 38.5281C45.5586 38.5176 45.4852 38.4757 45.4351 38.4113C45.3851 38.347 45.3625 38.2656 45.3723 38.1847L45.904 33.9877C45.9237 33.8191 46.0591 33.6899 46.2474 33.7207C46.3282 33.7311 46.4016 33.7731 46.4516 33.8374C46.5016 33.9017 46.5242 33.9832 46.5144 34.0641L45.9828 38.261C45.9735 38.3354 45.9373 38.4038 45.8811 38.4535C45.8249 38.5031 45.7525 38.5305 45.6775 38.5305ZM43.6615 29.5631C43.6492 29.5631 43.6357 29.5631 43.6234 29.5607C43.5426 29.5502 43.4692 29.5083 43.4191 29.444C43.3691 29.3796 43.3465 29.2982 43.3563 29.2173L43.8904 24.9994C43.9114 24.8308 44.0517 24.7004 44.2338 24.7324C44.3146 24.7428 44.388 24.7848 44.4381 24.8491C44.4881 24.9134 44.5107 24.9949 44.5009 25.0757L43.9668 29.2936C43.9572 29.3679 43.921 29.4362 43.8648 29.4858C43.8087 29.5354 43.7364 29.5628 43.6615 29.5631ZM40.3938 25.349C40.3815 25.349 40.368 25.349 40.3557 25.3465C40.2749 25.3361 40.2015 25.2941 40.1515 25.2298C40.1014 25.1655 40.0788 25.084 40.0886 25.0031L40.5046 21.7145C40.5255 21.5459 40.6584 21.4154 40.848 21.4474C40.9288 21.4579 41.0022 21.4998 41.0522 21.5642C41.1022 21.6285 41.1248 21.7099 41.1151 21.7908L40.6991 25.0794C40.6898 25.1538 40.6536 25.2223 40.5974 25.2719C40.5412 25.3216 40.4688 25.349 40.3938 25.349ZM36.9908 20.7471C36.9472 20.7469 36.9042 20.7375 36.8645 20.7195C36.8248 20.7015 36.7894 20.6753 36.7606 20.6426C36.7318 20.61 36.7102 20.5716 36.6973 20.53C36.6843 20.4884 36.6803 20.4445 36.6855 20.4013L37.0215 17.7416C37.0424 17.573 37.184 17.4462 37.3649 17.4745C37.4458 17.4847 37.5195 17.5265 37.5695 17.5909C37.6196 17.6553 37.6421 17.737 37.632 17.8179L37.296 20.4776C37.2867 20.552 37.2505 20.6204 37.1943 20.6701C37.1381 20.7197 37.0657 20.7471 36.9908 20.7471ZM33.9286 16.3742C33.9163 16.3742 33.9028 16.3742 33.8904 16.3717C33.8095 16.3616 33.7359 16.3197 33.6858 16.2553C33.6357 16.191 33.6133 16.1093 33.6234 16.0284L33.9224 13.6591C33.9434 13.4905 34.0874 13.3625 34.2658 13.3921C34.3468 13.4022 34.4204 13.4441 34.4705 13.5085C34.5205 13.5728 34.543 13.6545 34.5329 13.7354L34.2338 16.1047C34.2245 16.1791 34.1884 16.2475 34.1322 16.2972C34.076 16.3468 34.0036 16.3742 33.9286 16.3742ZM30.6966 12.6277C30.6843 12.6277 30.6708 12.6277 30.6584 12.6253C30.5776 12.6148 30.5042 12.5729 30.4542 12.5086C30.4042 12.4443 30.3816 12.3628 30.3914 12.2819L30.7151 9.72682C30.7191 9.68634 30.7313 9.64711 30.751 9.6115C30.7707 9.5759 30.7974 9.54466 30.8295 9.51968C30.8616 9.4947 30.8985 9.47651 30.9378 9.46621C30.9772 9.45591 31.0182 9.45371 31.0584 9.45975C31.1393 9.4702 31.2127 9.51214 31.2627 9.57646C31.3127 9.64077 31.3353 9.72224 31.3255 9.80313L31.0018 12.3582C30.9925 12.4326 30.9564 12.5011 30.9002 12.5507C30.844 12.6003 30.7716 12.6277 30.6966 12.6277ZM27.2111 28.4087C27.1988 28.4087 27.1852 28.4087 27.1729 28.4062L17.7797 27.2173C17.6989 27.2068 17.6255 27.1649 17.5755 27.1006C17.5254 27.0363 17.5028 26.9548 17.5126 26.8739C17.5335 26.7053 17.6701 26.5773 17.856 26.6068L27.2492 27.7957C27.3268 27.8056 27.3977 27.8446 27.4475 27.9049C27.4973 27.9651 27.5223 28.0421 27.5175 28.1201C27.5126 28.1981 27.4782 28.2714 27.4213 28.325C27.3644 28.3786 27.2892 28.4085 27.2111 28.4087ZM27.9569 25.2579C27.9446 25.2579 27.9323 25.2579 27.9188 25.2554L19.9188 24.2425C19.838 24.2321 19.7645 24.1901 19.7145 24.1258C19.6645 24.0615 19.6419 23.98 19.6517 23.8991C19.6726 23.7305 19.8117 23.605 19.9951 23.6321L27.9951 24.645C28.0726 24.6548 28.1435 24.6939 28.1933 24.7541C28.2432 24.8143 28.2682 24.8913 28.2633 24.9693C28.2585 25.0474 28.2241 25.1206 28.1672 25.1742C28.1103 25.2278 28.0351 25.2577 27.9569 25.2579Z" fill="#252525"/>
<path d="M21.44 30.8296C21.4277 30.8296 21.4141 30.8296 21.4018 30.8271C21.321 30.8167 21.2476 30.7747 21.1976 30.7104C21.1476 30.6461 21.125 30.5646 21.1347 30.4837L22.2806 21.44C22.3015 21.2714 22.4307 21.1434 22.624 21.173C22.7048 21.1834 22.7782 21.2254 22.8282 21.2897C22.8782 21.354 22.9008 21.4355 22.8911 21.5163L21.7452 30.56C21.7359 30.6344 21.6998 30.7029 21.6436 30.7525C21.5874 30.8021 21.515 30.8296 21.44 30.8296ZM25.5618 27.568C25.5495 27.568 25.536 27.568 25.5237 27.5656C25.4427 27.5554 25.3691 27.5136 25.319 27.4492C25.269 27.3848 25.2465 27.3031 25.2566 27.2222L25.9618 21.6394C25.9827 21.4708 26.1181 21.3403 26.3052 21.3723C26.386 21.3828 26.4594 21.4247 26.5094 21.4891C26.5595 21.5534 26.582 21.6348 26.5723 21.7157L25.8671 27.2985C25.8575 27.3728 25.8213 27.4411 25.7651 27.4907C25.709 27.5403 25.6367 27.5678 25.5618 27.568ZM18.336 25.3379C18.3237 25.3379 18.3101 25.3379 18.2978 25.3354C18.2169 25.3253 18.1433 25.2834 18.0932 25.219C18.0431 25.1546 18.0207 25.073 18.0307 24.992L18.4591 21.6062C18.48 21.4376 18.6104 21.3083 18.8024 21.3391C18.8834 21.3493 18.957 21.3911 19.0071 21.4555C19.0572 21.5199 19.0796 21.6015 19.0695 21.6825L18.6412 25.0683C18.6319 25.1427 18.5958 25.2112 18.5396 25.2608C18.4834 25.3105 18.411 25.3379 18.336 25.3379Z" fill="#252525"/>
</svg>
