<svg width="80" height="80" viewBox="0 0 80 80" fill="none" xmlns="http://www.w3.org/2000/svg">
<path d="M8.13549 72.8959C9.90533 67.9113 15.5423 66.6547 16.4272 49.2393C16.5527 46.758 16.6709 44.4147 17.1078 42.0491C18.5256 34.363 23.3232 27.2922 29.941 23.1347C30.0094 23.087 30.0867 23.0537 30.1683 23.0369C30.2498 23.02 30.334 23.0199 30.4156 23.0365C30.4973 23.0531 30.5747 23.0861 30.6432 23.1335C30.7117 23.181 30.7698 23.2418 30.8141 23.3123C30.8584 23.3829 30.8879 23.4617 30.9009 23.544C30.9138 23.6263 30.9099 23.7104 30.8893 23.7911C30.8688 23.8719 30.8321 23.9476 30.7814 24.0138C30.7307 24.0799 30.6672 24.135 30.5946 24.1759C24.2647 28.1537 19.6752 34.918 18.3189 42.2719C17.8967 44.5574 17.7786 46.8614 17.6555 49.3008C17.3441 55.4559 17.0204 61.8214 11.8807 69.1236C10.9416 70.4577 7.15579 74.8183 9.92133 77.403C12.517 79.8276 16.8198 76.1377 19.2444 75.1347C27.5656 71.686 36.3669 79.814 44.3472 77.3291C50.2524 75.4928 50.8567 71.3525 60.538 75.2011C62.8506 76.1205 65.0721 76.9057 67.2259 76.5537C69.2543 76.2239 71.2887 74.363 70.9761 72.3642C70.7201 70.7248 69.2149 69.6836 67.6223 68.582C67.034 68.1759 66.4284 67.7562 65.8844 67.302C58.2352 60.9094 62.8149 48.6263 61.8549 40.7765C60.869 32.7199 54.3976 25.6171 46.4678 23.8854C46.3882 23.8689 46.3126 23.8368 46.2454 23.7908C46.1783 23.7449 46.1209 23.6862 46.0766 23.6179C46.0324 23.5497 46.002 23.4734 45.9874 23.3934C45.9728 23.3134 45.9742 23.2313 45.9915 23.1518C46.0089 23.0723 46.0418 22.9971 46.0884 22.9304C46.1349 22.8637 46.1943 22.8069 46.263 22.7633C46.3316 22.7198 46.4082 22.6902 46.4884 22.6764C46.5686 22.6626 46.6507 22.6648 46.7299 22.683C55.1558 24.5205 62.0296 32.0676 63.0758 40.6263C63.4389 43.5925 63.1583 46.5919 62.8875 49.4916C60.9318 70.3371 71.1546 65.5347 72.1921 72.1734C72.6229 74.9427 70.0247 77.3451 67.4229 77.7685C64.9589 78.171 62.5626 77.3316 60.1183 76.3593C50.9552 72.7162 50.9699 76.5574 44.7115 78.5045C35.3219 81.4263 27.2099 71.6663 17.3724 77.5199C9.7441 82.0503 6.61302 77.195 8.13549 72.8959Z" fill="black"/>
<path d="M31.8929 24.143C29.9471 24.143 28.7778 23.7566 28.2166 22.9295C27.7957 22.3092 27.776 21.508 28.1563 20.548C29.4966 17.188 33.8843 18.148 44.6831 18.5443C45.6677 18.5787 47.0154 18.6267 48.0554 19.3652C48.7015 19.8267 49.1434 20.6058 49.2049 21.4009C49.2554 22.0421 49.0498 22.6243 48.6265 23.0378C47.8498 23.796 47.1742 23.8033 41.9151 23.86C40.2178 23.8784 38.0246 23.9018 35.1717 23.9572C34.9255 23.9621 34.5858 23.9904 34.192 24.0224C33.4276 24.0937 32.6606 24.134 31.8929 24.143ZM31.12 19.5683C30.2412 19.8132 29.5606 20.3498 29.2997 21.0046C29.0769 21.5609 29.056 21.9769 29.2345 22.239C29.4425 22.5467 30.0726 22.9123 31.8905 22.9123H31.8917C32.6585 22.9123 33.4523 22.847 34.0886 22.7953C34.5157 22.7609 34.8812 22.7313 35.1446 22.7264C38.0025 22.6723 40.1994 22.6489 41.8991 22.6292C46.5662 22.5787 47.3526 22.559 47.7637 22.1578C47.9668 21.9596 47.9914 21.6889 47.9766 21.4969C47.856 19.9683 46.0012 19.823 44.6375 19.7738C33.6492 19.3713 32.3963 19.2138 31.12 19.5683Z" fill="black"/>
<path d="M29.7378 19.2196C29.6917 19.1532 29.6591 19.0784 29.6418 18.9995C29.6246 18.9205 29.6231 18.8389 29.6373 18.7594C29.6516 18.6798 29.6814 18.6039 29.7251 18.5359C29.7687 18.4678 29.8253 18.4091 29.8917 18.3629C31.2911 17.3882 27.3785 15.5851 25.1914 13.9445C22.5945 11.9999 21.9077 10.0429 21.7908 8.74571C21.6701 7.43371 22.0677 6.17956 22.8775 5.30325C24.3151 3.74879 27.1803 3.25771 29.8732 5.32418C31.056 6.23248 31.9274 7.4091 32.7717 8.54756C32.8688 8.67878 32.9098 8.8432 32.8857 9.00466C32.8616 9.16611 32.7743 9.31137 32.6431 9.40848C32.5118 9.50559 32.3474 9.5466 32.186 9.52248C32.0245 9.49836 31.8793 9.41109 31.7821 9.27987C30.9895 8.2091 30.1674 7.10264 29.1225 6.29895C27.0141 4.68171 24.8406 4.99433 23.7809 6.13771C23.2148 6.74941 22.9292 7.68233 23.0154 8.63248C23.1114 9.68233 23.6948 11.2848 25.9286 12.9599C28.0357 14.5389 30.4726 15.5506 31.1249 16.998C31.4585 17.7389 31.3858 18.822 30.5932 19.3734C30.527 19.4197 30.4523 19.4524 30.3735 19.4697C30.2946 19.4871 30.213 19.4886 30.1335 19.4743C30.0541 19.46 29.9782 19.4301 29.9103 19.3864C29.8424 19.3427 29.7838 19.286 29.7378 19.2196Z" fill="black"/>
<path d="M46.4886 19.7453C45.6271 19.2801 46.3471 18.714 51.2677 9.60749C52.3569 7.59149 52.7569 6.44565 50.7213 4.32626C45.264 -1.36851 44.0616 4.81734 39.8683 2.64872C37.0831 1.20872 37.2308 3.72811 33.2702 4.14657C31.5693 4.32749 30.2646 4.54903 30.2388 5.59395C30.2345 5.75716 30.1656 5.912 30.0472 6.02441C29.9288 6.13682 29.7706 6.19758 29.6074 6.19334C29.4442 6.1891 29.2894 6.12019 29.1769 6.00178C29.0645 5.88338 29.0038 5.72516 29.008 5.56195C29.0806 2.70042 33.0979 3.13611 34.3286 2.74103C34.8259 2.58103 35.3096 2.28565 35.8203 1.97426C40.5219 -0.903277 39.7809 3.32565 43.3539 1.43888C46.4763 -0.212815 49.1569 0.915801 51.6111 3.47457C55.12 7.13488 53.2788 8.47395 47.3231 19.4967C47.2452 19.6402 47.1137 19.7469 46.9572 19.7935C46.8008 19.8401 46.6323 19.8228 46.4886 19.7453ZM53.2123 45.6247C53.1252 45.6248 53.0391 45.6064 52.9596 45.5708C52.8801 45.5351 52.8091 45.483 52.7513 45.4178C52.6935 45.3527 52.6502 45.276 52.6242 45.1928C52.5982 45.1097 52.5902 45.022 52.6006 44.9355C53.7588 35.3478 48.4653 24.9072 41.9114 23.8586C41.8316 23.8458 41.755 23.8174 41.6861 23.7751C41.6173 23.7327 41.5574 23.6772 41.51 23.6117C41.4625 23.5463 41.4285 23.4721 41.4097 23.3934C41.3909 23.3148 41.3879 23.2332 41.4006 23.1533C41.4134 23.0735 41.4418 22.9969 41.4841 22.9281C41.5265 22.8592 41.582 22.7993 41.6475 22.7519C41.713 22.7045 41.7871 22.6704 41.8658 22.6516C41.9444 22.6329 42.026 22.6298 42.1059 22.6426C49.2493 23.786 55.0523 34.901 53.8216 45.082C53.8041 45.2313 53.7324 45.3691 53.6201 45.4691C53.5078 45.5692 53.3627 45.6245 53.2123 45.6247Z" fill="black"/>
<path d="M56.9441 38.64C56.7918 38.6399 56.645 38.5831 56.5322 38.4807C56.4193 38.3784 56.3486 38.2378 56.3336 38.0862C55.6136 30.9022 50.1133 25.7354 44.9798 23.8019C44.9026 23.7745 44.8316 23.732 44.771 23.6769C44.7104 23.6217 44.6615 23.555 44.627 23.4807C44.5926 23.4064 44.5733 23.3259 44.5703 23.2441C44.5674 23.1622 44.5808 23.0805 44.6098 23.0039C44.6388 22.9273 44.6828 22.8573 44.7392 22.7979C44.7957 22.7385 44.8634 22.691 44.9385 22.6581C45.0135 22.6253 45.0943 22.6077 45.1763 22.6065C45.2582 22.6053 45.3395 22.6205 45.4155 22.6511C50.9035 24.7188 56.7853 30.256 57.557 37.9643C57.5656 38.0499 57.5562 38.1363 57.5293 38.218C57.5024 38.2997 57.4586 38.3748 57.4008 38.4385C57.3431 38.5022 57.2726 38.5531 57.1939 38.5878C57.1152 38.6225 57.0301 38.6403 56.9441 38.64ZM20.9958 52.6253L20.9552 52.6228C20.8743 52.6118 20.8011 52.5692 20.7516 52.5044C20.702 52.4396 20.6801 52.3579 20.6906 52.277L21.7872 44.0443C22.2007 40.9416 22.629 37.7354 23.9312 34.7963C25.397 31.488 27.8536 29.0942 30.6684 28.2302C30.7464 28.2062 30.8308 28.2142 30.9029 28.2524C30.975 28.2906 31.029 28.3559 31.053 28.4339C31.077 28.5119 31.069 28.5962 31.0308 28.6684C30.9926 28.7405 30.9273 28.7945 30.8493 28.8185C28.2044 29.632 25.8893 31.9016 24.4949 35.0462C23.2284 37.904 22.8062 41.0671 22.3989 44.1268L21.3023 52.3594C21.2914 52.433 21.2545 52.5003 21.1983 52.5491C21.142 52.5979 21.0702 52.6249 20.9958 52.6253Z" fill="black"/>
<path d="M28.7029 31.135C28.6533 31.1351 28.6044 31.1232 28.5605 31.1002C28.5166 31.0773 28.4788 31.044 28.4506 31.0033C27.9948 30.3521 27.336 29.8704 26.5773 29.6335C26.4149 29.583 26.325 29.4107 26.3755 29.2482C26.4259 29.0858 26.6007 28.9947 26.7607 29.0452C27.6469 29.3209 28.4272 29.8907 28.9564 30.6501C28.9795 30.6833 28.9957 30.7207 29.0043 30.7602C29.0129 30.7997 29.0136 30.8405 29.0064 30.8803C28.9992 30.9201 28.9842 30.9581 28.9623 30.992C28.9405 31.026 28.9121 31.0554 28.8789 31.0784C28.8275 31.1152 28.766 31.135 28.7029 31.135ZM26.2955 34.4433C26.2268 34.4435 26.16 34.4206 26.1059 34.3781L24.0444 32.7646C24.0119 32.7399 23.9846 32.7089 23.9642 32.6736C23.9437 32.6382 23.9305 32.5991 23.9253 32.5586C23.9201 32.5181 23.9231 32.477 23.9339 32.4376C23.9448 32.3983 23.9634 32.3614 23.9886 32.3293C24.0139 32.2972 24.0453 32.2705 24.081 32.2506C24.1166 32.2308 24.1559 32.2182 24.1965 32.2137C24.2371 32.2092 24.2782 32.2128 24.3174 32.2243C24.3565 32.2359 24.393 32.2551 24.4247 32.2809L26.4863 33.8944C26.5181 33.9193 26.5447 33.9502 26.5646 33.9854C26.5845 34.0206 26.5973 34.0593 26.6022 34.0994C26.6071 34.1396 26.6041 34.1802 26.5933 34.2192C26.5825 34.2581 26.5641 34.2946 26.5392 34.3264C26.5096 34.3625 26.4724 34.3917 26.4303 34.4119C26.3882 34.4321 26.3422 34.4428 26.2955 34.4433ZM24.7804 38.7326C24.712 38.733 24.6456 38.71 24.5921 38.6673L22.7792 37.2593C22.7473 37.2346 22.7206 37.2039 22.7006 37.1689C22.6806 37.1338 22.6677 37.0952 22.6627 37.0552C22.6576 37.0152 22.6606 36.9745 22.6713 36.9357C22.682 36.8968 22.7002 36.8604 22.725 36.8286C22.7497 36.7965 22.7805 36.7696 22.8157 36.7495C22.8508 36.7294 22.8896 36.7165 22.9297 36.7114C22.9699 36.7064 23.0107 36.7094 23.0497 36.7202C23.0887 36.731 23.1252 36.7494 23.157 36.7744L24.9699 38.1824C25.0204 38.2218 25.0573 38.2761 25.0755 38.3375C25.0937 38.3989 25.0923 38.4645 25.0714 38.5251C25.0506 38.5857 25.0113 38.6382 24.9591 38.6754C24.907 38.7126 24.8445 38.7326 24.7804 38.7326ZM23.6493 43.0956C23.6067 43.0958 23.5645 43.087 23.5255 43.0699C23.4865 43.0527 23.4515 43.0275 23.4229 42.9959C22.9751 42.5094 22.3592 42.2111 21.6998 42.1615C21.6595 42.1587 21.6201 42.1479 21.5839 42.1297C21.5478 42.1116 21.5156 42.0864 21.4893 42.0558C21.4629 42.0251 21.443 41.9895 21.4305 41.951C21.418 41.9125 21.4134 41.8719 21.4167 41.8316C21.429 41.663 21.5509 41.5375 21.7466 41.5473C22.562 41.6099 23.3233 41.9793 23.877 42.5812C23.9171 42.6253 23.9434 42.6801 23.9529 42.7389C23.9624 42.7977 23.9546 42.858 23.9305 42.9125C23.9064 42.9669 23.867 43.0132 23.8171 43.0458C23.7672 43.0783 23.7089 43.0956 23.6493 43.0956ZM22.7103 47.9756C22.6567 47.9754 22.6042 47.9614 22.5576 47.935L20.6758 46.8593C20.607 46.8178 20.5572 46.7511 20.5369 46.6733C20.5167 46.5955 20.5277 46.513 20.5676 46.4432C20.6074 46.3734 20.673 46.322 20.7503 46.3C20.8275 46.2779 20.9103 46.287 20.981 46.3252L22.8629 47.4009C22.9217 47.4345 22.9678 47.4867 22.994 47.5493C23.0201 47.6119 23.0249 47.6814 23.0075 47.7469C22.9901 47.8125 22.9515 47.8704 22.8977 47.9118C22.844 47.9531 22.7781 47.9756 22.7103 47.9756ZM67.4044 76.8544L56.661 66.1122C56.6032 66.0545 56.5708 65.9761 56.5708 65.8944C56.5708 65.8127 56.6032 65.7343 56.661 65.6766C56.7188 65.6188 56.7972 65.5863 56.8789 65.5863C56.9606 65.5863 57.0389 65.6188 57.0967 65.6766L67.8401 76.4199C67.8687 76.4484 67.8914 76.4823 67.9069 76.5195C67.9224 76.5568 67.9304 76.5968 67.9304 76.6372C67.9304 76.6775 67.9224 76.7175 67.9069 76.7548C67.8914 76.7921 67.8687 76.8259 67.8401 76.8544C67.8115 76.8831 67.7776 76.9058 67.7402 76.9213C67.7028 76.9368 67.6627 76.9448 67.6223 76.9448C67.5818 76.9448 67.5417 76.9368 67.5043 76.9213C67.4669 76.9058 67.433 76.8831 67.4044 76.8544ZM68.837 74.5307L61.1373 66.831C61.108 66.8026 61.0846 66.7686 61.0685 66.731C61.0525 66.6935 61.044 66.6531 61.0437 66.6122C61.0434 66.5714 61.0513 66.5309 61.0668 66.4931C61.0823 66.4553 61.1052 66.421 61.1342 66.3921C61.1631 66.3633 61.1975 66.3405 61.2353 66.3251C61.2731 66.3097 61.3137 66.3019 61.3545 66.3023C61.3954 66.3027 61.4357 66.3113 61.4732 66.3275C61.5108 66.3436 61.5447 66.3671 61.573 66.3966L69.2727 74.0962C69.5607 74.3842 69.1238 74.8175 68.837 74.5307ZM60.6979 75.7442L53.7835 68.8298C53.7549 68.8012 53.7322 68.7672 53.7167 68.7298C53.7012 68.6925 53.6932 68.6524 53.6932 68.6119C53.6932 68.5715 53.7012 68.5314 53.7167 68.494C53.7322 68.4567 53.7549 68.4227 53.7835 68.3941C53.8121 68.3655 53.8461 68.3428 53.8834 68.3273C53.9208 68.3118 53.9609 68.3039 54.0013 68.3039C54.0418 68.3039 54.0818 68.3118 54.1192 68.3273C54.1566 68.3428 54.1906 68.3655 54.2192 68.3941L61.1336 75.3086C61.1622 75.3372 61.1849 75.3711 61.2004 75.4085C61.2159 75.4459 61.2239 75.4859 61.2239 75.5264C61.2239 75.5669 61.2159 75.6069 61.2004 75.6443C61.1849 75.6817 61.1622 75.7156 61.1336 75.7442C61.105 75.7729 61.0711 75.7955 61.0337 75.811C60.9963 75.8265 60.9562 75.8345 60.9158 75.8345C60.8753 75.8345 60.8353 75.8265 60.7979 75.811C60.7605 75.7955 60.7266 75.7729 60.6979 75.7442ZM53.6863 74.0876L49.2284 69.6286C49.1706 69.5708 49.1382 69.4924 49.1382 69.4107C49.1382 69.329 49.1706 69.2506 49.2284 69.1929C49.2862 69.1351 49.3645 69.1026 49.4463 69.1026C49.528 69.1026 49.6063 69.1351 49.6641 69.1929L54.1219 73.6519C54.1797 73.7097 54.2122 73.7881 54.2122 73.8698C54.2122 73.9515 54.1797 74.0299 54.1219 74.0876C54.0642 74.1454 53.9858 74.1779 53.9041 74.1779C53.8224 74.1779 53.744 74.1454 53.6863 74.0876ZM48.9749 74.7326L44.1109 69.8686C44.0823 69.8399 44.0596 69.806 44.0441 69.7686C44.0286 69.7312 44.0206 69.6912 44.0206 69.6507C44.0206 69.6102 44.0286 69.5702 44.0441 69.5328C44.0596 69.4954 44.0823 69.4615 44.1109 69.4329C44.1395 69.4043 44.1734 69.3816 44.2108 69.3661C44.2482 69.3506 44.2883 69.3426 44.3287 69.3426C44.3692 69.3426 44.4092 69.3506 44.4466 69.3661C44.484 69.3816 44.518 69.4043 44.5466 69.4329L49.4106 74.2969C49.6986 74.5861 49.2616 75.0181 48.9749 74.7326ZM44.9552 76.3867L39.6358 71.0673C39.6072 71.0387 39.5845 71.0048 39.569 70.9674C39.5535 70.93 39.5456 70.8899 39.5456 70.8495C39.5456 70.809 39.5535 70.769 39.569 70.7316C39.5845 70.6942 39.6072 70.6602 39.6358 70.6316C39.6644 70.603 39.6984 70.5803 39.7357 70.5648C39.7731 70.5494 39.8132 70.5414 39.8536 70.5414C39.8941 70.5414 39.9342 70.5494 39.9715 70.5648C40.0089 70.5803 40.0429 70.603 40.0715 70.6316L45.3909 75.951C45.6789 76.2402 45.2407 76.6735 44.9552 76.3867ZM40.6438 76.6316L36.2783 72.2661C36.2205 72.2083 36.188 72.13 36.188 72.0482C36.188 71.9665 36.2205 71.8882 36.2783 71.8304C36.336 71.7726 36.4144 71.7402 36.4961 71.7402C36.5778 71.7402 36.6562 71.7726 36.7139 71.8304L41.0795 76.1959C41.3675 76.4852 40.9293 76.9184 40.6438 76.6316ZM36.1761 77.3922C35.9779 77.3922 31.7023 73.0464 31.5619 72.9061C31.5326 72.8777 31.5092 72.8437 31.4931 72.8061C31.4771 72.7686 31.4686 72.7282 31.4683 72.6873C31.4681 72.6465 31.4759 72.606 31.4914 72.5682C31.5069 72.5304 31.5298 72.4961 31.5588 72.4672C31.5877 72.4384 31.6221 72.4156 31.6599 72.4001C31.6978 72.3847 31.7383 72.377 31.7791 72.3774C31.82 72.3778 31.8603 72.3864 31.8979 72.4025C31.9354 72.4187 31.9693 72.4422 31.9976 72.4716L36.3939 76.8679C36.4373 76.9108 36.4668 76.9656 36.4789 77.0254C36.4909 77.0851 36.4848 77.1471 36.4614 77.2034C36.438 77.2597 36.3984 77.3077 36.3476 77.3413C36.2967 77.375 36.237 77.3927 36.1761 77.3922ZM29.6284 75.2089L25.6481 71.2286C25.6195 71.1999 25.5968 71.166 25.5813 71.1286C25.5658 71.0912 25.5579 71.0512 25.5579 71.0107C25.5579 70.9702 25.5658 70.9302 25.5813 70.8928C25.5968 70.8554 25.6195 70.8215 25.6481 70.7929C25.6767 70.7643 25.7107 70.7416 25.7481 70.7261C25.7854 70.7106 25.8255 70.7026 25.8659 70.7026C25.9064 70.7026 25.9465 70.7106 25.9838 70.7261C26.0212 70.7416 26.0552 70.7643 26.0838 70.7929L30.0641 74.7732C30.0927 74.8018 30.1154 74.8357 30.1309 74.8731C30.1464 74.9105 30.1543 74.9506 30.1543 74.991C30.1543 75.0315 30.1464 75.0715 30.1309 75.1089C30.1154 75.1463 30.0927 75.1803 30.0641 75.2089C30.0355 75.2375 30.0015 75.2602 29.9642 75.2756C29.9268 75.2911 29.8867 75.2991 29.8463 75.2991C29.8058 75.2991 29.7657 75.2911 29.7284 75.2756C29.691 75.2602 29.657 75.2375 29.6284 75.2089ZM22.0124 74.7067L19.4918 72.1861C19.4632 72.1575 19.4405 72.1235 19.425 72.0861C19.4095 72.0488 19.4016 72.0087 19.4016 71.9682C19.4016 71.9278 19.4095 71.8877 19.425 71.8503C19.4405 71.813 19.4632 71.779 19.4918 71.7504C19.5204 71.7218 19.5544 71.6991 19.5917 71.6836C19.6291 71.6681 19.6692 71.6602 19.7096 71.6602C19.7501 71.6602 19.7902 71.6681 19.8275 71.6836C19.8649 71.6991 19.8989 71.7218 19.9275 71.7504L22.4481 74.271C22.5059 74.3288 22.5383 74.4072 22.5383 74.4889C22.5383 74.5706 22.5059 74.6489 22.4481 74.7067C22.3903 74.7645 22.312 74.7969 22.2303 74.7969C22.1485 74.7969 22.0702 74.7645 22.0124 74.7067ZM17.0155 76.2649L13.9767 73.2261C13.9481 73.1975 13.9254 73.1635 13.9099 73.1261C13.8945 73.0888 13.8865 73.0487 13.8865 73.0082C13.8865 72.9678 13.8945 72.9277 13.9099 72.8904C13.9254 72.853 13.9481 72.819 13.9767 72.7904C14.0053 72.7618 14.0393 72.7391 14.0767 72.7236C14.114 72.7081 14.1541 72.7002 14.1946 72.7002C14.235 72.7002 14.2751 72.7081 14.3125 72.7236C14.3498 72.7391 14.3838 72.7618 14.4124 72.7904L17.4512 75.8292C17.7392 76.1172 17.301 76.5504 17.0155 76.2649ZM13.621 77.5855L11.2592 75.2236C11.2306 75.195 11.2079 75.1611 11.1924 75.1237C11.1769 75.0863 11.1689 75.0462 11.1689 75.0058C11.1689 74.9653 11.1769 74.9253 11.1924 74.8879C11.2079 74.8505 11.2306 74.8165 11.2592 74.7879C11.2878 74.7593 11.3218 74.7366 11.3591 74.7212C11.3965 74.7057 11.4366 74.6977 11.477 74.6977C11.5175 74.6977 11.5575 74.7057 11.5949 74.7212C11.6323 74.7366 11.6663 74.7593 11.6949 74.7879L14.0567 77.1498C14.3447 77.439 13.9066 77.871 13.621 77.5855ZM61.0389 61.4095C60.9984 61.4096 60.9584 61.4017 60.921 61.3863C60.8836 61.3709 60.8496 61.3482 60.821 61.3196L57.6998 58.1984C57.6712 58.1698 57.6485 58.1358 57.633 58.0985C57.6175 58.0611 57.6096 58.021 57.6096 57.9806C57.6096 57.9401 57.6175 57.9 57.633 57.8627C57.6485 57.8253 57.6712 57.7913 57.6998 57.7627C57.7284 57.7341 57.7624 57.7114 57.7997 57.6959C57.8371 57.6804 57.8772 57.6725 57.9176 57.6725C57.9581 57.6725 57.9982 57.6804 58.0355 57.6959C58.0729 57.7114 58.1069 57.7341 58.1355 57.7627L61.2567 60.8839C61.2999 60.927 61.3293 60.9818 61.3412 61.0416C61.3531 61.1014 61.347 61.1633 61.3237 61.2196C61.3003 61.2759 61.2608 61.324 61.2101 61.3578C61.1594 61.3916 61.0998 61.4096 61.0389 61.4095ZM61.0979 54.5615L58.2598 51.7233C57.9743 51.4378 58.4063 50.9996 58.6955 51.2889L61.5336 54.127C61.563 54.1554 61.5864 54.1894 61.6024 54.227C61.6185 54.2645 61.6269 54.3049 61.6272 54.3458C61.6275 54.3866 61.6197 54.4271 61.6042 54.4649C61.5886 54.5027 61.5658 54.537 61.5368 54.5659C61.5079 54.5947 61.4735 54.6175 61.4357 54.633C61.3978 54.6484 61.3573 54.6561 61.3165 54.6557C61.2756 54.6553 61.2352 54.6467 61.1977 54.6306C61.1602 54.6144 61.1263 54.5909 61.0979 54.5615ZM61.9373 48.7658L59.2198 46.0482C58.9343 45.7627 59.3663 45.3246 59.6555 45.6126L62.373 48.3301C62.4016 48.3587 62.4243 48.3927 62.4398 48.43C62.4553 48.4674 62.4633 48.5075 62.4633 48.5479C62.4633 48.5884 62.4553 48.6285 62.4398 48.6658C62.4243 48.7032 62.4016 48.7372 62.373 48.7658C62.3444 48.7944 62.3105 48.8171 62.2731 48.8326C62.2357 48.848 62.1956 48.856 62.1552 48.856C62.1147 48.856 62.0747 48.848 62.0373 48.8326C61.9999 48.8171 61.9659 48.7944 61.9373 48.7658ZM61.925 43.9584L59.6186 41.6519C59.5892 41.6235 59.5658 41.5895 59.5498 41.552C59.5337 41.5144 59.5253 41.474 59.525 41.4332C59.5247 41.3923 59.5325 41.3518 59.548 41.314C59.5636 41.2762 59.5865 41.2419 59.6154 41.2131C59.6443 41.1842 59.6787 41.1614 59.7165 41.146C59.7544 41.1306 59.7949 41.1228 59.8357 41.1233C59.8766 41.1237 59.917 41.1322 59.9545 41.1484C59.992 41.1646 60.0259 41.188 60.0543 41.2175L62.3607 43.5239C62.4813 43.6446 62.4813 43.839 62.3607 43.9584C62.2401 44.0778 62.0456 44.079 61.925 43.9584Z" fill="black"/>
<path d="M59.3047 43.13L61.9545 40.6303L60.0185 38.6943C59.733 38.4075 60.165 37.9706 60.4542 38.2586L62.6142 40.4186C62.7373 40.5416 62.7336 40.741 62.6081 40.8592L59.7281 43.5755C59.4302 43.8573 59.0105 43.4069 59.3047 43.13ZM58.8998 49.21L61.5385 46.5712C61.8241 46.2844 62.2622 46.7176 61.9742 47.0069L59.3355 49.6456C59.0462 49.9336 58.613 49.4967 58.8998 49.21ZM58.1798 54.282C58.1511 54.2534 58.1284 54.2194 58.1129 54.182C58.0974 54.1446 58.0894 54.1046 58.0894 54.0641C58.0894 54.0236 58.0974 53.9836 58.1129 53.9462C58.1284 53.9088 58.1511 53.8748 58.1798 53.8463L61.0758 50.9503C61.3613 50.6647 61.7995 51.0967 61.5102 51.386L58.6155 54.282C58.5869 54.3106 58.5529 54.3333 58.5156 54.3489C58.4782 54.3644 58.4381 54.3723 58.3976 54.3723C58.3572 54.3723 58.3171 54.3644 58.2797 54.3489C58.2423 54.3333 58.2084 54.3106 58.1798 54.282ZM57.4376 59.8869C57.3767 59.887 57.3171 59.869 57.2664 59.8352C57.2157 59.8014 57.1762 59.7533 57.1528 59.697C57.1295 59.6407 57.1234 59.5788 57.1353 59.519C57.1472 59.4592 57.1766 59.4044 57.2198 59.3613L60.389 56.1921C60.6745 55.9066 61.1127 56.3386 60.8247 56.6278L57.6555 59.797C57.627 59.8257 57.593 59.8485 57.5556 59.8639C57.5182 59.8793 57.4781 59.8872 57.4376 59.8869ZM58.7976 64.6032C58.7367 64.6033 58.6771 64.5853 58.6264 64.5515C58.5757 64.5177 58.5362 64.4696 58.5128 64.4133C58.4895 64.357 58.4834 64.2951 58.4953 64.2353C58.5072 64.1756 58.5366 64.1207 58.5798 64.0776L61.2604 61.397C61.289 61.3684 61.323 61.3457 61.3603 61.3302C61.3977 61.3148 61.4378 61.3068 61.4782 61.3068C61.5187 61.3068 61.5588 61.3148 61.5961 61.3302C61.6335 61.3457 61.6675 61.3684 61.6961 61.397C61.7247 61.4256 61.7474 61.4596 61.7629 61.497C61.7784 61.5344 61.7863 61.5744 61.7863 61.6149C61.7863 61.6553 61.7784 61.6954 61.7629 61.7328C61.7474 61.7701 61.7247 61.8041 61.6961 61.8327L59.0155 64.5133C58.9869 64.5419 58.9529 64.5646 58.9155 64.58C58.8781 64.5955 58.8381 64.6033 58.7976 64.6032ZM60.4752 68.5995C60.4142 68.5996 60.3546 68.5816 60.3039 68.5478C60.2532 68.514 60.2137 68.4659 60.1904 68.4096C60.167 68.3533 60.1609 68.2914 60.1729 68.2316C60.1848 68.1719 60.2142 68.117 60.2573 68.074L63.6038 64.7275C63.8893 64.442 64.3275 64.874 64.0395 65.162L60.693 68.5084C60.6647 68.5375 60.6309 68.5606 60.5934 68.5763C60.556 68.5919 60.5157 68.5998 60.4752 68.5995ZM61.3552 72.517C61.2942 72.5171 61.2346 72.4992 61.1839 72.4653C61.1332 72.4315 61.0937 72.3835 61.0704 72.3272C61.047 72.2709 61.0409 72.2089 61.0529 72.1492C61.0648 72.0894 61.0942 72.0345 61.1373 71.9915L65.5964 67.5324C65.625 67.5038 65.659 67.4811 65.6963 67.4656C65.7337 67.4501 65.7738 67.4422 65.8142 67.4422C65.8547 67.4422 65.8948 67.4501 65.9321 67.4656C65.9695 67.4811 66.0035 67.5038 66.0321 67.5324C66.0607 67.561 66.0834 67.595 66.0989 67.6324C66.1144 67.6697 66.1223 67.7098 66.1223 67.7503C66.1223 67.7907 66.1144 67.8308 66.0989 67.8682C66.0834 67.9055 66.0607 67.9395 66.0321 67.9681L61.573 72.4272C61.515 72.4845 61.4367 72.5168 61.3552 72.517ZM63.1349 75.029L68.2561 69.9078C68.2847 69.8792 68.3187 69.8565 68.356 69.841C68.3934 69.8255 68.4335 69.8176 68.4739 69.8176C68.5144 69.8176 68.5545 69.8255 68.5918 69.841C68.6292 69.8565 68.6632 69.8792 68.6918 69.9078C68.7204 69.9364 68.7431 69.9704 68.7586 70.0077C68.774 70.0451 68.782 70.0852 68.782 70.1256C68.782 70.1661 68.774 70.2062 68.7586 70.2435C68.7431 70.2809 68.7204 70.3149 68.6918 70.3435L63.5705 75.4647C63.2813 75.7527 62.8493 75.3146 63.1349 75.029ZM54.5835 73.5103L58.6659 69.4266C58.7237 69.3688 58.8021 69.3363 58.8838 69.3363C58.9655 69.3363 59.0438 69.3688 59.1016 69.4266C59.1594 69.4843 59.1919 69.5627 59.1919 69.6444C59.1919 69.7261 59.1594 69.8045 59.1016 69.8623L55.0192 73.946C54.7299 74.234 54.2979 73.7958 54.5835 73.5103ZM49.6272 73.5903L54.5835 68.6339C54.6121 68.6053 54.646 68.5827 54.6834 68.5672C54.7208 68.5517 54.7609 68.5437 54.8013 68.5437C54.8418 68.5437 54.8818 68.5517 54.9192 68.5672C54.9566 68.5827 54.9906 68.6053 55.0192 68.6339C55.0478 68.6626 55.0705 68.6965 55.0859 68.7339C55.1014 68.7713 55.1094 68.8113 55.1094 68.8518C55.1094 68.8923 55.1014 68.9323 55.0859 68.9697C55.0705 69.0071 55.0478 69.041 55.0192 69.0696L50.0629 74.026C49.7761 74.3115 49.3367 73.8795 49.6272 73.5903ZM43.9509 75.9878L49.0278 70.9121C49.0856 70.8543 49.1639 70.8219 49.2456 70.8219C49.3273 70.8219 49.4057 70.8543 49.4635 70.9121C49.5212 70.9699 49.5537 71.0482 49.5537 71.13C49.5537 71.2117 49.5212 71.29 49.4635 71.3478L44.3865 76.4235C44.0985 76.7115 43.6653 76.2733 43.9509 75.9878ZM38.197 75.8278L44.6069 69.418C44.6355 69.3893 44.6694 69.3667 44.7068 69.3512C44.7442 69.3357 44.7842 69.3277 44.8247 69.3277C44.8652 69.3277 44.9052 69.3357 44.9426 69.3512C44.98 69.3667 45.0139 69.3893 45.0425 69.418C45.0712 69.4466 45.0938 69.4805 45.1093 69.5179C45.1248 69.5553 45.1328 69.5953 45.1328 69.6358C45.1328 69.6763 45.1248 69.7163 45.1093 69.7537C45.0938 69.7911 45.0712 69.825 45.0425 69.8536L38.6327 76.2635C38.3435 76.5515 37.9102 76.1146 38.197 75.8278ZM39.6358 77.7466L42.8235 74.5589C43.109 74.2733 43.5472 74.7053 43.2592 74.9946L40.0715 78.1823C39.7822 78.4703 39.349 78.0321 39.6358 77.7466ZM33.3207 76.3078L37.0056 72.6229C37.0634 72.5651 37.1418 72.5326 37.2235 72.5326C37.3052 72.5326 37.3835 72.5651 37.4413 72.6229C37.4991 72.6806 37.5316 72.759 37.5316 72.8407C37.5316 72.9224 37.4991 73.0008 37.4413 73.0586L33.7564 76.7435C33.4672 77.0315 33.0339 76.5933 33.3207 76.3078ZM27.0856 75.269L29.8032 72.5515C29.8316 72.5229 29.8655 72.5002 29.9028 72.4847C29.94 72.4692 29.98 72.4612 30.0204 72.4612C30.0608 72.4612 30.1007 72.4692 30.138 72.4847C30.1753 72.5002 30.2091 72.5229 30.2376 72.5515C30.2662 72.58 30.2889 72.6138 30.3044 72.6511C30.3199 72.6884 30.3279 72.7283 30.3279 72.7687C30.3279 72.8091 30.3199 72.8491 30.3044 72.8863C30.2889 72.9236 30.2662 72.9575 30.2376 72.9859L27.5201 75.7035C27.2321 75.9915 26.8001 75.5546 27.0856 75.269ZM22.2093 74.869L26.0469 71.0315C26.1046 70.9737 26.183 70.9413 26.2647 70.9413C26.3464 70.9413 26.4248 70.9737 26.4825 71.0315C26.5403 71.0893 26.5728 71.1676 26.5728 71.2493C26.5728 71.331 26.5403 71.4094 26.4825 71.4672L22.645 75.3047C22.357 75.5927 21.9238 75.1546 22.2093 74.869ZM17.5742 75.5878L20.8912 72.2709C21.1767 71.9853 21.6149 72.4173 21.3269 72.7066L18.0099 76.0235C17.7207 76.3115 17.2875 75.8746 17.5742 75.5878ZM13.3367 76.6278L17.1016 72.8629C17.1302 72.8343 17.1642 72.8116 17.2016 72.7961C17.239 72.7806 17.279 72.7726 17.3195 72.7726C17.3599 72.7726 17.4 72.7806 17.4374 72.7961C17.4747 72.8116 17.5087 72.8343 17.5373 72.8629C17.5659 72.8915 17.5886 72.9254 17.6041 72.9628C17.6196 73.0002 17.6276 73.0403 17.6276 73.0807C17.6276 73.1212 17.6196 73.1612 17.6041 73.1986C17.5886 73.236 17.5659 73.27 17.5373 73.2986L13.7724 77.0635C13.4844 77.3503 13.0512 76.9133 13.3367 76.6278ZM9.82039 77.1066L12.9638 73.9632C12.9924 73.9346 13.0263 73.9119 13.0637 73.8964C13.1011 73.8809 13.1412 73.8729 13.1816 73.8729C13.2221 73.8729 13.2621 73.8809 13.2995 73.8964C13.3369 73.9119 13.3709 73.9346 13.3995 73.9632C13.4281 73.9918 13.4508 74.0258 13.4663 74.0631C13.4817 74.1005 13.4897 74.1406 13.4897 74.181C13.4897 74.2215 13.4817 74.2615 13.4663 74.2989C13.4508 74.3363 13.4281 74.3703 13.3995 74.3989L10.2561 77.5423C9.96809 77.829 9.53363 77.3946 9.82039 77.1066ZM9.18039 73.0303L11.3072 70.9023C11.5927 70.6167 12.0309 71.0487 11.7429 71.338L9.61486 73.466C9.32809 73.754 8.89486 73.317 9.18039 73.0303ZM46.7939 18.3152C46.5958 18.3152 41.7589 13.4069 41.6185 13.2666C41.5892 13.2381 41.5658 13.2042 41.5497 13.1666C41.5337 13.129 41.5252 13.0886 41.5249 13.0478C41.5247 13.0069 41.5325 12.9664 41.548 12.9286C41.5635 12.8909 41.5864 12.8565 41.6154 12.8277C41.6443 12.7988 41.6787 12.776 41.7165 12.7606C41.7543 12.7452 41.7949 12.7375 41.8357 12.7379C41.8766 12.7383 41.9169 12.7468 41.9545 12.763C41.992 12.7792 42.0259 12.8027 42.0542 12.8321L47.0118 17.7909C47.0545 17.834 47.0835 17.8887 47.0952 17.9483C47.1069 18.0078 47.1007 18.0695 47.0774 18.1255C47.0541 18.1816 47.0148 18.2295 46.9643 18.2632C46.9139 18.297 46.8546 18.315 46.7939 18.3152ZM47.6382 15.0056C47.4315 15.0056 44.4961 11.9915 44.3472 11.8426C44.2894 11.7848 44.2569 11.7064 44.2569 11.6247C44.2569 11.543 44.2894 11.4646 44.3472 11.4069C44.4049 11.3491 44.4833 11.3166 44.565 11.3166C44.6467 11.3166 44.7251 11.3491 44.7829 11.4069L47.8561 14.4801C47.8992 14.5231 47.9286 14.578 47.9405 14.6378C47.9525 14.6975 47.9464 14.7595 47.923 14.8158C47.8997 14.8721 47.8602 14.9202 47.8095 14.954C47.7588 14.9878 47.6992 15.0058 47.6382 15.0056ZM49.493 12.1232L46.8985 9.52872C46.6118 9.24318 47.045 8.80503 47.3342 9.09426L49.9287 11.6887C50.2167 11.9767 49.7798 12.41 49.493 12.1232ZM50.5515 8.96872L48.6192 7.03641C48.5906 7.0078 48.5679 6.97384 48.5524 6.93646C48.5369 6.89908 48.5289 6.85902 48.5289 6.81857C48.5289 6.77811 48.5369 6.73805 48.5524 6.70067C48.5679 6.66329 48.5906 6.62933 48.6192 6.60072C48.6769 6.54294 48.7553 6.51048 48.837 6.51048C48.8775 6.51048 48.9175 6.51845 48.9549 6.53394C48.9923 6.54942 49.0262 6.57211 49.0549 6.60072L50.9872 8.53303C51.2752 8.82226 50.837 9.25549 50.5515 8.96872ZM51.9459 7.33918L49.8056 5.19764C49.7763 5.16922 49.7529 5.13523 49.7368 5.09767C49.7207 5.06011 49.7123 5.01972 49.712 4.97887C49.7117 4.93801 49.7196 4.89751 49.7351 4.85972C49.7506 4.82193 49.7735 4.78761 49.8024 4.75876C49.8314 4.72991 49.8658 4.70711 49.9036 4.6917C49.9414 4.67628 49.982 4.66855 50.0228 4.66896C50.0637 4.66937 50.104 4.67792 50.1415 4.69409C50.1791 4.71027 50.213 4.73376 50.2413 4.76318L52.3816 6.90472C52.4102 6.9332 52.433 6.96705 52.4484 7.00433C52.4639 7.0416 52.4719 7.08158 52.4719 7.12195C52.4719 7.16232 52.4639 7.20229 52.4484 7.23957C52.433 7.27685 52.4102 7.3107 52.3816 7.33918C52.353 7.36783 52.3191 7.39057 52.2817 7.40608C52.2443 7.42159 52.2043 7.42958 52.1638 7.42958C52.1233 7.42958 52.0832 7.42159 52.0458 7.40608C52.0085 7.39057 51.9745 7.36783 51.9459 7.33918ZM42.3004 17.7466L39.2456 14.6918C39.2163 14.6634 39.1929 14.6294 39.1768 14.5918C39.1607 14.5543 39.1523 14.5139 39.152 14.473C39.1517 14.4322 39.1596 14.3917 39.1751 14.3539C39.1906 14.3161 39.2135 14.2818 39.2424 14.2529C39.2714 14.2241 39.3058 14.2013 39.3436 14.1858C39.3814 14.1704 39.422 14.1627 39.4628 14.1631C39.5037 14.1635 39.544 14.1721 39.5815 14.1882C39.6191 14.2044 39.653 14.2279 39.6813 14.2573L42.7361 17.3121C43.0229 17.6001 42.5859 18.0321 42.3004 17.7466ZM38.5995 18.0801L36.3373 15.8192C36.0518 15.5336 36.4838 15.0955 36.773 15.3835L39.0352 17.6444C39.0929 17.7022 39.1254 17.7805 39.1254 17.8623C39.1254 17.944 39.0929 18.0223 39.0352 18.0801C39.0066 18.1087 38.9726 18.1314 38.9352 18.1469C38.8978 18.1624 38.8578 18.1703 38.8173 18.1703C38.7356 18.1703 38.6572 18.1379 38.5995 18.0801ZM35.6025 18.2278L34.0235 16.6487C33.9941 16.6203 33.9707 16.5863 33.9547 16.5487C33.9386 16.5112 33.9302 16.4708 33.9299 16.4299C33.9296 16.3891 33.9374 16.3486 33.9529 16.3108C33.9685 16.273 33.9914 16.2387 34.0203 16.2098C34.0492 16.181 34.0836 16.1582 34.1214 16.1428C34.1593 16.1274 34.1998 16.1196 34.2407 16.12C34.2815 16.1204 34.3219 16.129 34.3594 16.1452C34.3969 16.1613 34.4308 16.1848 34.4592 16.2143L36.0382 17.7933C36.3262 18.0813 35.8893 18.5146 35.6025 18.2278Z" fill="black"/>
<path d="M33.2528 17.8747L36.1968 14.9295C36.4824 14.6427 36.9205 15.0759 36.6325 15.3639L33.6885 18.3104C33.4018 18.5959 32.9648 18.1639 33.2528 17.8747ZM36.5156 17.9928L41.275 13.2335C41.3328 13.1757 41.4111 13.1432 41.4928 13.1432C41.5745 13.1432 41.6529 13.1757 41.7107 13.2335C41.7685 13.2912 41.8009 13.3696 41.8009 13.4513C41.8009 13.533 41.7685 13.6114 41.7107 13.6692L36.9513 18.4285C36.6633 18.7153 36.2288 18.2808 36.5156 17.9928ZM40.7876 18.5479C40.7589 18.5193 40.7362 18.4854 40.7207 18.448C40.7052 18.4106 40.6972 18.3705 40.6972 18.3301C40.6972 18.2896 40.7052 18.2495 40.7207 18.2121C40.7362 18.1748 40.7589 18.1408 40.7876 18.1122L45.8645 13.0353C46.1501 12.7498 46.5882 13.1818 46.3002 13.471L41.2233 18.5479C41.1947 18.5766 41.1608 18.5993 41.1234 18.6148C41.086 18.6303 41.0459 18.6383 41.0055 18.6383C40.965 18.6383 40.9249 18.6303 40.8875 18.6148C40.8501 18.5993 40.8162 18.5766 40.7876 18.5479ZM44.1501 12.1701C44.0891 12.1702 44.0295 12.1522 43.9788 12.1184C43.9281 12.0846 43.8886 12.0365 43.8653 11.9802C43.8419 11.9239 43.8358 11.862 43.8478 11.8022C43.8597 11.7424 43.8891 11.6876 43.9322 11.6445L46.4356 9.14115C46.4639 9.11173 46.4979 9.08824 46.5354 9.07206C46.5729 9.05589 46.6133 9.04734 46.6541 9.04693C46.695 9.04652 46.7355 9.05425 46.7733 9.06967C46.8112 9.08508 46.8455 9.10788 46.8745 9.13673C46.9034 9.16558 46.9263 9.1999 46.9418 9.23769C46.9573 9.27548 46.9652 9.31598 46.9649 9.35684C46.9646 9.39769 46.9562 9.43808 46.9401 9.47564C46.924 9.5132 46.9006 9.54719 46.8713 9.57561L44.3679 12.079C44.3395 12.1079 44.3056 12.1308 44.2682 12.1465C44.2307 12.1621 44.1906 12.1701 44.1501 12.1701ZM46.4233 14.3744L49.1679 11.6285C49.4535 11.343 49.8916 11.775 49.6036 12.063L46.859 14.8088C46.571 15.0968 46.1365 14.6612 46.4233 14.3744ZM48.3815 9.33192L50.8147 6.89869C51.1002 6.61315 51.5384 7.04515 51.2504 7.33315L48.8171 9.76638C48.5279 10.0556 48.0959 9.61746 48.3815 9.33192ZM49.9039 5.76269C49.843 5.76315 49.7833 5.74542 49.7324 5.71178C49.6816 5.67814 49.642 5.63011 49.6186 5.57382C49.5952 5.51754 49.5891 5.45556 49.6012 5.39581C49.6132 5.33606 49.6427 5.28125 49.6861 5.23838L50.5931 4.33007C50.6215 4.30065 50.6554 4.27716 50.6929 4.26099C50.7304 4.24481 50.7708 4.23627 50.8117 4.23586C50.8525 4.23544 50.893 4.24317 50.9309 4.25859C50.9687 4.27401 51.0031 4.29681 51.032 4.32565C51.0609 4.3545 51.0838 4.38882 51.0994 4.42661C51.1149 4.4644 51.1227 4.50491 51.1224 4.54576C51.1221 4.58662 51.1137 4.627 51.0976 4.66456C51.0816 4.70213 51.0582 4.73611 51.0288 4.76454L50.1218 5.67284C50.0933 5.70157 50.0593 5.72431 50.0219 5.73973C49.9845 5.75516 49.9444 5.76297 49.9039 5.76269ZM50.4578 9.50915L51.5654 8.40146C51.851 8.11469 52.2891 8.54792 52.0011 8.83592L50.8947 9.94361C50.6067 10.2316 50.171 9.79715 50.4578 9.50915ZM32.7051 47.6039C32.6765 47.5753 32.6538 47.5414 32.6382 47.504C32.6227 47.4666 32.6147 47.4265 32.6147 47.3861C32.6147 47.3456 32.6227 47.3055 32.6382 47.2681C32.6538 47.2308 32.6765 47.1968 32.7051 47.1682L40.4036 39.4698C40.4319 39.4403 40.4659 39.4169 40.5034 39.4007C40.5409 39.3845 40.5813 39.376 40.6221 39.3755C40.663 39.3751 40.7035 39.3829 40.7413 39.3983C40.7792 39.4137 40.8135 39.4365 40.8425 39.4653C40.8714 39.4942 40.8943 39.5285 40.9098 39.5663C40.9253 39.6041 40.9332 39.6446 40.9329 39.6855C40.9326 39.7263 40.9242 39.7667 40.9081 39.8043C40.892 39.8418 40.8686 39.8758 40.8393 39.9042L33.1408 47.6027C33.1123 47.6314 33.0784 47.6543 33.0411 47.6699C33.0038 47.6855 32.9637 47.6936 32.9232 47.6937C32.8828 47.6938 32.8427 47.6859 32.8052 47.6705C32.7678 47.6551 32.7338 47.6325 32.7051 47.6039ZM34.7359 52.719L42.0651 45.3898C42.3507 45.1042 42.7888 45.5362 42.5008 45.8255L35.1716 53.1547C34.8836 53.4415 34.4491 53.0058 34.7359 52.719Z" fill="black"/>
<path d="M40.8679 49.2692L34.4654 42.8667C34.4368 42.8381 34.4141 42.8042 34.3987 42.7668C34.3832 42.7294 34.3752 42.6893 34.3752 42.6489C34.3752 42.6084 34.3832 42.5684 34.3987 42.531C34.4141 42.4936 34.4368 42.4596 34.4654 42.431C34.4941 42.4024 34.528 42.3797 34.5654 42.3643C34.6028 42.3488 34.6428 42.3408 34.6833 42.3408C34.7237 42.3408 34.7638 42.3488 34.8012 42.3643C34.8386 42.3797 34.8725 42.4024 34.9011 42.431L41.3036 48.8335C41.3614 48.8913 41.3938 48.9696 41.3938 49.0513C41.3938 49.133 41.3614 49.2114 41.3036 49.2692C41.2458 49.327 41.1675 49.3594 41.0857 49.3594C41.004 49.3594 40.9257 49.327 40.8679 49.2692ZM41.5953 43.5067C41.5548 43.5069 41.5148 43.499 41.4774 43.4836C41.44 43.4682 41.406 43.4455 41.3774 43.4169L37.3061 39.3467C37.2775 39.3181 37.2548 39.2842 37.2393 39.2468C37.2238 39.2094 37.2158 39.1693 37.2158 39.1289C37.2158 39.0884 37.2238 39.0484 37.2393 39.011C37.2548 38.9736 37.2775 38.9396 37.3061 38.911C37.3347 38.8824 37.3686 38.8597 37.406 38.8443C37.4434 38.8288 37.4834 38.8208 37.5239 38.8208C37.5644 38.8208 37.6044 38.8288 37.6418 38.8443C37.6792 38.8597 37.7131 38.8824 37.7418 38.911L41.8131 42.9812C41.8563 43.0242 41.8857 43.0791 41.8976 43.1389C41.9095 43.1986 41.9034 43.2606 41.8801 43.3169C41.8567 43.3732 41.8172 43.4212 41.7665 43.455C41.7158 43.4888 41.6562 43.5068 41.5953 43.5067ZM38.1233 53.0206L34.8704 49.7689C34.5848 49.4833 35.0168 49.0452 35.3061 49.3332L38.559 52.5849C38.847 52.8741 38.4088 53.3073 38.1233 53.0206ZM34.5331 47.4009L31.2162 44.084C31.1876 44.0554 31.1649 44.0214 31.1494 43.984C31.1339 43.9466 31.126 43.9066 31.126 43.8661C31.126 43.8257 31.1339 43.7856 31.1494 43.7482C31.1649 43.7108 31.1876 43.6769 31.2162 43.6483C31.2448 43.6197 31.2788 43.597 31.3162 43.5815C31.3535 43.566 31.3936 43.558 31.4341 43.558C31.4745 43.558 31.5146 43.566 31.552 43.5815C31.5893 43.597 31.6233 43.6197 31.6519 43.6483L34.9688 46.9652C34.9974 46.9938 35.0201 47.0278 35.0356 47.0651C35.0511 47.1025 35.0591 47.1426 35.0591 47.183C35.0591 47.2235 35.0511 47.2636 35.0356 47.3009C35.0201 47.3383 34.9974 47.3723 34.9688 47.4009C34.9402 47.4295 34.9063 47.4522 34.8689 47.4677C34.8315 47.4831 34.7914 47.4911 34.751 47.4911C34.7105 47.4911 34.6705 47.4831 34.6331 47.4677C34.5957 47.4522 34.5617 47.4295 34.5331 47.4009Z" fill="black"/>
</svg>
