<svg width="80" height="80" viewBox="0 0 80 80" fill="none" xmlns="http://www.w3.org/2000/svg">
<path d="M23.08 70.9746C23.6267 65.9201 15.8618 64.8486 15.1976 70.0959C14.5867 74.8983 22.4958 76.3443 23.08 70.9746ZM17.0436 68.7686C18.7661 66.7904 22.1649 68.1589 21.8752 70.8437C21.6824 72.6183 19.3733 74.428 17.1055 72.2534C15.9927 71.1892 16.263 69.668 17.0436 68.7686Z" fill="#252525"/>
<path d="M25.863 71.281C26.5685 64.7646 18.3345 61.201 14.0133 66.1683C12.2388 68.2095 11.3394 72.1428 14.2327 74.9174C19.4642 79.9259 25.3661 75.8701 25.863 71.281ZM14.9285 66.9634C18.4824 62.881 25.2339 65.8459 24.6582 71.1501C24.2642 74.7768 19.5539 78.3331 15.0715 74.0422C12.6909 71.7598 13.5479 68.5501 14.9285 66.9634Z" fill="#252525"/>
<path d="M77.2315 3.55871C75.4388 2.22295 72.8897 2.75871 71.3006 3.98053C69.7576 5.16356 68.8121 6.89205 67.9006 8.7078C67.5503 9.4072 67.2206 10.1175 66.8776 10.8205C57.5867 11.1514 48.1285 11.5745 38.8642 11.9999C38.7539 11.9684 38.6848 11.9466 38.4982 12.0169C30.1103 12.4023 24.743 12.6508 18.8109 12.9102C18.7335 12.8719 18.6488 12.8504 18.5624 12.8472C18.4511 12.8489 18.3421 12.8794 18.2461 12.9357C15.4145 13.0593 12.5806 13.1781 9.75151 13.2908C9.65743 13.2264 9.54671 13.1906 9.43273 13.1878C9.30352 13.1908 9.17883 13.236 9.07758 13.3163C6.64242 13.4133 4.2097 13.5078 1.79273 13.5927C1.63347 13.5983 1.48286 13.6665 1.37351 13.7825C1.26416 13.8984 1.20488 14.0527 1.20848 14.212L1.34545 20.3514C1.33454 20.3987 1.31757 20.4436 1.31757 20.4945C1.31879 20.5539 1.33576 20.6048 1.35151 20.6569L1.48242 26.5405C1.57091 30.4787 1.87515 34.5514 4.49091 37.2872C7.0897 40.006 11.1188 40.5054 15.023 40.783L33.3673 42.0945C33.4754 42.1849 33.6118 42.2347 33.7527 42.2351C33.8603 42.2328 33.9663 42.2009 34.057 42.143L49.2388 43.2278C49.3091 43.2581 49.3842 43.2787 49.4655 43.2799H49.4727C49.5042 43.2799 49.5273 43.2557 49.5588 43.2508L54.4873 43.6036C54.0145 45.3163 53.5661 47.0363 53.1418 48.7611C46.1394 46.8763 39.4836 46.3975 32.7345 45.0375C32.6565 45.0218 32.5761 45.0217 32.4979 45.0371C32.4198 45.0525 32.3455 45.0831 32.2792 45.1272C32.2129 45.1713 32.1559 45.2281 32.1116 45.2942C32.0672 45.3603 32.0363 45.4346 32.0206 45.5127C32.0049 45.5907 32.0048 45.6711 32.0202 45.7493C32.0356 45.8274 32.0662 45.9017 32.1103 45.968C32.1544 46.0343 32.2112 46.0913 32.2773 46.1356C32.3435 46.18 32.4177 46.2109 32.4958 46.2266C35.2436 46.7805 38.0133 47.1963 40.6921 47.5987C50.2897 49.0424 53.5709 50.1333 53.5709 50.1333C59.2461 51.749 62.3212 53.2533 61.7564 59.7139H7.02061C6.85987 59.7139 6.70571 59.7777 6.59206 59.8914C6.4784 60.005 6.41454 60.1592 6.41454 60.3199C6.41454 60.4807 6.4784 60.6348 6.59206 60.7485C6.70571 60.8621 6.85987 60.926 7.02061 60.926H61.6194C60.9612 65.4836 60.5733 63.3199 62.9758 65.1417C62.5503 65.4411 62.1467 65.772 61.8024 66.1684C60.0218 68.2169 59.137 72.1539 62.023 74.9175C67.2582 79.9296 73.1564 75.8642 73.6533 71.2799C74.1733 66.4811 69.2812 62.1672 64.1042 64.4957C63.5884 64.0405 63.013 63.6576 62.3939 63.3575C64.5261 54.1611 61.6279 51.2242 54.3164 49.0775C54.7879 47.1599 55.2945 45.252 55.8267 43.3502C55.8733 43.2727 55.9019 43.1857 55.9103 43.0957C55.9115 43.0872 55.9067 43.0799 55.9079 43.0727C59.1821 31.4083 63.562 20.083 68.9879 9.25083C69.2897 8.64962 69.5855 8.07508 69.8994 7.53689C71.2218 11.6254 76.3745 12.0533 78.2497 8.84962C79.2679 7.1078 78.8121 4.73326 77.2315 3.55871ZM2.43394 14.783C4.55757 14.7066 6.69454 14.623 8.8303 14.5381L8.84364 19.8484C6.74545 19.8593 4.64121 19.8557 2.54788 19.8787L2.43394 14.783ZM2.69576 26.5126L2.57454 21.0908C4.66061 21.0678 6.75636 21.0727 8.84727 21.0605L8.86788 29.2254L2.79273 28.8157C2.74417 28.0488 2.71184 27.2809 2.69576 26.5126ZM5.36727 36.4484C3.77576 34.7842 3.15879 32.5296 2.89576 30.0375L8.86909 30.4411L8.8897 38.5636C7.54182 38.1114 6.33454 37.4605 5.36727 36.4484ZM17.3055 39.7308L15.1115 39.5745C13.3624 39.4496 11.6618 39.2787 10.103 38.909L10.0824 30.5223L17.5164 31.0242L17.3055 39.7308ZM17.5455 29.8108L10.0788 29.3066L10.0594 21.0545C12.6255 21.0436 15.1879 21.0205 17.7588 21.0266L17.5455 29.8108ZM17.7879 19.8157C15.2048 19.8096 12.6327 19.8314 10.0558 19.8423L10.0424 14.4908C12.6679 14.3854 15.297 14.2751 17.9248 14.1611L17.7879 19.8157ZM66.4218 67.8884C68.5006 67.4896 69.8279 69.3211 69.663 70.8436C69.5382 71.9939 68.5879 73.0133 67.4521 73.2157C65.0412 73.6496 62.6388 70.2023 65.3127 68.3514C65.56 69.0545 65.7018 69.7927 65.6897 70.5381C65.6884 70.6177 65.7028 70.6968 65.7321 70.7708C65.7614 70.8448 65.8049 70.9123 65.8603 70.9695C65.9157 71.0267 65.9818 71.0724 66.0549 71.104C66.1279 71.1357 66.2065 71.1526 66.2861 71.1539H66.2958C67.3709 71.1551 66.7782 68.869 66.4218 67.8884ZM64.7988 67.2375C62.8994 68.4096 62.137 71.2933 64.0545 73.1284C66.9418 75.8933 70.5479 73.9248 70.8679 70.9745C71.1345 68.5199 68.8873 65.9781 65.9115 66.7623C65.6602 66.2915 65.3643 65.8458 65.0279 65.4314C69.4582 63.8557 72.8218 67.6848 72.4461 71.149C72.0533 74.7733 67.3467 78.3333 62.8594 74.0411C60.2606 71.5502 61.303 67.5914 63.9042 65.972C64.2533 66.3563 64.543 66.7878 64.7988 67.2375ZM56.9939 12.4169L54.8121 20.5223C51.9818 20.4242 49.1564 20.3187 46.3188 20.2411L48.4691 12.7805C51.3091 12.6545 54.1515 12.5333 56.9939 12.4169ZM45.9709 21.4448C48.817 21.5211 51.6497 21.6254 54.4885 21.7223L51.6909 32.1139L43.0642 31.532L45.9709 21.4448ZM41.8255 31.4484L36.1697 31.0666L37.8388 21.2702C40.1321 21.3163 42.4267 21.3587 44.7176 21.4181L41.8255 31.4484ZM39.2133 13.1975C41.8618 13.0763 44.5188 12.9563 47.1903 12.8375L45.0642 20.2145C42.7261 20.1539 40.3842 20.1102 38.0436 20.063L39.2133 13.1975ZM29.1224 13.6605L37.9745 13.2545L36.8194 20.0375C34.0103 19.9836 31.201 19.9399 28.3915 19.9066L29.1224 13.6605ZM36.6133 21.2436L34.9539 30.9842L27.1539 30.4581L28.2485 21.1151C31.0388 21.1478 33.8242 21.1914 36.6133 21.2436ZM19.1394 14.109C22.0691 13.9805 24.9879 13.8496 27.8958 13.7163L27.1721 19.8945C24.4473 19.8654 21.7236 19.8351 19.0012 19.8254L19.1394 14.109ZM24.7842 40.2654L18.5164 39.8169L18.7273 31.1042L25.8024 31.5817L24.7842 40.2654ZM18.7564 29.892L18.9709 21.0375C21.6558 21.0472 24.3418 21.0775 27.0291 21.1054L25.943 30.3769L18.7564 29.892ZM33.3152 40.6048C33.2245 40.6698 33.1533 40.7582 33.1091 40.8605L25.9939 40.3527L27.0121 31.6654L34.7491 32.1878L33.3152 40.6048ZM34.4836 40.9587L35.9636 32.2678L41.4812 32.6399L38.9903 41.2799L34.4836 40.9587ZM49.1915 41.3951L49.1709 41.3999C49.0419 41.4317 48.9272 41.5056 48.8449 41.6099C48.7626 41.7141 48.7174 41.8428 48.7164 41.9757L40.4012 41.3817C40.4057 41.2668 40.3775 41.1529 40.32 41.0533L42.7212 32.7236L51.3709 33.3066L49.1915 41.3951ZM54.8327 42.4133L50.2606 42.086L52.6024 33.3902L57.5006 33.7211C56.5425 36.5969 55.653 39.4951 54.8327 42.4133ZM57.9164 32.5345L52.9236 32.1975L55.7321 21.766C57.7818 21.8387 59.8388 21.8957 61.8836 21.9793C60.4584 25.4582 59.1355 28.9781 57.9164 32.5345ZM62.3806 20.7842C60.2788 20.6969 58.1636 20.6399 56.0558 20.5648L58.2642 12.3636C60.9455 12.2557 63.6182 12.1527 66.28 12.0569C64.9074 14.9329 63.6072 17.8429 62.3806 20.7842ZM77.2 8.2375C75.6812 10.829 71.383 10.0036 70.9067 6.5478C70.8905 6.43052 70.8404 6.32054 70.7624 6.23144C71.1302 5.74813 71.5588 5.31425 72.0376 4.94053C73.2642 3.99871 75.1939 3.55144 76.5079 4.53083C77.5891 5.33447 77.9067 7.03265 77.2 8.2375Z" fill="#252525"/>
</svg>
