<svg width="24" height="24" viewBox="0 0 24 24" fill="none" xmlns="http://www.w3.org/2000/svg">
<path fill-rule="evenodd" clip-rule="evenodd" d="M1.30078 3.14026C1.30078 2.72605 1.63657 2.39026 2.05078 2.39026H4.26172C4.64962 2.39026 4.97352 2.68605 5.00864 3.07236L5.24812 5.70667H21.9492C22.1666 5.70667 22.3734 5.80101 22.5158 5.96526C22.6583 6.12951 22.7224 6.3475 22.6917 6.56273L21.8144 12.7039C21.6313 13.9854 20.5792 14.9658 19.2879 15.058L7.3773 15.9087C5.88307 16.0155 4.57829 14.9066 4.44267 13.4147L3.57681 3.89026H2.05078C1.63657 3.89026 1.30078 3.55447 1.30078 3.14026ZM5.38448 7.20667L5.93651 13.2789C5.99815 13.957 6.59123 14.4611 7.27043 14.4126L19.1811 13.5618C19.768 13.5199 20.2462 13.0743 20.3294 12.4918L21.0845 7.20667H5.38448Z" fill="white"/>
<circle cx="8.13132" cy="19.8769" r="1.28683" fill="white"/>
<circle cx="18.0805" cy="19.8769" r="1.28683" fill="white"/>
</svg>
