<svg width="100" height="100" viewBox="0 0 100 100" fill="none" xmlns="http://www.w3.org/2000/svg">
<g clip-path="url(#clip0_231_20172)">
<path d="M3.4669 56.8658C3.2543 55.4798 3.24195 54.055 3.26064 52.8016L3.55751 34.9879C3.71828 25.2442 6.48246 20.9583 19.3761 21.1585C34.035 21.3944 48.5832 21.8256 62.6174 22.4384C73.311 22.8805 76.342 25.0259 81.2107 35.1695C82.6732 38.2132 84.184 41.3617 86.5543 43.646C87.0025 44.0727 87.4757 44.4724 87.9713 44.843C87.9727 44.8444 87.9727 44.8462 87.9745 44.8476C87.9759 44.849 87.9777 44.8508 87.9791 44.8508C91.6448 47.6569 99.6584 51.0021 98.1681 57.8272C99.5851 59.1585 100.134 60.932 99.9729 62.7132C99.4042 69.002 92.5932 68.396 87.2605 68.3833C87.4996 75.9629 81.2918 79.605 75.3421 78.7175C70.0077 77.9098 65.7736 73.6553 65.7518 68.3223L32.2728 68.2271C32.9759 83.0267 10.6481 81.5783 10.7701 68.1661C7.25002 68.1428 2.59357 68.3755 0.642075 65.0225C-0.995628 62.2016 0.699905 58.5391 3.4669 56.8658ZM9.02769 55.3345C9.35694 55.3115 9.68669 55.2964 10.0167 55.289C10.1993 55.2845 10.3809 55.2781 10.5603 55.2767C10.6915 55.2753 10.8181 55.2753 10.9464 55.2753C11.0902 55.2753 11.2387 55.2721 11.3808 55.2739L13.1993 53.4553L10.8008 51.0568L8.96493 52.8926L10.0244 53.9521C10.0608 53.9884 10.0897 54.0315 10.1094 54.079C10.1291 54.1264 10.1392 54.1773 10.1392 54.2287C10.1392 54.2801 10.1291 54.331 10.1094 54.3784C10.0897 54.4259 10.0608 54.469 10.0244 54.5053C9.8728 54.6569 9.62601 54.6583 9.47122 54.5053L8.41174 53.4458L6.07912 55.7784C6.85125 55.5785 7.92766 55.4079 9.02769 55.3345ZM19.4212 54.8251L21.0712 53.175L19.2354 51.3392L17.1887 53.3859L18.4573 54.6544C18.4936 54.6907 18.5225 54.7338 18.5422 54.7813C18.5619 54.8287 18.572 54.8796 18.572 54.931C18.572 54.9824 18.5619 55.0333 18.5422 55.0807C18.5225 55.1282 18.4936 55.1713 18.4573 55.2076C18.3056 55.3592 18.0589 55.3606 17.9041 55.2076L16.6355 53.939L15.2996 55.2749C15.2636 55.3109 15.2153 55.3091 15.1716 55.3282C16.4902 55.3455 17.9326 55.3624 19.423 55.3783C19.423 55.3783 19.4215 55.3783 19.4198 55.3768C19.2682 55.2238 19.2682 54.9767 19.4212 54.8251ZM19.9571 55.3832C21.0399 55.3941 22.1572 55.4065 23.3133 55.4174L21.6227 53.7268L19.9726 55.3768C19.9698 55.3814 19.962 55.38 19.9571 55.3832ZM12.2791 49.5816L11.3557 50.505L13.7543 52.9035L14.6777 51.9802L12.2791 49.5816ZM14.3075 53.4564L15.1607 54.3096L16.0841 53.3862L15.2309 52.533L14.3075 53.4564ZM14.7478 55.2753C14.6495 55.1769 14.6385 55.0458 14.6667 54.9206L13.7557 54.0096L12.4744 55.2908C13.2275 55.3017 14.0339 55.3127 14.8667 55.325C14.8261 55.3049 14.7806 55.3063 14.7478 55.2753ZM10.2511 50.505L9.18705 49.4409L7.3512 51.2768L8.41351 52.3422L10.2511 50.505ZM5.06371 38.4068L5.40288 38.0676L5.07464 37.7394L5.06371 38.4068ZM4.91845 47.1238L5.54356 46.4987L4.93889 45.894L4.91845 47.1238ZM83.1372 41.9568L83.031 42.063L83.6512 42.6831C83.4744 42.4449 83.303 42.2028 83.1372 41.9568ZM81.5717 39.3757L80.9576 39.9881L82.4779 41.5084L82.6982 41.288C82.2997 40.6644 81.924 40.0265 81.5717 39.3757ZM84.442 44.58L83.439 45.5831C83.2874 45.7347 83.0406 45.7361 82.8858 45.5831C82.8494 45.5468 82.8205 45.5037 82.8008 45.4562C82.7811 45.4087 82.771 45.3579 82.771 45.3065C82.771 45.2551 82.7811 45.2042 82.8008 45.1567C82.8205 45.1093 82.8494 45.0662 82.8858 45.0299L83.8889 44.0268L82.4765 42.6144L81.5344 43.5565C81.3828 43.7081 81.136 43.7095 80.9812 43.5565C80.9448 43.5204 80.9159 43.4774 80.8962 43.4301C80.8766 43.3828 80.8664 43.332 80.8664 43.2808C80.8664 43.2295 80.8766 43.1788 80.8962 43.1314C80.9159 43.0841 80.9448 43.0412 80.9812 43.005L81.9233 42.063L80.403 40.5427L79.8575 41.0881C79.7059 41.2397 79.4591 41.2411 79.3043 41.0881C79.268 41.0518 79.2391 41.0087 79.2194 40.9612C79.1997 40.9138 79.1896 40.8629 79.1896 40.8115C79.1896 40.7601 79.1997 40.7092 79.2194 40.6618C79.2391 40.6143 79.268 40.5712 79.3043 40.5349L79.8498 39.9895L79.4013 39.541C79.3649 39.5047 79.3361 39.4616 79.3164 39.4142C79.2967 39.3667 79.2865 39.3158 79.2865 39.2644C79.2865 39.213 79.2967 39.1622 79.3164 39.1147C79.3361 39.0672 79.3649 39.0241 79.4013 38.9878C79.4376 38.9514 79.4807 38.9226 79.5282 38.9029C79.5756 38.8832 79.6265 38.873 79.6779 38.873C79.7293 38.873 79.7802 38.8832 79.8276 38.9029C79.8751 38.9226 79.9182 38.9514 79.9545 38.9878L80.4061 39.4363L81.192 38.6504C81.1342 38.5379 81.0732 38.4269 81.0154 38.3144L79.7496 37.0504L78.3355 38.4646C78.2994 38.5016 78.2564 38.531 78.2089 38.5512C78.1614 38.5714 78.1104 38.5819 78.0588 38.5823C78.0072 38.5826 77.956 38.5726 77.9082 38.553C77.8605 38.5334 77.8171 38.5045 77.7806 38.468C77.7441 38.4315 77.7152 38.3882 77.6956 38.3404C77.676 38.2927 77.6661 38.2415 77.6664 38.1899C77.6667 38.1383 77.6773 38.0872 77.6975 38.0397C77.7177 37.9922 77.7471 37.9492 77.7841 37.9132L79.1982 36.499L77.514 34.8162L76.8124 35.5178L77.6825 36.388C77.7189 36.4242 77.7478 36.4674 77.7675 36.5148C77.7872 36.5623 77.7973 36.6132 77.7973 36.6645C77.7973 36.7159 77.7872 36.7668 77.7675 36.8143C77.7478 36.8617 77.7189 36.9048 77.6825 36.9411C77.5309 37.0927 77.2841 37.0942 77.1293 36.9411L76.2278 36.0396C76.0825 36.1129 75.9542 36.163 75.7857 35.9941C75.6637 35.8721 75.6669 35.6973 75.7402 35.552L74.0746 33.8847C74.0044 33.8107 73.9658 33.7123 73.9672 33.6103C73.9686 33.5083 74.0098 33.4109 74.082 33.3389C74.1543 33.2669 74.2518 33.226 74.3538 33.2249C74.4558 33.2239 74.5541 33.2628 74.6278 33.3333L76.262 34.9674L76.9636 34.2658L76.745 34.0472C76.7086 34.0109 76.6798 33.9678 76.6601 33.9204C76.6404 33.8729 76.6302 33.822 76.6302 33.7706C76.6302 33.7192 76.6404 33.6684 76.6601 33.6209C76.6798 33.5734 76.7086 33.5303 76.745 33.494C76.7813 33.4576 76.8244 33.4287 76.8719 33.409C76.9193 33.3893 76.9702 33.3791 77.0216 33.3791C77.073 33.3791 77.1239 33.3893 77.1714 33.409C77.2188 33.4287 77.2619 33.4576 77.2982 33.494L77.5168 33.7126L78.3387 32.8908C78.32 32.8548 78.3013 32.8189 78.2822 32.7847C78.168 32.5675 78.0541 32.3489 77.9371 32.1363C77.8419 31.966 77.7417 31.802 77.6448 31.6331C77.5168 31.4114 77.3902 31.1878 77.2573 30.9721C77.1621 30.8173 77.0588 30.6689 76.9604 30.5173C76.8822 30.3953 76.8025 30.275 76.7214 30.1562L76.323 30.5546L76.8106 31.0436C76.8811 31.1174 76.92 31.2157 76.9189 31.3177C76.9179 31.4197 76.877 31.5172 76.805 31.5894C76.733 31.6617 76.6355 31.7029 76.5336 31.7043C76.4316 31.7056 76.3331 31.6671 76.2592 31.5968L75.7702 31.1078L73.9093 32.9687C73.7577 33.1203 73.5109 33.1217 73.3561 32.9687C73.3197 32.9324 73.2908 32.8893 73.2711 32.8418C73.2514 32.7944 73.2413 32.7435 73.2413 32.6921C73.2413 32.6407 73.2514 32.5898 73.2711 32.5424C73.2908 32.4949 73.3197 32.4518 73.3561 32.4155L75.217 30.5546L73.1512 28.4889L71.7935 29.8467L72.1186 30.1717C72.1549 30.208 72.1838 30.2511 72.2035 30.2986C72.2232 30.3461 72.2333 30.3969 72.2333 30.4483C72.2333 30.4997 72.2232 30.5506 72.2035 30.5981C72.1838 30.6455 72.1549 30.6886 72.1186 30.7249C71.9669 30.8765 71.7201 30.8779 71.5654 30.7249L71.2403 30.3998L70.6857 30.9544C70.5341 31.106 70.2873 31.1075 70.1325 30.9544C70.0961 30.9182 70.0673 30.875 70.0476 30.8276C70.0279 30.7801 70.0177 30.7292 70.0177 30.6778C70.0177 30.6265 70.0279 30.5756 70.0476 30.5281C70.0673 30.4807 70.0961 30.4375 70.1325 30.4013L70.6871 29.8421L69.6026 28.7576L68.3605 29.9997C68.3418 30.0184 68.3136 30.0138 68.2917 30.0279C68.2854 30.1199 68.2575 30.2123 68.187 30.281C68.0354 30.4326 67.7886 30.434 67.6338 30.281L66.873 29.5202L66.1262 30.2669C65.9746 30.4185 65.7278 30.4199 65.573 30.2669C65.5367 30.2308 65.5078 30.1879 65.4881 30.1405C65.4684 30.0932 65.4583 30.0425 65.4583 29.9912C65.4583 29.94 65.4684 29.8892 65.4881 29.8419C65.5078 29.7946 65.5367 29.7516 65.573 29.7155L66.3198 28.9688L65.2853 27.9343C65.2489 27.898 65.2201 27.8549 65.2004 27.8074C65.1807 27.76 65.1706 27.7091 65.1706 27.6577C65.1706 27.6063 65.1807 27.5554 65.2004 27.508C65.2201 27.4605 65.2489 27.4174 65.2853 27.3811C65.3527 27.3138 65.4401 27.2891 65.5275 27.281C59.4263 28.5326 59.0948 32.8217 59.3808 36.9401C59.837 43.493 63.0588 41.3977 67.1399 41.6963C69.5804 41.868 71.6461 43.126 73.6445 44.3417C75.835 45.6761 80.018 48.5588 85.5833 45.7199L84.442 44.58ZM75.7391 28.8334C75.0862 28.0457 74.7047 27.7161 74.2876 27.3476L73.7016 27.9336L75.7687 29.9993L76.2595 29.5085C76.2427 29.4858 76.2255 29.4634 76.208 29.4412C76.0547 29.2349 75.9013 29.0287 75.7391 28.8334ZM71.3031 27.0585L70.1561 28.2054L71.2406 29.2899L72.5984 27.9322L72.1267 27.4604C72.0188 27.3526 72.0142 27.2059 72.0593 27.0698C71.8048 27.0663 71.553 27.0631 71.3031 27.0585ZM73.1498 27.3804L73.4358 27.0945L72.853 27.0835L73.1498 27.3804ZM65.8406 27.3836L66.8751 28.418L67.8531 27.44C68.0061 27.287 68.2529 27.287 68.4063 27.44C68.5597 27.593 68.5593 27.8398 68.4063 27.9932L67.4283 28.9712L67.8581 29.401L69.0519 28.2072L68.9722 28.1275C68.9017 28.0538 68.8628 27.9554 68.8639 27.8535C68.8649 27.7515 68.9058 27.6539 68.9778 27.5817C69.0498 27.5095 69.1472 27.4683 69.2492 27.4669C69.3512 27.4655 69.4497 27.5041 69.5236 27.5743L69.6033 27.654L70.2125 27.0448C68.7938 27.0307 67.5362 27.0352 66.775 27.0948C66.3875 27.1262 65.9827 27.1918 65.5751 27.2729C65.6703 27.2757 65.7673 27.3102 65.8406 27.3836ZM78.8841 33.9584C78.8277 33.8441 78.7698 33.7288 78.7124 33.6146L78.0654 34.2616L79.7496 35.9444L79.8184 35.8757C79.8138 35.8647 79.8075 35.8538 79.8029 35.8443C79.5007 35.2137 79.1944 34.585 78.8841 33.9584ZM90.037 48.1456C89.1824 47.5924 88.3105 47.0159 87.4731 46.4049C85.456 47.7517 83.1012 48.4844 80.7622 48.4844C77.5545 48.4844 75.4765 47.286 72.8357 45.6797C70.9124 44.5095 69.0952 43.4031 67.0313 43.2578C63.6046 42.9828 58.3953 45.2421 57.8235 37.0501V37.0487C57.6719 34.8627 57.6049 32.5551 58.5688 30.5081C60.1205 27.1957 63.7594 25.7691 66.6498 25.5379C67.6934 25.4536 69.5201 25.4677 71.4511 25.4987C68.6404 24.2598 65.298 24.1114 62.5529 23.9989C48.5296 23.3847 33.9973 22.9535 19.3553 22.719C7.48377 22.5283 5.2682 26.0551 5.12258 35.0126L5.09438 36.6548L7.21476 38.7752C7.25113 38.8113 7.28 38.8543 7.2997 38.9016C7.3194 38.9489 7.32953 38.9997 7.32953 39.0509C7.32953 39.1022 7.3194 39.1529 7.2997 39.2003C7.28 39.2476 7.25113 39.2905 7.21476 39.3266C7.06315 39.4783 6.81635 39.4797 6.66157 39.3266L5.95536 38.6204L5.04608 39.5297L4.99143 42.8358L6.03681 41.7904L5.38207 41.1357C5.22906 40.9827 5.22906 40.7359 5.38207 40.5825C5.53509 40.4291 5.78189 40.4295 5.93526 40.5825L6.61643 41.2637C6.76487 41.1794 6.94926 41.1745 7.07584 41.3028C7.20242 41.4294 7.19923 41.6138 7.11497 41.7622L8.2009 42.8482C8.23729 42.8844 8.26616 42.9275 8.28585 42.975C8.30555 43.0225 8.31567 43.0734 8.31567 43.1247C8.31567 43.1761 8.30555 43.227 8.28585 43.2745C8.26616 43.3219 8.23729 43.365 8.2009 43.4013C8.04929 43.5529 7.8025 43.5544 7.64771 43.4013L6.58823 42.3419L5.03656 43.8935C5.01928 43.9108 4.99284 43.9059 4.97239 43.92L4.95511 44.9403C5.03937 44.9498 5.1254 44.9731 5.18957 45.0373L6.09569 45.9434L6.94257 45.0965C7.09559 44.9435 7.34274 44.9435 7.49576 45.0965C7.64877 45.2495 7.64877 45.4963 7.49576 45.6497L6.64887 46.4966L7.9192 47.7669C7.95557 47.8032 7.98444 47.8463 8.00414 47.8938C8.02383 47.9412 8.03398 47.9921 8.03398 48.0435C8.03398 48.0949 8.02383 48.1458 8.00414 48.1932C7.98444 48.2407 7.95557 48.2838 7.9192 48.3201C7.76935 48.4699 7.52078 48.4749 7.366 48.3201L6.09569 47.0498L5.10672 48.0387C5.05031 48.0951 4.97379 48.1089 4.90187 48.1248L4.8236 52.8263C4.80633 53.8622 4.80315 55.0214 4.9329 56.1433C4.98438 56.1246 5.28442 56.0277 5.33765 56.0104C5.13457 55.8369 5.16418 55.5916 5.30944 55.4463L7.86243 52.8933L6.79837 51.8293L6.08122 52.5464C5.92962 52.698 5.68282 52.6994 5.52804 52.5464C5.49165 52.5101 5.46278 52.467 5.44309 52.4195C5.42339 52.3721 5.41326 52.3212 5.41326 52.2698C5.41326 52.2184 5.42339 52.1675 5.44309 52.1201C5.46278 52.0726 5.49165 52.0295 5.52804 51.9932L6.24518 51.2761L5.46705 50.4979C5.31403 50.3449 5.31403 50.0978 5.46705 49.9447C5.62007 49.7917 5.86687 49.7917 6.02024 49.9447L6.79837 50.7229L8.63421 48.887L8.55911 48.8119C8.4061 48.6589 8.4061 48.4118 8.55911 48.2587C8.71214 48.1057 8.95893 48.1057 9.1123 48.2587L9.18739 48.3338L9.33266 48.1886C9.40637 48.1181 9.50472 48.0792 9.60671 48.0803C9.70869 48.0813 9.80624 48.1222 9.87846 48.1942C9.9507 48.2662 9.99191 48.3636 9.99329 48.4656C9.99467 48.5676 9.95612 48.6661 9.88586 48.74L9.74059 48.8853L10.8047 49.9493L11.728 49.0259L10.7391 48.037C10.5861 47.884 10.5861 47.6372 10.7391 47.4838C10.8921 47.3304 11.1393 47.3308 11.2923 47.4838L15.2312 51.4227L16.2202 50.4338C16.2939 50.3633 16.3923 50.3244 16.4942 50.3255C16.5962 50.3265 16.6937 50.3674 16.766 50.4394C16.8382 50.5114 16.8794 50.6088 16.8808 50.7108C16.8822 50.8128 16.8436 50.9113 16.7734 50.9852L15.7844 51.9742L16.6376 52.8274L18.6843 50.7807L15.5781 47.6745C15.4251 47.5215 15.4251 47.2747 15.5781 47.1213C15.7312 46.968 15.9783 46.9683 16.1313 47.1213L21.6265 52.6165L22.5453 51.6977C22.6984 51.5447 22.9455 51.5447 23.0985 51.6977C23.2515 51.8508 23.2515 52.0976 23.0985 52.2509L22.1797 53.1697L24.0625 55.062C24.0798 55.001 24.0857 54.9368 24.1344 54.8885L25.2859 53.737L20.5096 48.9607C20.3566 48.8077 20.3566 48.5605 20.5096 48.4075C20.6626 48.2545 20.9098 48.2545 21.0628 48.4075L25.8391 53.1838L26.8986 52.1244C27.0516 51.9713 27.2987 51.9713 27.4518 52.1244C27.6048 52.2774 27.6048 52.5242 27.4518 52.6775L26.3923 53.737L26.608 53.9528C26.6444 53.9891 26.6733 54.0322 26.693 54.0797C26.7127 54.1271 26.7228 54.178 26.7228 54.2294C26.7228 54.2808 26.7127 54.3317 26.693 54.3791C26.6733 54.4266 26.6444 54.4697 26.608 54.506C26.4564 54.6576 26.2096 54.659 26.0549 54.506L25.8391 54.2902L24.6967 55.4326C25.4015 55.4389 26.1278 55.4449 26.8545 55.453C26.8501 55.399 26.8573 55.3447 26.8756 55.2938C26.8939 55.2428 26.9229 55.1964 26.9606 55.1575L29.081 53.0372L25.514 49.4702C25.361 49.3172 25.361 49.0704 25.514 48.917C25.667 48.7636 25.9142 48.764 26.0672 48.917L29.6624 52.5122C29.8108 52.4279 29.9952 52.423 30.1218 52.5513C30.2484 52.6779 30.2452 52.8623 30.1609 53.0107L31.603 54.4527L33.2294 52.8277L32.22 51.8183C32.1836 51.782 32.1547 51.7389 32.135 51.6915C32.1153 51.644 32.1052 51.5931 32.1052 51.5417C32.1052 51.4903 32.1153 51.4395 32.135 51.392C32.1547 51.3445 32.1836 51.3014 32.22 51.2651C32.2562 51.2287 32.2994 51.1999 32.3468 51.1802C32.3943 51.1605 32.4452 51.1504 32.4966 51.1504C32.5479 51.1504 32.5988 51.1605 32.6463 51.1802C32.6937 51.1999 32.7369 51.2287 32.7731 51.2651L33.8404 52.3324C33.9684 52.3028 34.1013 52.3137 34.1997 52.4121C34.2998 52.5122 34.309 52.6447 34.2793 52.7731L35.4682 53.962L36.7385 52.6934C36.7748 52.657 36.8179 52.6281 36.8654 52.6084C36.9128 52.5886 36.9637 52.5785 37.0151 52.5785C37.0665 52.5785 37.1174 52.5886 37.1649 52.6084C37.2124 52.6281 37.2555 52.657 37.2917 52.6934C37.3281 52.7297 37.357 52.7728 37.3767 52.8203C37.3964 52.8677 37.4065 52.9186 37.4065 52.97C37.4065 53.0214 37.3964 53.0723 37.3767 53.1197C37.357 53.1672 37.3281 53.2103 37.2917 53.2466L36.0214 54.5152L37.0104 55.5041C37.0199 55.5136 37.0167 55.5274 37.0245 55.5369C37.1042 55.5369 37.1838 55.5383 37.2635 55.5383L39.1322 53.6711L36.9557 51.4947C36.8027 51.3416 36.8027 51.0948 36.9557 50.9415C37.1087 50.7881 37.3559 50.7885 37.5089 50.9415L39.6853 53.1179L39.6899 53.1133C39.7261 53.0768 39.7692 53.0478 39.8167 53.028C39.8641 53.0081 39.9151 52.998 39.9665 52.998C40.018 52.998 40.0689 53.0081 40.1164 53.028C40.1638 53.0478 40.2069 53.0768 40.2431 53.1133C40.2795 53.1496 40.3084 53.1927 40.3281 53.2402C40.3478 53.2876 40.3579 53.3385 40.3579 53.3899C40.3579 53.4413 40.3478 53.4922 40.3281 53.5396C40.3084 53.5871 40.2795 53.6302 40.2431 53.6665L40.2385 53.6711L41.2324 54.665L42.5028 53.3947C42.6558 53.2417 42.9029 53.2417 43.0559 53.3947C43.209 53.5477 43.209 53.7948 43.0559 53.9479L41.7856 55.2182L42.1403 55.5729C53.1776 55.6462 64.7385 55.7072 73.9942 55.7555C93.5501 55.8507 94.4393 55.5775 96.7546 56.8242C97.1509 52.6596 92.987 50.0488 90.037 48.1456ZM40.332 55.5549L40.6743 55.2125L39.6804 54.2186L38.3568 55.5404C39.013 55.5471 39.6695 55.5517 40.332 55.5549ZM34.0368 55.5098C34.0491 55.4333 34.0664 55.355 34.126 55.2958L34.9136 54.5099L33.7808 53.377L32.1544 55.0021L32.6529 55.5006L34.0368 55.5098ZM35.0102 55.5175C35.3166 55.5189 35.6195 55.5221 35.9273 55.5239L35.4647 55.0613L35.0102 55.5175ZM31.0431 55.008L31.0494 55.0017L29.6352 53.5875L27.7634 55.4593C28.8275 55.4689 29.9117 55.478 31.0135 55.4858C30.9147 55.3345 30.9101 55.1392 31.0431 55.008ZM69.3999 73.8295C69.4013 73.8295 69.4013 73.8295 69.4013 73.8309C70.9011 75.587 73.1512 76.8041 75.5731 77.1729C88.4758 79.0729 89.2667 60.6185 76.8356 59.8841C72.0762 59.6045 67.9124 62.8965 67.3669 67.2575L67.3341 67.6122C67.1455 69.8126 67.9 72.0779 69.3999 73.8295ZM30.6556 67.5233C30.1211 62.4142 24.9696 60.0671 21.8543 59.8813C17.3389 59.6109 12.9656 62.6 12.3778 67.3389C12.3764 67.3562 12.3701 67.4232 12.3637 67.4687C11.0761 79.5122 32.3522 81.3513 30.6556 67.5233ZM1.99349 64.2377C3.52013 66.8658 7.89664 66.5799 10.9073 66.6003C10.915 66.5566 10.9337 66.5175 10.9432 66.4737C11.9072 61.5003 16.6228 58.0021 21.9491 58.324C26.1162 58.5708 31.2208 61.5567 32.1145 66.6645L65.8639 66.7614C66.6858 61.6724 71.534 57.9771 76.9308 58.3258C81.1384 58.5757 86.2698 61.585 87.1244 66.821C92.1479 66.8334 97.9664 67.5459 98.4195 62.5725C98.7054 59.4209 96.1415 57.5508 92.9525 57.4383C92.1839 57.4101 84.5496 57.371 73.9826 57.3163C64.9172 57.2695 53.6423 57.2102 42.8113 57.1383C42.7989 57.1397 42.788 57.1538 42.7753 57.1538C42.7612 57.1538 42.752 57.1397 42.7379 57.1383C10.4119 56.9243 3.42001 55.282 1.71989 61.5148C1.52634 62.2094 1.42021 63.2502 1.99349 64.2377Z" fill="#252525"/>
<path d="M26.3059 66.7439C26.9903 68.439 26.6465 70.6595 25.5074 71.908C22.3388 75.3844 15.8169 72.7094 16.437 67.8657C17.0953 62.6734 24.5279 62.361 26.3059 66.7439ZM21.9749 65.3611L21.6766 65.6593L22.4766 66.4593L23.2343 65.7017C22.8341 65.4954 22.4125 65.3501 22.0077 65.2814C21.9918 65.3064 21.9968 65.3392 21.9749 65.3611ZM23.8919 66.1156C23.8795 66.1328 23.8841 66.1561 23.8686 66.172L23.0295 67.0111L23.1264 67.1081C23.1628 67.1444 23.1917 67.1875 23.2114 67.2349C23.2311 67.2824 23.2412 67.3333 23.2412 67.3847C23.2412 67.436 23.2311 67.4869 23.2114 67.5344C23.1917 67.5819 23.1628 67.625 23.1264 67.6613C23.0529 67.7344 22.9535 67.7755 22.8498 67.7755C22.7462 67.7755 22.6467 67.7344 22.5732 67.6613L22.4763 67.5643L21.8452 68.1954L22.9156 69.2672L24.6016 67.5812C24.6396 67.544 24.6849 67.5151 24.7347 67.4963C24.7845 67.4775 24.8376 67.4692 24.8907 67.4719C24.8752 67.4264 24.8752 67.375 24.8579 67.3312C24.6654 66.8563 24.3153 66.447 23.8919 66.1156ZM25.0684 68.2187L23.4684 69.8187L24.4091 70.7607C24.4105 70.7621 24.4091 70.7639 24.4105 70.7639C24.9231 70.1437 25.1685 69.1484 25.0684 68.2187ZM18.7718 70.5735C19.3578 71.2593 20.2374 71.7314 21.1841 71.8734C22.142 72.011 23.106 71.7797 23.8309 71.2861L22.917 70.3722L22.7918 70.4974C22.6402 70.649 22.3934 70.6504 22.2386 70.4974C22.2023 70.4611 22.1734 70.418 22.1537 70.3705C22.134 70.323 22.1239 70.2721 22.1239 70.2208C22.1239 70.1694 22.134 70.1185 22.1537 70.071C22.1734 70.0236 22.2023 69.9805 22.2386 69.9442L22.3638 69.819L21.2451 68.6989C21.1108 68.7412 21.0184 68.7909 20.8576 68.6301C20.7497 68.5222 20.7466 68.377 20.7889 68.2426L20.6436 68.0974C20.6072 68.0611 20.5784 68.018 20.5587 67.9705C20.539 67.9231 20.5288 67.8722 20.5288 67.8208C20.5288 67.7694 20.539 67.7185 20.5587 67.6711C20.5784 67.6236 20.6072 67.5805 20.6436 67.5442C20.6799 67.5078 20.723 67.4789 20.7705 67.4593C20.8179 67.4396 20.8688 67.4294 20.9202 67.4294C20.9716 67.4294 21.0225 67.4396 21.0699 67.4593C21.1174 67.4789 21.1605 67.5078 21.1968 67.5442L21.2937 67.6412L21.9249 67.0101L21.1249 66.2101L19.4078 67.9289C19.3344 68.002 19.2349 68.0431 19.1312 68.0431C19.0276 68.0431 18.9281 68.002 18.8546 67.9289C18.8183 67.8926 18.7894 67.8495 18.7697 67.802C18.75 67.7545 18.7399 67.7037 18.7399 67.6523C18.7399 67.6009 18.75 67.55 18.7697 67.5025C18.7894 67.4551 18.8183 67.412 18.8546 67.3757L20.5717 65.6586C20.4715 65.5585 20.4373 65.5366 20.4137 65.3681C18.9981 65.7665 18.1389 66.887 17.9887 68.0604C17.878 68.9312 18.1703 69.8687 18.7718 70.5735ZM81.2908 66.7439C81.9765 68.4376 81.6331 70.6578 80.4922 71.908C77.3268 75.3812 70.8049 72.7175 71.4219 67.8657C72.0784 62.6766 79.5191 62.3596 81.2908 66.7439ZM75.2611 65.4143C75.2643 65.4157 75.2674 65.4157 75.2688 65.4175L76.1422 66.2908L76.6858 65.7471C76.5688 65.5955 76.5656 65.3829 76.7031 65.244C76.6781 65.2426 76.653 65.2363 76.628 65.2345C76.1651 65.2076 75.7013 65.2687 75.2611 65.4143ZM78.2738 69.6392L79.9849 67.9282C79.8942 67.461 79.8865 67.2921 79.5568 66.8235L79.1397 67.2406C79.1662 67.3658 79.1538 67.4952 79.0569 67.5939C78.918 67.7328 78.8319 67.705 78.7036 67.6768L77.5066 68.8738L78.2738 69.6392ZM79.3971 70.7625C79.7705 70.3077 79.9877 69.6593 80.0441 68.9735L78.8252 70.1924L79.3971 70.7625ZM79.0283 66.2471C78.711 65.9721 78.3472 65.7454 77.9629 65.5768L77.7785 65.7612L78.6458 66.63L79.0283 66.2471ZM78.8157 71.2861L78.2721 70.7424C78.1991 70.8143 78.1007 70.8544 77.9983 70.8542C77.8959 70.8539 77.7978 70.8132 77.7252 70.741C77.5736 70.5894 77.5754 70.3472 77.7238 70.1941L76.702 69.1724C76.6657 69.1361 76.6368 69.093 76.6171 69.0455C76.5974 68.9981 76.5873 68.9472 76.5873 68.8958C76.5873 68.8444 76.5974 68.7935 76.6171 68.7461C76.6368 68.6986 76.6657 68.6555 76.702 68.6192C76.7239 68.5973 76.7567 68.6019 76.7831 68.5864C76.8018 68.5332 76.805 68.4739 76.8473 68.4302L78.094 67.1835L77.2267 66.3148L76.6971 66.8443L76.8938 67.0411C76.9302 67.0772 76.9591 67.1201 76.9788 67.1675C76.9985 67.2148 77.0086 67.2655 77.0086 67.3168C77.0086 67.368 76.9985 67.4188 76.9788 67.4661C76.9591 67.5134 76.9302 67.5564 76.8938 67.5925C76.7422 67.7441 76.4954 67.7455 76.3407 67.5925L76.1439 67.3958L75.6923 67.8474C75.6188 67.9206 75.5194 67.9616 75.4157 67.9616C75.312 67.9616 75.2126 67.9206 75.1391 67.8474C75.1027 67.8111 75.0738 67.768 75.0541 67.7206C75.0344 67.6731 75.0243 67.6222 75.0243 67.5708C75.0243 67.5194 75.0344 67.4686 75.0541 67.4211C75.0738 67.3736 75.1027 67.3305 75.1391 67.2942L75.5907 66.8426L74.7157 65.9693C74.6423 65.8959 74.6095 65.8004 74.6064 65.7038C74.4703 65.7803 74.3328 65.8568 74.2111 65.9506C70.6473 68.6749 75.1518 73.7795 78.8157 71.2861ZM32.587 38.2552L29.4089 35.0771L25.5123 38.9755C25.4384 39.0458 25.3399 39.0844 25.2379 39.083C25.1359 39.0816 25.0385 39.0404 24.9665 38.9682C24.8945 38.8959 24.8536 38.7984 24.8526 38.6964C24.8515 38.5944 24.8904 38.4961 24.9609 38.4224L28.8575 34.524L26.7012 32.3694L25.1058 33.9648L26.2291 35.0881C26.2996 35.1618 26.3384 35.2601 26.3374 35.3621C26.3363 35.4641 26.2954 35.5616 26.2234 35.6339C26.1514 35.7061 26.054 35.7473 25.952 35.7487C25.8501 35.7501 25.7516 35.7115 25.6776 35.6413L24.5543 34.518L22.6794 36.3929C22.6059 36.4661 22.5064 36.5071 22.4028 36.5071C22.2991 36.5071 22.1996 36.4661 22.1262 36.3929C22.0898 36.3567 22.0609 36.3135 22.0412 36.2661C22.0215 36.2186 22.0114 36.1677 22.0114 36.1164C22.0114 36.065 22.0215 36.0141 22.0412 35.9666C22.0609 35.9192 22.0898 35.876 22.1262 35.8398L24.0012 33.9648L20.6059 30.5695C20.5356 30.4956 20.4971 30.3971 20.4984 30.2951C20.4998 30.1931 20.541 30.0957 20.6133 30.0237C20.6855 29.9517 20.783 29.9108 20.885 29.9098C20.987 29.9087 21.0854 29.9476 21.1591 30.0181L24.5543 33.4133L26.1497 31.818L23.7156 29.3838C23.6792 29.3475 23.6503 29.3044 23.6306 29.2569C23.6109 29.2095 23.6008 29.1586 23.6008 29.1072C23.6008 29.0558 23.6109 29.0049 23.6306 28.9575C23.6503 28.91 23.6792 28.8669 23.7156 28.8306C23.7519 28.7942 23.795 28.7654 23.8424 28.7457C23.8899 28.726 23.9408 28.7158 23.9922 28.7158C24.0436 28.7158 24.0944 28.726 24.1419 28.7457C24.1894 28.7654 24.2325 28.7942 24.2688 28.8306L26.7029 31.2634L27.3608 30.6055C27.5138 30.4524 27.7606 30.4524 27.914 30.6055C28.0674 30.7585 28.067 31.0053 27.914 31.1586L27.2561 31.8165L29.4107 33.9711L30.3482 33.0336C30.3844 32.9972 30.4276 32.9683 30.475 32.9486C30.5225 32.9289 30.5734 32.9187 30.6248 32.9187C30.6762 32.9187 30.7271 32.9289 30.7745 32.9486C30.822 32.9683 30.8651 32.9972 30.9014 33.0336C30.9378 33.0699 30.9666 33.113 30.9863 33.1605C31.006 33.208 31.0161 33.2588 31.0161 33.3102C31.0161 33.3616 31.006 33.4125 30.9863 33.46C30.9666 33.5074 30.9378 33.5505 30.9014 33.5868L29.9639 34.5243L33.142 37.7024C33.1784 37.7387 33.2072 37.7818 33.2269 37.8293C33.2466 37.8767 33.2568 37.9276 33.2568 37.979C33.2568 38.0304 33.2466 38.0813 33.2269 38.1287C33.2072 38.1762 33.1784 38.2193 33.142 38.2556C32.9872 38.4068 32.74 38.4083 32.587 38.2552Z" fill="#252525"/>
</g>
<defs>
<clipPath id="clip0_231_20172">
<rect width="100" height="100" fill="white" transform="matrix(-1 0 0 1 100 0)"/>
</clipPath>
</defs>
</svg>
