<svg width="33" height="32" viewBox="0 0 33 32" fill="none" xmlns="http://www.w3.org/2000/svg">
<path d="M4.23697 18.053C4.17343 18.0357 4.1071 18.0311 4.04178 18.0395C3.97646 18.0479 3.91344 18.0691 3.85634 18.1019C3.79924 18.1347 3.74918 18.1785 3.70905 18.2307C3.66891 18.2829 3.63949 18.3425 3.62246 18.4061C3.60544 18.4698 3.60115 18.5361 3.60984 18.6014C3.61854 18.6667 3.64004 18.7296 3.67312 18.7865C3.7062 18.8435 3.75021 18.8933 3.80261 18.9332C3.85501 18.9731 3.91477 19.0023 3.97847 19.019L8.27647 20.1705L4.55847 22.317C4.44457 22.3838 4.3617 22.4929 4.32795 22.6205C4.2942 22.7482 4.31232 22.884 4.37833 22.9983C4.44435 23.1127 4.55292 23.1963 4.68034 23.2309C4.80776 23.2655 4.94369 23.2483 5.05847 23.183L8.77647 21.0365L7.62497 25.3345C7.60593 25.3985 7.59991 25.4657 7.60727 25.5321C7.61462 25.5985 7.63521 25.6627 7.66781 25.721C7.7004 25.7793 7.74435 25.8305 7.79706 25.8716C7.84977 25.9126 7.91016 25.9427 7.97468 25.96C8.03919 25.9773 8.10652 25.9815 8.17269 25.9723C8.23886 25.9632 8.30252 25.9409 8.35992 25.9067C8.41733 25.8725 8.4673 25.8272 8.5069 25.7734C8.5465 25.7196 8.57491 25.6585 8.59047 25.5935L10.001 20.3295L16 16.866V23.793L12.1465 27.6465C12.0554 27.7408 12.005 27.8671 12.0061 27.9982C12.0073 28.1293 12.0599 28.2547 12.1526 28.3474C12.2453 28.4401 12.3707 28.4927 12.5018 28.4938C12.6329 28.495 12.7592 28.4446 12.8535 28.3535L16 25.207V29.5C16 29.6326 16.0526 29.7598 16.1464 29.8536C16.2402 29.9473 16.3674 30 16.5 30C16.6326 30 16.7598 29.9473 16.8535 29.8536C16.9473 29.7598 17 29.6326 17 29.5V25.207L20.1465 28.3535C20.2408 28.4446 20.3671 28.495 20.4982 28.4938C20.6293 28.4927 20.7547 28.4401 20.8474 28.3474C20.9401 28.2547 20.9927 28.1293 20.9938 27.9982C20.9949 27.8671 20.9446 27.7408 20.8535 27.6465L17 23.793V16.866L22.999 20.3295L24.409 25.5935C24.4433 25.7216 24.5271 25.8308 24.642 25.8971C24.7569 25.9634 24.8934 25.9813 25.0215 25.947C25.1496 25.9127 25.2588 25.8288 25.3251 25.714C25.3914 25.5991 25.4093 25.4626 25.375 25.3345L24.2235 21.0365L27.9415 23.183C27.9984 23.2163 28.0613 23.2381 28.1266 23.247C28.1919 23.256 28.2584 23.2519 28.3221 23.2351C28.3859 23.2182 28.4457 23.1889 28.4981 23.1488C28.5504 23.1088 28.5944 23.0588 28.6274 23.0017C28.6603 22.9446 28.6817 22.8815 28.6902 22.8161C28.6987 22.7507 28.6942 22.6843 28.6769 22.6207C28.6596 22.557 28.6299 22.4974 28.5895 22.4453C28.5491 22.3932 28.4988 22.3496 28.4415 22.317L24.7235 20.1705L29.0215 19.019C29.0852 19.0023 29.1449 18.9731 29.1973 18.9332C29.2497 18.8933 29.2937 18.8435 29.3268 18.7865C29.3599 18.7296 29.3814 18.6667 29.3901 18.6014C29.3988 18.5361 29.3945 18.4698 29.3775 18.4061C29.3605 18.3425 29.331 18.2829 29.2909 18.2307C29.2508 18.1785 29.2007 18.1347 29.1436 18.1019C29.0865 18.0691 29.0235 18.0479 28.9582 18.0395C28.8928 18.0311 28.8265 18.0357 28.763 18.053L23.499 19.463L17.5 16L23.499 12.5365L28.763 13.947C28.8908 13.9806 29.0268 13.9621 29.1411 13.8957C29.2554 13.8293 29.3388 13.7204 29.373 13.5926C29.4071 13.4649 29.3894 13.3289 29.3235 13.2143C29.2576 13.0996 29.149 13.0158 29.0215 12.981L24.7235 11.8295L28.4415 9.683C28.5554 9.61622 28.6382 9.50711 28.672 9.37946C28.7057 9.25181 28.6876 9.116 28.6216 9.00165C28.5556 8.88731 28.447 8.80372 28.3196 8.76913C28.1922 8.73453 28.0563 8.75174 27.9415 8.817L24.2235 10.9635L25.375 6.6655C25.4053 6.53881 25.385 6.40528 25.3184 6.29334C25.2518 6.18139 25.1441 6.09986 25.0183 6.06611C24.8924 6.03236 24.7584 6.04905 24.6447 6.11262C24.531 6.17619 24.4466 6.28163 24.4095 6.4065L22.999 11.6705L17 15.134V8.207L20.8535 4.3535C20.9012 4.30738 20.9393 4.2522 20.9655 4.1912C20.9917 4.1302 21.0055 4.06459 21.0061 3.9982C21.0067 3.93181 20.994 3.86597 20.9689 3.80452C20.9437 3.74307 20.9066 3.68725 20.8597 3.6403C20.8127 3.59336 20.7569 3.55623 20.6954 3.53109C20.634 3.50595 20.5682 3.4933 20.5018 3.49387C20.4354 3.49445 20.3698 3.50824 20.3088 3.53445C20.2478 3.56065 20.1926 3.59875 20.1465 3.6465L17 6.793V2.5C17 2.36739 16.9473 2.24021 16.8535 2.14645C16.7598 2.05268 16.6326 2 16.5 2C16.3674 2 16.2402 2.05268 16.1464 2.14645C16.0526 2.24021 16 2.36739 16 2.5V6.793L12.8535 3.6465C12.7592 3.55542 12.6329 3.50502 12.5018 3.50616C12.3707 3.5073 12.2453 3.55989 12.1526 3.65259C12.0599 3.74529 12.0073 3.8707 12.0061 4.0018C12.005 4.1329 12.0554 4.2592 12.1465 4.3535L16 8.207V15.134L10.001 11.67L8.59097 6.406C8.55663 6.2779 8.4728 6.16869 8.35793 6.1024C8.24307 6.0361 8.10657 6.01815 7.97847 6.0525C7.85037 6.08685 7.74116 6.17067 7.67487 6.28554C7.60857 6.4004 7.59063 6.5369 7.62497 6.665L8.77647 10.963L5.05847 8.8165C4.94369 8.75124 4.80776 8.73403 4.68034 8.76863C4.55292 8.80322 4.44435 8.88681 4.37833 9.00115C4.31232 9.1155 4.2942 9.25131 4.32795 9.37896C4.3617 9.50661 4.44457 9.61572 4.55847 9.6825L8.27647 11.829L3.97847 12.9805C3.91477 12.9972 3.85501 13.0264 3.80261 13.0663C3.75021 13.1062 3.7062 13.156 3.67312 13.213C3.64004 13.2699 3.61854 13.3328 3.60984 13.3981C3.60115 13.4634 3.60544 13.5297 3.62246 13.5934C3.63949 13.657 3.66891 13.7166 3.70905 13.7688C3.74918 13.821 3.79924 13.8648 3.85634 13.8976C3.91344 13.9304 3.97646 13.9516 4.04178 13.96C4.1071 13.9684 4.17343 13.9638 4.23697 13.9465L9.50097 12.5365L15.5 16L9.50097 19.4635L4.23697 18.053Z" fill="#007BFB"/>
</svg>
