<svg width="80" height="80" viewBox="0 0 80 80" fill="none" xmlns="http://www.w3.org/2000/svg">
<path d="M78.6643 43.6725C78.697 36.3719 78.7334 28.2822 78.754 21.9489C78.754 18.3792 77.6582 16.7634 72.92 16.7295L41.7928 16.6616C40.0825 16.6616 37.7406 16.6616 35.9067 17.8713C34.3055 18.9198 33.2437 20.8398 33.0643 23.0083C32.9285 24.7065 32.4788 39.7356 32.034 43.5853C31.9915 43.9343 31.9564 44.3634 31.937 44.8059C31.2631 44.8337 30.5903 44.864 29.9164 44.8968C30.2025 31.9743 30.1637 33.1331 30.2291 31.9428C30.5467 26.0762 29.4509 24.601 22.6037 25.1186C19.4679 25.3574 13.9831 24.5743 8.497 30.1828C3.19033 35.6313 1.78185 42.4531 1.40367 49.6313C1.15639 53.7356 0.453361 56.6628 6.50306 56.7016L12.7806 56.7137C12.9067 64.5598 26.497 66.4398 26.1103 56.7416C26.8412 56.7428 27.5612 56.7937 28.2291 56.5186C30.3079 56.578 39.9709 57.2447 53.9176 57.0277C54.3176 64.635 67.8231 66.3877 67.2376 56.5453C67.9633 56.5149 68.6895 56.4976 69.4158 56.4931C72.6643 56.3174 74.0291 55.3416 74.3188 51.2992C74.3612 50.7392 74.3915 50.1562 74.3479 49.5828C77.8837 49.3234 78.6643 47.1283 78.6643 43.6725ZM23.0231 61.3998C21.3006 63.1222 13.5649 61.984 14 56.1634C14.5891 49.5719 24.3722 49.8846 24.9006 56.6119C25.0267 58.3549 24.2897 60.2349 23.0231 61.3998ZM29.0194 31.8786C29.0158 31.9404 28.4994 53.0047 28.4849 53.5816C28.4267 55.6228 27.9188 55.5404 25.9576 55.5295C24.2752 48.361 14.0994 48.3743 12.8655 55.5016L6.51033 55.4895C1.62185 55.458 2.377 53.6883 2.61579 49.7004C2.98185 42.7368 4.30791 36.2228 9.36488 31.0301C14.314 25.9719 19.0364 26.6059 22.697 26.3283C28.697 25.875 29.2982 26.721 29.0194 31.8786ZM74.0946 17.9816C74.0679 17.995 74.0364 17.9925 74.0134 18.0156L73.8425 18.1865L73.6134 17.9574C73.7746 17.9622 73.9346 17.9695 74.0946 17.9816ZM67.0134 17.9283L68.6982 17.9319L69.6279 18.8616H68.2812C68.1467 18.8616 68.0534 18.9586 68.0134 19.0786L66.9382 18.0022L67.0134 17.9283ZM66.0037 17.9259L66.0812 18.0034L64.8909 19.195L63.617 17.921L66.0037 17.9259ZM62.7576 17.9186L64.0061 19.1671H61.0715C61.0084 19.1713 60.9484 19.196 60.9006 19.2374L59.5746 17.9113L62.7576 17.9186ZM58.4764 17.9089L57.0994 19.2859L55.7164 17.9028L58.4764 17.9089ZM54.2679 17.9004L53.1576 19.0107L52.0412 17.8956L54.2679 17.9004ZM48.7067 17.8883L50.7322 17.8931L49.4158 19.2095C49.4594 19.1004 49.4582 18.978 49.3709 18.8895L48.6885 18.2071C48.7232 18.1619 48.7435 18.1073 48.7467 18.0505C48.75 17.9936 48.736 17.9371 48.7067 17.8883ZM45.6703 17.881L44.6631 18.8883L43.6509 17.8762L45.6703 17.881ZM41.7915 17.8725L42.7928 17.875L42.9746 18.0568C42.9491 18.0701 42.9188 18.0677 42.8982 18.0883L41.8218 19.1634L41.3334 18.6762L41.5964 18.4131C41.6246 18.385 41.6469 18.3515 41.6622 18.3147C41.6774 18.2779 41.6853 18.2384 41.6853 18.1986C41.6853 18.1587 41.6774 18.1193 41.6622 18.0825C41.6469 18.0457 41.6246 18.0122 41.5964 17.984C41.5682 17.9559 41.5348 17.9335 41.498 17.9183C41.4611 17.903 41.4217 17.8952 41.3818 17.8952C41.342 17.8952 41.3025 17.903 41.2657 17.9183C41.2289 17.9335 41.1955 17.9559 41.1673 17.984L40.9043 18.2471L40.5503 17.8931C40.954 17.8786 41.3661 17.8725 41.7915 17.8725ZM38.6946 18.3816C38.7806 18.2956 38.7818 18.1768 38.7431 18.0701C39.0655 18.0119 39.3976 17.9683 39.7406 17.9392L40.4776 18.6762L39.1031 20.0507C39.0679 20.0859 39.0643 20.1343 39.0497 20.1804L37.9734 19.104L38.6946 18.3816ZM37.9637 18.2556L37.5443 18.675L37.3479 18.4786C37.5479 18.3925 37.7528 18.3186 37.9637 18.2556ZM34.274 23.1065C34.341 22.3093 34.5603 21.5325 34.92 20.818L36.2 22.098L34.6425 23.6556L34.2764 23.2895C34.2728 23.2859 34.2667 23.2871 34.2631 23.2834C34.2655 23.2192 34.2703 23.1501 34.274 23.1065ZM34.1928 24.6762C34.2303 24.6919 34.2643 24.7222 34.3055 24.7222C34.3453 24.7224 34.3848 24.7146 34.4216 24.6994C34.4584 24.6842 34.4919 24.6619 34.52 24.6337L34.6412 24.5125L35.5273 25.3974L34.1055 26.8192L34.1928 24.6762ZM34.0255 28.8459L34.8546 29.675L33.9564 30.5731L34.0255 28.8459ZM33.8425 33.3671L34.1528 33.6774L33.8146 34.0156L33.8425 33.3671ZM33.7794 34.795C33.8502 34.7919 33.9175 34.764 33.9697 34.7162L34.5806 34.1053L35.9552 35.4798L34.4582 36.9768L33.7249 36.2434C33.7212 36.2398 33.7164 36.2422 33.714 36.2386C33.737 35.7622 33.7588 35.281 33.7794 34.795ZM33.6752 37.0507L34.0291 37.4046L33.6376 37.7962L33.6752 37.0507ZM33.5928 38.6992L34.4594 37.8337L35.5588 38.9331L34.3685 40.1247L33.6655 39.4216C33.6352 39.3913 33.594 39.3913 33.5564 39.3768L33.5928 38.6992ZM33.5128 40.1271L33.9382 40.5525L33.457 41.0337C33.4764 40.7428 33.4946 40.441 33.5128 40.1271ZM33.2388 43.7271L33.2412 43.7053L34.3358 44.7998L33.1709 45.9647C33.147 45.7687 33.1337 45.5717 33.1309 45.3743C33.12 44.8034 33.1831 44.1962 33.2388 43.7271ZM64.1285 61.4216C62.0703 63.3113 53.8897 61.5634 55.2509 55.4568C55.6473 53.6762 56.8509 52.6859 56.6097 52.9283C62.0134 47.5198 69.7625 56.275 64.1285 61.4216ZM73.1115 51.2083V51.2107C72.8655 54.6434 71.954 55.1404 69.3843 55.281C68.6012 55.281 67.817 55.2968 67.0267 55.3271C65.1346 48.1853 54.8728 48.5598 53.96 55.818C45.7757 55.9435 37.5894 55.787 29.4158 55.3489C29.6425 54.7974 29.7103 54.1574 29.7249 53.5719L29.8909 46.1077C30.5789 46.0739 31.267 46.0432 31.9552 46.0156C32.2509 48.7525 34.2788 49.3574 37.0206 49.3792C61.7576 49.5404 73.1406 49.6265 73.1406 49.6265C73.1843 50.1259 73.1528 50.6604 73.1115 51.2083ZM73.0134 48.4156C61.64 48.3295 48.8412 48.2459 37.0291 48.1683C35.2485 48.1537 33.8388 47.9998 33.3406 46.6507L34.7637 45.2277L34.8121 45.2762C34.8403 45.3043 34.8738 45.3267 34.9106 45.3419C34.9474 45.3572 34.9869 45.365 35.0267 45.365C35.0665 45.365 35.106 45.3572 35.1428 45.3419C35.1796 45.3267 35.2131 45.3043 35.2412 45.2762C35.2694 45.248 35.2918 45.2145 35.307 45.1777C35.3223 45.1409 35.3301 45.1015 35.3301 45.0616C35.3301 45.0218 35.3223 44.9823 35.307 44.9455C35.2918 44.9087 35.2694 44.8752 35.2412 44.8471L35.1928 44.7986L38.4582 41.5331C38.4864 41.505 38.5087 41.4715 38.524 41.4347C38.5392 41.3979 38.5471 41.3584 38.5471 41.3186C38.5471 41.2787 38.5392 41.2393 38.524 41.2025C38.5087 41.1657 38.4864 41.1322 38.4582 41.104C38.43 41.0759 38.3966 41.0535 38.3598 41.0383C38.323 41.023 38.2835 41.0152 38.2437 41.0152C38.2038 41.0152 38.1644 41.023 38.1276 41.0383C38.0907 41.0535 38.0573 41.0759 38.0291 41.104L34.7637 44.3695L33.3176 42.9222C33.3467 42.5925 33.3758 42.2289 33.4037 41.8253C33.4782 41.8233 33.5494 41.794 33.6037 41.7428L34.3673 40.9792L35.8752 42.4871C35.9034 42.5152 35.9368 42.5376 35.9736 42.5528C36.0104 42.5681 36.0499 42.5759 36.0897 42.5759C36.1296 42.5759 36.169 42.5681 36.2058 42.5528C36.2426 42.5376 36.2761 42.5152 36.3043 42.4871C36.3324 42.4589 36.3548 42.4254 36.37 42.3886C36.3853 42.3518 36.3931 42.3124 36.3931 42.2725C36.3931 42.2327 36.3853 42.1932 36.37 42.1564C36.3548 42.1196 36.3324 42.0862 36.3043 42.058L34.7964 40.5501L37.2728 38.0737C37.3009 38.0456 37.3233 38.0121 37.3385 37.9753C37.3538 37.9385 37.3616 37.899 37.3616 37.8592C37.3616 37.8193 37.3538 37.7799 37.3385 37.7431C37.3233 37.7063 37.3009 37.6728 37.2728 37.6446C37.2446 37.6165 37.2111 37.5941 37.1743 37.5789C37.1375 37.5636 37.0981 37.5558 37.0582 37.5558C37.0184 37.5558 36.9789 37.5636 36.9421 37.5789C36.9053 37.5941 36.8718 37.6165 36.8437 37.6446L35.9867 38.5016L34.8873 37.4022L36.6606 35.6289C36.7031 35.5865 36.7321 35.5325 36.7438 35.4736C36.7556 35.4148 36.7495 35.3537 36.7266 35.2983C36.7036 35.2429 36.6647 35.1955 36.6147 35.1622C36.5648 35.1289 36.5061 35.1112 36.4461 35.1113L35.0085 33.675L36.8728 31.8119C36.9017 31.7839 36.9247 31.7505 36.9405 31.7135C36.9563 31.6765 36.9646 31.6367 36.9649 31.5965C36.9652 31.5562 36.9575 31.5163 36.9422 31.4791C36.9269 31.4419 36.9044 31.4081 36.8759 31.3797C36.8474 31.3513 36.8135 31.3288 36.7763 31.3136C36.739 31.2985 36.6991 31.2908 36.6589 31.2913C36.6186 31.2917 36.5789 31.3001 36.5419 31.316C36.505 31.3319 36.4716 31.3551 36.4437 31.384L34.5794 33.2471L33.9079 32.5756C33.8982 32.5659 33.8849 32.5695 33.874 32.5622L33.9188 31.4653L35.2812 30.1028L36.16 30.9816C36.188 31.0105 36.2215 31.0336 36.2585 31.0494C36.2955 31.0652 36.3353 31.0735 36.3755 31.0738C36.4157 31.0741 36.4556 31.0664 36.4928 31.0511C36.5301 31.0358 36.5639 31.0132 36.5923 30.9848C36.6207 30.9563 36.6431 30.9224 36.6583 30.8851C36.6735 30.8479 36.6811 30.808 36.6807 30.7677C36.6803 30.7275 36.6719 30.6877 36.656 30.6508C36.64 30.6138 36.6169 30.5804 36.5879 30.5525L35.7091 29.6737L38.0606 27.3222C38.0888 27.2941 38.1112 27.2606 38.1264 27.2238C38.1417 27.187 38.1495 27.1475 38.1495 27.1077C38.1495 27.0678 38.1417 27.0284 38.1264 26.9916C38.1112 26.9548 38.0888 26.9213 38.0606 26.8931C38.0325 26.865 37.999 26.8426 37.9622 26.8274C37.9254 26.8121 37.8859 26.8043 37.8461 26.8043C37.8062 26.8043 37.7668 26.8121 37.73 26.8274C37.6932 26.8426 37.6597 26.865 37.6315 26.8931L35.28 29.2447L34.0546 28.0192L34.0667 27.7089L35.9515 25.824L36.7625 26.6337C36.7906 26.6619 36.8241 26.6843 36.8609 26.6995C36.8977 26.7148 36.9372 26.7226 36.977 26.7226C37.0168 26.7226 37.0563 26.7148 37.0931 26.6995C37.1299 26.6843 37.1634 26.6619 37.1915 26.6337C37.2197 26.6056 37.2421 26.5721 37.2573 26.5353C37.2726 26.4985 37.2804 26.459 37.2804 26.4192C37.2804 26.3794 37.2726 26.3399 37.2573 26.3031C37.2421 26.2663 37.2197 26.2328 37.1915 26.2046L36.3818 25.395L37.6752 24.1016C37.7034 24.0734 37.7257 24.04 37.741 24.0032C37.7562 23.9664 37.764 23.9269 37.764 23.8871C37.764 23.8472 37.7562 23.8078 37.741 23.771C37.7257 23.7342 37.7034 23.7007 37.6752 23.6725C37.647 23.6444 37.6136 23.622 37.5767 23.6068C37.5399 23.5915 37.5005 23.5837 37.4606 23.5837C37.4208 23.5837 37.3813 23.5915 37.3445 23.6068C37.3077 23.622 37.2743 23.6444 37.2461 23.6725L35.9552 24.9695L35.0703 24.0847L36.6279 22.5271L37.7564 23.6556C37.7846 23.6837 37.818 23.7061 37.8548 23.7213C37.8916 23.7366 37.9311 23.7444 37.9709 23.7444C38.0108 23.7444 38.0502 23.7366 38.0871 23.7213C38.1239 23.7061 38.1573 23.6837 38.1855 23.6556C38.2137 23.6274 38.236 23.5939 38.2513 23.5571C38.2665 23.5203 38.2744 23.4809 38.2744 23.441C38.2744 23.4012 38.2665 23.3617 38.2513 23.3249C38.236 23.2881 38.2137 23.2546 38.1855 23.2265L37.057 22.098L37.5528 21.6022C37.5809 21.5741 37.6033 21.5406 37.6185 21.5038C37.6338 21.467 37.6416 21.4275 37.6416 21.3877C37.6416 21.3478 37.6338 21.3084 37.6185 21.2716C37.6033 21.2348 37.5809 21.2013 37.5528 21.1731C37.5246 21.145 37.4911 21.1226 37.4543 21.1074C37.4175 21.0921 37.3781 21.0843 37.3382 21.0843C37.2984 21.0843 37.2589 21.0921 37.2221 21.1074C37.1853 21.1226 37.1518 21.145 37.1237 21.1731L36.6279 21.6689L35.2425 20.2834C35.7794 19.4628 36.2376 19.0847 36.7794 18.7659L37.1164 19.1028L35.8643 20.355C35.8354 20.3829 35.8123 20.4164 35.7965 20.4534C35.7807 20.4904 35.7724 20.5302 35.7721 20.5704C35.7718 20.6106 35.7795 20.6505 35.7948 20.6878C35.8101 20.725 35.8326 20.7588 35.8611 20.7872C35.8896 20.8156 35.9235 20.8381 35.9608 20.8532C35.998 20.8684 36.0379 20.876 36.0782 20.8756C36.1184 20.8752 36.1581 20.8668 36.1951 20.8509C36.232 20.8349 36.2654 20.8118 36.2934 20.7828L37.5455 19.5307L39.2522 21.2374C39.2803 21.2656 39.3138 21.2879 39.3506 21.3032C39.3874 21.3184 39.4269 21.3262 39.4667 21.3262C39.5065 21.3262 39.546 21.3184 39.5828 21.3032C39.6196 21.2879 39.6531 21.2656 39.6812 21.2374C39.7094 21.2092 39.7318 21.1758 39.747 21.1389C39.7623 21.1021 39.7701 21.0627 39.7701 21.0228C39.7701 20.983 39.7623 20.9435 39.747 20.9067C39.7318 20.8699 39.7094 20.8365 39.6812 20.8083L39.4037 20.5307C39.4485 20.5162 39.497 20.5125 39.5334 20.4774L40.9079 19.1028L41.9503 20.1453C41.9782 20.1742 42.0117 20.1974 42.0486 20.2133C42.0855 20.2292 42.1253 20.2376 42.1655 20.238C42.2058 20.2385 42.2457 20.2308 42.2829 20.2157C42.3202 20.2005 42.3541 20.178 42.3826 20.1496C42.411 20.1212 42.4336 20.0874 42.4489 20.0502C42.4642 20.013 42.4719 19.9731 42.4716 19.9328C42.4713 19.8926 42.463 19.8528 42.4472 19.8158C42.4314 19.7788 42.4083 19.7454 42.3794 19.7174L42.2534 19.5913L43.3297 18.5162C43.3515 18.4943 43.3479 18.464 43.3612 18.4386L45.4631 20.5404C45.4912 20.5686 45.5247 20.5909 45.5615 20.6062C45.5983 20.6214 45.6378 20.6293 45.6776 20.6293C45.7174 20.6293 45.7569 20.6214 45.7937 20.6062C45.8305 20.5909 45.864 20.5686 45.8922 20.5404C45.9203 20.5122 45.9427 20.4788 45.9579 20.442C45.9732 20.4052 45.981 20.3657 45.981 20.3259C45.981 20.286 45.9732 20.2466 45.9579 20.2098C45.9427 20.1729 45.9203 20.1395 45.8922 20.1113L45.0958 19.315L46.5297 17.881L47.5128 17.8834L47.8449 18.2156L46.8061 19.2543C46.7779 19.2825 46.7556 19.316 46.7403 19.3528C46.7251 19.3896 46.7172 19.429 46.7172 19.4689C46.7172 19.5087 46.7251 19.5482 46.7403 19.585C46.7556 19.6218 46.7779 19.6553 46.8061 19.6834C46.8343 19.7116 46.8677 19.734 46.9045 19.7492C46.9413 19.7645 46.9808 19.7723 47.0206 19.7723C47.0605 19.7723 47.0999 19.7645 47.1367 19.7492C47.1736 19.734 47.207 19.7116 47.2352 19.6834L48.274 18.6447L48.9467 19.3174C49.0485 19.4192 49.1952 19.4459 49.3418 19.3307C49.2788 19.4459 49.2764 19.5853 49.3734 19.6834C49.4015 19.7117 49.4349 19.734 49.4718 19.7493C49.5086 19.7646 49.548 19.7725 49.5879 19.7725C49.6278 19.7725 49.6672 19.7646 49.704 19.7493C49.7409 19.734 49.7743 19.7117 49.8025 19.6834L51.3903 18.0956L53.1649 19.8701C53.1931 19.8983 53.2265 19.9206 53.2633 19.9359C53.3001 19.9511 53.3396 19.959 53.3794 19.959C53.4193 19.959 53.4587 19.9511 53.4955 19.9359C53.5323 19.9206 53.5658 19.8983 53.594 19.8701C53.6221 19.8419 53.6445 19.8085 53.6597 19.7717C53.675 19.7349 53.6828 19.6954 53.6828 19.6556C53.6828 19.6157 53.675 19.5763 53.6597 19.5394C53.6445 19.5026 53.6221 19.4692 53.594 19.441L53.5915 19.4386L54.9964 18.0337L56.714 19.7513C56.6812 19.8556 56.6849 19.9671 56.7673 20.0495C56.7955 20.0777 56.8289 20.1 56.8657 20.1152C56.9026 20.1304 56.942 20.1381 56.9818 20.138C57.0121 20.138 57.0364 20.1125 57.0655 20.1028L57.8412 20.8786C57.8981 20.9355 57.9753 20.9675 58.0558 20.9675C58.1363 20.9675 58.2134 20.9355 58.2703 20.8786C58.3272 20.8217 58.3592 20.7445 58.3592 20.664C58.3592 20.5836 58.3272 20.5064 58.2703 20.4495L57.5322 19.7113L59.0279 18.2156L60.7588 19.9465C60.7869 19.9748 60.8203 19.9974 60.8571 20.0127C60.894 20.0281 60.9335 20.036 60.9734 20.036C61.0133 20.036 61.0528 20.0281 61.0896 20.0127C61.1264 19.9974 61.1598 19.9748 61.1879 19.9465C61.2312 19.8977 61.2568 19.8358 61.2606 19.7707H64.1176C64.2558 19.7707 64.3528 19.6689 64.3891 19.5428L64.9709 20.1247C64.9989 20.1536 65.0324 20.1766 65.0694 20.1924C65.1064 20.2082 65.1462 20.2165 65.1864 20.2168C65.2266 20.2171 65.2665 20.2094 65.3037 20.1941C65.341 20.1788 65.3748 20.1563 65.4032 20.1278C65.4316 20.0993 65.454 20.0654 65.4692 20.0282C65.4844 19.9909 65.492 19.951 65.4916 19.9108C65.4912 19.8705 65.4828 19.8308 65.4669 19.7938C65.4509 19.7569 65.4278 19.7235 65.3988 19.6956L65.3224 19.6192L66.5128 18.4289L67.9625 19.8786C68.0173 19.9363 68.0928 19.9699 68.1723 19.9719C68.2519 19.974 68.329 19.9443 68.3867 19.8895C68.4444 19.8347 68.478 19.7592 68.48 19.6796C68.4821 19.6001 68.4524 19.523 68.3976 19.4653H70.2376L71.274 20.5016C71.3021 20.5298 71.3356 20.5521 71.3724 20.5674C71.4092 20.5826 71.4487 20.5905 71.4885 20.5905C71.5284 20.5905 71.5678 20.5826 71.6046 20.5674C71.6414 20.5521 71.6749 20.5298 71.7031 20.5016C71.7312 20.4734 71.7536 20.44 71.7688 20.4032C71.7841 20.3664 71.7919 20.3269 71.7919 20.2871C71.7919 20.2472 71.7841 20.2078 71.7688 20.171C71.7536 20.1342 71.7312 20.1007 71.7031 20.0725L69.56 17.9295L71.954 17.9343L71.0037 18.8847C70.9755 18.9128 70.9531 18.9463 70.9379 18.9831C70.9226 19.0199 70.9148 19.0594 70.9148 19.0992C70.9148 19.139 70.9226 19.1785 70.9379 19.2153C70.9531 19.2521 70.9755 19.2856 71.0037 19.3137C71.0318 19.3419 71.0653 19.3643 71.1021 19.3795C71.1389 19.3948 71.1784 19.4026 71.2182 19.4026C71.2581 19.4026 71.2975 19.3948 71.3343 19.3795C71.3711 19.3643 71.4046 19.3419 71.4328 19.3137L72.777 17.9695L73.4182 18.6107L72.8376 19.1913C72.8087 19.2193 72.7857 19.2528 72.7698 19.2898C72.754 19.3268 72.7457 19.3665 72.7454 19.4068C72.7451 19.447 72.7529 19.4869 72.7681 19.5241C72.7834 19.5613 72.806 19.5951 72.8345 19.6236C72.863 19.652 72.8968 19.6744 72.9341 19.6896C72.9714 19.7048 73.0113 19.7124 73.0515 19.712C73.0917 19.7116 73.1315 19.7032 73.1684 19.6872C73.2054 19.6713 73.2388 19.6482 73.2667 19.6192L73.8473 19.0386L75.0449 20.2362C75.1018 20.2931 75.179 20.325 75.2594 20.325C75.3399 20.325 75.4171 20.2931 75.474 20.2362C75.5309 20.1793 75.5628 20.1021 75.5628 20.0216C75.5628 19.9411 75.5309 19.864 75.474 19.8071L74.2764 18.6095L74.4473 18.4386C74.4755 18.4104 74.4979 18.377 74.5132 18.3402C74.5285 18.3034 74.5363 18.2639 74.5363 18.224C74.5363 18.1842 74.5285 18.1447 74.5132 18.1079C74.4979 18.0711 74.4755 18.0376 74.4473 18.0095L74.4449 18.0083C77.2946 18.3137 77.5467 19.7319 77.5467 21.9392C77.5261 28.2713 77.4897 36.3622 77.457 43.664C77.4521 47.7271 76.3976 48.4156 73.0134 48.4156Z" fill="#252525"/>
<path d="M16.7188 54.1199C16.1298 54.7286 15.7703 55.5229 15.7018 56.3672C15.3249 61.4314 24.1006 62.1514 23.1673 56.3272C22.6606 53.1138 18.834 51.9793 16.7188 54.1199ZM17.1176 57.6714C16.9433 57.2947 16.8714 56.8787 16.9091 56.4653C17.1794 53.4581 21.72 53.4775 21.9879 56.6932C22.234 60.0968 18.0946 59.7223 17.1176 57.6714ZM61.9988 53.0435C56.3127 50.7659 53.6824 60.7332 61.1964 60.7332C65.2158 60.7332 65.9139 54.6156 61.9988 53.0435ZM59.7333 59.2787C56.0546 57.9987 58.0352 52.7647 61.5491 54.1684C64.4424 55.3308 64.0533 60.7841 59.7333 59.2787ZM18.823 29.1126C15.3867 29.6605 12.7273 30.9502 10.6933 33.0568C7.60486 36.2544 7.33335 39.6314 7.04001 40.8435C6.36729 43.6302 8.59759 44.0278 11.6388 43.9599C13.9176 43.9029 14.4546 42.9623 14.7564 41.4241C15.1382 39.4714 15.1952 39.8799 22.1649 39.7235C25.1879 39.6568 24.5976 38.0326 24.5479 32.7623C24.5006 27.8411 21.4715 28.6884 18.823 29.1126ZM22.137 38.5126C21.4255 38.5284 18.1806 38.6096 17.4691 38.6023C11.3455 38.4981 15.4982 42.6581 11.6085 42.749C10.8958 42.7696 8.72001 42.6775 8.20001 42.189C7.93335 41.9393 8.28244 40.9417 8.33698 40.5599C8.70183 38.0059 9.87516 35.6496 11.5661 33.8993C13.4097 31.989 15.8473 30.8144 19.0146 30.3102C21.6436 29.8884 23.303 29.1381 23.3358 32.7744C23.3903 38.5805 23.7188 38.4787 22.137 38.5126ZM22.337 42.7405C22.023 42.8569 21.8376 43.1817 21.9552 43.4956C21.6958 43.6302 18.3612 43.549 18.3018 43.4593C18.8436 42.8799 17.9782 42.0581 17.4279 42.6193C17.3132 42.7384 17.2239 42.8795 17.1651 43.0341C17.1064 43.1886 17.0795 43.3535 17.0861 43.5187C17.1358 45.0193 18.7758 44.7696 21.4764 44.7696C23.7552 44.7696 23.5503 42.2896 22.337 42.7405ZM45.8 27.5502H68.1273C68.1527 27.5502 68.1685 27.5296 68.1915 27.5235L68.1091 27.6108L66.0764 29.6472C66.0195 29.7041 65.9875 29.7812 65.9875 29.8617C65.9875 29.9422 66.0195 30.0193 66.0764 30.0762C66.1333 30.1331 66.2104 30.1651 66.2909 30.1651C66.3714 30.1651 66.4486 30.1331 66.5055 30.0762L68.5394 28.0387C69.2982 27.275 69.1964 26.6314 68.24 26.1356L66.0036 24.9793C65.9323 24.9423 65.8492 24.9352 65.7725 24.9595C65.6959 24.9838 65.6321 25.0376 65.5952 25.109C65.5582 25.1803 65.5511 25.2635 65.5754 25.3401C65.5997 25.4167 65.6535 25.4805 65.7249 25.5175L67.9612 26.6738C68.1964 26.795 68.5006 26.9599 68.4133 27.2059C68.3915 27.0605 68.2788 26.9429 68.1273 26.9429H45.8C45.7195 26.9429 45.6422 26.9749 45.5853 27.0318C45.5284 27.0888 45.4964 27.166 45.4964 27.2465C45.4964 27.3271 45.5284 27.4043 45.5853 27.4612C45.6422 27.5182 45.7195 27.5502 45.8 27.5502ZM68.7346 37.6278H46.4073C46.3818 37.6278 46.3661 37.6484 46.343 37.6544L46.4255 37.5684L48.4582 35.532C48.4871 35.504 48.5101 35.4705 48.526 35.4335C48.5418 35.3966 48.5501 35.3568 48.5504 35.3165C48.5507 35.2763 48.5429 35.2364 48.5277 35.1992C48.5124 35.162 48.4898 35.1282 48.4613 35.0998C48.4328 35.0714 48.399 35.0489 48.3617 35.0337C48.3244 35.0185 48.2845 35.0109 48.2443 35.0113C48.2041 35.0117 48.1643 35.0201 48.1274 35.0361C48.0904 35.052 48.057 35.0751 48.0291 35.1041L45.9964 37.1405C45.2352 37.9017 45.3382 38.5502 46.2946 39.0435L48.5309 40.1999C48.6023 40.2369 48.6854 40.244 48.762 40.2196C48.8386 40.1953 48.9024 40.1415 48.9394 40.0702C48.9764 39.9988 48.9835 39.9157 48.9592 39.8391C48.9348 39.7625 48.8811 39.6987 48.8097 39.6617L46.5733 38.5053C46.3382 38.3841 46.034 38.2193 46.1212 37.972C46.143 38.1175 46.2558 38.235 46.4085 38.235H68.7358C68.7756 38.235 68.8151 38.227 68.8519 38.2117C68.8887 38.1964 68.9222 38.1739 68.9503 38.1457C68.9784 38.1174 69.0007 38.0839 69.0159 38.047C69.0311 38.0102 69.0389 37.9707 69.0388 37.9308C69.0387 37.8909 69.0308 37.8514 69.0155 37.8146C69.0001 37.7778 68.9777 37.7444 68.9494 37.7163C68.9212 37.6881 68.8877 37.6658 68.8508 37.6506C68.8139 37.6355 68.7744 37.6277 68.7346 37.6278Z" fill="#252525"/>
</svg>
