<svg width="24" height="25" viewBox="0 0 24 25" fill="none" xmlns="http://www.w3.org/2000/svg">
<path fill-rule="evenodd" clip-rule="evenodd" d="M5.25 20.5C5.25 20.0858 5.58579 19.75 6 19.75L18 19.75C18.4142 19.75 18.75 20.0858 18.75 20.5C18.75 20.9142 18.4142 21.25 18 21.25L6 21.25C5.58579 21.25 5.25 20.9142 5.25 20.5Z" fill="#252525"/>
<path fill-rule="evenodd" clip-rule="evenodd" d="M11.4697 17.0303C11.7626 17.3232 12.2374 17.3232 12.5303 17.0303L16.0303 13.5303C16.3232 13.2374 16.3232 12.7626 16.0303 12.4697C15.7374 12.1768 15.2626 12.1768 14.9697 12.4697L12.75 14.6893V4.5C12.75 4.08579 12.4142 3.75 12 3.75C11.5858 3.75 11.25 4.08579 11.25 4.5V14.6893L9.03033 12.4697C8.73744 12.1768 8.26256 12.1768 7.96967 12.4697C7.67678 12.7626 7.67678 13.2374 7.96967 13.5303L11.4697 17.0303Z" fill="#252525"/>
</svg>
