<svg width="24" height="25" viewBox="0 0 24 25" fill="none" xmlns="http://www.w3.org/2000/svg">
<path fill-rule="evenodd" clip-rule="evenodd" d="M6.38552 12.0699C6.62305 11.7306 7.0907 11.648 7.43004 11.8856L11.9999 15.0845L16.5698 11.8856C16.9092 11.648 17.3768 11.7306 17.6144 12.0699C17.8519 12.4092 17.7694 12.8769 17.43 13.1144L12.43 16.6144C12.1718 16.7952 11.8281 16.7952 11.5698 16.6144L6.56985 13.1144C6.23051 12.8769 6.14798 12.4092 6.38552 12.0699Z" fill="white"/>
<path fill-rule="evenodd" clip-rule="evenodd" d="M10.5851 2.47441C11.456 1.95189 12.544 1.95189 13.4149 2.47441L21.4149 7.27441C22.2432 7.7714 22.75 8.66655 22.75 9.63252V20.5001C22.75 22.0189 21.5188 23.2501 20 23.2501H4C2.48122 23.2501 1.25 22.0189 1.25 20.5001V9.63252C1.25 8.66655 1.75682 7.7714 2.58514 7.27441L10.5851 2.47441ZM12.6431 3.76065C12.2473 3.52314 11.7527 3.52314 11.3569 3.76065L3.35688 8.56065C2.98037 8.78656 2.75 9.19344 2.75 9.63252V20.5001C2.75 21.1905 3.30964 21.7501 4 21.7501H20C20.6904 21.7501 21.25 21.1905 21.25 20.5001V9.63252C21.25 9.19344 21.0196 8.78656 20.6431 8.56065L12.6431 3.76065Z" fill="white"/>
</svg>
