<svg width="33" height="32" viewBox="0 0 33 32" fill="none" xmlns="http://www.w3.org/2000/svg">
<path d="M25.841 9.60348C26.648 8.50198 27.915 7.20298 29.605 5.74498C29.8374 5.54663 30.0239 5.30014 30.1516 5.02258C30.2793 4.74501 30.3451 4.443 30.3445 4.13748C30.3458 3.82023 30.2757 3.50676 30.1393 3.22033C30.0028 2.93391 29.8037 2.68189 29.5565 2.48298C28.7765 1.84998 27.6555 1.83998 26.8915 2.46048C24.9225 4.05298 23.4985 6.05148 22.651 7.44748C22.3143 8.00254 21.8661 8.4818 21.3349 8.85503C20.8037 9.22826 20.2009 9.48736 19.5645 9.61598L19.49 9.63098L16.997 7.69798C16.6573 7.43323 16.2463 7.27583 15.8166 7.2459C15.387 7.21598 14.9582 7.31488 14.585 7.52998L3.74851 13.741C3.45803 13.9061 3.20987 14.1365 3.02359 14.4139C2.8373 14.6913 2.71797 15.0081 2.67501 15.3395C2.61588 15.7789 2.69376 16.2259 2.89801 16.6195L2.66701 18.994C2.64079 19.2701 2.67556 19.5486 2.76888 19.8098C2.86219 20.071 3.01176 20.3085 3.20701 20.5055L12.1565 29.4545C12.4643 29.7572 12.8665 29.9456 13.2961 29.9883C13.7257 30.0311 14.1571 29.9256 14.5185 29.6895L26.412 21.8285C26.6697 21.6568 26.8809 21.4241 27.0269 21.1511C27.1728 20.878 27.249 20.5731 27.2485 20.2635V18.0805C27.4396 17.7659 27.5472 17.4078 27.561 17.04C27.5766 16.6941 27.5084 16.3495 27.3622 16.0357C27.2159 15.7218 26.9959 15.448 26.721 15.2375L24.9845 13.8915L24.956 12.4215C24.936 11.3985 25.249 10.3985 25.841 9.60348ZM25.859 20.995L13.9665 28.855C13.7974 28.9655 13.5956 29.0149 13.3946 28.9949C13.1936 28.9748 13.0055 28.8867 12.8615 28.745L3.91751 19.8025C3.73001 19.6115 3.63751 19.352 3.66251 19.0905L3.80001 17.6715L12.247 26.1185C12.4494 26.3202 12.6896 26.4801 12.9539 26.589C13.2181 26.6979 13.5012 26.7536 13.787 26.753C14.2 26.753 14.615 26.6365 14.977 26.398L26.2485 18.9915V20.264C26.2485 20.56 26.1025 20.8335 25.859 20.995ZM26.5615 17.001C26.5553 17.1877 26.5042 17.3702 26.4123 17.5329C26.3205 17.6956 26.1907 17.8337 26.034 17.9355L14.4285 25.562C14.2026 25.7094 13.9329 25.7748 13.6645 25.7473C13.3962 25.7198 13.1454 25.6011 12.954 25.411L4.00001 16.456C3.73951 16.196 3.61801 15.837 3.66651 15.4715C3.71501 15.106 3.92651 14.7915 4.24651 14.6085L15.0825 8.39798C15.284 8.28173 15.5156 8.22821 15.7477 8.24424C15.9798 8.26027 16.2019 8.34513 16.3855 8.48798L26.109 16.028C26.412 16.263 26.577 16.6175 26.5615 17.001ZM20.478 10.397C21.74 9.96542 22.8111 9.1057 23.5055 7.96698C24.312 6.63898 25.663 4.73998 27.521 3.23698C27.9205 2.91348 28.512 2.92298 28.9285 3.26048C29.0592 3.36609 29.1644 3.49976 29.2364 3.65157C29.3085 3.80338 29.3454 3.96945 29.3445 4.13748C29.3445 4.47048 29.2065 4.77098 28.9545 4.98598C27.2045 6.49498 25.886 7.84998 25.0365 9.00948C24.315 9.97848 23.9315 11.1975 23.9565 12.4415L23.969 13.104L20.478 10.397Z" fill="black"/>
<path d="M14.2065 10.8L6.71001 15.099C6.6516 15.1308 6.60013 15.174 6.55863 15.226C6.51713 15.278 6.48643 15.3378 6.46833 15.4018C6.45022 15.4659 6.44508 15.5329 6.4532 15.5989C6.46132 15.665 6.48254 15.7287 6.51562 15.7864C6.5487 15.8442 6.59296 15.8947 6.64583 15.9351C6.69869 15.9755 6.75909 16.005 6.82348 16.0218C6.88787 16.0385 6.95496 16.0423 7.02082 16.0328C7.08668 16.0233 7.14998 16.0007 7.20701 15.9665L14.7045 11.6685C14.9959 11.5022 15.3312 11.4291 15.6653 11.459C15.9994 11.489 16.3164 11.6205 16.5735 11.836L23.1675 17.3815C23.2175 17.4258 23.2758 17.4596 23.339 17.481C23.4022 17.5024 23.4691 17.5109 23.5357 17.506C23.6023 17.5012 23.6672 17.483 23.7267 17.4526C23.7861 17.4223 23.8389 17.3803 23.8819 17.3292C23.9249 17.2781 23.9572 17.219 23.9769 17.1552C23.9966 17.0914 24.0034 17.0243 23.9968 16.9579C23.9902 16.8915 23.9704 16.827 23.9384 16.7684C23.9065 16.7097 23.8632 16.6581 23.811 16.6165L17.2165 11.07C16.8024 10.723 16.292 10.5111 15.7539 10.4629C15.2158 10.4146 14.6758 10.5322 14.2065 10.8Z" fill="black"/>
<path d="M15.2115 13.5665C15.1096 13.4852 14.9799 13.447 14.8502 13.4599C14.7205 13.4728 14.601 13.5358 14.5171 13.6355C14.4332 13.7353 14.3915 13.8639 14.401 13.9939C14.4105 14.1239 14.4704 14.245 14.568 14.3315L20.0455 18.9335C20.0957 18.9759 20.1539 19.008 20.2165 19.0279C20.2792 19.0478 20.3452 19.055 20.4108 19.0493C20.4763 19.0436 20.54 19.025 20.5983 18.9946C20.6566 18.9641 20.7083 18.9225 20.7505 18.872C20.8356 18.7704 20.8769 18.6393 20.8654 18.5073C20.8539 18.3753 20.7904 18.2532 20.689 18.168L15.2115 13.5665ZM12.517 15.48C12.4151 15.3987 12.2854 15.3605 12.1557 15.3734C12.026 15.3863 11.9065 15.4493 11.8226 15.549C11.7387 15.6488 11.697 15.7774 11.7065 15.9074C11.716 16.0374 11.7759 16.1585 11.8735 16.245L17.346 20.847C17.3959 20.8913 17.4542 20.9251 17.5175 20.9465C17.5807 20.9679 17.6476 20.9764 17.7142 20.9716C17.7808 20.9667 17.8457 20.9485 17.9051 20.9182C17.9646 20.8878 18.0174 20.8458 18.0603 20.7948C18.1033 20.7437 18.1356 20.6845 18.1554 20.6207C18.1751 20.5569 18.1819 20.4899 18.1753 20.4234C18.1687 20.357 18.1488 20.2926 18.1169 20.2339C18.085 20.1753 18.0417 20.1236 17.9895 20.082L12.517 15.48ZM9.81747 17.3875C9.76752 17.3432 9.7092 17.3093 9.64596 17.288C9.58272 17.2666 9.51584 17.258 9.44926 17.2629C9.38268 17.2678 9.31774 17.2859 9.25829 17.3163C9.19883 17.3467 9.14606 17.3886 9.10309 17.4397C9.06011 17.4908 9.0278 17.55 9.00807 17.6138C8.98833 17.6775 8.98157 17.7446 8.98817 17.8111C8.99478 17.8775 9.01462 17.9419 9.04653 18.0006C9.07844 18.0592 9.12177 18.1109 9.17397 18.1525L14.6515 22.7545C14.7017 22.7969 14.7599 22.829 14.8225 22.8489C14.8852 22.8688 14.9512 22.876 15.0168 22.8703C15.0823 22.8646 15.146 22.846 15.2043 22.8156C15.2626 22.7851 15.3143 22.7435 15.3565 22.693C15.4416 22.5914 15.4829 22.4603 15.4714 22.3283C15.4599 22.1963 15.3964 22.0742 15.295 21.989L9.81747 17.3875Z" fill="black"/>
</svg>
