<svg width="24" height="24" viewBox="0 0 24 24" fill="none" xmlns="http://www.w3.org/2000/svg">
<path d="M21.6006 12.2161C21.6006 11.5841 21.5433 10.9841 21.4453 10.4001H12.209V14.0081H17.4974C17.2603 15.1921 16.5656 16.1921 15.5357 16.8721V19.2721H18.6907C20.538 17.6001 21.6006 15.1361 21.6006 12.2161Z" fill="#4285F4"/>
<path d="M12.2091 21.6C14.8574 21.6 17.0724 20.736 18.6908 19.272L15.5358 16.872C14.653 17.448 13.5332 17.8 12.2091 17.8C9.65074 17.8 7.48471 16.112 6.70821 13.832H3.45508V16.304C5.0653 19.44 8.37564 21.6 12.2091 21.6Z" fill="#34A853"/>
<path d="M6.70793 13.832C6.50358 13.256 6.39733 12.64 6.39733 12C6.39733 11.36 6.51176 10.744 6.70793 10.168V7.69604H3.4548C2.78455 8.99204 2.40039 10.448 2.40039 12C2.40039 13.552 2.78455 15.008 3.4548 16.304L6.70793 13.832Z" fill="#FBBC05"/>
<path d="M12.2091 6.20002C13.6558 6.20002 14.9473 6.68802 15.969 7.64002L18.7644 4.90402C17.0724 3.35202 14.8574 2.40002 12.2091 2.40002C8.37564 2.40002 5.0653 4.56002 3.45508 7.69601L6.70821 10.168C7.48471 7.88801 9.65074 6.20002 12.2091 6.20002Z" fill="#EA4335"/>
</svg>
