<svg width="32" height="32" viewBox="0 0 32 32" fill="none" xmlns="http://www.w3.org/2000/svg">
<path d="M26.4401 17.2984C26.3409 17.1122 26.1425 16.9881 25.9441 16.9881C25.382 16.9571 24.4892 16.4296 23.6956 15.9641C22.6044 15.3125 21.5462 14.692 20.6534 14.8781C20.2897 14.9712 19.959 15.2194 19.7937 15.5608C19.6284 15.809 19.7276 16.1503 19.9921 16.3055C20.2566 16.4606 20.6204 16.3675 20.7857 16.1193V16.0883C20.8518 15.9641 20.918 15.9641 20.951 15.9331C21.3478 15.84 22.3398 16.4296 23.0673 16.864C23.6294 17.2053 24.1916 17.5466 24.8198 17.7948C23.7617 18.4775 22.5382 18.8808 21.2486 18.8808C19.6945 18.9429 18.6364 18.6326 18.3718 18.3534C17.9089 17.919 18.2726 15.1574 18.6364 13.699C18.7686 13.2336 19.0993 11.9614 19.1985 11.7442C19.2977 11.465 19.1654 11.1547 18.8678 11.0306C18.5702 10.9375 18.2065 11.0616 18.1073 11.3408C17.8097 12.3027 17.5782 13.1715 17.5452 13.3887C17.3468 14.1645 17.0492 14.9092 16.6854 15.6228C15.958 14.6609 14.6022 12.9543 13.6102 12.1476C13.3788 11.9614 13.015 11.9925 12.7836 12.2097C12.5852 12.4269 12.6182 12.7682 12.8497 12.9854C13.9409 13.8542 15.6273 16.0883 16.0902 16.7399C15.495 17.7638 14.7676 18.6016 13.974 18.8498C13.478 18.9429 12.982 18.8808 12.5521 18.6326C12.2876 18.4775 11.9238 18.5395 11.7585 18.7878C11.5932 19.036 11.6593 19.3773 11.9238 19.5324C12.4198 19.8117 13.3457 20.153 14.3377 19.8738C15.4289 19.5635 16.3217 18.5706 17.0161 17.4225C17.0492 18.1362 17.1814 18.7567 17.5121 19.098C18.1404 19.7497 19.3969 19.9669 21.3148 19.9669C22.3729 19.9048 25.0182 19.5945 26.407 17.8259C26.5062 17.7017 26.5393 17.4845 26.4401 17.2984ZM11.8577 11.558C11.8577 11.2478 11.5932 11.0306 11.2625 11.0306C10.9318 11.0306 10.7004 11.2788 10.7004 11.5891C10.7665 15.4677 10.4028 17.4845 9.4769 18.3844C9.04703 18.7878 8.41877 19.005 7.82357 18.9429C7.32757 18.9429 6.9969 18.8188 6.83157 18.6016C6.46783 18.1362 6.76543 17.1432 6.8977 16.8329C7.02997 16.5537 6.86463 16.2434 6.56703 16.1193C6.26943 15.9952 5.93877 16.1503 5.8065 16.4296C5.74037 16.6157 5.1121 18.1672 5.87263 19.1911C6.13717 19.5635 6.6993 19.9979 7.82357 19.9979C8.74943 20.0289 9.64223 19.7186 10.3036 19.098C11.6593 17.7948 11.8908 15.1574 11.8577 11.558Z" fill="#089F59"/>
<path d="M16.04 30.8082C7.87804 30.8082 1.23779 24.1677 1.23779 16.006C1.23779 7.84399 7.87804 1.20374 16.04 1.20374C24.202 1.20374 30.8423 7.84399 30.8423 16.006C30.8423 24.168 24.202 30.8082 16.04 30.8082ZM16.04 2.07849C8.36029 2.07849 2.11254 8.32649 2.11254 16.006C2.11254 23.6855 8.36029 29.9332 16.0398 29.9332C23.7193 29.9332 29.967 23.6855 29.967 16.006C29.967 8.32649 23.7195 2.07849 16.04 2.07849Z" fill="#089F59"/>
</svg>
