<?xml version="1.0" encoding="utf-8"?>
<!-- Generator: Adobe Illustrator 21.0.0, SVG Export Plug-In . SVG Version: 6.00 Build 0)  -->
<svg version="1.1" id="Слой_1" xmlns="http://www.w3.org/2000/svg" xmlns:xlink="http://www.w3.org/1999/xlink" x="0px" y="0px"
	 viewBox="0 0 25 24" style="enable-background:new 0 0 25 24;" xml:space="preserve">
<style type="text/css">
	.st0{fill:#252525;}
</style>
<path class="st0" d="M12.5,5.8 M17.9,15c0.8-0.9,1.6-1.7,2.4-2.6 M12.5,3.9c1.2-1.1,2.7-1.7,4.3-1.7c1.7,0,3.4,0.7,4.6,2
	c1.2,1.2,1.9,2.9,1.9,4.7c0,1.7-0.7,3.4-1.9,4.7c-0.8,0.8-1.6,1.7-2.4,2.5c-1.6,1.7-3.3,3.5-5,5.1l0,0c-0.9,0.8-2.3,0.8-3.1-0.1
	l-7.3-7.6c-2.5-2.6-2.5-6.7,0-9.3C6,1.7,10,1.6,12.5,3.9z"/>
</svg>
