<svg width="80" height="80" viewBox="0 0 80 80" fill="none" xmlns="http://www.w3.org/2000/svg">
<g clip-path="url(#clip0_116_16609)">
<path d="M21.999 76.3476C50.56 89.7108 81.9597 64.2502 78.657 34.9362C76.4426 15.2895 58.0693 -0.706016 38.4787 0.0240372C17.8299 0.785636 5.30433 17.2966 2.04895 33.3223C-1.74666 52.0113 6.08311 68.9009 21.999 76.3476ZM77.5847 40.4719C77.576 40.4071 77.5596 40.3409 77.5098 40.2908L77.0529 39.8328L77.6145 39.2712C77.6083 39.6731 77.6036 40.0725 77.5847 40.4719ZM3.27218 33.5707C6.43011 18.0244 18.5537 2.00887 38.5249 1.27234C57.1142 0.57721 75.3092 16.3804 77.416 35.0759C77.5433 36.2056 77.6095 37.339 77.6219 38.471C77.5681 38.4834 77.512 38.4921 77.4695 38.5346L76.6107 39.3934L75.2402 38.0229C75.1811 37.9667 75.1024 37.9359 75.021 37.937C74.9395 37.9381 74.8617 37.9711 74.8042 38.0288C74.7467 38.0865 74.714 38.1644 74.7131 38.2459C74.7123 38.3273 74.7434 38.4059 74.7997 38.4648L76.1702 39.8353L73.0759 42.9296C72.9537 43.0518 72.9537 43.249 73.0759 43.3715C73.1982 43.494 73.3953 43.4938 73.5179 43.3715L73.5429 43.3465C73.5553 43.4025 73.564 43.46 73.6077 43.5036L75.2092 45.1051C75.1706 45.12 75.1281 45.12 75.0968 45.1513L71.773 48.4751L71.6606 48.3628C71.5384 48.2405 71.3409 48.2405 71.2187 48.3628C71.0965 48.485 71.0965 48.6822 71.2187 48.8047L71.3297 48.9156L70.5557 49.6896C70.4994 49.7485 70.4683 49.8271 70.4691 49.9086C70.47 49.99 70.5027 50.0679 70.5602 50.1257C70.6177 50.1834 70.6955 50.2163 70.777 50.2174C70.8584 50.2185 70.9371 50.1877 70.9962 50.1316L71.7702 49.3576L74.2417 51.8291C74.3639 51.9513 74.5614 51.9513 74.6836 51.8291C74.8059 51.7069 74.8059 51.5094 74.6836 51.3872L72.2121 48.9156L75.5359 45.5918C75.5672 45.5606 75.5672 45.5183 75.5821 45.4794L76.0364 45.9338C76.1587 46.056 76.3561 46.056 76.4783 45.9338C76.6006 45.8115 76.6006 45.6141 76.4783 45.4918L74.0468 43.0603C74.0031 43.0166 73.9457 43.0079 73.8896 42.9955L76.6107 40.2744L77.0676 40.7324C77.0966 40.7615 77.131 40.7845 77.1689 40.8003C77.2068 40.816 77.2475 40.8241 77.2885 40.8241C77.3296 40.8241 77.3702 40.816 77.4081 40.8003C77.4461 40.7845 77.4805 40.7615 77.5095 40.7324C77.5557 40.6862 77.5669 40.6251 77.5782 40.5665C76.5983 60.3692 58.5095 81.269 33.7553 78.3595C33.7477 78.3496 33.7516 78.3358 33.7415 78.327L33.3658 77.9513L35.4441 75.873L37.1904 77.6192L36.8797 77.9299C36.7575 78.0522 36.7575 78.2493 36.8797 78.3718C37.0019 78.4944 37.1991 78.4941 37.3216 78.3718L37.6312 78.0623L37.7435 78.1747C37.8658 78.2969 38.0629 78.2969 38.1855 78.1747C38.308 78.0524 38.3077 77.855 38.1855 77.7328L38.0731 77.6204L40.2176 75.4758L42.2371 77.4953C42.3593 77.6176 42.5568 77.6176 42.679 77.4953C42.8012 77.3731 42.8012 77.1756 42.679 77.0534L40.6595 75.0339L44.0583 71.6352C44.1805 71.5129 44.1805 71.3155 44.0583 71.1933C43.936 71.071 43.7389 71.071 43.6164 71.1933L40.2176 74.592L39.9743 74.3487C39.852 74.2264 39.6549 74.2264 39.5323 74.3487C39.4098 74.4709 39.4101 74.6681 39.5323 74.7906L39.7757 75.0339L37.6312 77.1785L35.8849 75.4322L37.897 73.42C37.9261 73.391 37.9492 73.3566 37.9649 73.3187C37.9806 73.2808 37.9887 73.2401 37.9887 73.1991C37.9887 73.158 37.9806 73.1174 37.9649 73.0795C37.9492 73.0415 37.9261 73.0071 37.897 72.9781C37.8681 72.9491 37.8336 72.926 37.7957 72.9103C37.7578 72.8945 37.7171 72.8864 37.6761 72.8864C37.635 72.8864 37.5944 72.8945 37.5565 72.9103C37.5186 72.926 37.4841 72.9491 37.4551 72.9781L32.9241 77.5102L31.7521 76.3394C31.7232 76.3103 31.6887 76.2873 31.6508 76.2715C31.6129 76.2558 31.5722 76.2477 31.5312 76.2477C31.4901 76.2477 31.4495 76.2558 31.4116 76.2715C31.3737 76.2873 31.3392 76.3103 31.3102 76.3394C31.2812 76.3684 31.2581 76.4028 31.2424 76.4408C31.2266 76.4787 31.2185 76.5193 31.2185 76.5604C31.2185 76.6014 31.2266 76.6421 31.2424 76.68C31.2581 76.7179 31.2812 76.7523 31.3102 76.7813L32.4822 77.9522L32.2738 78.1606C28.8936 77.6263 25.6058 76.6577 22.5265 75.2173C3.8476 66.4766 0.480119 47.3181 3.27218 33.5707Z" fill="black"/>
<path d="M38.7047 66.1348C38.8658 66.3246 39.1215 66.3956 39.3387 66.3345C39.4527 66.3047 39.556 66.2434 39.6366 66.1574C39.7173 66.0715 39.772 65.9646 39.7944 65.8489C41.2137 58.472 48.7452 53.805 53.4421 50.8006C56.8408 48.6276 60.3559 46.3794 63.1432 43.3389C71.1304 34.629 68.7225 22.9222 57.1194 20.7816C49.8149 19.4274 42.0601 23.1394 38.3766 29.5228C36.8624 24.8772 32.3953 20.9041 27.5322 20.1189C22.0977 19.2401 16.2972 22.146 13.7471 27.0265C11.3043 31.6947 11.7699 37.988 14.9591 43.4476C20.5159 52.9665 30.5 56.4326 38.7047 66.1348ZM14.7093 27.9413L15.2498 28.4818L14.0291 29.7025C14.2083 29.0982 14.4357 28.5092 14.7093 27.9413ZM19.9092 27.4059L17.5602 29.7549C17.5303 29.7848 17.5303 29.8273 17.514 29.8648L16.1311 28.4818L18.5575 26.0554L19.9092 27.4059ZM18.1167 31.3488L16.2282 33.2373L13.9389 30.948C13.8821 30.8927 13.8061 30.8615 13.7268 30.8607C13.7294 30.8494 13.733 30.8382 13.7356 30.8269C13.7629 30.8131 13.7956 30.8156 13.8192 30.792L15.6891 28.9221L18.1167 31.3488ZM13.6221 31.5136L15.7863 33.6792L14.095 35.3717C14.0388 35.4308 14.008 35.5094 14.0091 35.5909C14.0102 35.6724 14.0432 35.7502 14.1009 35.8077C14.1586 35.8652 14.2365 35.8979 14.318 35.8987C14.3994 35.8996 14.478 35.8685 14.5369 35.8122L16.2282 34.1209L17.9382 35.8308L15.87 37.899L13.5846 35.6122C13.4148 34.2099 13.4224 32.8317 13.6221 31.5136ZM15.4283 38.3401L14.4434 39.325C14.1338 38.4313 13.8891 37.534 13.7257 36.6377L15.4283 38.3401ZM25.5635 21.2097C25.9366 21.2097 26.3087 21.2348 26.6819 21.2723L27.2585 21.8488L26.2848 22.8236C26.1625 22.9459 26.1625 23.143 26.2848 23.2655C26.407 23.3881 26.6042 23.3878 26.7267 23.2655L27.7015 22.2907L28.4141 23.0033C28.5363 23.1256 28.7335 23.1256 28.856 23.0033C28.9785 22.8811 28.9783 22.6839 28.856 22.5614L28.1434 21.8488L28.342 21.6502C28.362 21.6302 28.3595 21.6004 28.3718 21.5767C32.8902 22.7774 36.8221 26.904 37.5561 31.4001C37.6012 31.6721 37.8183 31.8831 38.0915 31.918C38.2248 31.9363 38.3604 31.9106 38.4778 31.8448C38.5951 31.779 38.6879 31.6768 38.7419 31.5536C41.7263 24.8732 49.6986 20.6892 56.8946 22.0099C67.4981 23.9708 69.5737 34.4831 62.2255 42.4979C59.5481 45.4175 56.1032 47.6204 52.7717 49.7511C48.3531 52.5744 40.9202 57.1392 38.8582 64.4063C30.7935 55.3817 21.7555 52.0004 16.3846 43.3567L17.096 44.0681C17.1551 44.1243 17.2337 44.1551 17.3152 44.154C17.3967 44.1529 17.4745 44.1199 17.532 44.0622C17.5895 44.0045 17.6222 43.9266 17.6231 43.8451C17.6239 43.7637 17.5928 43.6851 17.5365 43.6262L16.7901 42.8798L19.6036 40.0664C19.7258 39.9441 19.7258 39.747 19.6036 39.6244C19.4814 39.5019 19.2842 39.5022 19.1617 39.6244L16.3482 42.4379L15.3047 41.3944C15.0805 40.9252 14.8752 40.4472 14.6893 39.9616L15.8714 38.7795L17.1583 40.0675C17.2171 40.1238 17.2957 40.1548 17.3772 40.154C17.4587 40.1532 17.5366 40.1205 17.5943 40.063C17.652 40.0054 17.6849 39.9276 17.686 39.8462C17.6871 39.7647 17.6563 39.686 17.6002 39.627L16.3133 38.339L18.5375 36.1147C18.5674 36.0998 18.6037 36.1023 18.6288 36.0773C18.6539 36.0522 18.6525 36.0161 18.6663 35.986L18.9707 35.6815C18.9998 35.6525 19.0228 35.6181 19.0386 35.5802C19.0543 35.5423 19.0624 35.5016 19.0624 35.4606C19.0624 35.4195 19.0543 35.3789 19.0386 35.341C19.0228 35.303 18.9998 35.2686 18.9707 35.2396C18.9417 35.2105 18.9073 35.1875 18.8694 35.1717C18.8315 35.156 18.7908 35.1479 18.7498 35.1479C18.7087 35.1479 18.6681 35.156 18.6301 35.1717C18.5922 35.1875 18.5578 35.2105 18.5288 35.2396L18.3804 35.388L16.6704 33.6781L18.5589 31.7896L18.6961 31.9268C18.7251 31.9558 18.7595 31.9789 18.7975 31.9946C18.8354 32.0104 18.876 32.0185 18.9171 32.0185C18.9581 32.0185 18.9988 32.0104 19.0367 31.9946C19.0746 31.9789 19.109 31.9558 19.138 31.9268C19.1671 31.8978 19.1902 31.8633 19.2059 31.8254C19.2216 31.7875 19.2297 31.7469 19.2297 31.7058C19.2297 31.6648 19.2216 31.6241 19.2059 31.5862C19.1902 31.5483 19.1671 31.5138 19.138 31.4848L19.0009 31.3477L19.5774 30.7711C19.6996 30.6489 19.6996 30.4517 19.5774 30.3292C19.4552 30.2067 19.258 30.207 19.1355 30.3292L18.5589 30.9058L17.8925 30.2394C17.93 30.2244 17.9725 30.2244 18.0035 30.1932L20.3525 27.8453L20.4911 27.9839C20.5502 28.04 20.6288 28.0708 20.7103 28.0697C20.7918 28.0686 20.8696 28.0357 20.9271 27.978C20.9846 27.9202 21.0173 27.8423 21.0181 27.7609C21.019 27.6794 20.9879 27.6008 20.9316 27.5419L20.793 27.4034L21.6718 26.5246C21.7009 26.4956 21.7239 26.4612 21.7397 26.4232C21.7554 26.3853 21.7635 26.3447 21.7635 26.3036C21.7635 26.2626 21.7554 26.2219 21.7397 26.184C21.7239 26.1461 21.7009 26.1117 21.6718 26.0827C21.6428 26.0536 21.6084 26.0305 21.5705 26.0148C21.5325 25.9991 21.4919 25.991 21.4508 25.991C21.4098 25.991 21.3691 25.9991 21.3312 26.0148C21.2933 26.0305 21.2589 26.0536 21.2299 26.0827L20.3511 26.9614L18.9856 25.596C19.0679 25.4749 19.0718 25.3138 18.9645 25.2053C18.8572 25.098 18.6961 25.1017 18.5739 25.1842L17.6027 24.213C18.2712 23.6415 18.9984 23.1423 19.772 22.7239L20.6271 23.579L19.832 24.3741C19.803 24.4031 19.7799 24.4376 19.7642 24.4755C19.7484 24.5134 19.7403 24.5541 19.7403 24.5951C19.7403 24.6362 19.7484 24.6768 19.7642 24.7147C19.7799 24.7526 19.803 24.7871 19.832 24.8161C19.861 24.8451 19.8955 24.8682 19.9334 24.8839C19.9713 24.8997 20.0119 24.9078 20.053 24.9078C20.094 24.9078 20.1347 24.8997 20.1726 24.8839C20.2105 24.8682 20.245 24.8451 20.2739 24.8161L21.0691 24.0209L22.7091 25.6624C22.768 25.7188 22.8466 25.7498 22.9281 25.749C23.0095 25.7481 23.0875 25.7155 23.1452 25.6579C23.2029 25.6004 23.2358 25.5226 23.2369 25.4411C23.238 25.3597 23.2072 25.281 23.1511 25.2219L21.511 23.5804L23.5192 21.5722L24.5715 22.6245L23.6566 23.5393C23.6005 23.5984 23.5697 23.6771 23.5708 23.7585C23.5719 23.84 23.6048 23.9178 23.6625 23.9753C23.7202 24.0328 23.7982 24.0655 23.8796 24.0664C23.9611 24.0672 24.0397 24.0361 24.0986 23.9798L25.0134 23.065L25.8685 23.9201C25.9274 23.9764 26.0059 24.0075 26.0874 24.0066C26.1689 24.0058 26.2468 23.9731 26.3045 23.9156C26.3622 23.8581 26.3951 23.7803 26.3962 23.6988C26.3973 23.6173 26.3665 23.5387 26.3104 23.4796L25.4553 22.6245L26.0718 22.008C26.1941 21.8857 26.1941 21.6886 26.0718 21.566C25.9496 21.4435 25.7524 21.4438 25.6299 21.566L25.0134 22.1826L24.1397 21.3089C24.6112 21.2523 25.0869 21.2097 25.5635 21.2097ZM20.3562 22.4293C21.0789 22.086 21.8278 21.8052 22.6016 21.6055L21.0662 23.1408L20.3562 22.4293ZM17.1383 24.6336L18.1181 25.6134L15.6917 28.0399L15.0075 27.3558C15.5731 26.3398 16.2984 25.4301 17.1383 24.6336Z" fill="black"/>
<path d="M42.8738 53.5816C43.4855 52.2409 44.2742 50.9954 45.1831 49.8471L45.9906 50.6983C46.2728 50.998 46.7308 50.5699 46.4424 50.269L45.5749 49.3554C46.5149 48.2455 47.5834 47.2513 48.7579 46.3935L50.0473 47.5967C50.1078 47.6529 50.1881 47.6829 50.2706 47.6801C50.3532 47.6773 50.4312 47.6419 50.4878 47.5818C50.5443 47.5211 50.5744 47.4406 50.5716 47.3577C50.5688 47.2749 50.5333 47.1965 50.4729 47.1398L49.286 46.0327C50.4244 45.2612 51.6412 44.5897 52.8546 43.9557C53.3227 44.4362 53.888 44.8221 54.5183 45.0404C54.557 45.0538 54.5979 45.0595 54.6388 45.0571C54.6797 45.0548 54.7197 45.0444 54.7565 45.0265C54.7934 45.0087 54.8263 44.9838 54.8536 44.9532C54.8808 44.9226 54.9017 44.887 54.9152 44.8483C54.9286 44.8096 54.9343 44.7687 54.9319 44.7278C54.9295 44.6869 54.9191 44.6469 54.9013 44.6101C54.8835 44.5732 54.8585 44.5402 54.828 44.513C54.7974 44.4858 54.7617 44.4649 54.7231 44.4514C54.237 44.2798 53.792 44.0091 53.4162 43.6563C54.9628 42.8536 56.1223 42.2421 57.383 41.3983L58.1458 41.8926C58.2153 41.9376 58.2998 41.9531 58.3808 41.9358C58.4618 41.9185 58.5325 41.8697 58.5775 41.8002C58.6225 41.7307 58.6381 41.6462 58.6208 41.5652C58.6034 41.4842 58.5547 41.4134 58.4851 41.3684L57.941 41.0152C58.7474 40.4347 59.5611 39.7495 60.2875 38.9496C60.4835 39.0081 60.6818 39.0583 60.884 39.0845C60.8978 39.0856 60.9113 39.087 60.9251 39.087C61.0039 39.0861 61.0793 39.0554 61.1364 39.0012C61.1935 38.947 61.2281 38.8733 61.2331 38.7947C61.2382 38.7162 61.2134 38.6386 61.1637 38.5775C61.114 38.5165 61.0431 38.4764 60.9651 38.4654C60.8877 38.4555 60.8128 38.4291 60.7356 38.413C61.6929 37.221 62.352 35.9691 62.6165 34.2352C62.85 34.3025 63.0671 34.3549 63.1519 34.0654C63.1749 33.9857 63.1653 33.9002 63.1253 33.8277C63.0852 33.7551 63.018 33.7014 62.9384 33.6784L62.6937 33.6071C62.7936 32.2115 62.5202 30.775 61.6665 29.5504C61.6431 29.5168 61.6134 29.4881 61.5789 29.466C61.5445 29.4439 61.506 29.4288 61.4657 29.4216C61.4255 29.4143 61.3842 29.4151 61.3442 29.4238C61.3042 29.4325 61.2663 29.449 61.2327 29.4724C61.1991 29.4957 61.1704 29.5255 61.1483 29.5599C61.1262 29.5944 61.1111 29.6328 61.1039 29.6731C61.0966 29.7134 61.0974 29.7547 61.1061 29.7947C61.1148 29.8347 61.1313 29.8725 61.1547 29.9061C61.8938 30.9657 62.1484 32.2078 62.0833 33.4285L60.6404 33.0091C60.6011 32.9975 60.5598 32.9938 60.519 32.9982C60.4783 33.0026 60.4388 33.015 60.4028 33.0347C60.3668 33.0544 60.3351 33.0811 60.3095 33.1131C60.2838 33.1451 60.2648 33.1818 60.2534 33.2212C60.2304 33.3008 60.2398 33.3863 60.2795 33.459C60.3192 33.5317 60.3861 33.5857 60.4655 33.6094L62.0121 34.0586C61.7673 35.7835 61.0908 37.0194 60.0937 38.2063C59.663 38.0178 59.2673 37.7483 58.9578 37.3988C58.9305 37.3681 58.8976 37.3431 58.8607 37.3252C58.8238 37.3073 58.7838 37.2969 58.7428 37.2945C58.7019 37.292 58.6609 37.2977 58.6222 37.3111C58.5835 37.3246 58.5478 37.3455 58.5171 37.3727C58.4865 37.3999 58.4615 37.4329 58.4436 37.4698C58.4257 37.5067 58.4153 37.5467 58.4128 37.5876C58.4104 37.6286 58.4161 37.6695 58.4295 37.7083C58.4429 37.747 58.4638 37.7827 58.4911 37.8134C58.8169 38.1815 59.22 38.4786 59.663 38.6983C58.949 39.4534 58.1553 40.0987 57.3737 40.6454L56.5338 40.1013C56.4642 40.0567 56.3798 40.0413 56.2989 40.0586C56.2181 40.0759 56.1473 40.1244 56.1021 40.1936C56.0572 40.2632 56.0417 40.3477 56.059 40.4286C56.0763 40.5096 56.125 40.5803 56.1944 40.6254L56.8149 41.0273C55.6154 41.8087 54.3499 42.4666 53.074 43.1293C53.0466 43.1431 53.019 43.1581 52.9917 43.173C52.8157 42.9409 52.6596 42.695 52.5447 42.4291C52.5115 42.3535 52.4497 42.2939 52.3728 42.2636C52.2959 42.2332 52.2101 42.2344 52.1341 42.2669C52.0582 42.2999 51.9985 42.3617 51.9681 42.4387C51.9377 42.5157 51.939 42.6016 51.9718 42.6776C52.093 42.9572 52.2476 43.2217 52.4276 43.469C51.2018 44.1106 49.9662 44.7897 48.8103 45.5859L47.8504 44.6911C47.8205 44.6632 47.7854 44.6414 47.747 44.627C47.7087 44.6126 47.6679 44.6059 47.627 44.6073C47.5861 44.6087 47.5459 44.6181 47.5086 44.6351C47.4713 44.652 47.4378 44.6761 47.4099 44.7061C47.3534 44.7667 47.3232 44.8473 47.326 44.9301C47.3288 45.0129 47.3643 45.0913 47.4248 45.148L48.2923 45.9569C47.1329 46.8131 46.0751 47.7989 45.1394 48.8951L43.7976 47.4821C43.7404 47.4222 43.6619 47.3874 43.5792 47.385C43.4965 47.3827 43.4161 47.4131 43.3557 47.4697C43.2957 47.5269 43.2609 47.6055 43.2588 47.6883C43.2567 47.7711 43.2875 47.8514 43.3444 47.9116L44.7386 49.3796C43.7751 50.5865 42.9512 51.9083 42.306 53.3225C42.2716 53.3978 42.2686 53.4836 42.2975 53.5612C42.3265 53.6387 42.385 53.7016 42.4603 53.736C42.5356 53.7703 42.6215 53.7734 42.699 53.7444C42.7766 53.7155 42.8394 53.6569 42.8738 53.5816ZM69.6725 53.8875L63.2643 60.2957C63.2352 60.3247 63.2122 60.3592 63.1964 60.3971C63.1807 60.435 63.1726 60.4756 63.1726 60.5167C63.1726 60.5577 63.1807 60.5984 63.1964 60.6363C63.2122 60.6742 63.2352 60.7087 63.2643 60.7377C63.2933 60.7667 63.3277 60.7898 63.3656 60.8055C63.4036 60.8213 63.4442 60.8293 63.4853 60.8293C63.5263 60.8293 63.567 60.8213 63.6049 60.8055C63.6428 60.7898 63.6772 60.7667 63.7062 60.7377L66.1552 58.2887C66.1676 58.3087 66.1639 58.3337 66.1814 58.3512L68.8464 61.0162C68.9687 61.1385 69.1661 61.1385 69.2884 61.0162C69.4106 60.894 69.4106 60.6968 69.2884 60.5743L66.6233 57.9093C66.6059 57.8918 66.5808 57.8955 66.5608 57.8831L70.1156 54.3283L70.9344 55.1459L67.6415 58.4388C67.5854 58.4978 67.5546 58.5765 67.5557 58.658C67.5568 58.7394 67.5897 58.8173 67.6474 58.8748C67.7051 58.9323 67.783 58.965 67.8645 58.9658C67.946 58.9667 68.0246 58.9356 68.0834 58.8793L71.3763 55.5864L72.1627 56.3728C72.2849 56.4951 72.4821 56.4951 72.6046 56.3728C72.7271 56.2506 72.7268 56.0534 72.6046 55.9309L71.8182 55.1445L73.8703 53.0924C73.9926 52.9701 73.9926 52.7727 73.8703 52.6505C73.7481 52.5282 73.5509 52.5282 73.4284 52.6505L71.3763 54.7026L70.5575 53.885L71.3315 53.111C71.3606 53.082 71.3836 53.0475 71.3994 53.0096C71.4151 52.9717 71.4232 52.9311 71.4232 52.89C71.4232 52.8489 71.4151 52.8083 71.3994 52.7704C71.3836 52.7325 71.3606 52.698 71.3315 52.669C71.3025 52.64 71.2681 52.6169 71.2302 52.6012C71.1922 52.5854 71.1516 52.5774 71.1105 52.5774C71.0695 52.5774 71.0288 52.5854 70.9909 52.6012C70.953 52.6169 70.9186 52.64 70.8896 52.669L70.1156 53.443L69.9384 53.2659C69.8162 53.1436 69.619 53.1436 69.4965 53.2659C69.374 53.3881 69.3743 53.5853 69.4965 53.7078L69.6725 53.8875ZM67.3832 61.3491L65.0092 63.7221L62.6438 61.3567C62.5216 61.2345 62.3241 61.2345 62.2019 61.3567C62.0796 61.479 62.0796 61.6761 62.2019 61.7987L64.5672 64.164L61.76 66.9713L60.0799 65.2912L61.0561 64.315C61.1783 64.1927 61.1783 63.9956 61.0561 63.8731C60.9339 63.7505 60.7367 63.7508 60.6142 63.8731L59.638 64.8493L58.7981 64.0094C58.6758 63.8871 58.4784 63.8871 58.3562 64.0094C58.2339 64.1316 58.2339 64.3288 58.3562 64.4513L59.1961 65.2912L56.9856 67.5016L55.0847 65.6007C54.9625 65.4785 54.765 65.4785 54.6428 65.6007C54.5206 65.723 54.5206 65.9201 54.6428 66.0427L56.5437 67.9436L54.1336 70.3537L52.1214 68.3415L53.4032 67.0597C53.5255 66.9375 53.5255 66.74 53.4032 66.6178C53.281 66.4956 53.0835 66.4956 52.9613 66.6178L51.6795 67.8996L51.5023 67.7225C51.3801 67.6002 51.1829 67.6002 51.0604 67.7225C50.9379 67.8447 50.9382 68.0418 51.0604 68.1644L51.2376 68.3415L48.63 70.9491L47.9222 70.2413C47.8 70.1191 47.6025 70.1191 47.4803 70.2413C47.358 70.3635 47.358 70.561 47.4803 70.6832L48.1881 71.391L45.2487 74.3304L43.5475 72.6278C43.4886 72.5715 43.41 72.5404 43.3286 72.5413C43.2471 72.5421 43.1692 72.5748 43.1115 72.6323C43.0538 72.6898 43.0209 72.7676 43.0198 72.8491C43.0187 72.9306 43.0495 73.0092 43.1056 73.0683L44.8068 74.7709L43.2377 76.34C43.1154 76.4622 43.1154 76.6597 43.2377 76.7819C43.3599 76.9042 43.5571 76.9042 43.6796 76.7819L45.2487 75.2128L46.4232 76.3873C46.4823 76.4435 46.5609 76.4743 46.6424 76.4732C46.7239 76.4721 46.8017 76.4391 46.8592 76.3814C46.9167 76.3237 46.9494 76.2458 46.9503 76.1643C46.9511 76.0829 46.92 76.0043 46.8637 75.9454L45.6892 74.7709L48.6286 71.8315L50.6407 73.8437L48.414 76.073C48.2917 76.1952 48.2917 76.3927 48.414 76.5149C48.5362 76.6372 48.7334 76.6372 48.8559 76.5149L51.0877 74.2831L51.1052 74.3005C51.1643 74.3567 51.2429 74.3875 51.3244 74.3864C51.4059 74.3853 51.4837 74.3523 51.5412 74.2946C51.5987 74.2369 51.6314 74.159 51.6322 74.0775C51.6331 73.9961 51.602 73.9175 51.5457 73.8586L51.5282 73.8412L54.1358 71.2336L55.1343 72.2321C55.2565 72.3543 55.454 72.3543 55.5762 72.2321C55.6984 72.1098 55.6984 71.9124 55.5762 71.7901L54.5777 70.7917L56.9879 68.3815L58.6679 70.0616L58.3584 70.3711C58.2362 70.4934 58.2362 70.6908 58.3584 70.8131C58.4806 70.9353 58.6778 70.9353 58.8003 70.8131L59.1099 70.5035L59.8326 71.2263C59.9548 71.3485 60.1523 71.3485 60.2745 71.2263C60.3968 71.104 60.3968 70.9066 60.2745 70.7843L59.5518 70.0616L61.7622 67.8512L62.561 68.6514C62.59 68.6804 62.6244 68.7035 62.6623 68.7192C62.7003 68.735 62.7409 68.743 62.782 68.743C62.823 68.743 62.8637 68.735 62.9016 68.7192C62.9395 68.7035 62.9739 68.6804 63.0029 68.6514C63.032 68.6224 63.055 68.5879 63.0708 68.55C63.0865 68.5121 63.0946 68.4714 63.0946 68.4304C63.0946 68.3893 63.0865 68.3487 63.0708 68.3108C63.055 68.2729 63.032 68.2384 63.0029 68.2094L62.2041 67.4092L65.0114 64.602L65.3984 64.989C65.5206 65.1112 65.7178 65.1112 65.8403 64.989C65.9628 64.8667 65.9626 64.6696 65.8403 64.5471L65.4533 64.1601L67.8274 61.7871C67.8565 61.7581 67.8795 61.7237 67.8953 61.6858C67.911 61.6478 67.9191 61.6072 67.9191 61.5661C67.9191 61.5251 67.911 61.4844 67.8953 61.4465C67.8795 61.4086 67.8565 61.3742 67.8274 61.3452C67.7675 61.2878 67.6875 61.2561 67.6045 61.2569C67.5216 61.2576 67.4422 61.2907 67.3832 61.3491ZM51.0883 73.4006L49.0775 71.3899L51.6851 68.7823L53.6973 70.7945L51.0883 73.4006ZM59.1104 69.6211L57.4303 67.941L59.6408 65.7306L61.3209 67.4107L59.1104 69.6211ZM18.5528 14.9127C19.7873 13.7019 21.1364 12.6074 22.5706 11.63L23.8149 13.4199C23.8383 13.4536 23.8681 13.4824 23.9025 13.5045C23.937 13.5267 23.9755 13.5419 24.0158 13.5492C24.0561 13.5565 24.0975 13.5558 24.1376 13.5471C24.1776 13.5384 24.2156 13.5219 24.2493 13.4985C24.2829 13.4752 24.3117 13.4454 24.3339 13.4109C24.356 13.3765 24.3712 13.338 24.3785 13.2976C24.3858 13.2573 24.3851 13.2159 24.3764 13.1759C24.3677 13.1358 24.3512 13.0979 24.3278 13.0642L23.097 11.2954C24.2977 10.5139 25.5519 9.81778 26.8503 9.21227L27.7277 10.4904C27.751 10.5242 27.7807 10.5531 27.8151 10.5754C27.8495 10.5976 27.888 10.6129 27.9283 10.6204C27.9686 10.6278 28.01 10.6272 28.0501 10.6186C28.0902 10.6101 28.1283 10.5937 28.162 10.5704C28.1958 10.5472 28.2246 10.5175 28.2469 10.483C28.2692 10.4486 28.2845 10.4102 28.292 10.3698C28.2994 10.3295 28.2988 10.2881 28.2902 10.248C28.2817 10.2079 28.2653 10.1699 28.242 10.1361L27.4182 8.93653C29.0524 8.21386 30.7469 7.63585 32.4821 7.20913L33.2099 8.78444C33.2811 8.93681 33.462 9.01173 33.6242 8.93681C33.7802 8.86443 33.8489 8.67966 33.7766 8.52362L33.1102 7.08323C35.6814 6.51034 37.0356 6.45289 38.3388 6.40303C38.4236 7.05704 38.7593 7.68372 39.3013 8.06199C39.4424 8.16057 39.637 8.12564 39.7356 7.98594C39.7829 7.91782 39.8013 7.83375 39.7867 7.7521C39.7722 7.67045 39.726 7.59787 39.6581 7.55022C39.2773 7.28433 39.0514 6.85002 38.9765 6.39177C40.8813 6.36191 42.7884 6.51654 44.6719 6.85481L44.6882 8.29266C44.6893 8.37475 44.7227 8.45311 44.7811 8.51081C44.8395 8.56852 44.9182 8.60094 45.0003 8.60108H45.0039C45.0867 8.59997 45.1656 8.56611 45.2234 8.50693C45.2812 8.44775 45.3132 8.36807 45.3124 8.28534L45.2974 6.95846C46.4534 7.19054 47.5904 7.49896 48.7111 7.86201C48.6187 8.41237 48.6151 8.97794 48.7311 9.52717C48.7396 9.56724 48.756 9.60525 48.7792 9.63901C48.8024 9.67277 48.832 9.70163 48.8664 9.72394C48.9008 9.74625 48.9392 9.76157 48.9795 9.76903C49.0198 9.77649 49.0611 9.77594 49.1012 9.76742C49.1413 9.75889 49.1793 9.74256 49.213 9.71934C49.2468 9.69613 49.2757 9.66649 49.298 9.63213C49.3203 9.59776 49.3356 9.55934 49.3431 9.51905C49.3505 9.47876 49.35 9.4374 49.3415 9.39732C49.2516 8.96022 49.239 8.51078 49.304 8.06931C50.7782 8.58108 52.2124 9.19397 53.5866 9.92289L53.1771 11.7928C53.1674 11.8331 53.1658 11.875 53.1725 11.9159C53.1791 11.9568 53.1939 11.996 53.2159 12.0312C53.2379 12.0663 53.2667 12.0967 53.3006 12.1206C53.3345 12.1445 53.3728 12.1614 53.4133 12.1703C53.4538 12.1792 53.4957 12.1799 53.5364 12.1724C53.5772 12.1649 53.6161 12.1494 53.6508 12.1267C53.6855 12.104 53.7154 12.0746 53.7386 12.0403C53.7618 12.0059 53.7779 11.9673 53.786 11.9266L54.1541 10.2429C55.3436 10.907 56.5006 11.6272 57.5816 12.4485C57.7188 12.5507 57.9148 12.5246 58.0199 12.3885C58.0697 12.3224 58.0914 12.2392 58.0802 12.1571C58.069 12.0751 58.0257 12.0008 57.9599 11.9505C56.8054 11.0732 55.5683 10.3068 54.2938 9.60631L54.5684 8.35069C54.5773 8.31061 54.5782 8.26917 54.571 8.22875C54.5638 8.18833 54.5487 8.14973 54.5266 8.11516C54.5044 8.08059 54.4757 8.05074 54.442 8.0273C54.4083 8.00387 54.3703 7.98733 54.3302 7.97862C54.2496 7.96193 54.1658 7.97739 54.0965 8.02171C54.0273 8.06602 53.9781 8.13567 53.9595 8.21577L53.7249 9.28663C52.3481 8.56644 50.9114 7.96482 49.4398 7.45812C49.4936 7.28828 49.5521 7.11872 49.6282 6.95761C49.6458 6.92057 49.656 6.88042 49.6581 6.83945C49.6602 6.79848 49.6542 6.7575 49.6405 6.71884C49.6267 6.68019 49.6055 6.64462 49.578 6.61416C49.5506 6.5837 49.5174 6.55895 49.4803 6.54133C49.4433 6.5237 49.4031 6.51354 49.3622 6.51144C49.3212 6.50933 49.2802 6.51531 49.2415 6.52904C49.2029 6.54278 49.1673 6.56399 49.1369 6.59146C49.1064 6.61894 49.0817 6.65215 49.064 6.6892C48.9778 6.87143 48.9131 7.06126 48.8519 7.25223C47.6833 6.87365 46.4934 6.56395 45.2884 6.32473L45.2746 5.11896C45.2735 5.03688 45.2402 4.95852 45.1818 4.90082C45.1234 4.84311 45.0446 4.81069 44.9625 4.81055H44.9589C44.8762 4.81166 44.7973 4.84552 44.7394 4.9047C44.6816 4.96388 44.6496 5.04356 44.6505 5.12628L44.6629 6.22221C42.7891 5.89238 40.8884 5.74026 38.9861 5.7679C39.0123 5.63552 39.0297 5.50089 39.0883 5.37837C39.1242 5.30373 39.1289 5.21792 39.1016 5.13977C39.0742 5.06162 39.017 4.99752 38.9424 4.96151C38.8677 4.92598 38.782 4.92138 38.704 4.9487C38.6259 4.97602 38.5618 5.03306 38.5256 5.10741C38.4233 5.31837 38.367 5.5468 38.3371 5.77776C36.8506 5.83268 35.4375 5.9076 32.8389 6.49908L32.3897 5.52539C32.3725 5.48815 32.3482 5.45466 32.3181 5.42684C32.2879 5.39902 32.2526 5.37741 32.2141 5.36326C32.1757 5.3491 32.1348 5.34268 32.0938 5.34435C32.0528 5.34603 32.0126 5.35577 31.9754 5.37301C31.9382 5.39012 31.9048 5.41438 31.877 5.44441C31.8493 5.47444 31.8277 5.50965 31.8135 5.54803C31.7994 5.5864 31.7929 5.62719 31.7946 5.66806C31.7962 5.70892 31.8058 5.74907 31.823 5.7862L32.2111 6.6261C30.4436 7.06861 28.7183 7.66499 27.0548 8.40843L26.3994 7.45474C26.3521 7.38692 26.28 7.34048 26.1987 7.32551C26.1174 7.31053 26.0334 7.32823 25.9651 7.37475C25.8968 7.42162 25.8499 7.49369 25.8347 7.57512C25.8195 7.65655 25.8372 7.74069 25.884 7.80906L26.4893 8.69036C25.1916 9.29976 23.9375 9.99795 22.7359 10.78L21.9157 9.6004C21.8686 9.53238 21.7963 9.48589 21.7148 9.47116C21.6334 9.45642 21.5494 9.47464 21.4814 9.52181C21.4134 9.56899 21.3669 9.64125 21.3522 9.7227C21.3374 9.80415 21.3557 9.88811 21.4028 9.95613L22.2092 11.1157C20.7463 12.1131 19.3684 13.2301 18.1103 14.4646C18.0517 14.5235 18.0187 14.6031 18.0186 14.6861C18.0184 14.7692 18.051 14.8489 18.1094 14.908C18.1677 14.9671 18.2471 15.0007 18.3301 15.0016C18.4131 15.0025 18.4932 14.9706 18.5528 14.9127Z" fill="black"/>
</g>
<defs>
<clipPath id="clip0_116_16609">
<rect width="80" height="80" fill="white"/>
</clipPath>
</defs>
</svg>
