<svg width="24" height="24" viewBox="0 0 24 24" fill="none" xmlns="http://www.w3.org/2000/svg">
<path fill-rule="evenodd" clip-rule="evenodd" d="M3.74968 3.75004C2.40002 5.09969 2.40002 7.27191 2.40002 11.6164V12.3844C2.40002 16.7289 2.40002 18.9011 3.74968 20.2508C5.09933 21.6004 7.27154 21.6004 11.616 21.6004H12.384C16.7285 21.6004 18.9007 21.6004 20.2504 20.2508C21.6 18.9011 21.6 16.7289 21.6 12.3844V11.6164C21.6 7.27191 21.6 5.09969 20.2504 3.75004C18.9007 2.40039 16.7285 2.40039 12.384 2.40039H11.616C7.27154 2.40039 5.09933 2.40039 3.74968 3.75004ZM11.8389 9.01968C10.1042 9.01968 8.69829 10.4264 8.69829 12.1611C8.69829 13.8959 10.1042 15.3026 11.8389 15.3026C13.5736 15.3026 14.9803 13.8959 14.9803 12.1611C14.9803 10.4264 13.5736 9.01968 11.8389 9.01968ZM11.8389 17C9.16644 17 7.00012 14.8336 7.00012 12.1611C7.00012 9.48845 9.16644 7.32224 11.8389 7.32224C14.5114 7.32224 16.6777 9.4886 16.6777 12.1611C16.6777 14.8336 14.5114 17 11.8389 17ZM15.9288 7.7587C15.8047 7.57269 15.7384 7.35403 15.7385 7.13037C15.7388 6.83058 15.858 6.54315 16.07 6.33121C16.2821 6.11926 16.57 6.00014 16.8698 6C17.0934 6.00009 17.312 6.0665 17.4979 6.19083C17.6838 6.31516 17.8287 6.49183 17.9142 6.6985C17.9997 6.90516 18.022 7.13254 17.9783 7.35188C17.9346 7.57122 17.8268 7.77268 17.6686 7.93076C17.5104 8.08885 17.3089 8.19647 17.0895 8.24001C16.8701 8.28356 16.6428 8.26107 16.4362 8.1754C16.2296 8.08973 16.053 7.94472 15.9288 7.7587Z" fill="white"/>
</svg>
