<svg width="194" height="48" viewBox="0 0 194 48" fill="none" xmlns="http://www.w3.org/2000/svg">
<path d="M33.8811 23.9999C30.3267 27.9712 25.1613 30.4705 19.4122 30.4705C13.6631 30.4705 8.49772 27.9712 4.9433 23.9999C8.49772 20.0286 13.6631 17.5293 19.4122 17.5293C25.1613 17.5293 30.3267 20.0286 33.8811 23.9999Z" fill="#2F2B43" fill-opacity="0.5"/>
<path opacity="0.6" fill-rule="evenodd" clip-rule="evenodd" d="M-6.10352e-05 36.9411C-6.10352e-05 26.2202 8.69088 17.5293 19.4117 17.5293C13.6626 17.5293 8.49724 20.0286 4.94282 23.9999C8.49724 27.9712 13.6626 30.4705 19.4117 30.4705C25.1608 30.4705 30.3262 27.9712 33.8806 23.9999C36.9544 27.4342 38.8234 31.9694 38.8234 36.9411V44.2744C38.8234 45.2274 38.0509 45.9999 37.098 45.9999H1.72543C0.772467 45.9999 -6.10352e-05 45.2274 -6.10352e-05 44.2744V36.9411ZM33.8806 23.9999C33.8806 23.9999 33.8806 23.9999 33.8806 23.9999V23.9999Z" fill="#2F2B43" fill-opacity="0.5"/>
<path opacity="0.8" fill-rule="evenodd" clip-rule="evenodd" d="M12.1306 29.0589C9.35884 27.9366 6.90529 26.1926 4.94281 24C8.49724 20.0287 13.6626 17.5294 19.4117 17.5294C25.1608 17.5294 30.3262 20.0287 33.8806 24C33.8806 24 33.8806 24 33.8806 24C36.9544 20.5657 38.8234 16.0305 38.8234 11.0588V3.72549C38.8234 2.77253 38.0509 2 37.098 2L1.72543 2C0.772468 2 -6.03107e-05 2.77253 -6.03941e-05 3.72549L-6.10352e-05 11.0588C-6.23246e-05 19.2047 5.01748 26.1788 12.1306 29.0589Z" fill="#2F2B43" fill-opacity="0.5"/>
<path d="M69.1436 14.4563V34.0003H65.2236V25.6843H56.8516V34.0003H52.9316V14.4563H56.8516V22.4923H65.2236V14.4563H69.1436Z" fill="#2F2B43" fill-opacity="0.5"/>
<path d="M79.8899 34.2523C78.3965 34.2523 77.0525 33.9256 75.8579 33.2723C74.6632 32.6003 73.7205 31.6576 73.0299 30.4443C72.3579 29.2309 72.0219 27.8309 72.0219 26.2443C72.0219 24.6576 72.3672 23.2576 73.0579 22.0443C73.7672 20.8309 74.7285 19.8976 75.9419 19.2443C77.1552 18.5723 78.5085 18.2363 80.0019 18.2363C81.4952 18.2363 82.8485 18.5723 84.0619 19.2443C85.2752 19.8976 86.2272 20.8309 86.9179 22.0443C87.6272 23.2576 87.9819 24.6576 87.9819 26.2443C87.9819 27.8309 87.6179 29.2309 86.8899 30.4443C86.1805 31.6576 85.2099 32.6003 83.9779 33.2723C82.7645 33.9256 81.4019 34.2523 79.8899 34.2523ZM79.8899 30.8363C80.5992 30.8363 81.2619 30.6683 81.8779 30.3323C82.5125 29.9776 83.0165 29.4549 83.3899 28.7643C83.7632 28.0736 83.9499 27.2336 83.9499 26.2443C83.9499 24.7696 83.5579 23.6403 82.7739 22.8563C82.0085 22.0536 81.0659 21.6523 79.9459 21.6523C78.8259 21.6523 77.8832 22.0536 77.1179 22.8563C76.3712 23.6403 75.9979 24.7696 75.9979 26.2443C75.9979 27.7189 76.3619 28.8576 77.0899 29.6603C77.8365 30.4443 78.7699 30.8363 79.8899 30.8363Z" fill="#2F2B43" fill-opacity="0.5"/>
<path d="M105.501 18.4883V34.0003H101.553V32.0403C101.049 32.7123 100.387 33.2443 99.5653 33.6363C98.7627 34.0096 97.8853 34.1963 96.9333 34.1963C95.72 34.1963 94.6467 33.9443 93.7133 33.4403C92.78 32.9176 92.0427 32.1616 91.5013 31.1723C90.9787 30.1643 90.7173 28.9696 90.7173 27.5883V18.4883H94.6373V27.0283C94.6373 28.2603 94.9453 29.2123 95.5613 29.8843C96.1773 30.5376 97.0173 30.8643 98.0813 30.8643C99.164 30.8643 100.013 30.5376 100.629 29.8843C101.245 29.2123 101.553 28.2603 101.553 27.0283V18.4883H105.501Z" fill="#2F2B43" fill-opacity="0.5"/>
<path d="M113.289 20.8963C113.793 20.0749 114.446 19.4309 115.249 18.9643C116.07 18.4976 117.004 18.2643 118.049 18.2643V22.3803H117.013C115.781 22.3803 114.848 22.6696 114.213 23.2483C113.597 23.8269 113.289 24.8349 113.289 26.2723V34.0003H109.369V18.4883H113.289V20.8963Z" fill="#2F2B43" fill-opacity="0.5"/>
<path d="M126.765 18.2363C127.923 18.2363 128.94 18.4696 129.817 18.9363C130.695 19.3843 131.385 19.9723 131.889 20.7003V18.4883H135.837V34.1123C135.837 35.5496 135.548 36.8283 134.969 37.9483C134.391 39.0869 133.523 39.9829 132.365 40.6363C131.208 41.3083 129.808 41.6443 128.165 41.6443C125.963 41.6443 124.152 41.1309 122.733 40.1043C121.333 39.0776 120.54 37.6776 120.353 35.9043H124.245C124.451 36.6136 124.889 37.1736 125.561 37.5843C126.252 38.0136 127.083 38.2283 128.053 38.2283C129.192 38.2283 130.116 37.8829 130.825 37.1923C131.535 36.5203 131.889 35.4936 131.889 34.1123V31.7043C131.385 32.4323 130.685 33.0389 129.789 33.5243C128.912 34.0096 127.904 34.2523 126.765 34.2523C125.459 34.2523 124.264 33.9163 123.181 33.2443C122.099 32.5723 121.24 31.6296 120.605 30.4163C119.989 29.1843 119.681 27.7749 119.681 26.1883C119.681 24.6203 119.989 23.2296 120.605 22.0163C121.24 20.8029 122.089 19.8696 123.153 19.2163C124.236 18.5629 125.44 18.2363 126.765 18.2363ZM131.889 26.2443C131.889 25.2923 131.703 24.4803 131.329 23.8083C130.956 23.1176 130.452 22.5949 129.817 22.2403C129.183 21.8669 128.501 21.6803 127.773 21.6803C127.045 21.6803 126.373 21.8576 125.757 22.2123C125.141 22.5669 124.637 23.0896 124.245 23.7803C123.872 24.4523 123.685 25.2549 123.685 26.1883C123.685 27.1216 123.872 27.9429 124.245 28.6523C124.637 29.3429 125.141 29.8749 125.757 30.2483C126.392 30.6216 127.064 30.8083 127.773 30.8083C128.501 30.8083 129.183 30.6309 129.817 30.2763C130.452 29.9029 130.956 29.3803 131.329 28.7083C131.703 28.0176 131.889 27.1963 131.889 26.2443Z" fill="#2F2B43" fill-opacity="0.5"/>
<path d="M143.586 13.2803V34.0003H139.666V13.2803H143.586Z" fill="#2F2B43" fill-opacity="0.5"/>
<path d="M146.451 26.1883C146.451 24.6203 146.759 23.2296 147.375 22.0163C148.01 20.8029 148.859 19.8696 149.923 19.2163C151.006 18.5629 152.21 18.2363 153.535 18.2363C154.692 18.2363 155.7 18.4696 156.559 18.9363C157.436 19.4029 158.136 19.9909 158.659 20.7003V18.4883H162.607V34.0003H158.659V31.7323C158.155 32.4603 157.455 33.0669 156.559 33.5523C155.682 34.0189 154.664 34.2523 153.507 34.2523C152.2 34.2523 151.006 33.9163 149.923 33.2443C148.859 32.5723 148.01 31.6296 147.375 30.4163C146.759 29.1843 146.451 27.7749 146.451 26.1883ZM158.659 26.2443C158.659 25.2923 158.472 24.4803 158.099 23.8083C157.726 23.1176 157.222 22.5949 156.587 22.2403C155.952 21.8669 155.271 21.6803 154.543 21.6803C153.815 21.6803 153.143 21.8576 152.527 22.2123C151.911 22.5669 151.407 23.0896 151.015 23.7803C150.642 24.4523 150.455 25.2549 150.455 26.1883C150.455 27.1216 150.642 27.9429 151.015 28.6523C151.407 29.3429 151.911 29.8749 152.527 30.2483C153.162 30.6216 153.834 30.8083 154.543 30.8083C155.271 30.8083 155.952 30.6309 156.587 30.2763C157.222 29.9029 157.726 29.3803 158.099 28.7083C158.472 28.0176 158.659 27.1963 158.659 26.2443Z" fill="#2F2B43" fill-opacity="0.5"/>
<path d="M172.371 34.2523C171.102 34.2523 169.963 34.0283 168.955 33.5803C167.947 33.1136 167.145 32.4883 166.547 31.7043C165.969 30.9203 165.651 30.0523 165.595 29.1003H169.543C169.618 29.6976 169.907 30.1923 170.411 30.5843C170.934 30.9763 171.578 31.1723 172.343 31.1723C173.09 31.1723 173.669 31.0229 174.079 30.7243C174.509 30.4256 174.723 30.0429 174.723 29.5763C174.723 29.0723 174.462 28.6989 173.939 28.4563C173.435 28.1949 172.623 27.9149 171.503 27.6163C170.346 27.3363 169.394 27.0469 168.647 26.7483C167.919 26.4496 167.285 25.9923 166.743 25.3763C166.221 24.7603 165.959 23.9296 165.959 22.8843C165.959 22.0256 166.202 21.2416 166.687 20.5323C167.191 19.8229 167.901 19.2629 168.815 18.8523C169.749 18.4416 170.841 18.2363 172.091 18.2363C173.939 18.2363 175.414 18.7029 176.515 19.6363C177.617 20.5509 178.223 21.7923 178.335 23.3603H174.583C174.527 22.7443 174.266 22.2589 173.799 21.9043C173.351 21.5309 172.745 21.3443 171.979 21.3443C171.27 21.3443 170.719 21.4749 170.327 21.7363C169.954 21.9976 169.767 22.3616 169.767 22.8283C169.767 23.3509 170.029 23.7523 170.551 24.0323C171.074 24.2936 171.886 24.5643 172.987 24.8443C174.107 25.1243 175.031 25.4136 175.759 25.7123C176.487 26.0109 177.113 26.4776 177.635 27.1123C178.177 27.7283 178.457 28.5496 178.475 29.5763C178.475 30.4723 178.223 31.2749 177.719 31.9843C177.234 32.6936 176.525 33.2536 175.591 33.6643C174.677 34.0563 173.603 34.2523 172.371 34.2523Z" fill="#2F2B43" fill-opacity="0.5"/>
<path d="M187.629 34.2523C186.36 34.2523 185.221 34.0283 184.213 33.5803C183.205 33.1136 182.403 32.4883 181.805 31.7043C181.227 30.9203 180.909 30.0523 180.853 29.1003H184.801C184.876 29.6976 185.165 30.1923 185.669 30.5843C186.192 30.9763 186.836 31.1723 187.601 31.1723C188.348 31.1723 188.927 31.0229 189.337 30.7243C189.767 30.4256 189.981 30.0429 189.981 29.5763C189.981 29.0723 189.72 28.6989 189.197 28.4563C188.693 28.1949 187.881 27.9149 186.761 27.6163C185.604 27.3363 184.652 27.0469 183.905 26.7483C183.177 26.4496 182.543 25.9923 182.001 25.3763C181.479 24.7603 181.217 23.9296 181.217 22.8843C181.217 22.0256 181.46 21.2416 181.945 20.5323C182.449 19.8229 183.159 19.2629 184.073 18.8523C185.007 18.4416 186.099 18.2363 187.349 18.2363C189.197 18.2363 190.672 18.7029 191.773 19.6363C192.875 20.5509 193.481 21.7923 193.593 23.3603H189.841C189.785 22.7443 189.524 22.2589 189.057 21.9043C188.609 21.5309 188.003 21.3443 187.237 21.3443C186.528 21.3443 185.977 21.4749 185.585 21.7363C185.212 21.9976 185.025 22.3616 185.025 22.8283C185.025 23.3509 185.287 23.7523 185.809 24.0323C186.332 24.2936 187.144 24.5643 188.245 24.8443C189.365 25.1243 190.289 25.4136 191.017 25.7123C191.745 26.0109 192.371 26.4776 192.893 27.1123C193.435 27.7283 193.715 28.5496 193.733 29.5763C193.733 30.4723 193.481 31.2749 192.977 31.9843C192.492 32.6936 191.783 33.2536 190.849 33.6643C189.935 34.0563 188.861 34.2523 187.629 34.2523Z" fill="#2F2B43" fill-opacity="0.5"/>
</svg>
