<svg width="58" height="40" viewBox="0 0 58 40" fill="none" xmlns="http://www.w3.org/2000/svg">
<rect width="58" height="40" rx="6" fill="white"/>
<path fill-rule="evenodd" clip-rule="evenodd" d="M19.1297 14V14.0053C19.1245 14.0053 17.4791 14 17.0403 15.5842C16.6381 17.0369 15.5046 21.0474 15.4733 21.1579H15.1599C15.1599 21.1579 14.0003 17.0579 13.5929 15.579C13.1541 13.9947 11.5035 14 11.5035 14H7.74268V26.0527H11.5035V18.8948H11.6602H11.8169L14.0108 26.0527H16.6225L18.8163 18.9H19.1297V26.0527H22.8905V14H19.1297Z" fill="#4DB45E"/>
<path fill-rule="evenodd" clip-rule="evenodd" d="M32.8677 14C32.8677 14 31.7656 14.1 31.2484 15.2632L28.5845 21.1579H28.2711V14H24.5103V26.0527H28.0622C28.0622 26.0527 29.2165 25.9474 29.7337 24.7895L32.3454 18.8948H32.6588V26.0527H36.4196V14H32.8677Z" fill="#4DB45E"/>
<path fill-rule="evenodd" clip-rule="evenodd" d="M38.0903 19.4739V26.0529H41.8512V22.2107H45.9254C47.7014 22.2107 49.2057 21.0686 49.7646 19.4739H38.0903Z" fill="#4DB45E"/>
<path fill-rule="evenodd" clip-rule="evenodd" d="M45.9256 14H37.563C37.9809 16.2947 39.6889 18.1369 41.8984 18.7369C42.3999 18.8737 42.9274 18.9474 43.4707 18.9474H49.9163C49.9738 18.6737 49.9999 18.3948 49.9999 18.1053C49.9999 15.8369 48.1769 14 45.9256 14Z" fill="url(#paint0_linear_116_16392)"/>
<defs>
<linearGradient id="paint0_linear_116_16392" x1="37.564" y1="16.4737" x2="49.9999" y2="16.4737" gradientUnits="userSpaceOnUse">
<stop offset="0.3" stop-color="#00B4E6"/>
<stop offset="1" stop-color="#088CCB"/>
</linearGradient>
</defs>
</svg>
