<svg width="24" height="24" viewBox="0 0 24 24" fill="none" xmlns="http://www.w3.org/2000/svg">
<path d="M2.3999 11.616C2.3999 7.27154 2.3999 5.09933 3.74955 3.74968C5.09921 2.40002 7.27142 2.40002 11.6159 2.40002H12.3839C16.7284 2.40002 18.9006 2.40002 20.2503 3.74968C21.5999 5.09933 21.5999 7.27154 21.5999 11.616V12.384C21.5999 16.7285 21.5999 18.9007 20.2503 20.2504C18.9006 21.6 16.7284 21.6 12.3839 21.6H11.6159C7.27142 21.6 5.09921 21.6 3.74955 20.2504C2.3999 18.9007 2.3999 16.7285 2.3999 12.384V11.616Z" fill="#EE8208"/>
<path d="M12.0003 5C10.0346 5 8.43555 6.62079 8.43555 8.61332C8.43555 10.6057 10.0346 12.2258 12.0003 12.2258C13.9659 12.2258 15.5642 10.6057 15.5642 8.61332C15.5642 6.62079 13.9659 5 12.0003 5ZM12.0003 7.11707C12.8138 7.11707 13.4754 7.7886 13.4754 8.61332C13.4754 9.43768 12.8139 10.1087 12.0003 10.1087C11.1866 10.1087 10.5243 9.43769 10.5243 8.61332C10.5243 7.7886 11.1866 7.11707 12.0003 7.11707ZM9.06133 12.3487C8.70865 12.3431 8.36183 12.5194 8.16065 12.8444C7.85319 13.3395 8.00048 13.9929 8.48778 14.3043C9.13236 14.7143 9.8318 15.0051 10.5571 15.1727L8.56504 17.1931C8.15722 17.6067 8.15757 18.2766 8.56546 18.6903C8.76991 18.8967 9.03656 19 9.30388 19C9.57093 19 9.83847 18.8965 10.0423 18.6898L11.9995 16.7049L13.9583 18.6898C14.3658 19.1033 15.0265 19.1033 15.4347 18.6898C15.8427 18.2765 15.8427 17.6059 15.4347 17.1931L13.4417 15.1732C14.1673 15.0055 14.867 14.7145 15.5111 14.3043C15.9994 13.9929 16.1469 13.3388 15.8395 12.8444C15.5318 12.3491 14.8876 12.1999 14.399 12.5119C12.9396 13.4424 11.0592 13.4418 9.60036 12.5119C9.43242 12.4047 9.24607 12.3516 9.06133 12.3487V12.3487Z" fill="white"/>
</svg>
