<svg width="32" height="32" viewBox="0 0 32 32" fill="none" xmlns="http://www.w3.org/2000/svg">
<path fill-rule="evenodd" clip-rule="evenodd" d="M4.99875 4.99949C3.19922 6.79902 3.19922 9.69531 3.19922 15.488V16.512C3.19922 22.3046 3.19922 25.2009 4.99875 27.0004C6.79829 28.8 9.69458 28.8 15.4872 28.8H16.5112C22.3039 28.8 25.2001 28.8 26.9997 27.0004C28.7992 25.2009 28.7992 22.3046 28.7992 16.512V15.488C28.7992 9.69531 28.7992 6.79902 26.9997 4.99949C25.2001 3.19995 22.3039 3.19995 16.5112 3.19995H15.4872C9.69458 3.19995 6.79829 3.19995 4.99875 4.99949ZM11.2468 11.4844C11.2468 8.82768 13.3788 6.66663 15.9997 6.66663C18.6206 6.66663 20.7516 8.82768 20.7516 11.4844C20.7516 14.1409 18.6206 16.301 15.9997 16.301C13.3788 16.301 11.2468 14.1409 11.2468 11.4844ZM17.9665 11.4844C17.9665 10.3848 17.0845 9.48938 15.9997 9.48938C14.9148 9.48938 14.0318 10.3848 14.0318 11.4844C14.0318 12.5835 14.9148 13.4782 15.9997 13.4782C17.0845 13.4782 17.9665 12.5835 17.9665 11.4844ZM10.8802 17.1258C11.1485 16.6924 11.6109 16.4575 12.0811 16.4649V16.4649C12.3274 16.4688 12.5759 16.5395 12.7998 16.6825C14.745 17.9224 17.2522 17.9232 19.198 16.6825C19.8495 16.2666 20.7085 16.4655 21.1187 17.1258C21.5285 17.785 21.3319 18.6571 20.6808 19.0724C19.822 19.6194 18.8891 20.0074 17.9217 20.2309L20.579 22.9241C21.123 23.4744 21.123 24.3686 20.579 24.9197C20.0347 25.4711 19.1538 25.4711 18.6105 24.9197L15.9986 22.2731L13.3891 24.9197C13.1173 25.1953 12.7606 25.3333 12.4045 25.3333C12.0481 25.3333 11.6926 25.1955 11.42 24.9203C10.8761 24.3688 10.8756 23.4756 11.4194 22.9241L14.0755 20.2303C13.1084 20.0068 12.1758 19.619 11.3164 19.0724C10.6667 18.6571 10.4703 17.786 10.8802 17.1258Z" fill="black"/>
</svg>
