<svg width="24" height="25" viewBox="0 0 24 25" fill="none" xmlns="http://www.w3.org/2000/svg">
<path fill-rule="evenodd" clip-rule="evenodd" d="M4.06361 1.75L7.81453 1.75C8.1269 1.75 8.40656 1.94361 8.51652 2.23599L9.97196 6.10588C10.0201 6.23398 10.0323 6.37281 10.0073 6.50735L9.27798 10.4193C10.1743 12.5273 11.6549 13.9439 14.1106 15.2146L17.9756 14.4657C18.1128 14.4391 18.2547 14.4514 18.3853 14.5012L22.2671 15.9804C22.5578 16.0912 22.75 16.37 22.75 16.6812L22.75 20.2655C22.75 21.891 21.3178 23.2101 19.6426 22.8456C16.5889 22.1811 10.9317 20.4923 6.96968 16.5303C3.17455 12.7352 1.903 7.49252 1.47497 4.65869C1.23073 3.04172 2.52753 1.75 4.06361 1.75ZM7.29531 3.25L4.06361 3.25C3.34459 3.25 2.86558 3.82183 2.95814 4.43467C3.37092 7.16748 4.57854 12.0179 8.03034 15.4697C11.6787 19.1181 16.9825 20.7317 19.9615 21.3799C20.6158 21.5222 21.25 21.024 21.25 20.2655L21.25 17.198L18.051 15.979L14.1427 16.7363C13.9801 16.7678 13.8116 16.7446 13.6636 16.6703C10.7693 15.2176 8.89039 13.4954 7.80366 10.7785C7.75086 10.6466 7.73667 10.5023 7.76272 10.3625L8.49433 6.4381L7.29531 3.25Z" fill="white"/>
</svg>
