<svg width="160" height="24" viewBox="0 0 160 24" fill="none" xmlns="http://www.w3.org/2000/svg">
<path d="M10.5135 2.67026C11.1226 1.44325 12.8781 1.44325 13.4872 2.67026L15.9099 7.55031L21.3297 8.33797C22.6852 8.53496 23.2377 10.2006 22.2463 11.1607L18.3285 14.9548L19.253 20.3139C19.4876 21.6742 18.0559 22.6907 16.8473 22.0587L12.0003 19.5243L7.15333 22.0587C5.94476 22.6907 4.51307 21.6742 4.74771 20.3139L5.67214 14.9548L1.75433 11.1607C0.762991 10.2006 1.3155 8.53496 2.671 8.33797L8.09077 7.55031L10.5135 2.67026Z" fill="#FFF2DE"/>
<path d="M44.5135 2.67026C45.1226 1.44325 46.8781 1.44325 47.4872 2.67026L49.9099 7.55031L55.3297 8.33797C56.6852 8.53496 57.2377 10.2006 56.2463 11.1607L52.3285 14.9548L53.253 20.3139C53.4876 21.6742 52.0559 22.6907 50.8473 22.0587L46.0003 19.5243L41.1533 22.0587C39.9448 22.6907 38.5131 21.6742 38.7477 20.3139L39.6721 14.9548L35.7543 11.1607C34.763 10.2006 35.3155 8.53496 36.671 8.33797L42.0908 7.55031L44.5135 2.67026Z" fill="#FFF2DE"/>
<path d="M78.5135 2.67026C79.1226 1.44325 80.8781 1.44325 81.4872 2.67026L83.9099 7.55031L89.3297 8.33797C90.6852 8.53496 91.2377 10.2006 90.2463 11.1607L86.3285 14.9548L87.253 20.3139C87.4876 21.6742 86.0559 22.6907 84.8473 22.0587L80.0003 19.5243L75.1533 22.0587C73.9448 22.6907 72.5131 21.6742 72.7477 20.3139L73.6721 14.9548L69.7543 11.1607C68.763 10.2006 69.3155 8.53496 70.671 8.33797L76.0908 7.55031L78.5135 2.67026Z" fill="#FFF2DE"/>
<path d="M112.513 2.67026C113.123 1.44325 114.878 1.44325 115.487 2.67026L117.91 7.55031L123.33 8.33797C124.685 8.53496 125.238 10.2006 124.246 11.1607L120.329 14.9548L121.253 20.3139C121.488 21.6742 120.056 22.6907 118.847 22.0587L114 19.5243L109.153 22.0587C107.945 22.6907 106.513 21.6742 106.748 20.3139L107.672 14.9548L103.754 11.1607C102.763 10.2006 103.316 8.53496 104.671 8.33797L110.091 7.55031L112.513 2.67026Z" fill="#FFF2DE"/>
<path d="M146.513 2.67026C147.123 1.44325 148.878 1.44325 149.487 2.67026L151.91 7.55031L157.33 8.33797C158.685 8.53496 159.238 10.2006 158.246 11.1607L154.329 14.9548L155.253 20.3139C155.488 21.6742 154.056 22.6907 152.847 22.0587L148 19.5243L143.153 22.0587C141.945 22.6907 140.513 21.6742 140.748 20.3139L141.672 14.9548L137.754 11.1607C136.763 10.2006 137.316 8.53496 138.671 8.33797L144.091 7.55031L146.513 2.67026Z" fill="#FFF2DE"/>
</svg>
