<svg width="140" height="20" viewBox="0 0 140 20" fill="none" xmlns="http://www.w3.org/2000/svg">
<path d="M8.76095 2.22514C9.26857 1.20262 10.7315 1.20262 11.2391 2.22514L13.258 6.29185L17.7745 6.94822C18.904 7.11238 19.3645 8.50045 18.5384 9.30049L15.2735 12.4623L16.0439 16.9282C16.2394 18.0617 15.0463 18.9088 14.0392 18.3822L10 16.2702L5.96084 18.3822C4.9537 18.9088 3.76063 18.0617 3.95616 16.9282L4.72652 12.4623L1.46168 9.30049C0.635562 8.50045 1.09599 7.11238 2.22557 6.94822L6.74204 6.29185L8.76095 2.22514Z" fill="#FFA621"/>
<path d="M38.761 2.22514C39.2686 1.20262 40.7315 1.20262 41.2391 2.22514L43.258 6.29185L47.7745 6.94822C48.904 7.11238 49.3645 8.50045 48.5384 9.30049L45.2735 12.4623L46.0439 16.9282C46.2394 18.0617 45.0463 18.9088 44.0392 18.3822L40 16.2702L35.9608 18.3822C34.9537 18.9088 33.7606 18.0617 33.9562 16.9282L34.7265 12.4623L31.4617 9.30049C30.6356 8.50045 31.096 7.11238 32.2256 6.94822L36.742 6.29185L38.761 2.22514Z" fill="#FFA621"/>
<path d="M68.761 2.22514C69.2686 1.20262 70.7315 1.20262 71.2391 2.22514L73.258 6.29185L77.7745 6.94822C78.904 7.11238 79.3645 8.50045 78.5384 9.30049L75.2735 12.4623L76.0439 16.9282C76.2394 18.0617 75.0463 18.9088 74.0392 18.3822L70 16.2702L65.9608 18.3822C64.9537 18.9088 63.7606 18.0617 63.9562 16.9282L64.7265 12.4623L61.4617 9.30049C60.6356 8.50045 61.096 7.11238 62.2256 6.94822L66.742 6.29185L68.761 2.22514Z" fill="#FFA621"/>
<path d="M98.761 2.22514C99.2686 1.20262 100.731 1.20262 101.239 2.22514L103.258 6.29185L107.774 6.94822C108.904 7.11238 109.364 8.50045 108.538 9.30049L105.274 12.4623L106.044 16.9282C106.239 18.0617 105.046 18.9088 104.039 18.3822L100 16.2702L95.9608 18.3822C94.9537 18.9088 93.7606 18.0617 93.9562 16.9282L94.7265 12.4623L91.4617 9.30049C90.6356 8.50045 91.096 7.11238 92.2256 6.94822L96.742 6.29185L98.761 2.22514Z" fill="#FFA621"/>
<path d="M128.761 2.22514C129.269 1.20262 130.731 1.20262 131.239 2.22514L133.258 6.29185L137.774 6.94822C138.904 7.11238 139.364 8.50045 138.538 9.30049L135.274 12.4623L136.044 16.9282C136.239 18.0617 135.046 18.9088 134.039 18.3822L130 16.2702L125.961 18.3822C124.954 18.9088 123.761 18.0617 123.956 16.9282L124.727 12.4623L121.462 9.30049C120.636 8.50045 121.096 7.11238 122.226 6.94822L126.742 6.29185L128.761 2.22514Z" fill="#FFA621"/>
</svg>
