<svg width="100" height="16" viewBox="0 0 100 16" fill="none" xmlns="http://www.w3.org/2000/svg">
<path d="M7.00875 1.78025C7.41485 0.962246 8.58516 0.962246 8.99125 1.78025L10.6064 5.03362L14.2196 5.55873C15.1232 5.69005 15.4916 6.80051 14.8307 7.44054L12.2188 9.96996L12.8351 13.5427C12.9915 14.4495 12.0371 15.1272 11.2313 14.7059L8 13.0163L4.76866 14.7059C3.96295 15.1272 3.00849 14.4495 3.16492 13.5427L3.7812 9.96996L1.16933 7.44054C0.508437 6.80051 0.876778 5.69005 1.78044 5.55873L5.39362 5.03362L7.00875 1.78025Z" fill="#FFF2DE"/>
<path d="M28.0087 1.78025C28.4148 0.962246 29.5852 0.962246 29.9913 1.78025L31.6064 5.03362L35.2196 5.55873C36.1232 5.69005 36.4916 6.80051 35.8307 7.44054L33.2188 9.96996L33.8351 13.5427C33.9915 14.4495 33.0371 15.1272 32.2313 14.7059L29 13.0163L25.7687 14.7059C24.9629 15.1272 24.0085 14.4495 24.1649 13.5427L24.7812 9.96996L22.1693 7.44054C21.5084 6.80051 21.8768 5.69005 22.7804 5.55873L26.3936 5.03362L28.0087 1.78025Z" fill="#FFF2DE"/>
<path d="M49.0087 1.78025C49.4148 0.962246 50.5852 0.962246 50.9913 1.78025L52.6064 5.03362L56.2196 5.55873C57.1232 5.69005 57.4916 6.80051 56.8307 7.44054L54.2188 9.96996L54.8351 13.5427C54.9915 14.4495 54.0371 15.1272 53.2313 14.7059L50 13.0163L46.7687 14.7059C45.9629 15.1272 45.0085 14.4495 45.1649 13.5427L45.7812 9.96996L43.1693 7.44054C42.5084 6.80051 42.8768 5.69005 43.7804 5.55873L47.3936 5.03362L49.0087 1.78025Z" fill="#FFF2DE"/>
<path d="M70.0087 1.78025C70.4148 0.962246 71.5852 0.962246 71.9913 1.78025L73.6064 5.03362L77.2196 5.55873C78.1232 5.69005 78.4916 6.80051 77.8307 7.44054L75.2188 9.96996L75.8351 13.5427C75.9915 14.4495 75.0371 15.1272 74.2313 14.7059L71 13.0163L67.7687 14.7059C66.9629 15.1272 66.0085 14.4495 66.1649 13.5427L66.7812 9.96996L64.1693 7.44054C63.5084 6.80051 63.8768 5.69005 64.7804 5.55873L68.3936 5.03362L70.0087 1.78025Z" fill="#FFF2DE"/>
<path d="M91.0087 1.78025C91.4148 0.962246 92.5852 0.962246 92.9913 1.78025L94.6064 5.03362L98.2196 5.55873C99.1232 5.69005 99.4916 6.80051 98.8307 7.44054L96.2188 9.96996L96.8351 13.5427C96.9915 14.4495 96.0371 15.1272 95.2313 14.7059L92 13.0163L88.7687 14.7059C87.9629 15.1272 87.0085 14.4495 87.1649 13.5427L87.7812 9.96996L85.1693 7.44054C84.5084 6.80051 84.8768 5.69005 85.7804 5.55873L89.3936 5.03362L91.0087 1.78025Z" fill="#FFF2DE"/>
</svg>
