<svg width="120" height="16" viewBox="0 0 120 16" fill="none" xmlns="http://www.w3.org/2000/svg">
<path d="M7.00881 1.78019C7.41491 0.962185 8.58522 0.962185 8.99132 1.78019L10.6064 5.03356L14.2196 5.55866C15.1233 5.68999 15.4916 6.80045 14.8307 7.44048L12.2189 9.9699L12.8351 13.5426C12.9916 14.4495 12.0371 15.1271 11.2314 14.7059L8.00006 13.0162L4.76872 14.7059C3.96301 15.1271 3.00855 14.4495 3.16498 13.5426L3.78126 9.9699L1.16939 7.44048C0.508498 6.80045 0.876839 5.68999 1.7805 5.55866L5.39368 5.03356L7.00881 1.78019Z" fill="#FFF2DE"/>
<path d="M33.0088 1.78019C33.4149 0.962185 34.5852 0.962185 34.9913 1.78019L36.6064 5.03356L40.2196 5.55866C41.1233 5.68999 41.4916 6.80045 40.8307 7.44048L38.2189 9.9699L38.8351 13.5426C38.9916 14.4495 38.0371 15.1271 37.2314 14.7059L34.0001 13.0162L30.7687 14.7059C29.963 15.1271 29.0085 14.4495 29.165 13.5426L29.7813 9.9699L27.1694 7.44048C26.5085 6.80045 26.8768 5.68999 27.7805 5.55866L31.3937 5.03356L33.0088 1.78019Z" fill="#FFF2DE"/>
<path d="M59.0088 1.78019C59.4149 0.962185 60.5852 0.962185 60.9913 1.78019L62.6064 5.03356L66.2196 5.55866C67.1233 5.68999 67.4916 6.80045 66.8307 7.44048L64.2189 9.9699L64.8351 13.5426C64.9916 14.4495 64.0371 15.1271 63.2314 14.7059L60.0001 13.0162L56.7687 14.7059C55.963 15.1271 55.0085 14.4495 55.165 13.5426L55.7813 9.9699L53.1694 7.44048C52.5085 6.80045 52.8768 5.68999 53.7805 5.55866L57.3937 5.03356L59.0088 1.78019Z" fill="#FFF2DE"/>
<path d="M85.0088 1.78019C85.4149 0.962185 86.5852 0.962185 86.9913 1.78019L88.6064 5.03356L92.2196 5.55866C93.1233 5.68999 93.4916 6.80045 92.8307 7.44048L90.2189 9.9699L90.8351 13.5426C90.9916 14.4495 90.0371 15.1271 89.2314 14.7059L86.0001 13.0162L82.7687 14.7059C81.963 15.1271 81.0085 14.4495 81.165 13.5426L81.7813 9.9699L79.1694 7.44048C78.5085 6.80045 78.8768 5.68999 79.7805 5.55866L83.3937 5.03356L85.0088 1.78019Z" fill="#FFF2DE"/>
<path d="M111.009 1.78019C111.415 0.962185 112.585 0.962185 112.991 1.78019L114.606 5.03356L118.22 5.55866C119.123 5.68999 119.492 6.80045 118.831 7.44048L116.219 9.9699L116.835 13.5426C116.992 14.4495 116.037 15.1271 115.231 14.7059L112 13.0162L108.769 14.7059C107.963 15.1271 107.009 14.4495 107.165 13.5426L107.781 9.9699L105.169 7.44048C104.508 6.80045 104.877 5.68999 105.781 5.55866L109.394 5.03356L111.009 1.78019Z" fill="#FFF2DE"/>
</svg>
