<svg width="80" height="80" viewBox="0 0 80 80" fill="none" xmlns="http://www.w3.org/2000/svg">
<path d="M1.3551 22.5285L1.75025 60.874C1.8351 68.9479 3.86419 71.9491 11.8836 72.8873C19.5866 73.7903 52.5454 73.56 63.5806 73.8849C73.7587 74.1746 77.8387 71.3673 78.029 59.0619L78.6436 19.4837C78.7793 10.7322 76.16 8.11276 67.7599 7.82548L18.1284 6.12609C5.34783 5.70549 1.22055 9.50064 1.3551 22.5285ZM2.96237 60.8619C2.50782 16.7006 2.57207 23.2364 2.56722 21.8425C31.0569 20.8788 51.6993 20.8097 77.4072 21.0243L77.2884 28.64L76.5575 27.9091C76.5006 27.8522 76.4234 27.8203 76.343 27.8203C76.2625 27.8203 76.1853 27.8522 76.1284 27.9091C76.0715 27.966 76.0396 28.0432 76.0396 28.1237C76.0396 28.2041 76.0715 28.2813 76.1284 28.3382L77.1975 29.4073L76.349 30.2558C76.3066 30.2703 76.2593 30.2728 76.2254 30.3067C76.1915 30.3406 76.189 30.3879 76.1745 30.4303L75.6351 30.9697C75.6069 30.9979 75.5845 31.0313 75.5692 31.0681C75.5539 31.1049 75.5461 31.1444 75.5461 31.1843C75.5461 31.2241 75.5539 31.2636 75.5692 31.3004C75.5845 31.3372 75.6069 31.3707 75.6351 31.3988C75.9139 31.6776 76.189 31.274 76.4763 30.9867L77.2399 31.7503L77.2387 31.8606C77.1975 31.8752 77.1527 31.8776 77.1199 31.9103L76.1369 32.8934L76.1309 32.8958L76.1284 32.9018L75.0981 33.9322C75.07 33.9603 75.0476 33.9938 75.0324 34.0306C75.0171 34.0674 75.0093 34.1069 75.0093 34.1467C75.0093 34.1865 75.0171 34.226 75.0324 34.2628C75.0476 34.2996 75.07 34.3331 75.0981 34.3612C75.1263 34.3894 75.1598 34.4118 75.1966 34.427C75.2334 34.4423 75.2728 34.4501 75.3127 34.4501C75.3525 34.4501 75.392 34.4423 75.4288 34.427C75.4656 34.4118 75.499 34.3894 75.5272 34.3612L76.3478 33.5406L77.2012 34.394L77.1987 34.5273C77.1212 34.5284 77.047 34.5592 76.9915 34.6134L76.1963 35.4085L75.9854 35.1964C75.9572 35.1682 75.9238 35.1459 75.887 35.1306C75.8502 35.1154 75.8107 35.1075 75.7709 35.1075C75.731 35.1075 75.6916 35.1154 75.6547 35.1306C75.6179 35.1459 75.5845 35.1682 75.5563 35.1964C75.5281 35.2246 75.5058 35.258 75.4905 35.2948C75.4753 35.3316 75.4674 35.3711 75.4674 35.4109C75.4674 35.4508 75.4753 35.4902 75.4905 35.5271C75.5058 35.5639 75.5281 35.5973 75.5563 35.6255L75.7672 35.8376L74.8581 36.7467C74.83 36.7749 74.8076 36.8083 74.7924 36.8451C74.7771 36.8819 74.7693 36.9214 74.7693 36.9612C74.7693 37.0011 74.7771 37.0405 74.7924 37.0774C74.8076 37.1142 74.83 37.1476 74.8581 37.1758C74.8863 37.204 74.9197 37.2263 74.9566 37.2416C74.9934 37.2568 75.0328 37.2647 75.0727 37.2647C75.1125 37.2647 75.152 37.2568 75.1888 37.2416C75.2256 37.2263 75.259 37.204 75.2872 37.1758L76.1963 36.2667L77.1575 37.2279L77.1539 37.5019C77.0797 37.5036 77.0088 37.533 76.9551 37.5843L75.9854 38.554L75.7939 38.3625C75.737 38.3056 75.6598 38.2736 75.5793 38.2736C75.4989 38.2736 75.4217 38.3056 75.3648 38.3625C75.3079 38.4194 75.2759 38.4965 75.2759 38.577C75.2759 38.6575 75.3079 38.7346 75.3648 38.7915L75.5563 38.9831L75.2775 39.2618C75.2494 39.29 75.227 39.3235 75.2118 39.3603C75.1965 39.3971 75.1887 39.4366 75.1887 39.4764C75.1887 39.5162 75.1965 39.5557 75.2118 39.5925C75.227 39.6293 75.2494 39.6628 75.2775 39.6909C75.3057 39.7191 75.3391 39.7415 75.376 39.7567C75.4128 39.772 75.4522 39.7798 75.4921 39.7798C75.5319 39.7798 75.5714 39.772 75.6082 39.7567C75.645 39.7415 75.6784 39.7191 75.7066 39.6909L75.9854 39.4122L76.8884 40.3164L75.9272 41.2776L75.6024 40.9528C75.5742 40.9246 75.5407 40.9022 75.5039 40.887C75.4671 40.8717 75.4277 40.8639 75.3878 40.8639C75.348 40.8639 75.3085 40.8717 75.2717 40.887C75.2349 40.9022 75.2015 40.9246 75.1733 40.9528C75.1451 40.9809 75.1228 41.0144 75.1075 41.0512C75.0923 41.088 75.0844 41.1275 75.0844 41.1673C75.0844 41.2072 75.0923 41.2466 75.1075 41.2834C75.1228 41.3202 75.1451 41.3537 75.1733 41.3819L75.4981 41.7067L75.006 42.194C74.9778 42.2221 74.9555 42.2556 74.9402 42.2924C74.925 42.3292 74.9171 42.3687 74.9171 42.4085C74.9171 42.4484 74.925 42.4878 74.9402 42.5246C74.9555 42.5614 74.9778 42.5949 75.006 42.6231C75.0342 42.6512 75.0676 42.6736 75.1044 42.6888C75.1413 42.7041 75.1807 42.7119 75.2206 42.7119C75.2604 42.7119 75.2999 42.7041 75.3367 42.6888C75.3735 42.6736 75.4069 42.6512 75.4351 42.6231L75.9236 42.1346L77.0606 43.2715L77.0545 43.6461C77.0206 43.6606 76.9806 43.6606 76.9527 43.6885L76.0618 44.5794L75.6945 44.2122C75.6663 44.184 75.6329 44.1616 75.5961 44.1464C75.5592 44.1311 75.5198 44.1233 75.4799 44.1233C75.4401 44.1233 75.4007 44.1311 75.3638 44.1464C75.327 44.1616 75.2936 44.184 75.2654 44.2122C75.2372 44.2403 75.2149 44.2738 75.1996 44.3106C75.1844 44.3474 75.1765 44.3869 75.1765 44.4267C75.1765 44.4665 75.1844 44.506 75.1996 44.5428C75.2149 44.5796 75.2372 44.6131 75.2654 44.6412L75.6327 45.0085L75.4545 45.1867C75.4263 45.2149 75.404 45.2483 75.3887 45.2851C75.3735 45.3219 75.3656 45.3614 75.3656 45.4012C75.3656 45.4411 75.3735 45.4805 75.3887 45.5174C75.404 45.5542 75.4263 45.5876 75.4545 45.6158C75.4827 45.644 75.5161 45.6663 75.5529 45.6816C75.5897 45.6968 75.6292 45.7047 75.669 45.7047C75.7089 45.7047 75.7483 45.6968 75.7851 45.6816C75.822 45.6663 75.8554 45.644 75.8836 45.6158L76.0618 45.4376L76.9502 46.3261C76.9672 46.3431 76.9927 46.3394 77.0121 46.3516L77.0096 46.5031L76.0109 47.5019L75.5975 47.0885C75.5694 47.0603 75.5359 47.038 75.4991 47.0227C75.4623 47.0075 75.4228 46.9996 75.383 46.9996C75.3431 46.9996 75.3037 47.0075 75.2669 47.0227C75.23 47.038 75.1966 47.0603 75.1684 47.0885C75.1403 47.1167 75.1179 47.1501 75.1027 47.187C75.0874 47.2238 75.0796 47.2632 75.0796 47.3031C75.0796 47.3429 75.0874 47.3824 75.1027 47.4192C75.1179 47.456 75.1403 47.4894 75.1684 47.5176L75.5818 47.9309L75.0945 48.4182C75.0663 48.4464 75.044 48.4798 75.0287 48.5166C75.0135 48.5535 75.0056 48.5929 75.0056 48.6328C75.0056 48.6726 75.0135 48.7121 75.0287 48.7489C75.044 48.7857 75.0663 48.8191 75.0945 48.8473C75.1227 48.8755 75.1561 48.8978 75.1929 48.9131C75.2297 48.9283 75.2692 48.9362 75.309 48.9362C75.3489 48.9362 75.3883 48.9283 75.4251 48.9131C75.462 48.8978 75.4954 48.8755 75.5236 48.8473L76.0109 48.36L76.8642 49.2134C76.8921 49.2412 76.9321 49.2412 76.966 49.2558L76.9551 49.9673C76.9018 49.9794 76.8472 49.9879 76.806 50.0291L76.0896 50.7455L75.4072 50.0606C75.3503 50.0037 75.2731 49.9718 75.1927 49.9718C75.1122 49.9718 75.035 50.0037 74.9781 50.0606C74.9212 50.1175 74.8893 50.1947 74.8893 50.2752C74.8893 50.3557 74.9212 50.4328 74.9781 50.4897L75.6618 51.1734L75.2448 51.5903C75.1879 51.6472 75.1559 51.7244 75.1559 51.8049C75.1559 51.8853 75.1879 51.9625 75.2448 52.0194C75.3017 52.0763 75.3789 52.1083 75.4593 52.1083C75.5398 52.1083 75.617 52.0763 75.6739 52.0194L76.0909 51.6025L76.8169 52.3285C76.8145 52.3309 76.8109 52.3297 76.8084 52.3322L75.3733 53.7673L74.5442 52.9382C74.516 52.91 74.4826 52.8877 74.4458 52.8724C74.4089 52.8572 74.3695 52.8493 74.3296 52.8493C74.2898 52.8493 74.2503 52.8572 74.2135 52.8724C74.1767 52.8877 74.1433 52.91 74.1151 52.9382C74.0869 52.9664 74.0646 52.9998 74.0493 53.0366C74.0341 53.0735 74.0262 53.1129 74.0262 53.1528C74.0262 53.1926 74.0341 53.2321 74.0493 53.2689C74.0646 53.3057 74.0869 53.3391 74.1151 53.3673L74.9442 54.1964L74.4363 54.7043C74.3794 54.7612 74.3474 54.8383 74.3474 54.9188C74.3474 54.9993 74.3794 55.0765 74.4363 55.1334C74.4932 55.1903 74.5704 55.2222 74.6509 55.2222C74.7313 55.2222 74.8085 55.1903 74.8654 55.1334L75.3733 54.6255L76.2048 55.457C76.233 55.4852 76.2664 55.5075 76.3032 55.5228C76.34 55.538 76.3795 55.5459 76.4193 55.5459C76.4592 55.5459 76.4986 55.538 76.5355 55.5228C76.5723 55.5075 76.6057 55.4852 76.6339 55.457C76.6621 55.4288 76.6844 55.3954 76.6997 55.3586C76.7149 55.3218 76.7228 55.2823 76.7228 55.2425C76.7228 55.2026 76.7149 55.1632 76.6997 55.1263C76.6844 55.0895 76.6621 55.0561 76.6339 55.0279L75.8024 54.1964L76.909 53.0897L76.8715 55.4825C76.8109 55.4922 76.7478 55.5055 76.7006 55.5528L75.0593 57.194L73.8727 56.0085C73.8445 55.9803 73.8111 55.958 73.7742 55.9427C73.7374 55.9275 73.698 55.9197 73.6581 55.9197C73.6183 55.9197 73.5788 55.9275 73.542 55.9427C73.5052 55.958 73.4718 55.9803 73.4436 56.0085C73.4154 56.0367 73.3931 56.0701 73.3778 56.107C73.3626 56.1438 73.3547 56.1832 73.3547 56.2231C73.3547 56.2629 73.3626 56.3024 73.3778 56.3392C73.3931 56.376 73.4154 56.4094 73.4436 56.4376L74.6302 57.6231L74.1381 58.1152C74.0812 58.1721 74.0493 58.2493 74.0493 58.3297C74.0493 58.4102 74.0812 58.4874 74.1381 58.5443C74.195 58.6012 74.2722 58.6331 74.3527 58.6331C74.4331 58.6331 74.5103 58.6012 74.5672 58.5443L75.0593 58.0522L76.3636 59.3528C76.3917 59.381 76.4252 59.4034 76.462 59.4186C76.4988 59.4339 76.5383 59.4418 76.5781 59.4418C76.618 59.4418 76.6575 59.4339 76.6943 59.4186C76.7311 59.4034 76.7645 59.381 76.7927 59.3528C76.8036 59.3419 76.8012 59.3237 76.8096 59.3115C76.806 59.5019 76.7999 59.6958 76.7939 59.8873L75.5478 61.1334L74.6448 60.2303L74.6581 60.217C74.715 60.1601 74.747 60.0829 74.747 60.0025C74.747 59.922 74.715 59.8448 74.6581 59.7879C74.6012 59.731 74.5241 59.699 74.4436 59.699C74.3631 59.699 74.2859 59.731 74.229 59.7879L74.2157 59.8012L73.0096 58.5952C72.9815 58.567 72.948 58.5447 72.9112 58.5294C72.8744 58.5142 72.8349 58.5063 72.7951 58.5063C72.7553 58.5063 72.7158 58.5142 72.679 58.5294C72.6422 58.5447 72.6087 58.567 72.5806 58.5952C72.5524 58.6234 72.53 58.6568 72.5148 58.6936C72.4995 58.7304 72.4917 58.7699 72.4917 58.8097C72.4917 58.8496 72.4995 58.889 72.5148 58.9258C72.53 58.9627 72.5524 58.9961 72.5806 59.0243L73.7866 60.2303L72.4896 61.5273L71.2836 60.3212C71.2554 60.2931 71.222 60.2707 71.1852 60.2555C71.1483 60.2402 71.1089 60.2324 71.069 60.2324C71.0292 60.2324 70.9897 60.2402 70.9529 60.2555C70.9161 60.2707 70.8827 60.2931 70.8545 60.3212C70.8263 60.3494 70.804 60.3829 70.7887 60.4197C70.7735 60.4565 70.7656 60.4959 70.7656 60.5358C70.7656 60.5756 70.7735 60.6151 70.7887 60.6519C70.804 60.6887 70.8263 60.7222 70.8545 60.7503L72.0606 61.9564L71.4436 62.5734C71.3867 62.6303 71.3547 62.7074 71.3547 62.7879C71.3547 62.8684 71.3867 62.9456 71.4436 63.0025C71.5005 63.0594 71.5777 63.0913 71.6581 63.0913C71.7386 63.0913 71.8158 63.0594 71.8727 63.0025L72.4896 62.3855L75.1442 65.0388L73.5587 66.6243L72.8205 65.8861L73.8399 64.8667C73.8681 64.8385 73.8905 64.8051 73.9057 64.7683C73.921 64.7315 73.9288 64.692 73.9288 64.6522C73.9288 64.6123 73.921 64.5729 73.9057 64.536C73.8905 64.4992 73.8681 64.4658 73.8399 64.4376C73.8118 64.4094 73.7783 64.3871 73.7415 64.3718C73.7047 64.3566 73.6652 64.3487 73.6254 64.3487C73.5856 64.3487 73.5461 64.3566 73.5093 64.3718C73.4725 64.3871 73.439 64.4094 73.4109 64.4376L72.3915 65.457L69.5575 62.6231C69.5293 62.5949 69.4959 62.5725 69.4591 62.5573C69.4223 62.542 69.3828 62.5342 69.343 62.5342C69.3031 62.5342 69.2637 62.542 69.2269 62.5573C69.1901 62.5725 69.1566 62.5949 69.1284 62.6231C69.1003 62.6512 69.0779 62.6847 69.0627 62.7215C69.0474 62.7583 69.0396 62.7978 69.0396 62.8376C69.0396 62.8775 69.0474 62.9169 69.0627 62.9537C69.0779 62.9905 69.1003 63.024 69.1284 63.0522L71.9624 65.8861L70.5212 67.3273L69.109 65.9152L69.943 65.0812C69.9999 65.0243 70.0318 64.9472 70.0318 64.8667C70.0318 64.7862 69.9999 64.7091 69.943 64.6522C69.8861 64.5953 69.8089 64.5633 69.7284 64.5633C69.648 64.5633 69.5708 64.5953 69.5139 64.6522L68.6799 65.4861L66.5842 63.3903C66.5273 63.3334 66.4501 63.3015 66.3696 63.3015C66.2892 63.3015 66.212 63.3334 66.1551 63.3903C66.0982 63.4472 66.0662 63.5244 66.0662 63.6049C66.0662 63.6854 66.0982 63.7625 66.1551 63.8194L68.2509 65.9152L66.2339 67.9322L65.1357 66.834L66.2666 65.7031C66.2948 65.6749 66.3171 65.6414 66.3324 65.6046C66.3476 65.5678 66.3555 65.5284 66.3555 65.4885C66.3555 65.4487 66.3476 65.4092 66.3324 65.3724C66.3171 65.3356 66.2948 65.3022 66.2666 65.274C66.2384 65.2458 66.205 65.2234 66.1682 65.2082C66.1314 65.193 66.0919 65.1851 66.0521 65.1851C66.0122 65.1851 65.9728 65.193 65.936 65.2082C65.8991 65.2234 65.8657 65.2458 65.8375 65.274L64.7066 66.4049L63.7054 65.4037C63.6772 65.3755 63.6438 65.3531 63.607 65.3379C63.5702 65.3227 63.5307 65.3148 63.4909 65.3148C63.451 65.3148 63.4116 65.3227 63.3747 65.3379C63.3379 65.3531 63.3045 65.3755 63.2763 65.4037C63.2481 65.4318 63.2258 65.4653 63.2105 65.5021C63.1953 65.5389 63.1874 65.5784 63.1874 65.6182C63.1874 65.6581 63.1953 65.6975 63.2105 65.7343C63.2258 65.7711 63.2481 65.8046 63.2763 65.8328L64.2775 66.834L62.2606 68.8509L61.4472 68.0376L62.1345 67.3503C62.1627 67.3222 62.185 67.2887 62.2003 67.2519C62.2155 67.2151 62.2234 67.1756 62.2234 67.1358C62.2234 67.0959 62.2155 67.0565 62.2003 67.0197C62.185 66.9829 62.1627 66.9494 62.1345 66.9212C62.1063 66.8931 62.0729 66.8707 62.0361 66.8555C61.9992 66.8402 61.9598 66.8324 61.9199 66.8324C61.8801 66.8324 61.8406 66.8402 61.8038 66.8555C61.767 66.8707 61.7336 66.8931 61.7054 66.9212L61.0181 67.6085L60.2521 66.8425C60.1952 66.7856 60.118 66.7536 60.0375 66.7536C59.9571 66.7536 59.8799 66.7856 59.823 66.8425C59.7661 66.8994 59.7341 66.9765 59.7341 67.057C59.7341 67.1375 59.7661 67.2146 59.823 67.2715L60.589 68.0376L58.6206 70.0061L57.5527 68.9382L58.7551 67.7358C58.812 67.6789 58.844 67.6017 58.844 67.5212C58.844 67.4408 58.812 67.3636 58.7551 67.3067C58.6982 67.2498 58.621 67.2178 58.5406 67.2178C58.4601 67.2178 58.3829 67.2498 58.326 67.3067L57.1236 68.5091L56.3187 67.7043C56.2906 67.6761 56.2571 67.6538 56.2203 67.6385C56.1835 67.6233 56.144 67.6154 56.1042 67.6154C56.0643 67.6154 56.0249 67.6233 55.9881 67.6385C55.9513 67.6538 55.9178 67.6761 55.8896 67.7043C55.8615 67.7324 55.8391 67.7659 55.8239 67.8027C55.8086 67.8395 55.8008 67.879 55.8008 67.9188C55.8008 67.9587 55.8086 67.9981 55.8239 68.0349C55.8391 68.0717 55.8615 68.1052 55.8896 68.1334L56.6945 68.9382L54.9175 70.7152L53.6993 69.497L56.0557 67.1406C56.0839 67.1125 56.1062 67.079 56.1215 67.0422C56.1367 67.0054 56.1446 66.9659 56.1446 66.9261C56.1446 66.8862 56.1367 66.8468 56.1215 66.81C56.1062 66.7732 56.0839 66.7397 56.0557 66.7115C56.0275 66.6834 55.9941 66.661 55.9573 66.6458C55.9205 66.6305 55.881 66.6227 55.8412 66.6227C55.8013 66.6227 55.7619 66.6305 55.725 66.6458C55.6882 66.661 55.6548 66.6834 55.6266 66.7115L53.2703 69.0679L52.5781 68.3758C52.55 68.3476 52.5165 68.3253 52.4797 68.31C52.4429 68.2948 52.4034 68.2869 52.3636 68.2869C52.3237 68.2869 52.2843 68.2948 52.2475 68.31C52.2107 68.3253 52.1772 68.3476 52.149 68.3758C52.1209 68.404 52.0985 68.4374 52.0833 68.4742C52.068 68.511 52.0602 68.5505 52.0602 68.5903C52.0602 68.6302 52.068 68.6696 52.0833 68.7064C52.0985 68.7433 52.1209 68.7767 52.149 68.8049L52.8412 69.497L51.0157 71.3212L49.8739 70.1782L52.6618 67.3903C52.6899 67.3622 52.7123 67.3287 52.7275 67.2919C52.7428 67.2551 52.7506 67.2156 52.7506 67.1758C52.7506 67.1359 52.7428 67.0965 52.7275 67.0597C52.7123 67.0229 52.6899 66.9894 52.6618 66.9612C52.6336 66.9331 52.6001 66.9107 52.5633 66.8955C52.5265 66.8802 52.4871 66.8724 52.4472 66.8724C52.4074 66.8724 52.3679 66.8802 52.3311 66.8955C52.2943 66.9107 52.2608 66.9331 52.2327 66.9612L49.4448 69.7491L48.9333 69.2376C48.9051 69.2094 48.8717 69.1871 48.8348 69.1718C48.798 69.1566 48.7586 69.1487 48.7187 69.1487C48.6789 69.1487 48.6394 69.1566 48.6026 69.1718C48.5658 69.1871 48.5324 69.2094 48.5042 69.2376C48.476 69.2658 48.4537 69.2992 48.4384 69.336C48.4232 69.3729 48.4153 69.4123 48.4153 69.4522C48.4153 69.492 48.4232 69.5315 48.4384 69.5683C48.4537 69.6051 48.476 69.6385 48.5042 69.6667L49.0157 70.1782L47.5745 71.6194L46.3575 70.4025L48.5248 68.2352C48.5817 68.1783 48.6137 68.1011 48.6137 68.0206C48.6137 67.9402 48.5817 67.863 48.5248 67.8061C48.4679 67.7492 48.3907 67.7172 48.3102 67.7172C48.2298 67.7172 48.1526 67.7492 48.0957 67.8061L45.9393 69.9746L45.6824 69.7176C45.6255 69.6607 45.5483 69.6287 45.4678 69.6287C45.3874 69.6287 45.3102 69.6607 45.2533 69.7176C45.1964 69.7745 45.1644 69.8517 45.1644 69.9322C45.1644 70.0126 45.1964 70.0898 45.2533 70.1467L45.5103 70.4037L44.1648 71.7491L42.8872 70.4715L44.7539 68.6049C44.7821 68.5767 44.8044 68.5433 44.8197 68.5064C44.8349 68.4696 44.8428 68.4302 44.8428 68.3903C44.8428 68.3505 44.8349 68.311 44.8197 68.2742C44.8044 68.2374 44.7821 68.204 44.7539 68.1758C44.7257 68.1476 44.6923 68.1253 44.6555 68.11C44.6186 68.0948 44.5792 68.0869 44.5393 68.0869C44.4995 68.0869 44.46 68.0948 44.4232 68.11C44.3864 68.1253 44.353 68.1476 44.3248 68.1758L42.4581 70.0425L42.229 69.8134C42.2009 69.7852 42.1674 69.7628 42.1306 69.7476C42.0938 69.7323 42.0543 69.7245 42.0145 69.7245C41.9746 69.7245 41.9352 69.7323 41.8984 69.7476C41.8616 69.7628 41.8281 69.7852 41.7999 69.8134C41.7718 69.8415 41.7494 69.875 41.7342 69.9118C41.7189 69.9486 41.7111 69.9881 41.7111 70.0279C41.7111 70.0678 41.7189 70.1072 41.7342 70.144C41.7494 70.1808 41.7718 70.2143 41.7999 70.2425L42.029 70.4715L40.8266 71.674L39.8036 70.6509L41.4812 68.9734C41.5093 68.9452 41.5317 68.9117 41.5469 68.8749C41.5622 68.8381 41.57 68.7987 41.57 68.7588C41.57 68.719 41.5622 68.6795 41.5469 68.6427C41.5317 68.6059 41.5093 68.5724 41.4812 68.5443C41.453 68.5161 41.4195 68.4938 41.3827 68.4785C41.3459 68.4633 41.3065 68.4554 41.2666 68.4554C41.2268 68.4554 41.1873 68.4633 41.1505 68.4785C41.1137 68.4938 41.0802 68.5161 41.0521 68.5443L39.3745 70.2218L39.3503 70.1976C39.2934 70.1407 39.2162 70.1087 39.1357 70.1087C39.0552 70.1087 38.9781 70.1407 38.9212 70.1976C38.8643 70.2545 38.8323 70.3317 38.8323 70.4122C38.8323 70.4926 38.8643 70.5698 38.9212 70.6267L38.9454 70.6509L37.5515 72.0449L36.4727 70.9673C36.4533 70.9479 36.4254 70.9515 36.4024 70.9382L38.2642 69.0764C38.2924 69.0482 38.3147 69.0148 38.33 68.978C38.3452 68.9412 38.3531 68.9017 38.3531 68.8619C38.3531 68.822 38.3452 68.7826 38.33 68.7457C38.3147 68.7089 38.2924 68.6755 38.2642 68.6473C38.236 68.6191 38.2026 68.5968 38.1658 68.5815C38.1289 68.5663 38.0895 68.5584 38.0496 68.5584C38.0098 68.5584 37.9703 68.5663 37.9335 68.5815C37.8967 68.5968 37.8633 68.6191 37.8351 68.6473L34.4278 72.0546L33.5696 71.1964L34.7648 70.0012C34.793 69.9731 34.8153 69.9396 34.8306 69.9028C34.8458 69.866 34.8537 69.8265 34.8537 69.7867C34.8537 69.7469 34.8458 69.7074 34.8306 69.6706C34.8153 69.6338 34.793 69.6003 34.7648 69.5722C34.7366 69.544 34.7032 69.5216 34.6664 69.5064C34.6296 69.4911 34.5901 69.4833 34.5503 69.4833C34.5104 69.4833 34.471 69.4911 34.4341 69.5064C34.3973 69.5216 34.3639 69.544 34.3357 69.5722L31.5684 72.3394L30.6545 72.3285C30.6509 72.3249 30.6533 72.3188 30.6496 72.3164L30.3381 72.0049L31.5054 70.8364C31.5336 70.8082 31.5559 70.7748 31.5712 70.738C31.5864 70.7011 31.5943 70.6617 31.5943 70.6218C31.5943 70.582 31.5864 70.5426 31.5712 70.5057C31.5559 70.4689 31.5336 70.4355 31.5054 70.4073C31.4772 70.3791 31.4438 70.3568 31.407 70.3415C31.3702 70.3263 31.3307 70.3184 31.2909 70.3184C31.251 70.3184 31.2116 70.3263 31.1747 70.3415C31.1379 70.3568 31.1045 70.3791 31.0763 70.4073L29.909 71.5758L29.5248 71.1916C29.4966 71.1634 29.4632 71.141 29.4264 71.1258C29.3896 71.1105 29.3501 71.1027 29.3103 71.1027C29.2704 71.1027 29.231 71.1105 29.1941 71.1258C29.1573 71.141 29.1239 71.1634 29.0957 71.1916C29.0675 71.2197 29.0452 71.2532 29.0299 71.29C29.0147 71.3268 29.0068 71.3662 29.0068 71.4061C29.0068 71.4459 29.0147 71.4854 29.0299 71.5222C29.0452 71.559 29.0675 71.5925 29.0957 71.6206L29.4799 72.0049L29.1757 72.3091C21.4981 72.2012 14.9284 72.0255 12.0181 71.6837C4.63752 70.8194 3.03873 68.3285 2.96237 60.8619ZM76.2351 65.2715L76.0012 65.0376L76.3466 64.6922C76.3115 64.8861 76.2775 65.08 76.2351 65.2715ZM76.5102 63.7552C76.4605 63.7685 76.4072 63.7746 76.3684 63.8146L75.5733 64.6097L72.9187 61.9564L74.2157 60.6594L75.1187 61.5625L74.3163 62.3649C74.2594 62.4218 74.2274 62.499 74.2274 62.5794C74.2274 62.6599 74.2594 62.7371 74.3163 62.794C74.3732 62.8509 74.4504 62.8828 74.5309 62.8828C74.6113 62.8828 74.6885 62.8509 74.7454 62.794L75.5478 61.9916L76.0812 62.5249C76.1093 62.5531 76.1428 62.5754 76.1796 62.5907C76.2164 62.6059 76.2559 62.6137 76.2957 62.6137C76.3355 62.6137 76.375 62.6059 76.4118 62.5907C76.4486 62.5754 76.4821 62.5531 76.5102 62.5249C76.5384 62.4967 76.5608 62.4633 76.576 62.4264C76.5913 62.3896 76.5991 62.3502 76.5991 62.3103C76.5991 62.2705 76.5913 62.231 76.576 62.1942C76.5608 62.1574 76.5384 62.124 76.5102 62.0958L75.9769 61.5625L76.7684 60.7709C76.7301 61.7692 76.6439 62.7651 76.5102 63.7552ZM76.7915 58.9237L75.4872 57.6206L76.8581 56.2485L76.8157 58.9843C76.8048 58.9661 76.8084 58.9406 76.7915 58.9237ZM77.1684 36.3843L76.623 35.8388L77.1854 35.2764L77.1684 36.3843ZM77.1163 39.6885L76.4096 38.9818L77.1381 38.2534L77.1163 39.6885ZM77.0969 40.96L77.0739 42.4267L76.3515 41.7043L77.0969 40.96ZM77.0254 45.5431L76.4909 45.0085L77.0424 44.4558L77.0254 45.5431ZM76.9806 48.4691L76.4412 47.9297L76.9975 47.3734L76.9806 48.4691ZM76.9321 51.5855L76.52 51.1734L76.9454 50.7479L76.9321 51.5855ZM77.2121 33.5515L76.7733 33.1128L77.2254 32.6606L77.2121 33.5515ZM77.2533 30.9067L76.9042 30.5576L77.2642 30.1976L77.2533 30.9067ZM65.5721 72.2752C65.5704 72.1996 65.5406 72.1274 65.4884 72.0728L64.2193 70.8037L66.2363 68.7867L67.6484 70.1988L65.5721 72.2752ZM68.0763 70.6279L69.7527 72.3043C68.5818 72.5709 67.3212 72.674 66.0096 72.6958L68.0763 70.6279ZM59.3842 72.5867L59.8678 72.1031L60.0242 72.2594C60.0524 72.2876 60.0858 72.31 60.1226 72.3252C60.1594 72.3404 60.1989 72.3483 60.2387 72.3483C60.2786 72.3483 60.318 72.3404 60.3548 72.3252C60.3917 72.31 60.4251 72.2876 60.4533 72.2594C60.4815 72.2313 60.5038 72.1978 60.5191 72.161C60.5343 72.1242 60.5421 72.0847 60.5421 72.0449C60.5421 72.005 60.5343 71.9656 60.5191 71.9288C60.5038 71.892 60.4815 71.8585 60.4533 71.8303L60.2969 71.674L62.2654 69.7055L63.3636 70.8037L61.5442 72.6231L59.3842 72.5867ZM56.9333 72.5552L58.6266 70.8618L59.4399 71.6752L58.5406 72.5746L56.9333 72.5552ZM52.1248 72.5091C52.1127 72.4558 52.1042 72.4 52.063 72.3588L51.4545 71.7503L53.2799 69.9261L54.4981 71.1443L53.1236 72.5188C52.7939 72.514 52.4581 72.5116 52.1248 72.5091ZM47.5866 72.4752L47.7939 72.2679L47.7999 72.2655L47.8024 72.2594L49.4545 70.6073L50.5963 71.7503L49.8545 72.4922C49.1066 72.4849 48.3527 72.48 47.5866 72.4752ZM51.0254 72.1782L51.349 72.5031L50.7054 72.4982L51.0254 72.1782ZM54.9248 71.5709L55.8969 72.5431L53.9721 72.5249L54.9248 71.5709ZM56.3818 72.2485C56.3672 72.2025 56.3636 72.1528 56.3272 72.1164L55.3527 71.1419L57.1296 69.3649L58.1975 70.4328L56.3818 72.2485ZM59.0545 70.4328L61.023 68.4643L61.8363 69.2776L59.8678 71.2461L59.0545 70.4328ZM62.6933 69.2776L64.7103 67.2606L65.8084 68.3588L63.7915 70.3758L62.6933 69.2776ZM66.6654 68.3588L68.6824 66.3419L70.0945 67.754L68.0775 69.7709L66.6654 68.3588ZM43.4678 72.4461L41.0787 72.4291C41.0957 72.4182 41.1175 72.4219 41.1333 72.4061C41.2036 72.3358 41.2181 72.2437 41.206 72.154L42.4593 70.9006L43.7369 72.1782L43.4678 72.4461ZM38.0509 72.4037L39.3769 71.0776L40.3999 72.1006L40.0812 72.4194L38.0509 72.4037ZM33.1466 71.6231L33.8872 72.3649L32.4206 72.3491L33.1466 71.6231ZM36.0193 71.3237C36.0327 71.3467 36.029 71.3746 36.0484 71.394L37.0509 72.3952L34.9672 72.3758L36.0193 71.3237ZM44.8715 72.4558L44.5939 72.177L45.9393 70.8316L47.1563 72.0485L46.7369 72.4679L44.8715 72.4558ZM63.6157 72.6728C63.2375 72.6619 62.8109 72.6522 62.383 72.6412L63.7927 71.2315L65.0618 72.5006C65.1163 72.553 65.1886 72.5828 65.2642 72.5843L65.149 72.6994C64.6378 72.6971 64.1267 72.6883 63.6157 72.6728ZM70.406 72.1273C70.3963 72.1128 70.3999 72.0946 70.3866 72.0812L68.5042 70.1988L70.5212 68.1819L73.1272 70.7879L73.126 70.7891C72.3175 71.4194 71.3963 71.8364 70.406 72.1273ZM73.5624 70.3661L70.9502 67.754L72.3915 66.3128L73.1296 67.0509L72.2218 67.9576C72.1936 67.9858 72.1712 68.0192 72.156 68.056C72.1407 68.0929 72.1329 68.1323 72.1329 68.1722C72.1329 68.212 72.1407 68.2515 72.156 68.2883C72.1712 68.3251 72.1936 68.3585 72.2218 68.3867C72.2499 68.4149 72.2834 68.4372 72.3202 68.4525C72.357 68.4677 72.3965 68.4756 72.4363 68.4756C72.4762 68.4756 72.5156 68.4677 72.5524 68.4525C72.5892 68.4372 72.6227 68.4149 72.6509 68.3867L73.5587 67.48L74.5648 68.4849C74.593 68.5131 74.6264 68.5354 74.6632 68.5507C74.7 68.5659 74.7395 68.5737 74.7793 68.5737C74.8192 68.5737 74.8586 68.5659 74.8955 68.5507C74.9323 68.5354 74.9657 68.5131 74.9939 68.4849C75.0221 68.4567 75.0444 68.4233 75.0597 68.3864C75.0749 68.3496 75.0828 68.3102 75.0828 68.2703C75.0828 68.2305 75.0749 68.191 75.0597 68.1542C75.0444 68.1174 75.0221 68.084 74.9939 68.0558L73.9878 67.0509L75.5733 65.4655L75.9163 65.8085C75.9624 65.8546 76.0242 65.8679 76.0848 65.8788C75.6206 67.6255 74.8363 69.1819 73.5624 70.3661ZM18.0872 7.33821L67.7175 9.03639C75.6969 9.30791 77.5539 11.5188 77.4254 19.8134C51.7054 19.5988 31.0593 19.6667 2.57086 20.6291C2.73813 9.38064 7.36964 6.96488 18.0872 7.33821Z" fill="#252525"/>
<path d="M11.1926 18.3708C11.6496 18.3708 12.1053 18.2811 12.5247 18.0944C13.8047 17.5247 14.6435 16.0993 14.5175 14.7041C14.3829 13.2096 13.3272 12.0447 11.8266 11.7356C10.3284 11.4278 8.89686 12.0811 8.18171 13.4011C7.51504 14.635 7.7211 16.275 8.67262 17.3029C9.31262 17.9938 10.2556 18.3708 11.1926 18.3708ZM10.3672 16.9829L10.835 16.515L11.4544 17.1344C11.0851 17.1729 10.7119 17.1209 10.3672 16.9829ZM11.6981 15.3647L12.1514 15.8181L11.7502 16.2193C11.6666 16.3029 11.6641 16.4168 11.6981 16.5211L11.2629 16.0859L11.6556 15.6932C11.7466 15.6023 11.7466 15.4762 11.6981 15.3647ZM12.1114 16.9344L11.8763 16.6993C11.9066 16.709 11.932 16.7356 11.9647 16.7356C12.0046 16.7358 12.044 16.728 12.0809 16.7128C12.1177 16.6976 12.1511 16.6753 12.1793 16.6471L12.5805 16.2459L12.749 16.4144C12.5731 16.6284 12.3564 16.8052 12.1114 16.9344ZM13.086 15.8956L13.0084 15.8181L13.1926 15.6338C13.1619 15.723 13.1263 15.8104 13.086 15.8956ZM9.24837 13.9781C9.73686 13.0738 10.6569 12.7356 11.5817 12.9235C12.349 13.0823 13.2047 13.6605 13.309 14.8144C13.3126 14.852 13.2993 14.8908 13.2993 14.9284C13.1926 14.8908 13.075 14.892 12.9902 14.9781L12.5781 15.3902L11.4835 14.2956C11.4266 14.2387 11.3495 14.2068 11.269 14.2068C11.1885 14.2068 11.1113 14.2387 11.0544 14.2956C10.9975 14.3525 10.9656 14.4297 10.9656 14.5102C10.9656 14.5906 10.9975 14.6678 11.0544 14.7247L11.5538 15.2241C11.4435 15.1756 11.3163 15.1744 11.2253 15.2653L10.8326 15.6581L10.6969 15.5223C10.6687 15.4941 10.6352 15.4718 10.5984 15.4565C10.5616 15.4413 10.5222 15.4334 10.4823 15.4334C10.4425 15.4334 10.403 15.4413 10.3662 15.4565C10.3294 15.4718 10.2959 15.4941 10.2678 15.5223C10.2396 15.5505 10.2172 15.5839 10.202 15.6207C10.1867 15.6575 10.1789 15.697 10.1789 15.7368C10.1789 15.7767 10.1867 15.8161 10.202 15.853C10.2172 15.8898 10.2396 15.9232 10.2678 15.9514L10.4035 16.0871L9.81807 16.675C9.73322 16.6096 9.63504 16.5574 9.56231 16.4787C8.96231 15.8314 8.82777 14.7562 9.24837 13.9781ZM19.5975 18.0896C20.0217 18.0896 20.446 18.0096 20.8423 17.8423C22.0496 17.332 22.8496 16.0726 22.7866 14.7805C22.7223 13.4617 21.755 12.2774 20.4872 11.9635C18.9563 11.5865 17.3756 12.2581 16.6423 13.5974C15.9853 14.795 16.2338 16.1659 17.2908 17.1756C17.9149 17.7635 18.7401 18.0905 19.5975 18.0896ZM20.0653 15.2253L20.4835 15.6435L20.0375 16.0896C19.9381 16.189 19.9417 16.3344 20.0096 16.4508L19.549 15.9902L20.012 15.5271C20.0969 15.4447 20.0993 15.3308 20.0653 15.2253ZM19.5575 16.8544C19.3079 16.8497 19.061 16.8018 18.8278 16.7126L19.1223 16.4193L19.5575 16.8544ZM20.3017 16.7417L20.1066 16.5465C20.229 16.6181 20.3441 16.6423 20.4678 16.5187L20.9138 16.0726L21.0496 16.2084C20.7502 16.5441 20.5526 16.6471 20.3017 16.7417ZM21.3853 15.6884L21.3405 15.6435L21.4581 15.5259C21.4387 15.5829 21.4096 15.635 21.3853 15.6884ZM17.7029 14.1793C18.1441 13.3768 19.1259 12.8774 20.195 13.1393C20.9369 13.3223 21.5211 14.0411 21.5696 14.8144C21.4641 14.7781 21.3478 14.7805 21.2629 14.8653L20.9114 15.2168L20.0569 14.3623C20.0287 14.3341 19.9952 14.3118 19.9584 14.2965C19.9216 14.2813 19.8822 14.2734 19.8423 14.2734C19.8025 14.2734 19.763 14.2813 19.7262 14.2965C19.6894 14.3118 19.6559 14.3341 19.6278 14.3623C19.5996 14.3905 19.5772 14.4239 19.562 14.4607C19.5468 14.4975 19.5389 14.537 19.5389 14.5768C19.5389 14.6167 19.5468 14.6561 19.562 14.693C19.5772 14.7298 19.5996 14.7632 19.6278 14.7914L19.8847 15.0484C19.7793 15.0144 19.6666 15.0168 19.5829 15.1005L19.1199 15.5635L18.989 15.4326C18.9321 15.3757 18.8549 15.3437 18.7744 15.3437C18.694 15.3437 18.6168 15.3757 18.5599 15.4326C18.503 15.4895 18.471 15.5667 18.471 15.6471C18.471 15.7276 18.503 15.8048 18.5599 15.8617L18.6908 15.9926L18.2763 16.4059C18.2266 16.3671 18.1684 16.3417 18.1223 16.2993C17.4641 15.6665 17.3102 14.8944 17.7029 14.1793ZM27.8375 17.9308C28.332 17.9308 28.8835 17.7938 29.4799 17.4629C30.5817 16.8544 31.1963 15.7902 31.1684 14.5441C31.115 12.2399 28.8569 10.3078 26.5017 12.029C25.791 12.5376 25.3 13.2973 25.1283 14.1543C24.9566 15.0113 25.1169 15.9015 25.5769 16.6447C26.0156 17.332 26.8023 17.9308 27.8375 17.9308ZM27.309 16.5708L27.669 16.2108L28.1259 16.6678C27.85 16.7144 27.5664 16.6807 27.309 16.5708ZM28.8944 16.4023C28.8496 16.4265 28.8096 16.4302 28.766 16.452L28.0969 15.7829L28.6072 15.2726C28.6357 15.244 28.6581 15.2099 28.6731 15.1724C28.6881 15.1349 28.6954 15.0948 28.6944 15.0544L29.0302 15.3902L28.612 15.8084C28.5838 15.8365 28.5615 15.87 28.5462 15.9068C28.531 15.9436 28.5231 15.9831 28.5231 16.0229C28.5231 16.0627 28.531 16.1022 28.5462 16.139C28.5615 16.1758 28.5838 16.2093 28.612 16.2374C28.6402 16.2656 28.6736 16.288 28.7104 16.3032C28.7473 16.3185 28.7867 16.3263 28.8266 16.3263C28.8664 16.3263 28.9059 16.3185 28.9427 16.3032C28.9795 16.288 29.0129 16.2656 29.0411 16.2374L29.4593 15.8193L29.5223 15.8823C29.3488 16.0948 29.1355 16.2714 28.8944 16.4023ZM27.2156 13.0096C28.7732 11.8726 29.869 13.2556 29.9429 14.4871C29.9381 14.4908 29.932 14.4896 29.9272 14.4932L29.4581 14.9623L28.2969 13.8011C28.2687 13.7729 28.2352 13.7506 28.1984 13.7353C28.1616 13.7201 28.1222 13.7122 28.0823 13.7122C28.0425 13.7122 28.003 13.7201 27.9662 13.7353C27.9294 13.7506 27.8959 13.7729 27.8678 13.8011C27.8396 13.8293 27.8172 13.8627 27.802 13.8995C27.7867 13.9363 27.7789 13.9758 27.7789 14.0156C27.7789 14.0555 27.7867 14.0949 27.802 14.1317C27.8172 14.1686 27.8396 14.202 27.8678 14.2302L28.3963 14.7587C28.3559 14.7576 28.3157 14.7648 28.2782 14.7798C28.2406 14.7948 28.2066 14.8173 28.1781 14.8459L27.6678 15.3562L27.5975 15.2871C27.5406 15.2302 27.4634 15.1983 27.3829 15.1983C27.3025 15.1983 27.2253 15.2302 27.1684 15.2871C27.1115 15.344 27.0795 15.4212 27.0795 15.5017C27.0795 15.5822 27.1115 15.6593 27.1684 15.7162L27.2375 15.7853L26.8047 16.2181C26.7356 16.1429 26.6556 16.0884 26.5963 15.9962C26.3023 15.5124 26.2028 14.9352 26.3178 14.3809C26.4327 13.8266 26.7536 13.3366 27.2156 13.0096ZM34.6593 15.4302C45.6835 15.9114 57.252 15.8665 68.9381 15.1962C69.0982 15.1869 69.2482 15.1143 69.355 14.9946C69.4618 14.8749 69.5167 14.7176 69.5078 14.5574C69.4884 14.2229 69.1963 13.9478 68.8678 13.9865C57.5369 14.635 46.0435 14.715 34.7114 14.2181C34.5552 14.2186 34.4052 14.2793 34.2926 14.3875C34.18 14.4957 34.1134 14.6432 34.1067 14.7992C34.1 14.9553 34.1537 15.1079 34.2566 15.2254C34.3595 15.3429 34.5037 15.4162 34.6593 15.4302ZM39.692 44.3174L39.8169 44.3162C41.155 44.2787 42.4956 43.6387 43.4969 42.5599C44.3453 41.6459 44.9587 40.4132 45.2714 38.9987C45.4035 38.3999 45.5417 37.5077 45.2084 36.6762C44.8884 35.875 44.1866 35.229 43.0641 34.7017C41.9805 34.1962 40.3478 33.6944 38.7308 34.172C37.3429 34.5865 36.1478 35.8071 35.5332 37.4374C34.8969 39.1271 34.9902 40.892 35.7841 42.1587C36.2047 42.815 36.7823 43.3561 37.4646 43.7331C38.147 44.11 38.9125 44.3108 39.692 44.3174ZM36.6156 38.0593L36.9017 38.3453L36.4035 38.8435C36.4534 38.5769 36.5243 38.3147 36.6156 38.0593ZM37.7029 36.2071L38.372 36.8762L37.3308 37.9174L36.869 37.4556C37.0969 36.9793 37.3708 36.5478 37.7029 36.2071ZM40.4944 35.6108L41.5041 36.6205L40.2387 37.8859L39.229 36.8762L40.4944 35.6108ZM41.029 35.2884C41.532 35.389 41.9975 35.555 42.3938 35.7296L41.932 36.1914L41.029 35.2884ZM39.9744 42.9271L39.2605 42.2132L40.0144 41.4593L41.2799 42.7247C40.8787 42.9187 40.4556 43.0241 40.0326 43.0677C40.0193 43.0193 40.0132 42.9659 39.9744 42.9271ZM39.2399 43.0496C39.016 43.0202 38.7958 42.9674 38.5829 42.892L38.8326 42.6423L39.2399 43.0496ZM38.8326 41.7853L38.0144 40.9671L38.7684 40.2132L39.5866 41.0314L38.8326 41.7853ZM36.7502 41.3744C36.5577 41.0089 36.4355 40.6105 36.3902 40.1999L37.1575 40.9671L36.7502 41.3744ZM36.5756 39.5284L37.3296 38.7744L38.3393 39.7841L37.5853 40.5381L36.5756 39.5284ZM39.1963 39.7841L40.2375 38.7429L41.0556 39.5611L40.0144 40.6023L39.1963 39.7841ZM40.6666 38.3138L41.932 37.0484L42.7502 37.8665L41.4847 39.132L40.6666 38.3138ZM39.8096 38.3138L38.7684 39.355L37.7587 38.3453L38.7999 37.3041L39.8096 38.3138ZM37.109 41.8726L37.5866 41.395L38.4047 42.2132L37.9878 42.6302C37.6537 42.4297 37.3565 42.1735 37.109 41.8726ZM41.7975 42.4108C41.7878 42.3974 41.7914 42.3805 41.7805 42.3684L40.4435 41.0302L41.4847 39.989L42.7563 41.2605C42.8035 41.3078 42.8666 41.3223 42.9284 41.332C42.8241 41.4702 42.7235 41.612 42.6084 41.7356C42.3656 41.9918 42.0934 42.2184 41.7975 42.4108ZM44.0835 37.1259C44.2423 37.5223 44.2435 38.0338 44.0884 38.7356C43.9226 39.5048 43.6279 40.2404 43.2169 40.9114C43.2035 40.8859 43.2059 40.8544 43.1841 40.8326L41.9126 39.5611L43.1781 38.2956L43.3563 38.4738C43.3844 38.502 43.4179 38.5243 43.4547 38.5396C43.4915 38.5548 43.531 38.5627 43.5708 38.5627C43.6106 38.5627 43.6501 38.5548 43.6869 38.5396C43.7237 38.5243 43.7572 38.502 43.7853 38.4738C43.8135 38.4456 43.8359 38.4122 43.8511 38.3754C43.8664 38.3386 43.8742 38.2991 43.8742 38.2593C43.8742 38.2194 43.8664 38.18 43.8511 38.1432C43.8359 38.1063 43.8135 38.0729 43.7853 38.0447L43.6072 37.8665L43.669 37.8047C43.7259 37.7478 43.7578 37.6706 43.7578 37.5902C43.7578 37.5097 43.7259 37.4325 43.669 37.3756C43.6121 37.3187 43.5349 37.2868 43.4544 37.2868C43.374 37.2868 43.2968 37.3187 43.2399 37.3756L43.1781 37.4374L42.3599 36.6193L42.9611 36.0181C43.5429 36.3526 43.9199 36.715 44.0835 37.1259ZM39.0775 35.3356C39.4011 35.2387 39.7308 35.1974 40.0556 35.1926L38.7999 36.4471L38.1708 35.8168C38.4432 35.6056 38.7499 35.4429 39.0775 35.3356Z" fill="#252525"/>
<path d="M53.1467 53.4487L53.1479 53.4462C57.7927 47.5953 57.8024 40.0971 53.8351 35.0947C46.8618 26.2499 30.3285 27.6644 25.9588 41.1068C20.6703 57.382 42.2255 67.3638 53.1467 53.4487ZM49.2618 52.0462L49.1224 51.9068C49.0942 51.8787 49.0608 51.8563 49.024 51.8411C48.9872 51.8258 48.9477 51.818 48.9079 51.818C48.868 51.818 48.8286 51.8258 48.7918 51.8411C48.7549 51.8563 48.7215 51.8787 48.6933 51.9068C48.6651 51.935 48.6428 51.9685 48.6276 52.0053C48.6123 52.0421 48.6045 52.0815 48.6045 52.1214C48.6045 52.1612 48.6123 52.2007 48.6276 52.2375C48.6428 52.2743 48.6651 52.3077 48.6933 52.3359L49.6218 53.2644L47.9515 54.9347L47.2606 54.2438L47.4921 54.0123C47.5203 53.9841 47.5426 53.9507 47.5579 53.9138C47.5731 53.877 47.581 53.8376 47.581 53.7977C47.581 53.7579 47.5731 53.7184 47.5579 53.6816C47.5426 53.6448 47.5203 53.6114 47.4921 53.5832C47.4639 53.555 47.4305 53.5327 47.3937 53.5174C47.3569 53.5022 47.3174 53.4943 47.2776 53.4943C47.2377 53.4943 47.1983 53.5022 47.1615 53.5174C47.1246 53.5327 47.0912 53.555 47.063 53.5832L46.8315 53.8147L46.463 53.4462C46.4348 53.418 46.4014 53.3957 46.3646 53.3805C46.3278 53.3652 46.2883 53.3574 46.2485 53.3574C46.2086 53.3574 46.1692 53.3652 46.1324 53.3805C46.0956 53.3957 46.0621 53.418 46.0339 53.4462C46.0058 53.4744 45.9834 53.5078 45.9682 53.5447C45.9529 53.5815 45.9451 53.6209 45.9451 53.6608C45.9451 53.7006 45.9529 53.7401 45.9682 53.7769C45.9834 53.8137 46.0058 53.8471 46.0339 53.8753L46.4024 54.2438L44.7321 55.9141L43.5285 54.7105L44.0327 54.2062C44.0609 54.1781 44.0832 54.1446 44.0985 54.1078C44.1137 54.071 44.1216 54.0315 44.1216 53.9917C44.1216 53.9518 44.1137 53.9124 44.0985 53.8756C44.0832 53.8388 44.0609 53.8053 44.0327 53.7771C44.0045 53.749 43.9711 53.7266 43.9343 53.7114C43.8975 53.6961 43.858 53.6883 43.8182 53.6883C43.7783 53.6883 43.7389 53.6961 43.7021 53.7114C43.6652 53.7266 43.6318 53.749 43.6036 53.7771L43.04 54.3408C42.9588 54.3383 42.8776 54.3638 42.8158 54.4256C42.7539 54.4874 42.7285 54.5686 42.7309 54.6499L41.2339 56.1468L39.9321 54.845C39.8752 54.7881 39.798 54.7561 39.7176 54.7561C39.6371 54.7561 39.5599 54.7881 39.503 54.845C39.4461 54.9019 39.4142 54.9791 39.4142 55.0596C39.4142 55.14 39.4461 55.2172 39.503 55.2741L40.8048 56.5759L39.503 57.8777C39.4461 57.9346 39.4142 58.0118 39.4142 58.0923C39.4142 58.1728 39.4461 58.2499 39.503 58.3068C39.5599 58.3637 39.6371 58.3957 39.7176 58.3957C39.798 58.3957 39.8752 58.3637 39.9321 58.3068L41.2327 57.0062L42.4376 58.2123C42.3394 58.3153 42.3418 58.4644 42.417 58.5796C41.543 58.7383 40.6642 58.8086 39.7879 58.8086L37.6036 56.6244L39.6327 54.5953C39.6609 54.5671 39.6832 54.5337 39.6985 54.4969C39.7137 54.4601 39.7216 54.4206 39.7216 54.3808C39.7216 54.3409 39.7137 54.3015 39.6985 54.2647C39.6832 54.2278 39.6609 54.1944 39.6327 54.1662C39.6045 54.1381 39.5711 54.1157 39.5343 54.1005C39.4975 54.0852 39.458 54.0774 39.4182 54.0774C39.3783 54.0774 39.3389 54.0852 39.3021 54.1005C39.2653 54.1157 39.2318 54.1381 39.2036 54.1662L37.1745 56.1953L36.1067 55.1274C36.0785 55.0993 36.045 55.0769 36.0082 55.0617C35.9714 55.0464 35.932 55.0386 35.8921 55.0386C35.8523 55.0386 35.8128 55.0464 35.776 55.0617C35.7392 55.0769 35.7057 55.0993 35.6776 55.1274C35.6494 55.1556 35.627 55.1891 35.6118 55.2259C35.5965 55.2627 35.5887 55.3021 35.5887 55.342C35.5887 55.3818 35.5965 55.4213 35.6118 55.4581C35.627 55.4949 35.6494 55.5284 35.6776 55.5565L36.7454 56.6244L35.3782 57.9917L33.5454 56.159L35.0788 54.6256C35.107 54.5974 35.1293 54.564 35.1446 54.5272C35.1598 54.4904 35.1676 54.4509 35.1676 54.4111C35.1676 54.3712 35.1598 54.3318 35.1446 54.295C35.1293 54.2582 35.107 54.2247 35.0788 54.1965C35.0506 54.1684 35.0172 54.146 34.9803 54.1308C34.9435 54.1155 34.9041 54.1077 34.8642 54.1077C34.8244 54.1077 34.7849 54.1155 34.7481 54.1308C34.7113 54.146 34.6779 54.1684 34.6497 54.1965L33.1164 55.7299L32.0945 54.708C32.0376 54.6511 31.9605 54.6192 31.88 54.6192C31.7995 54.6192 31.7223 54.6511 31.6654 54.708C31.6085 54.7649 31.5766 54.8421 31.5766 54.9226C31.5766 55.0031 31.6085 55.0802 31.6654 55.1371L32.6873 56.159L32.2533 56.5929C31.1807 55.9208 30.2176 55.0881 29.3976 54.1238C35.1115 45.125 46.2206 44.1626 50.7248 50.525L49.2921 51.959C49.2751 51.9796 49.2764 52.0147 49.2618 52.0462ZM44.7345 56.7699L45.4994 57.5347C45.5467 57.582 45.6097 57.5965 45.6715 57.6062C44.8242 57.959 43.9551 58.2317 43.0715 58.4329L44.7345 56.7699ZM42.8691 57.7783L41.6654 56.5747L43.1018 55.1383L44.3054 56.342L42.8691 57.7783ZM35.9648 58.2656L37.1806 57.0499L38.9236 58.7917C37.9709 58.7299 37.1539 58.6099 35.9648 58.2656ZM32.7976 56.9093L33.1236 56.5832L34.1285 57.588C33.6654 57.382 33.7236 57.445 32.7976 56.9093ZM45.9491 57.4826C46.0279 57.365 46.0315 57.2099 45.9273 57.1056L45.1624 56.3408L46.8327 54.6705L47.5236 55.3614L47.2485 55.6365C47.2203 55.6647 47.198 55.6982 47.1827 55.735C47.1675 55.7718 47.1596 55.8112 47.1596 55.8511C47.1596 55.8909 47.1675 55.9304 47.1827 55.9672C47.198 56.004 47.2203 56.0374 47.2485 56.0656C47.2766 56.0938 47.3101 56.1161 47.3469 56.1314C47.3837 56.1466 47.4232 56.1545 47.463 56.1545C47.5029 56.1545 47.5423 56.1466 47.5791 56.1314C47.616 56.1161 47.6494 56.0938 47.6776 56.0656L47.9527 55.7905L47.9758 55.8135C48.0039 55.8417 48.0374 55.864 48.0742 55.8793C48.111 55.8945 48.1504 55.9024 48.1903 55.9024C48.2301 55.9024 48.2696 55.8945 48.3064 55.8793C48.3432 55.864 48.3767 55.8417 48.4048 55.8135C48.433 55.7853 48.4554 55.7519 48.4706 55.7151C48.4859 55.6782 48.4937 55.6388 48.4937 55.5989C48.4937 55.5591 48.4859 55.5197 48.4706 55.4828C48.4554 55.446 48.433 55.4126 48.4048 55.3844L48.3818 55.3614L50.0521 53.6911L50.1915 53.8305C50.2197 53.8586 50.2531 53.881 50.2899 53.8962C50.3268 53.9115 50.3662 53.9193 50.4061 53.9193C50.4459 53.9193 50.4853 53.9115 50.5222 53.8962C50.559 53.881 50.5924 53.8586 50.6206 53.8305C50.6488 53.8023 50.6711 53.7688 50.6864 53.732C50.7016 53.6952 50.7095 53.6558 50.7095 53.6159C50.7095 53.5761 50.7016 53.5366 50.6864 53.4998C50.6711 53.463 50.6488 53.4296 50.6206 53.4014L50.4812 53.262L50.5236 53.2196C50.5518 53.1914 50.5742 53.1579 50.5894 53.1211C50.6046 53.0843 50.6125 53.0449 50.6125 53.005C50.6125 52.9652 50.6046 52.9257 50.5894 52.8889C50.5742 52.8521 50.5518 52.8186 50.5236 52.7905C50.4955 52.7623 50.462 52.7399 50.4252 52.7247C50.3884 52.7094 50.3489 52.7016 50.3091 52.7016C50.2692 52.7016 50.2298 52.7094 50.193 52.7247C50.1562 52.7399 50.1227 52.7623 50.0945 52.7905L50.0521 52.8329L49.6376 52.4183C49.6691 52.4038 49.7042 52.405 49.7297 52.3796L51.0654 51.0438C51.4435 51.6388 51.7544 52.2737 51.9927 52.9371C50.3224 54.9747 48.2982 56.4547 45.9491 57.4826ZM27.1139 41.4814C31.2061 28.8911 46.5661 27.8365 52.8861 35.8474C56.1261 39.9335 56.6485 46.3347 52.8327 51.8389C49.0448 42.908 35.6218 42.7068 28.6242 53.1214C26.2012 49.6741 25.8061 45.5056 27.1139 41.4814ZM12.4121 14.6256C12.4403 14.6538 12.4737 14.6761 12.5105 14.6914C12.5474 14.7066 12.5868 14.7145 12.6267 14.7145C12.6665 14.7145 12.706 14.7066 12.7428 14.6914C12.7796 14.6761 12.813 14.6538 12.8412 14.6256C12.8694 14.5974 12.8917 14.564 12.907 14.5272C12.9222 14.4904 12.9301 14.4509 12.9301 14.4111C12.9301 14.3712 12.9222 14.3318 12.907 14.295C12.8917 14.2581 12.8694 14.2247 12.8412 14.1965L11.977 13.3335C11.9488 13.3053 11.9153 13.283 11.8785 13.2677C11.8417 13.2525 11.8023 13.2446 11.7624 13.2446C11.7226 13.2446 11.6831 13.2525 11.6463 13.2677C11.6095 13.283 11.576 13.3053 11.5479 13.3335C11.5197 13.3617 11.4973 13.3951 11.4821 13.4319C11.4669 13.4687 11.459 13.5082 11.459 13.548C11.459 13.5879 11.4669 13.6273 11.4821 13.6642C11.4973 13.701 11.5197 13.7344 11.5479 13.7626L12.4121 14.6256ZM15.4 32.8002C15.4569 32.8571 15.5341 32.889 15.6145 32.889C15.695 32.889 15.7722 32.8571 15.8291 32.8002C15.886 32.7433 15.918 32.6661 15.918 32.5856C15.918 32.5051 15.886 32.428 15.8291 32.3711L14.9418 31.4838L16.1212 30.3044L16.8545 31.039C16.8827 31.0671 16.9162 31.0895 16.953 31.1047C16.9898 31.12 17.0292 31.1278 17.0691 31.1278C17.1089 31.1278 17.1484 31.12 17.1852 31.1047C17.222 31.0895 17.2555 31.0671 17.2836 31.039C17.3118 31.0108 17.3342 30.9773 17.3494 30.9405C17.3646 30.9037 17.3725 30.8643 17.3725 30.8244C17.3725 30.7846 17.3646 30.7451 17.3494 30.7083C17.3342 30.6715 17.3118 30.638 17.2836 30.6099L16.5503 29.8753L17.5539 28.8717C17.5821 28.8435 17.6045 28.8101 17.6197 28.7732C17.635 28.7364 17.6428 28.697 17.6428 28.6571C17.6428 28.6173 17.635 28.5778 17.6197 28.541C17.6045 28.5042 17.5821 28.4708 17.5539 28.4426C17.5258 28.4144 17.4923 28.3921 17.4555 28.3768C17.4187 28.3616 17.3792 28.3537 17.3394 28.3537C17.2995 28.3537 17.2601 28.3616 17.2233 28.3768C17.1865 28.3921 17.153 28.4144 17.1248 28.4426L16.1212 29.4462L15.3951 28.7202C15.367 28.692 15.3335 28.6696 15.2967 28.6544C15.2599 28.6391 15.2204 28.6313 15.1806 28.6313C15.1408 28.6313 15.1013 28.6391 15.0645 28.6544C15.0277 28.6696 14.9942 28.692 14.9661 28.7202C14.9379 28.7483 14.9155 28.7818 14.9003 28.8186C14.885 28.8554 14.8772 28.8949 14.8772 28.9347C14.8772 28.9746 14.885 29.014 14.9003 29.0508C14.9155 29.0876 14.9379 29.1211 14.9661 29.1493L15.6921 29.8753L14.5127 31.0547L14.0606 30.6026C14.0324 30.5744 13.999 30.5521 13.9622 30.5368C13.9254 30.5216 13.8859 30.5137 13.8461 30.5137C13.8062 30.5137 13.7668 30.5216 13.7299 30.5368C13.6931 30.5521 13.6597 30.5744 13.6315 30.6026C13.6033 30.6308 13.581 30.6642 13.5657 30.701C13.5505 30.7378 13.5426 30.7773 13.5426 30.8171C13.5426 30.857 13.5505 30.8964 13.5657 30.9332C13.581 30.9701 13.6033 31.0035 13.6315 31.0317L14.0836 31.4838L12.7867 32.7808L11.7854 31.7796C11.7573 31.7514 11.7238 31.729 11.687 31.7138C11.6502 31.6985 11.6107 31.6907 11.5709 31.6907C11.5311 31.6907 11.4916 31.6985 11.4548 31.7138C11.418 31.729 11.3845 31.7514 11.3564 31.7796C11.3282 31.8077 11.3058 31.8412 11.2906 31.878C11.2753 31.9148 11.2675 31.9543 11.2675 31.9941C11.2675 32.0339 11.2753 32.0734 11.2906 32.1102C11.3058 32.147 11.3282 32.1805 11.3564 32.2086L12.3576 33.2099L11.1394 34.428L10.0606 33.348C10.0324 33.3199 9.99898 33.2975 9.96216 33.2823C9.92535 33.267 9.8859 33.2592 9.84605 33.2592C9.80621 33.2592 9.76675 33.267 9.72994 33.2823C9.69313 33.2975 9.65968 33.3199 9.63151 33.348C9.60333 33.3762 9.58098 33.4097 9.56574 33.4465C9.55049 33.4833 9.54264 33.5227 9.54264 33.5626C9.54264 33.6024 9.55049 33.6419 9.56574 33.6787C9.58098 33.7155 9.60333 33.749 9.63151 33.7771L10.7115 34.8571L8.53333 37.0341C8.50515 37.0623 8.4828 37.0957 8.46755 37.1325C8.45231 37.1693 8.44446 37.2088 8.44446 37.2486C8.44446 37.2885 8.45231 37.3279 8.46755 37.3648C8.4828 37.4016 8.50515 37.435 8.53333 37.4632C8.5615 37.4914 8.59495 37.5137 8.63176 37.529C8.66857 37.5442 8.70803 37.5521 8.74787 37.5521C8.78772 37.5521 8.82717 37.5442 8.86398 37.529C8.90079 37.5137 8.93424 37.4914 8.96242 37.4632L11.1394 35.285L12.1018 36.2474C12.13 36.2756 12.1634 36.298 12.2002 36.3132C12.2371 36.3285 12.2765 36.3363 12.3164 36.3363C12.3562 36.3363 12.3957 36.3285 12.4325 36.3132C12.4693 36.298 12.5027 36.2756 12.5309 36.2474C12.5591 36.2193 12.5814 36.1858 12.5967 36.149C12.6119 36.1122 12.6198 36.0727 12.6198 36.0329C12.6198 35.993 12.6119 35.9536 12.5967 35.9168C12.5814 35.88 12.5591 35.8465 12.5309 35.8183L11.5685 34.8559L12.7867 33.6377L13.3176 34.1686C13.3457 34.1968 13.3792 34.2192 13.416 34.2344C13.4528 34.2497 13.4923 34.2575 13.5321 34.2575C13.572 34.2575 13.6114 34.2497 13.6482 34.2344C13.685 34.2192 13.7185 34.1968 13.7467 34.1686C13.7748 34.1405 13.7972 34.107 13.8124 34.0702C13.8277 34.0334 13.8355 33.9939 13.8355 33.9541C13.8355 33.9143 13.8277 33.8748 13.8124 33.838C13.7972 33.8012 13.7748 33.7677 13.7467 33.7396L13.2157 33.2086L14.5127 31.9117L15.4 32.8002ZM58.3709 31.5808L59.8036 30.148L60.0618 30.4062C60.09 30.4344 60.1234 30.4567 60.1603 30.472C60.1971 30.4872 60.2365 30.4951 60.2764 30.4951C60.3162 30.4951 60.3557 30.4872 60.3925 30.472C60.4293 30.4567 60.4627 30.4344 60.4909 30.4062C60.5191 30.378 60.5414 30.3446 60.5567 30.3078C60.5719 30.271 60.5798 30.2315 60.5798 30.1917C60.5798 30.1518 60.5719 30.1124 60.5567 30.0756C60.5414 30.0388 60.5191 30.0053 60.4909 29.9771L60.2327 29.719L61.2945 28.6571L61.8642 29.2268C61.9211 29.2837 61.9983 29.3157 62.0788 29.3157C62.1592 29.3157 62.2364 29.2837 62.2933 29.2268C62.3502 29.1699 62.3822 29.0928 62.3822 29.0123C62.3822 28.9318 62.3502 28.8546 62.2933 28.7977L61.7236 28.228L62.9273 27.0244C62.9842 26.9675 63.0161 26.8903 63.0161 26.8099C63.0161 26.7294 62.9842 26.6522 62.9273 26.5953C62.8704 26.5384 62.7932 26.5064 62.7127 26.5064C62.6323 26.5064 62.5551 26.5384 62.4982 26.5953L61.2945 27.799L60.5685 27.0729C60.5403 27.0447 60.5069 27.0224 60.47 27.0071C60.4332 26.9919 60.3938 26.984 60.3539 26.984C60.3141 26.984 60.2746 26.9919 60.2378 27.0071C60.201 27.0224 60.1676 27.0447 60.1394 27.0729C60.1112 27.1011 60.0889 27.1345 60.0736 27.1713C60.0584 27.2081 60.0505 27.2476 60.0505 27.2874C60.0505 27.3273 60.0584 27.3667 60.0736 27.4035C60.0889 27.4404 60.1112 27.4738 60.1394 27.502L60.8654 28.228L59.8036 29.2899L58.92 28.4062C58.8918 28.378 58.8584 28.3557 58.8216 28.3405C58.7847 28.3252 58.7453 28.3174 58.7054 28.3174C58.6656 28.3174 58.6261 28.3252 58.5893 28.3405C58.5525 28.3557 58.5191 28.378 58.4909 28.4062C58.4627 28.4344 58.4404 28.4678 58.4251 28.5047C58.4099 28.5415 58.402 28.5809 58.402 28.6208C58.402 28.6606 58.4099 28.7001 58.4251 28.7369C58.4404 28.7737 58.4627 28.8071 58.4909 28.8353L59.3745 29.719L57.9418 31.1517C57.9136 31.1799 57.8913 31.2133 57.876 31.2501C57.8608 31.2869 57.8529 31.3264 57.8529 31.3662C57.8529 31.4061 57.8608 31.4455 57.876 31.4823C57.8913 31.5191 57.9136 31.5526 57.9418 31.5808C57.97 31.6089 58.0034 31.6313 58.0402 31.6465C58.0771 31.6618 58.1165 31.6696 58.1564 31.6696C58.1962 31.6696 58.2357 31.6618 58.2725 31.6465C58.3093 31.6313 58.3427 31.6089 58.3709 31.5808ZM21.457 57.7553L20.2364 58.9759L19.6267 58.3662C19.5985 58.3381 19.565 58.3157 19.5282 58.3005C19.4914 58.2852 19.452 58.2774 19.4121 58.2774C19.3723 58.2774 19.3328 58.2852 19.296 58.3005C19.2592 58.3157 19.2257 58.3381 19.1976 58.3662C19.1694 58.3944 19.147 58.4278 19.1318 58.4647C19.1165 58.5015 19.1087 58.5409 19.1087 58.5808C19.1087 58.6206 19.1165 58.6601 19.1318 58.6969C19.147 58.7337 19.1694 58.7671 19.1976 58.7953L19.8073 59.405L18.6679 60.5444L18.137 60.0135C18.1088 59.9853 18.0753 59.963 18.0385 59.9477C18.0017 59.9325 17.9623 59.9246 17.9224 59.9246C17.8826 59.9246 17.8431 59.9325 17.8063 59.9477C17.7695 59.963 17.736 59.9853 17.7079 60.0135C17.6797 60.0417 17.6573 60.0751 17.6421 60.1119C17.6269 60.1487 17.619 60.1882 17.619 60.228C17.619 60.2679 17.6269 60.3073 17.6421 60.3442C17.6573 60.381 17.6797 60.4144 17.7079 60.4426L18.2388 60.9735L16.9806 62.2317L16.097 61.348C16.0401 61.2911 15.9629 61.2592 15.8824 61.2592C15.8019 61.2592 15.7248 61.2911 15.6679 61.348C15.611 61.4049 15.579 61.4821 15.579 61.5626C15.579 61.6431 15.611 61.7202 15.6679 61.7771L16.5515 62.6608L15.6679 63.5444C15.6397 63.5726 15.6173 63.606 15.6021 63.6428C15.5869 63.6796 15.579 63.7191 15.579 63.759C15.579 63.7988 15.5869 63.8383 15.6021 63.8751C15.6173 63.9119 15.6397 63.9453 15.6679 63.9735C15.696 64.0017 15.7295 64.024 15.7663 64.0393C15.8031 64.0545 15.8426 64.0624 15.8824 64.0624C15.9223 64.0624 15.9617 64.0545 15.9985 64.0393C16.0353 64.024 16.0688 64.0017 16.097 63.9735L16.9806 63.0899L17.7915 63.9008C17.8484 63.9577 17.9256 63.9896 18.0061 63.9896C18.0865 63.9896 18.1637 63.9577 18.2206 63.9008C18.2775 63.8439 18.3095 63.7667 18.3095 63.6862C18.3095 63.6058 18.2775 63.5286 18.2206 63.4717L17.4097 62.6608L18.6679 61.4026L19.5127 62.2474C19.5409 62.2756 19.5743 62.298 19.6112 62.3132C19.648 62.3285 19.6874 62.3363 19.7273 62.3363C19.7671 62.3363 19.8066 62.3285 19.8434 62.3132C19.8802 62.298 19.9136 62.2756 19.9418 62.2474C19.97 62.2193 19.9923 62.1858 20.0076 62.149C20.0228 62.1122 20.0307 62.0727 20.0307 62.0329C20.0307 61.993 20.0228 61.9536 20.0076 61.9168C19.9923 61.88 19.97 61.8465 19.9418 61.8183L19.097 60.9735L20.2364 59.8341L21.2388 60.8365C21.267 60.8647 21.3004 60.8871 21.3372 60.9023C21.374 60.9175 21.4135 60.9254 21.4533 60.9254C21.4932 60.9254 21.5326 60.9175 21.5694 60.9023C21.6062 60.8871 21.6397 60.8647 21.6679 60.8365C21.696 60.8083 21.7184 60.7749 21.7336 60.7381C21.7489 60.7013 21.7567 60.6618 21.7567 60.622C21.7567 60.5821 21.7489 60.5427 21.7336 60.5059C21.7184 60.4691 21.696 60.4356 21.6679 60.4074L20.6654 59.405L21.8861 58.1844C21.9142 58.1562 21.9366 58.1228 21.9518 58.086C21.9671 58.0492 21.9749 58.0097 21.9749 57.9699C21.9749 57.93 21.9671 57.8906 21.9518 57.8538C21.9366 57.8169 21.9142 57.7835 21.8861 57.7553C21.8579 57.7271 21.8244 57.7048 21.7876 57.6895C21.7508 57.6743 21.7114 57.6664 21.6715 57.6664C21.6317 57.6664 21.5922 57.6743 21.5554 57.6895C21.5186 57.7048 21.4851 57.7271 21.457 57.7553ZM58.3345 56.1274C58.3627 56.1557 58.3961 56.178 58.4329 56.1933C58.4698 56.2086 58.5092 56.2165 58.5491 56.2165C58.5889 56.2165 58.6284 56.2086 58.6652 56.1933C58.702 56.178 58.7355 56.1557 58.7636 56.1274L63.6254 51.2656C63.6824 51.2087 63.7143 51.1315 63.7143 51.0511C63.7143 50.9706 63.6824 50.8934 63.6254 50.8365C63.5685 50.7796 63.4914 50.7477 63.4109 50.7477C63.3304 50.7477 63.2533 50.7796 63.1964 50.8365L58.3345 55.6983C58.3063 55.7265 58.2839 55.7599 58.2687 55.7967C58.2534 55.8336 58.2455 55.873 58.2455 55.9129C58.2455 55.9527 58.2534 55.9922 58.2687 56.029C58.2839 56.0658 58.3063 56.0993 58.3345 56.1274Z" fill="#252525"/>
</svg>
