<svg width="36" height="37" viewBox="0 0 36 37" fill="none" xmlns="http://www.w3.org/2000/svg">
<path d="M32.4008 18.824C32.4008 17.876 32.315 16.976 32.1679 16.1H18.3135V21.512H26.246C25.8905 23.288 24.8483 24.788 23.3035 25.808V29.408H28.0361C30.807 26.9 32.4008 23.204 32.4008 18.824Z" fill="#4285F4"/>
<path d="M18.3137 32.9C22.2861 32.9 25.6087 31.604 28.0363 29.408L23.3037 25.808C21.9796 26.672 20.2999 27.2 18.3137 27.2C14.4761 27.2 11.2271 24.668 10.0623 21.248H5.18262V24.956C7.59794 29.66 12.5635 32.9 18.3137 32.9Z" fill="#34A853"/>
<path d="M10.0619 21.248C9.75538 20.384 9.59599 19.46 9.59599 18.5C9.59599 17.5401 9.76764 16.6161 10.0619 15.7521V12.0441H5.18219C4.17683 13.9881 3.60059 16.1721 3.60059 18.5C3.60059 20.828 4.17683 23.012 5.18219 24.956L10.0619 21.248Z" fill="#FBBC05"/>
<path d="M18.3132 9.80002C20.4833 9.80002 22.4204 10.532 23.953 11.96L28.1461 7.85603C25.6082 5.52803 22.2856 4.10004 18.3132 4.10004C12.563 4.10004 7.59745 7.34003 5.18213 12.044L10.0618 15.752C11.2266 12.332 14.4756 9.80002 18.3132 9.80002Z" fill="#EA4335"/>
</svg>
