<svg width="36" height="37" viewBox="0 0 36 37" fill="none" xmlns="http://www.w3.org/2000/svg">
<path d="M3.60059 17.924C3.60059 11.4073 3.60059 8.14899 5.62506 6.12451C7.64954 4.10004 10.9079 4.10004 17.4246 4.10004H18.5766C25.0933 4.10004 28.3516 4.10004 30.3761 6.12451C32.4006 8.14899 32.4006 11.4073 32.4006 17.924V19.076C32.4006 25.5928 32.4006 28.8511 30.3761 30.8756C28.3516 32.9 25.0933 32.9 18.5766 32.9H17.4246C10.9079 32.9 7.64954 32.9 5.62506 30.8756C3.60059 28.8511 3.60059 25.5928 3.60059 19.076V17.924Z" fill="#0077FF"/>
<path d="M18.9249 24.8481C12.3609 24.8481 8.61694 20.3481 8.46094 12.8601H11.7489C11.8569 18.3561 14.2809 20.6841 16.2009 21.1641V12.8601H19.297V17.6001C21.193 17.3961 23.1848 15.2361 23.8568 12.8601H26.9528C26.4368 15.7881 24.2768 17.9481 22.7408 18.8361C24.2768 19.5561 26.7369 21.4401 27.6729 24.8481H24.2648C23.5328 22.5681 21.709 20.8041 19.297 20.5641V24.8481H18.9249Z" fill="white"/>
</svg>
