<svg width="36" height="37" viewBox="0 0 36 37" fill="none" xmlns="http://www.w3.org/2000/svg">
<path d="M18.0006 32.9C25.9535 32.9 32.4006 26.4529 32.4006 18.5C32.4006 10.5471 25.9535 4.10004 18.0006 4.10004C10.0477 4.10004 3.60059 10.5471 3.60059 18.5C3.60059 26.4529 10.0477 32.9 18.0006 32.9Z" fill="#FC3F1D"/>
<path d="M23.2106 27.5397H20.0495V11.9052H18.6412C16.06 11.9052 14.7079 13.1958 14.7079 15.1224C14.7079 17.3082 15.6405 18.3209 17.5697 19.6115L19.1596 20.6831L14.5903 27.537H11.1914L15.3038 21.4179C12.939 19.7291 11.6083 18.0804 11.6083 15.2988C11.6083 11.8223 14.0319 9.45752 18.6199 9.45752H23.1892V27.5343H23.2106V27.5397Z" fill="white"/>
</svg>
