<svg width="100" height="100" viewBox="0 0 100 100" fill="none" xmlns="http://www.w3.org/2000/svg">
<path d="M10.5545 90.3833C15.1772 90.7166 18.8272 90.0333 19.7469 85.3802C25.5861 87.1396 31.6514 88.0344 37.7499 88.0363C40.2545 88.0363 42.903 87.9651 44.9302 86.5378C47.0211 85.0681 48.0499 81.8227 46.0454 79.8363C48.9742 78.6469 49.4924 75.5939 48.3666 73.862C48.1069 73.4736 47.777 73.1371 47.3939 72.8696C49.5454 71.3045 49.4863 68.4802 48.0757 66.8681C47.8939 66.6605 47.6711 66.4999 47.4514 66.3363C47.972 65.8531 48.3499 65.2362 48.5439 64.553C48.7289 63.8463 48.7144 63.1022 48.502 62.4034C48.2896 61.7045 47.8877 61.0781 47.3408 60.5939C45.5514 59.0454 43.4075 59.4075 36.7833 59.6408C38.2893 57.0545 39.2863 54.0605 39.8893 50.3439C40.3393 47.5681 39.8742 45.5499 38.5121 44.3469C36.5272 42.5969 31.3757 42.4348 29.3257 49.8136C28.8257 51.6045 28.5242 53.4833 27.753 55.1242C26.0211 58.8211 21.9242 60.8817 17.9211 60.1166C15.2666 56.103 10.8969 55.2545 7.21963 56.7545C4.36357 57.9196 2.36811 60.3423 1.88175 63.2378C1.52114 65.3727 1.78023 76.7727 1.57569 80.3863C1.42872 82.9696 1.42266 85.656 3.03932 87.6257C4.81963 89.7908 7.72872 90.1742 10.5545 90.3833ZM9.66357 85.4469L10.7075 86.4908L9.90599 87.2924L8.86205 86.2469L9.66357 85.4469ZM9.37114 87.8287L8.63629 88.562C8.61054 88.5878 8.61508 88.6242 8.59842 88.6545C8.40498 88.6264 8.21203 88.595 8.01963 88.5605C8.00599 88.4893 7.99235 88.4151 7.93629 88.359L7.34235 87.7666L8.32569 86.7833L9.37114 87.8287ZM9.50296 88.7666L9.90599 88.3636L10.1833 88.6408C10.2544 88.712 10.3509 88.7519 10.4514 88.7519C10.552 88.7519 10.6485 88.712 10.7196 88.6408C10.7908 88.5697 10.8307 88.4732 10.8307 88.3727C10.8307 88.2721 10.7908 88.1756 10.7196 88.1045L10.4424 87.8272L11.2439 87.0257L12.1666 87.9484L11.7954 88.3196C11.6045 88.5105 11.6408 88.8727 11.9984 88.9393C11.1647 88.9133 10.3323 88.8557 9.50296 88.7666ZM14.1105 83.6348L15.2954 84.8196L14.656 85.459L13.7333 84.5363L14.1075 84.162C14.1771 84.0922 14.2165 83.9977 14.217 83.899C14.2176 83.8004 14.1793 83.7055 14.1105 83.6348ZM14.1211 85.9939L12.7014 87.4136L11.7787 86.4908L13.1984 85.0711L14.1211 85.9939ZM12.1196 88.9439C12.1954 88.9317 12.2727 88.9151 12.3317 88.856L12.7014 88.4848L12.9454 88.7287C12.9804 88.7648 13.0222 88.7936 13.0685 88.8134C13.1147 88.8332 13.1644 88.8436 13.2147 88.8439C13.265 88.8443 13.3149 88.8346 13.3614 88.8155C13.4079 88.7964 13.4502 88.7682 13.4857 88.7326C13.5212 88.697 13.5493 88.6547 13.5682 88.6081C13.5872 88.5615 13.5967 88.5116 13.5962 88.4613C13.5957 88.4111 13.5852 88.3614 13.5653 88.3152C13.5454 88.269 13.5165 88.2272 13.4802 88.1924L13.2363 87.9484L14.656 86.5287L16.2908 88.1636C15.1393 88.8408 13.6363 88.9817 12.1196 88.9439ZM18.6575 73.7181L18.6196 75.6469L17.2681 74.2954C17.453 74.4211 17.6136 74.3969 17.7408 74.2696L18.4757 73.5348L18.6575 73.7181ZM18.5999 76.6969L18.5424 79.6348C18.4878 79.609 18.4378 79.5742 18.3787 79.5772C18.4878 79.4287 18.4924 79.2257 18.3575 79.0908L16.9439 77.6772L18.2621 76.359L18.5999 76.6969ZM18.5272 80.3484L18.4893 82.2545L18.4817 82.4984L17.4287 81.4454L18.5272 80.3484ZM32.1636 84.3681C32.1696 84.3742 32.1666 84.3833 32.1727 84.3908L33.2136 85.4333L32.3711 86.2757C32.0651 86.2484 31.756 86.2302 31.4499 86.1984C31.5105 86.1281 31.5426 86.0378 31.5401 85.945C31.5376 85.8523 31.5006 85.7638 31.4363 85.6969L31.1363 85.3969L32.1636 84.3681ZM35.3666 86.4651C34.6969 86.4403 34.0276 86.405 33.359 86.359L33.9363 85.7817C33.9742 85.7636 34.0181 85.7666 34.0499 85.7348C34.0817 85.703 34.0787 85.659 34.0969 85.6211L35.059 84.659L36.1166 85.7166L35.3666 86.4651ZM36.6514 86.2514L36.906 86.506C36.7363 86.5045 36.5666 86.509 36.3969 86.5045L36.6514 86.2514ZM30.7848 86.1166L30.456 86.0757L30.5999 85.9317L30.7848 86.1166ZM37.9818 86.509L37.1878 85.7151L38.4575 84.4454L39.1605 85.1484L38.6151 85.6939C38.5799 85.7289 38.5519 85.7706 38.5328 85.8165C38.5137 85.8624 38.5039 85.9116 38.5039 85.9613C38.5039 86.011 38.5137 86.0602 38.5328 86.1061C38.5519 86.152 38.5799 86.1937 38.6151 86.2287C38.6503 86.264 38.6921 86.292 38.7381 86.3111C38.7841 86.3302 38.8334 86.34 38.8833 86.34C38.9331 86.34 38.9824 86.3302 39.0284 86.3111C39.0745 86.292 39.1163 86.264 39.1514 86.2287L39.6969 85.6833L40.4393 86.4257C39.3727 86.5242 38.8484 86.506 37.9818 86.509ZM41.6575 85.6636C41.7285 85.7343 41.8247 85.7741 41.9249 85.7741C42.0252 85.7741 42.1214 85.7343 42.1924 85.6636L42.7742 85.0817L43.2666 85.5742C43.3211 85.6272 43.3924 85.6408 43.4621 85.6545C42.8211 85.9848 42.1136 86.1833 41.3878 86.306L40.2302 85.1484L41.5348 83.8439L42.2378 84.5469L41.656 85.1287C41.5854 85.1999 41.5459 85.2962 41.5462 85.3964C41.5465 85.4967 41.5865 85.5928 41.6575 85.6636ZM45.6408 78.3424C45.6605 78.2257 45.6454 78.106 45.5545 78.0151L44.5484 77.009L45.8893 75.6696L46.3317 76.112C46.3667 76.1482 46.4086 76.177 46.4548 76.1968C46.5011 76.2165 46.5508 76.2269 46.6011 76.2273C46.6514 76.2276 46.7012 76.218 46.7478 76.1989C46.7943 76.1798 46.8365 76.1516 46.872 76.116C46.9076 76.0803 46.9356 76.038 46.9546 75.9914C46.9736 75.9449 46.9831 75.895 46.9826 75.8447C46.9821 75.7944 46.9716 75.7447 46.9516 75.6985C46.9317 75.6523 46.9028 75.6106 46.8666 75.5757L46.4242 75.1333L46.9969 74.5605C47.0287 74.603 47.0711 74.6408 47.0999 74.6848C47.7772 75.7317 47.409 77.5136 45.6408 78.3424ZM47.0621 68.0545C47.2363 68.2984 47.3621 68.5696 47.4424 68.8605L46.8484 68.2666L47.0621 68.0545ZM46.5499 64.5711L45.7514 63.7727L46.6317 62.8923L46.8863 63.1469C46.9501 63.205 47.032 63.2392 47.1181 63.2439C47.2105 63.9439 47.0863 64.4469 46.5772 65.0363C46.6742 64.8893 46.6787 64.6999 46.5499 64.5711ZM29.1257 55.7651C29.9636 53.9833 30.2817 52.0439 30.7863 50.2166C32.3863 44.4772 35.9954 44.1439 37.5105 45.4802C38.459 46.3166 38.756 47.8696 38.3969 50.0984C37.7333 54.1939 36.5757 57.3454 34.756 60.0196C34.6772 60.1354 34.6321 60.2707 34.6255 60.4105C34.619 60.5504 34.6514 60.6893 34.719 60.8119C34.7867 60.9345 34.8869 61.0359 35.0088 61.1049C35.1306 61.174 35.2691 61.2079 35.409 61.203C41.7727 60.9787 43.8954 60.7181 45.3757 61.2151C45.2878 61.3605 45.2833 61.5454 45.409 61.6711L46.0969 62.359L45.1484 63.306C45.0934 63.2972 45.0371 63.3012 44.9838 63.3174C44.9305 63.3337 44.8816 63.3619 44.8408 63.3999C44.8022 63.4403 44.7737 63.4891 44.7573 63.5426C44.741 63.596 44.7375 63.6525 44.7469 63.7075L44.559 63.8954C44.5228 63.9303 44.4939 63.972 44.474 64.0182C44.4541 64.0644 44.4435 64.1141 44.443 64.1644C44.4425 64.2147 44.452 64.2646 44.471 64.3111C44.49 64.3577 44.5181 64.4 44.5536 64.4357C44.5891 64.4713 44.6313 64.4995 44.6779 64.5186C44.7244 64.5377 44.7743 64.5473 44.8245 64.547C44.8748 64.5466 44.9246 64.5362 44.9708 64.5164C45.017 64.4967 45.0589 64.4679 45.0939 64.4317L45.2151 64.3105L46.0136 65.109C46.1393 65.2348 46.3166 65.2696 46.503 65.1287C46.3264 65.3202 46.1208 65.4827 45.8939 65.6105C45.2366 65.4458 44.5486 65.4479 43.8924 65.6166C43.7965 65.643 43.7068 65.6881 43.6283 65.7493C43.5499 65.8105 43.4843 65.8865 43.4354 65.9731C43.3864 66.0597 43.355 66.155 43.3429 66.2537C43.3308 66.3525 43.3384 66.4526 43.3651 66.5484C43.3908 66.6447 43.4355 66.7349 43.4965 66.8138C43.5575 66.8926 43.6336 66.9585 43.7203 67.0076C43.8071 67.0567 43.9028 67.088 44.0018 67.0997C44.1008 67.1114 44.2011 67.1032 44.2969 67.0757C44.4393 67.0378 44.5878 67.0363 44.7348 67.0242C45.0969 67.556 45.4378 67.3575 45.9363 67.1999C46.1484 67.2833 46.3454 67.3878 46.5272 67.5196L46.3105 67.7363L46.1575 67.5757C45.806 67.2242 45.2666 67.756 45.6211 68.112L45.7787 68.2696L44.4742 69.5742L44.3878 69.4878C44.3529 69.4516 44.3112 69.4227 44.265 69.4028C44.2188 69.3828 44.1691 69.3723 44.1188 69.3718C44.0685 69.3713 44.0186 69.3808 43.9721 69.3998C43.9255 69.4188 43.8831 69.4468 43.8475 69.4824C43.8119 69.5179 43.7837 69.5601 43.7646 69.6066C43.7455 69.6532 43.7359 69.703 43.7362 69.7533C43.7366 69.8036 43.747 69.8533 43.7667 69.8996C43.7865 69.9458 43.8153 69.9877 43.8514 70.0227L43.9378 70.109L43.9227 70.1242C43.8864 70.1591 43.8575 70.2008 43.8376 70.247C43.8177 70.2932 43.8072 70.3429 43.8067 70.3932C43.8062 70.4435 43.8157 70.4933 43.8347 70.5399C43.8536 70.5865 43.8817 70.6288 43.9172 70.6644C43.9527 70.7001 43.995 70.7282 44.0415 70.7474C44.088 70.7665 44.1379 70.7761 44.1882 70.7758C44.2385 70.7754 44.2882 70.765 44.3344 70.7452C44.3807 70.7255 44.4225 70.6967 44.4575 70.6605L44.4727 70.6454L45.5317 71.7045C45.5667 71.7406 45.6086 71.7694 45.6548 71.7892C45.7011 71.809 45.7508 71.8193 45.8011 71.8197C45.8514 71.8201 45.9012 71.8104 45.9478 71.7913C45.9943 71.7722 46.0365 71.744 46.072 71.7084C46.1076 71.6728 46.1356 71.6304 46.1546 71.5839C46.1736 71.5373 46.1831 71.4874 46.1826 71.4371C46.1821 71.3868 46.1716 71.3371 46.1516 71.2909C46.1317 71.2448 46.1028 71.203 46.0666 71.1681L45.0075 70.109L46.312 68.8045L47.0984 69.5908C47.2545 69.7469 47.3924 69.7136 47.5439 69.6287C47.5287 70.9469 46.653 71.7939 45.5696 72.0636C44.709 71.862 43.8499 71.8317 43.0181 71.809C42.6136 71.8439 42.253 72.1302 42.2408 72.5469C42.2382 72.6464 42.2552 72.7454 42.2909 72.8383C42.3266 72.9313 42.3802 73.0162 42.4487 73.0884C42.5172 73.1606 42.5993 73.2186 42.6903 73.259C42.7812 73.2995 42.8792 73.3216 42.9787 73.3242C43.5227 73.3378 44.0696 73.3742 44.6045 73.4439C44.6744 73.5147 44.7576 73.5711 44.8494 73.6095C44.9413 73.648 45.0398 73.6679 45.1393 73.6681L45.1727 73.6666C45.2954 73.6605 45.4166 73.6408 45.5393 73.6227C45.8787 73.7287 46.1848 73.8681 46.4439 74.0424L45.8878 74.5984L45.5181 74.2302C45.447 74.1591 45.3505 74.1191 45.2499 74.1191C45.1493 74.1191 45.0529 74.1591 44.9817 74.2302C44.9106 74.3014 44.8707 74.3978 44.8707 74.4984C44.8707 74.599 44.9106 74.6955 44.9817 74.7666L45.3514 75.1348L44.0105 76.4742L43.6772 76.1408C43.6422 76.1047 43.6004 76.0759 43.5541 76.0561C43.5079 76.0363 43.4582 76.026 43.4079 76.0256C43.3576 76.0252 43.3077 76.0349 43.2612 76.054C43.2147 76.0731 43.1724 76.1013 43.1369 76.1369C43.1014 76.1725 43.0733 76.2149 43.0544 76.2614C43.0354 76.308 43.0259 76.3579 43.0264 76.4082C43.0269 76.4585 43.0374 76.5082 43.0573 76.5544C43.0772 76.6006 43.1061 76.6423 43.1424 76.6772L43.4757 77.0105L43.1424 77.3439C43.1061 77.3788 43.0772 77.4205 43.0573 77.4667C43.0374 77.5129 43.0269 77.5626 43.0264 77.6129C43.0259 77.6632 43.0354 77.713 43.0544 77.7596C43.0733 77.8062 43.1014 77.8485 43.1369 77.8841C43.1724 77.9198 43.2147 77.9479 43.2612 77.9671C43.3077 77.9862 43.3576 77.9958 43.4079 77.9955C43.4582 77.9951 43.5079 77.9847 43.5541 77.9649C43.6004 77.9452 43.6422 77.9164 43.6772 77.8802L44.0105 77.5469L45.0166 78.553C45.0257 78.562 45.0393 78.559 45.0484 78.5666C43.4742 79.0211 42.7439 78.2802 40.8302 79.1908C40.7405 79.2336 40.6601 79.2936 40.5935 79.3675C40.527 79.4414 40.4757 79.5276 40.4425 79.6213C40.4093 79.715 40.3948 79.8143 40.4 79.9136C40.4052 80.0129 40.4299 80.1102 40.4727 80.1999C40.5154 80.2897 40.5755 80.3701 40.6493 80.4366C40.7232 80.5032 40.8094 80.5545 40.9031 80.5877C40.9968 80.6209 41.0962 80.6353 41.1954 80.6301C41.2947 80.625 41.392 80.6003 41.4818 80.5575C42.3469 80.1469 42.7666 80.2317 43.4954 80.2651C46.0924 80.3499 46.2848 83.7363 44.059 85.2969C43.9984 85.3393 43.9317 85.3711 43.8696 85.4105C43.909 85.2817 43.903 85.1423 43.8014 85.0408L43.309 84.5484L44.103 83.7545C44.1382 83.7193 44.1661 83.6774 44.1852 83.6314C44.2042 83.5854 44.214 83.5361 44.214 83.4863C44.214 83.4365 44.2042 83.3872 44.1852 83.3411C44.1661 83.2951 44.1382 83.2533 44.103 83.2181C44.0677 83.1829 44.0259 83.155 43.9799 83.1359C43.9339 83.1168 43.8846 83.107 43.8348 83.107C43.785 83.107 43.7357 83.1168 43.6896 83.1359C43.6436 83.155 43.6018 83.1829 43.5666 83.2181L42.7711 84.0136L42.0681 83.3105L43.2105 82.1681C43.2454 82.1333 43.2454 82.0833 43.2636 82.0393L44.306 83.0802C44.341 83.1164 44.3828 83.1451 44.4291 83.1649C44.4753 83.1847 44.525 83.1951 44.5753 83.1955C44.6256 83.1958 44.6755 83.1862 44.722 83.1671C44.7685 83.1479 44.8108 83.1198 44.8463 83.0841C44.8818 83.0485 44.9099 83.0062 44.9288 82.9596C44.9478 82.913 44.9573 82.8632 44.9568 82.8129C44.9563 82.7626 44.9458 82.7129 44.9259 82.6667C44.906 82.6205 44.8771 82.5788 44.8408 82.5439L42.8969 80.5999C42.8617 80.5647 42.8199 80.5368 42.7739 80.5177C42.7278 80.4986 42.6785 80.4888 42.6287 80.4888C42.5789 80.4888 42.5296 80.4986 42.4836 80.5177C42.4376 80.5368 42.3958 80.5647 42.3605 80.5999C42.3253 80.6351 42.2974 80.6769 42.2783 80.723C42.2593 80.769 42.2495 80.8183 42.2495 80.8681C42.2495 80.9179 42.2593 80.9672 42.2783 81.0132C42.2974 81.0593 42.3253 81.1011 42.3605 81.1363L42.803 81.5787C42.759 81.5969 42.709 81.5969 42.6742 81.6317L41.5317 82.7742L40.8439 82.0878C40.8087 82.0526 40.7668 82.0247 40.7208 82.0056C40.6748 81.9865 40.6255 81.9767 40.5757 81.9767C40.5259 81.9767 40.4766 81.9865 40.4305 82.0056C40.3845 82.0247 40.3427 82.0526 40.3075 82.0878C40.2723 82.123 40.2444 82.1648 40.2253 82.2108C40.2062 82.2569 40.1964 82.3062 40.1964 82.356C40.1964 82.4058 40.2062 82.4551 40.2253 82.5011C40.2444 82.5471 40.2723 82.589 40.3075 82.6242L40.9954 83.3105L39.6908 84.6151L38.9878 83.912L39.6408 83.259C39.6771 83.2241 39.706 83.1824 39.7259 83.1362C39.7458 83.09 39.7563 83.0403 39.7568 82.99C39.7573 82.9397 39.7478 82.8898 39.7288 82.8433C39.7099 82.7967 39.6818 82.7544 39.6463 82.7187C39.6108 82.6831 39.5685 82.6549 39.522 82.6358C39.4755 82.6167 39.4256 82.6071 39.3753 82.6074C39.325 82.6078 39.2753 82.6182 39.2291 82.6379C39.1828 82.6577 39.141 82.6865 39.106 82.7227L38.453 83.3757L37.4469 82.3696C37.4119 82.3335 37.3701 82.3047 37.3238 82.2849C37.2776 82.2651 37.2279 82.2548 37.1776 82.2544C37.1273 82.254 37.0774 82.2637 37.0309 82.2828C36.9844 82.3019 36.9421 82.3301 36.9066 82.3657C36.8711 82.4013 36.843 82.4436 36.8241 82.4902C36.8051 82.5368 36.7956 82.5867 36.7961 82.637C36.7966 82.6873 36.8071 82.737 36.827 82.7832C36.8469 82.8293 36.8758 82.8711 36.9121 82.906L37.9181 83.912L36.6484 85.1802L35.5908 84.1227L36.0393 83.6742C36.0754 83.6392 36.1042 83.5973 36.124 83.5511C36.1438 83.5049 36.1542 83.4551 36.1546 83.4048C36.1549 83.3545 36.1453 83.3047 36.1262 83.2582C36.107 83.2116 36.0789 83.1694 36.0432 83.1339C36.0076 83.0984 35.9653 83.0703 35.9187 83.0513C35.8721 83.0323 35.8223 83.0228 35.772 83.0233C35.7217 83.0238 35.672 83.0344 35.6258 83.0543C35.5796 83.0742 35.5378 83.1031 35.503 83.1393L35.0545 83.5878L34.8969 83.4302C34.8619 83.3941 34.8201 83.3653 34.7738 83.3455C34.7276 83.3257 34.6779 83.3154 34.6276 83.315C34.5773 83.3146 34.5274 83.3243 34.4809 83.3434C34.4344 83.3625 34.3921 83.3907 34.3566 83.4263C34.3211 83.4619 34.293 83.5043 34.274 83.5508C34.2551 83.5974 34.2456 83.6473 34.2461 83.6976C34.2466 83.7479 34.2571 83.7976 34.277 83.8438C34.2969 83.8899 34.3258 83.9317 34.3621 83.9666L34.5181 84.1242L33.7439 84.8984L32.703 83.856C32.6969 83.8499 32.6878 83.853 32.6817 83.8469L33.0378 83.4908C33.1089 83.4197 33.1489 83.3232 33.1489 83.2226C33.1489 83.1221 33.1089 83.0256 33.0378 82.9545C32.9667 82.8833 32.8702 82.8434 32.7696 82.8434C32.669 82.8434 32.5726 82.8833 32.5014 82.9545L30.5939 84.862L29.9408 84.2105C29.9058 84.1744 29.864 84.1456 29.8178 84.1258C29.7715 84.106 29.7218 84.0957 29.6715 84.0953C29.6212 84.0949 29.5714 84.1046 29.5248 84.1237C29.4783 84.1428 29.4361 84.171 29.4005 84.2066C29.365 84.2422 29.337 84.2846 29.318 84.3311C29.299 84.3777 29.2895 84.4276 29.29 84.4779C29.2905 84.5282 29.301 84.5779 29.3209 84.6241C29.3409 84.6702 29.3698 84.712 29.406 84.7469L30.0575 85.3984L29.4969 85.959C26.2585 85.5154 23.0608 84.8126 19.9348 83.8575C19.9757 83.2924 19.9893 82.756 19.9984 82.2863L20.1969 72.1651C20.2666 68.5242 20.3136 65.0545 18.8211 61.759C23.0984 62.0681 27.2742 59.7211 29.1257 55.7651ZM3.08932 80.4711C3.29235 76.9196 3.05296 65.403 3.3772 63.4878C3.7772 61.1136 5.42872 59.1196 7.79387 58.1545C12.2075 56.3469 16.8893 58.712 18.2499 64.7802C18.7848 67.1605 18.7348 69.6893 18.6878 72.1348L18.6848 72.253L18.4742 72.4636L17.7393 71.7272C17.7041 71.692 17.6623 71.664 17.6163 71.645C17.5703 71.6259 17.5209 71.6161 17.4711 71.6161C17.4213 71.6161 17.372 71.6259 17.326 71.645C17.28 71.664 17.2382 71.692 17.203 71.7272C17.1677 71.7624 17.1398 71.8042 17.1207 71.8502C17.1017 71.8963 17.0919 71.9456 17.0919 71.9954C17.0919 72.0452 17.1017 72.0945 17.1207 72.1405C17.1398 72.1865 17.1677 72.2283 17.203 72.2636L17.9378 72.9984L17.203 73.7333C17.1339 73.8031 17.0949 73.897 17.094 73.9952C17.0932 74.0934 17.1306 74.188 17.1984 74.259C17.0499 74.1514 16.8484 74.1484 16.7166 74.2802C16.6813 74.3154 16.6533 74.3572 16.6342 74.4032C16.6151 74.4492 16.6053 74.4986 16.6053 74.5484C16.6053 74.5982 16.6151 74.6476 16.6342 74.6936C16.6533 74.7396 16.6813 74.7814 16.7166 74.8166L17.7257 75.8242L16.359 77.1893C16.2287 77.1484 16.0893 77.1545 15.9863 77.2575C15.8833 77.3605 15.8787 77.4999 15.9181 77.6302L15.8651 77.6833C15.8299 77.7185 15.8019 77.7603 15.7829 77.8063C15.7638 77.8523 15.754 77.9016 15.754 77.9514C15.754 78.052 15.794 78.1485 15.8651 78.2196C15.9362 78.2907 16.0327 78.3307 16.1333 78.3307C16.2339 78.3307 16.3303 78.2907 16.4014 78.2196L16.4075 78.2136L17.8211 79.6272C17.8889 79.6924 17.9787 79.7297 18.0727 79.7317L16.8939 80.9105L16.2196 80.2363C16.1844 80.2011 16.1426 80.1731 16.0966 80.1541C16.0506 80.135 16.0013 80.1252 15.9514 80.1252C15.9016 80.1252 15.8523 80.135 15.8063 80.1541C15.7603 80.1731 15.7185 80.2011 15.6833 80.2363C15.648 80.2715 15.6201 80.3133 15.601 80.3593C15.582 80.4053 15.5722 80.4547 15.5722 80.5045C15.5722 80.5543 15.582 80.6036 15.601 80.6496C15.6201 80.6956 15.648 80.7374 15.6833 80.7727L16.3575 81.4469L15.3817 82.4242C15.3106 82.4953 15.2707 82.5918 15.2707 82.6924C15.2707 82.7929 15.3106 82.8894 15.3817 82.9605C15.4529 83.0317 15.5493 83.0716 15.6499 83.0716C15.7505 83.0716 15.847 83.0317 15.9181 82.9605L16.8954 81.9833L18.1045 83.1924C18.1396 83.2277 18.1814 83.2557 18.2274 83.2747C18.2735 83.2937 18.3228 83.3033 18.3727 83.303C18.403 83.303 18.4257 83.2757 18.456 83.2681C18.3742 84.9484 18.1469 86.5984 16.909 87.7105L15.1924 85.9939L15.8317 85.3545L16.9014 86.4242C16.9726 86.4953 17.069 86.5353 17.1696 86.5353C17.2702 86.5353 17.3667 86.4953 17.4378 86.4242C17.5089 86.353 17.5489 86.2566 17.5489 86.156C17.5489 86.0554 17.5089 85.9589 17.4378 85.8878L16.3681 84.8181L16.7802 84.4075C16.8514 84.3364 16.8913 84.2399 16.8913 84.1393C16.8913 84.0387 16.8514 83.9423 16.7802 83.8711C16.7091 83.8 16.6126 83.7601 16.5121 83.7601C16.4115 83.7601 16.315 83.8 16.2439 83.8711L15.8333 84.2817L14.2787 82.7272C14.2435 82.692 14.2017 82.664 14.1557 82.645C14.1097 82.6259 14.0603 82.6161 14.0105 82.6161C13.9607 82.6161 13.9114 82.6259 13.8654 82.645C13.8194 82.664 13.7776 82.692 13.7424 82.7272C13.7071 82.7624 13.6792 82.8042 13.6601 82.8502C13.6411 82.8963 13.6313 82.9456 13.6313 82.9954C13.6313 83.0452 13.6411 83.0945 13.6601 83.1405C13.6792 83.1865 13.7071 83.2283 13.7424 83.2636L14.1014 83.6227C14.0303 83.5541 13.9352 83.5161 13.8364 83.5166C13.7377 83.5172 13.643 83.5563 13.5727 83.6257L13.1984 83.9999L12.5181 83.3196C12.4831 83.2835 12.4413 83.2547 12.395 83.2349C12.3488 83.2151 12.2991 83.2048 12.2488 83.2044C12.1985 83.204 12.1486 83.2137 12.1021 83.2328C12.0556 83.2519 12.0133 83.2801 11.9778 83.3157C11.9423 83.3513 11.9142 83.3937 11.8953 83.4402C11.8763 83.4868 11.8668 83.5367 11.8673 83.587C11.8678 83.6373 11.8783 83.687 11.8982 83.7332C11.9181 83.7793 11.947 83.8211 11.9833 83.856L12.6636 84.5363L11.2439 85.956L10.1999 84.912L11.1302 83.9817C11.1665 83.9469 11.1954 83.9051 11.2153 83.8589C11.2352 83.8127 11.2457 83.763 11.2462 83.7127C11.2467 83.6625 11.2372 83.6126 11.2182 83.566C11.1993 83.5194 11.1712 83.4771 11.1357 83.4415C11.1002 83.4058 11.0579 83.3777 11.0114 83.3586C10.9649 83.3394 10.915 83.3298 10.8647 83.3301C10.8144 83.3305 10.7647 83.3409 10.7185 83.3607C10.6722 83.3805 10.6304 83.4093 10.5954 83.4454L9.59235 84.4484C9.48932 84.4424 9.38478 84.4727 9.30599 84.5514C9.2272 84.6302 9.1969 84.7348 9.20296 84.8378L8.32569 85.712L7.89387 85.2802C7.85865 85.245 7.81684 85.2171 7.77083 85.198C7.72481 85.179 7.67549 85.1691 7.62569 85.1691C7.5251 85.1691 7.42863 85.2091 7.35751 85.2802C7.28638 85.3514 7.24642 85.4478 7.24642 85.5484C7.24642 85.649 7.28638 85.7455 7.35751 85.8166L7.78932 86.2484L6.80599 87.2318L5.8272 86.253C5.79221 86.2168 5.75037 86.188 5.70413 86.1683C5.65789 86.1485 5.60817 86.1381 5.55788 86.1377C5.50758 86.1374 5.45772 86.147 5.4112 86.1661C5.36468 86.1852 5.32242 86.2134 5.28691 86.249C5.2514 86.2847 5.22333 86.327 5.20435 86.3736C5.18537 86.4201 5.17586 86.47 5.17636 86.5203C5.17687 86.5706 5.18739 86.6203 5.2073 86.6665C5.22722 86.7127 5.25613 86.7544 5.29235 86.7893L6.27114 87.7681L6.05296 87.9863C5.33478 87.6757 4.69993 87.2575 4.21205 86.6636C2.93932 85.1136 2.95448 82.8499 3.08932 80.4711ZM90.5787 10.1802C78.5257 9.22871 66.2605 9.34689 54.1272 10.5317C48.1908 11.1211 43.8287 12.7196 42.8181 19.2454C42.5211 21.0333 42.3863 36.162 42.4575 40.0287C42.5439 46.8954 45.4621 48.8393 52.559 49.2696C52.559 49.2696 52.3302 54.3439 52.2454 56.1211C52.059 59.5636 54.6575 60.1863 56.2302 59.5469C56.906 59.2833 57.3666 58.8469 57.8636 58.3787C60.553 55.7151 63.8954 52.4757 66.6984 49.7151C73.5666 49.7833 80.2681 49.6408 86.6317 49.2863C89.362 49.1363 94.5075 48.912 97.0272 45.2272L97.0287 45.2227C98.6499 42.8211 98.5302 39.7257 98.4333 37.2302C98.2454 33.2999 98.0727 29.3651 97.8969 25.4333C97.8984 25.4196 97.8954 25.4075 97.8954 25.3939C97.7681 22.5545 97.6333 19.7196 97.5075 16.8787C97.2848 12.659 96.1848 10.6136 90.5787 10.1802ZM57.506 56.6014C57.4878 56.5499 57.4863 56.4954 57.4454 56.4545L56.1924 55.2014L58.0424 53.353L59.409 54.7211L59.4166 54.7242C58.7772 55.3484 58.1408 55.9757 57.506 56.6014ZM59.9514 54.1999C59.9469 54.1954 59.9499 54.1878 59.9454 54.1833L58.5787 52.8151L60.9166 50.4772L61.303 50.8636L60.8121 51.3545C60.7409 51.4256 60.701 51.5221 60.701 51.6227C60.701 51.7232 60.7409 51.8197 60.8121 51.8908C60.8832 51.962 60.9796 52.0019 61.0802 52.0019C61.1808 52.0019 61.2773 51.962 61.3484 51.8908L61.8393 51.3999L62.3227 51.8833C62.3196 51.8833 59.9545 54.1969 59.9514 54.1999ZM62.8605 51.353L62.3727 50.8651L63.8969 49.3408L64.4014 49.8439L62.8605 51.353ZM68.9348 48.203L69.1742 47.9636C69.2439 47.9484 69.3151 47.9363 69.3681 47.8833C69.4211 47.8302 69.4333 47.7575 69.4484 47.6893L72.0242 45.1136L74.1999 47.2893L73.3833 48.1045C73.359 48.1287 73.3636 48.162 73.3484 48.1908C71.8878 48.2045 70.4166 48.209 68.9348 48.203ZM74.7363 47.8227L75.0802 48.1666L74.3833 48.1757L74.7363 47.8227ZM86.5484 47.7727C86.1196 47.7969 85.6757 47.812 85.2423 47.8333L86.553 46.5227L87.7272 47.6969C87.3345 47.7249 86.9415 47.7502 86.5484 47.7727ZM96.4984 28.0257L96.309 28.2151L95.5969 27.503L95.6014 27.5014L96.4363 26.6666L96.4984 28.0257ZM96.7075 32.6242L96.6817 32.5984L96.7045 32.5757L96.7075 32.6242ZM96.3211 24.1196C96.3014 24.1333 96.2757 24.1287 96.2575 24.1454C96.2223 24.1804 96.1943 24.2221 96.1752 24.268C96.1562 24.3139 96.1464 24.3631 96.1464 24.4128C96.1464 24.4625 96.1562 24.5117 96.1752 24.5576C96.1943 24.6035 96.2223 24.6452 96.2575 24.6802L96.3499 24.7727L96.3893 25.6393L95.0666 26.9636C94.953 27.0772 94.9545 27.2348 95.0136 27.3727C94.9954 27.3848 94.9727 27.3802 94.956 27.3969C94.9207 27.4321 94.8927 27.4739 94.8736 27.5199C94.8545 27.5659 94.8447 27.6153 94.8447 27.6651C94.8447 27.7149 94.8545 27.7642 94.8736 27.8103C94.8927 27.8563 94.9207 27.8981 94.956 27.9333L95.7727 28.7499L95.0651 29.4575C95.0289 29.4924 94.9999 29.5341 94.98 29.5803C94.9601 29.6265 94.9496 29.6762 94.9491 29.7265C94.9486 29.7768 94.9581 29.8267 94.9771 29.8733C94.9961 29.9198 95.0241 29.9622 95.0596 29.9978C95.0952 30.0334 95.1374 30.0616 95.1839 30.0807C95.2304 30.0998 95.2803 30.1095 95.3306 30.1091C95.3809 30.1087 95.4306 30.0984 95.4769 30.0786C95.5231 30.0588 95.5649 30.03 95.5999 29.9939L96.3075 29.2863L96.5075 29.4863C96.5227 29.5014 96.5469 29.4969 96.5651 29.5105L96.6575 31.5514L96.1454 32.0636L94.9499 30.8681C94.8788 30.797 94.7823 30.757 94.6817 30.757C94.5812 30.757 94.4847 30.797 94.4136 30.8681C94.3424 30.9392 94.3025 31.0357 94.3025 31.1363C94.3025 31.2369 94.3424 31.3333 94.4136 31.4045L95.609 32.5999L94.6333 33.5772H94.4651C94.3646 33.5772 94.2683 33.6171 94.1972 33.6881C94.1262 33.7592 94.0863 33.8555 94.0863 33.956C94.0863 34.0564 94.1262 34.1528 94.1972 34.2238C94.2683 34.2949 94.3646 34.3348 94.4651 34.3348H94.7908C94.8406 34.3349 94.8899 34.3251 94.9359 34.3062C94.982 34.2872 95.0238 34.2593 95.059 34.2242L96.1469 33.1363L96.4151 33.4045C96.4502 33.4398 96.492 33.4678 96.538 33.4868C96.5841 33.5058 96.6335 33.5154 96.6833 33.5151C96.7075 33.5151 96.7257 33.4923 96.7484 33.4878C96.8075 34.7575 96.8605 36.0272 96.9211 37.2969C97.0151 39.6802 97.1181 42.3833 95.7757 44.3742C94.2378 46.6211 91.3363 47.3545 88.653 47.6166C88.6348 47.5817 88.6378 47.5393 88.609 47.5105L87.0878 45.9893L89.4408 43.6363C89.4761 43.6011 89.504 43.5593 89.5231 43.5132C89.5421 43.4672 89.5519 43.4179 89.5519 43.3681C89.5519 43.3183 89.5421 43.269 89.5231 43.223C89.504 43.177 89.4761 43.1351 89.4408 43.0999C89.4056 43.0647 89.3638 43.0368 89.3178 43.0177C89.2718 42.9987 89.2225 42.9888 89.1727 42.9888C89.1228 42.9888 89.0735 42.9987 89.0275 43.0177C88.9815 43.0368 88.9397 43.0647 88.9045 43.0999L86.5514 45.453L85.8439 44.7454C85.8087 44.7102 85.7668 44.6822 85.7208 44.6632C85.6748 44.6441 85.6255 44.6343 85.5757 44.6343C85.5259 44.6343 85.4766 44.6441 85.4305 44.6632C85.3845 44.6822 85.3427 44.7102 85.3075 44.7454C85.2723 44.7806 85.2443 44.8224 85.2253 44.8684C85.2062 44.9144 85.1964 44.9638 85.1964 45.0136C85.1964 45.0634 85.2062 45.1127 85.2253 45.1587C85.2443 45.2047 85.2723 45.2465 85.3075 45.2817L86.0151 45.9893L84.1166 47.8878C82.8424 47.9469 81.5605 47.9999 80.262 48.0439L80.3893 47.9166C80.453 47.9605 80.5196 48.0014 80.5939 48.0014C80.6436 48.0015 80.693 47.9918 80.739 47.9728C80.785 47.9538 80.8268 47.926 80.8621 47.8908C80.9924 47.7605 80.9878 47.5651 80.8878 47.4181L84.103 44.203C84.1382 44.1677 84.1661 44.1259 84.1852 44.0799C84.2042 44.0339 84.214 43.9846 84.214 43.9348C84.214 43.885 84.2042 43.8357 84.1852 43.7896C84.1661 43.7436 84.1382 43.7018 84.103 43.6666C84.0677 43.6314 84.0259 43.6034 83.9799 43.5844C83.9339 43.5653 83.8846 43.5555 83.8348 43.5555C83.785 43.5555 83.7356 43.5653 83.6896 43.5844C83.6436 43.6034 83.6018 43.6314 83.5666 43.6666L80.3711 46.862L77.6045 44.0939C77.5695 44.0577 77.5276 44.0289 77.4814 44.0092C77.4352 43.9894 77.3854 43.979 77.3352 43.9786C77.2849 43.9783 77.235 43.9879 77.1885 44.007C77.1419 44.0261 77.0997 44.0543 77.0642 44.09C77.0287 44.1256 77.0006 44.1679 76.9816 44.2145C76.9626 44.261 76.9531 44.3109 76.9536 44.3612C76.9541 44.4115 76.9647 44.4612 76.9846 44.5074C77.0045 44.5536 77.0334 44.5953 77.0696 44.6302L79.8363 47.3984L79.159 48.0757C78.1545 48.1045 77.153 48.1363 76.1363 48.156L75.2727 47.2878L76.5257 46.0348C76.5968 45.9636 76.6368 45.8672 76.6368 45.7666C76.6368 45.666 76.5968 45.5695 76.5257 45.4984C76.4546 45.4273 76.3581 45.3873 76.2575 45.3873C76.1569 45.3873 76.0604 45.4273 75.9893 45.4984L74.7363 46.7514L72.3984 44.4136C72.3802 44.362 72.3772 44.306 72.3363 44.2651C72.3011 44.2298 72.2593 44.2018 72.2133 44.1827C72.1673 44.1636 72.1179 44.1538 72.0681 44.1538C72.0183 44.1538 71.969 44.1636 71.9229 44.1827C71.8769 44.2018 71.8351 44.2298 71.7999 44.2651L69.0424 47.0227L66.8711 44.8484L68.8939 42.8257C68.9291 42.7906 68.9571 42.749 68.9761 42.7031C68.9952 42.6572 69.005 42.608 69.005 42.5583C69.005 42.5086 68.9952 42.4593 68.9761 42.4135C68.9571 42.3676 68.9291 42.3259 68.8939 42.2908C68.8588 42.2556 68.8171 42.2276 68.7712 42.2086C68.7253 42.1895 68.6761 42.1797 68.6264 42.1797C68.5767 42.1797 68.5275 42.1895 68.4816 42.2086C68.4357 42.2276 68.3941 42.2556 68.359 42.2908L66.3363 44.3136L66.2242 44.2014C66.189 44.1662 66.1471 44.1383 66.1011 44.1192C66.0551 44.1002 66.0058 44.0904 65.956 44.0904C65.9062 44.0904 65.8569 44.1002 65.8109 44.1192C65.7648 44.1383 65.723 44.1662 65.6878 44.2014C65.6526 44.2367 65.6247 44.2785 65.6056 44.3245C65.5865 44.3705 65.5767 44.4198 65.5767 44.4696C65.5767 44.5194 65.5865 44.5687 65.6056 44.6148C65.6247 44.6608 65.6526 44.7026 65.6878 44.7378L65.7999 44.8499L64.8211 45.8287C64.75 45.8998 64.7101 45.9963 64.7101 46.0969C64.7101 46.1975 64.75 46.294 64.8211 46.3651C64.8923 46.4362 64.9887 46.4762 65.0893 46.4762C65.1899 46.4762 65.2864 46.4362 65.3575 46.3651L66.3363 45.3863L68.5105 47.5605L67.8681 48.203C67.3787 48.1999 66.8939 48.2045 66.4014 48.1984C66.3014 48.1946 66.2016 48.2119 66.1086 48.2492C66.0157 48.2865 65.9317 48.3431 65.8621 48.4151L64.9408 49.3181L64.9393 49.3136L64.4333 48.8075L64.5484 48.6924C64.5846 48.6575 64.6136 48.6157 64.6335 48.5695C64.6534 48.5233 64.6639 48.4736 64.6644 48.4234C64.6649 48.3731 64.6554 48.3232 64.6364 48.2766C64.6174 48.23 64.5894 48.1877 64.5539 48.1521C64.5183 48.1165 64.4761 48.0883 64.4296 48.0692C64.383 48.05 64.3332 48.0404 64.2829 48.0408C64.2326 48.0411 64.1829 48.0515 64.1366 48.0713C64.0904 48.0911 64.0486 48.1199 64.0136 48.156L63.8984 48.2711L62.3227 46.6969C62.2515 46.6258 62.1551 46.5858 62.0545 46.5858C61.9539 46.5858 61.8574 46.6258 61.7863 46.6969C61.7152 46.768 61.6752 46.8645 61.6752 46.9651C61.6752 47.0657 61.7152 47.1621 61.7863 47.2333L63.3621 48.8075L61.8378 50.3317L61.4514 49.9454L61.6424 49.7545C61.6776 49.7193 61.7055 49.6774 61.7246 49.6314C61.7436 49.5854 61.7534 49.5361 61.7534 49.4863C61.7534 49.4365 61.7436 49.3872 61.7246 49.3412C61.7055 49.2951 61.6776 49.2533 61.6424 49.2181C61.6071 49.1829 61.5653 49.155 61.5193 49.1359C61.4733 49.1168 61.424 49.107 61.3742 49.107C61.3244 49.107 61.2751 49.1168 61.229 49.1359C61.183 49.155 61.1412 49.1829 61.106 49.2181L60.9151 49.409L60.3711 48.8651C60.3362 48.829 60.2943 48.8002 60.2481 48.7804C60.2018 48.7606 60.1521 48.7502 60.1018 48.7499C60.0515 48.7495 60.0017 48.7591 59.9551 48.7783C59.9086 48.7974 59.8664 48.8256 59.8308 48.8612C59.7953 48.8968 59.7673 48.9391 59.7483 48.9857C59.7293 49.0323 59.7198 49.0821 59.7203 49.1324C59.7208 49.1827 59.7313 49.2324 59.7512 49.2786C59.7712 49.3248 59.8001 49.3666 59.8363 49.4014L60.3802 49.9454L58.0424 52.2833L57.1181 51.359C57.0829 51.3238 57.0411 51.2959 56.9951 51.2768C56.9491 51.2577 56.8997 51.2479 56.8499 51.2479C56.8001 51.2479 56.7508 51.2577 56.7048 51.2768C56.6588 51.2959 56.617 51.3238 56.5817 51.359C56.5465 51.3942 56.5186 51.436 56.4995 51.4821C56.4805 51.5281 56.4707 51.5774 56.4707 51.6272C56.4707 51.677 56.4805 51.7263 56.4995 51.7723C56.5186 51.8184 56.5465 51.8602 56.5817 51.8954L57.506 52.8196L55.656 54.6681L54.7318 53.7439C54.6606 53.6727 54.5642 53.6328 54.4636 53.6328C54.363 53.6328 54.2665 53.6727 54.1954 53.7439C54.1243 53.815 54.0843 53.9115 54.0843 54.012C54.0843 54.1126 54.1243 54.2091 54.1954 54.2802L55.1196 55.2045L54.0863 56.2378C54.0511 56.273 54.0231 56.3148 54.0041 56.3608C53.985 56.4069 53.9752 56.4562 53.9752 56.506C53.9752 56.5558 53.985 56.6051 54.0041 56.6511C54.0231 56.6971 54.0511 56.739 54.0863 56.7742C54.1215 56.8094 54.1633 56.8373 54.2093 56.8564C54.2554 56.8754 54.3047 56.8853 54.3545 56.8853C54.4043 56.8853 54.4536 56.8754 54.4996 56.8564C54.5456 56.8373 54.5874 56.8094 54.6227 56.7742L55.656 55.7408L56.909 56.9939C56.9484 57.0333 57.003 57.0348 57.0514 57.053L56.7333 57.3666C56.3969 57.6833 56.0802 57.9817 55.6681 58.1439C54.6317 58.5605 53.6575 58.0469 53.7575 56.203C53.7666 56.0075 54.0954 48.7772 54.106 48.6166C54.1211 48.4175 54.057 48.2205 53.9276 48.0684C53.7982 47.9163 53.614 47.8215 53.4151 47.8045C46.803 47.259 44.0575 46.709 43.9727 40.009C43.8893 35.5272 44.0681 20.9742 44.3151 19.4893C45.2514 13.4423 49.4878 12.5211 54.2772 12.0439C66.305 10.8719 78.4124 10.7553 90.4605 11.6954C95.2333 12.0696 95.812 13.4499 95.9939 16.956C96.0999 19.3408 96.2136 21.7287 96.3211 24.1196Z" fill="#252525"/>
<path d="M63.0515 21.4514H83.7439C83.9448 21.4514 84.1375 21.3716 84.2796 21.2295C84.4217 21.0875 84.5015 20.8948 84.5015 20.6939C84.5015 20.4929 84.4217 20.3002 84.2796 20.1582C84.1375 20.0161 83.9448 19.9363 83.7439 19.9363H63.0515C62.8506 19.9363 62.6579 20.0161 62.5158 20.1582C62.3737 20.3002 62.2939 20.4929 62.2939 20.6939C62.2939 20.8948 62.3737 21.0875 62.5158 21.2295C62.6579 21.3716 62.8506 21.4514 63.0515 21.4514ZM52.2257 27.0666C52.2257 27.2675 52.3056 27.4602 52.4476 27.6023C52.5897 27.7443 52.7824 27.8242 52.9833 27.8242H86.5545C86.7555 27.8242 86.9481 27.7443 87.0902 27.6023C87.2323 27.4602 87.3121 27.2675 87.3121 27.0666C87.3121 26.8657 87.2323 26.673 87.0902 26.5309C86.9481 26.3888 86.7555 26.309 86.5545 26.309H52.9833C52.7824 26.309 52.5897 26.3888 52.4476 26.5309C52.3056 26.673 52.2257 26.8657 52.2257 27.0666ZM86.8182 32.7742H52.7076C52.5066 32.7742 52.3139 32.854 52.1719 32.9961C52.0298 33.1381 51.95 33.3308 51.95 33.5317C51.95 33.7327 52.0298 33.9254 52.1719 34.0674C52.3139 34.2095 52.5066 34.2893 52.7076 34.2893H86.8182C87.0191 34.2893 87.2118 34.2095 87.3539 34.0674C87.4959 33.9254 87.5757 33.7327 87.5757 33.5317C87.5757 33.3308 87.4959 33.1381 87.3539 32.9961C87.2118 32.854 87.0191 32.7742 86.8182 32.7742ZM79.7485 38.7772H51.8757C51.6748 38.7772 51.4821 38.857 51.3401 38.9991C51.198 39.1412 51.1182 39.3338 51.1182 39.5348C51.1182 39.7357 51.198 39.9284 51.3401 40.0705C51.4821 40.2125 51.6748 40.2923 51.8757 40.2923H79.7485C79.9494 40.2923 80.1421 40.2125 80.2842 40.0705C80.4262 39.9284 80.506 39.7357 80.506 39.5348C80.506 39.3338 80.4262 39.1412 80.2842 38.9991C80.1421 38.857 79.9494 38.7772 79.7485 38.7772ZM84.3848 37.8545C84.1839 37.8545 83.9912 37.9343 83.8491 38.0764C83.7071 38.2184 83.6273 38.4111 83.6273 38.612V42.059C83.6273 42.2599 83.7071 42.4526 83.8491 42.5947C83.9912 42.7368 84.1839 42.8166 84.3848 42.8166C84.5858 42.8166 84.7785 42.7368 84.9205 42.5947C85.0626 42.4526 85.1424 42.2599 85.1424 42.059V38.612C85.1424 38.4111 85.0626 38.2184 84.9205 38.0764C84.7785 37.9343 84.5858 37.8545 84.3848 37.8545ZM89.6682 38.4272C89.6682 38.2263 89.5884 38.0336 89.4463 37.8915C89.3042 37.7494 89.1115 37.6696 88.9106 37.6696C88.7097 37.6696 88.517 37.7494 88.3749 37.8915C88.2328 38.0336 88.153 38.2263 88.153 38.4272V41.4333C88.153 41.6342 88.2328 41.8269 88.3749 41.9689C88.517 42.111 88.7097 42.1908 88.9106 42.1908C89.1115 42.1908 89.3042 42.111 89.4463 41.9689C89.5884 41.8269 89.6682 41.6342 89.6682 41.4333V38.4272ZM58.0636 22.0499C58.2645 22.0499 58.4572 21.9701 58.5993 21.828C58.7414 21.686 58.8212 21.4933 58.8212 21.2923V17.7378C58.8212 17.5369 58.7414 17.3442 58.5993 17.2021C58.4572 17.06 58.2645 16.9802 58.0636 16.9802C57.8627 16.9802 57.67 17.06 57.5279 17.2021C57.3859 17.3442 57.306 17.5369 57.306 17.7378V21.2923C57.306 21.4933 57.3859 21.686 57.5279 21.828C57.67 21.9701 57.8627 22.0499 58.0636 22.0499ZM52.7076 22.2817C52.9085 22.2817 53.1012 22.2019 53.2432 22.0599C53.3853 21.9178 53.4651 21.7251 53.4651 21.5242V17.7378C53.4651 17.5369 53.3853 17.3442 53.2432 17.2021C53.1012 17.06 52.9085 16.9802 52.7076 16.9802C52.5066 16.9802 52.3139 17.06 52.1719 17.2021C52.0298 17.3442 51.95 17.5369 51.95 17.7378V21.5242C51.95 21.9439 52.2879 22.2817 52.7076 22.2817ZM93.7591 40.2984C93.688 40.2273 93.5915 40.1873 93.4909 40.1873C93.3903 40.1873 93.2938 40.2273 93.2227 40.2984C93.1516 40.3695 93.1116 40.466 93.1116 40.5666C93.1116 40.6672 93.1516 40.7636 93.2227 40.8348L94.0939 41.706L91.6485 44.1514L91.2667 43.7696C91.1955 43.6985 91.0991 43.6585 90.9985 43.6585C90.8979 43.6585 90.8014 43.6985 90.7303 43.7696C90.6592 43.8407 90.6192 43.9372 90.6192 44.0378C90.6192 44.1384 90.6592 44.2349 90.7303 44.306L91.1121 44.6878L89.6454 46.1545C89.6102 46.1897 89.5823 46.2315 89.5632 46.2775C89.5442 46.3235 89.5344 46.3728 89.5344 46.4226C89.5344 46.4725 89.5442 46.5218 89.5632 46.5678C89.5823 46.6138 89.6102 46.6556 89.6454 46.6908C89.6807 46.726 89.7225 46.754 89.7685 46.773C89.8145 46.7921 89.8638 46.8019 89.9136 46.8019C89.9634 46.8019 90.0127 46.7921 90.0588 46.773C90.1048 46.754 90.1466 46.726 90.1818 46.6908L91.6485 45.2242L92.6848 46.2605C92.72 46.2958 92.7618 46.3238 92.8078 46.3429C92.8539 46.362 92.9032 46.3718 92.953 46.3718C93.0028 46.3718 93.0522 46.362 93.0982 46.3429C93.1442 46.3238 93.186 46.2958 93.2212 46.2605C93.2564 46.2255 93.2844 46.1838 93.3035 46.1379C93.3225 46.092 93.3324 46.0428 93.3324 45.9931C93.3324 45.9434 93.3225 45.8942 93.3035 45.8483C93.2844 45.8024 93.2564 45.7607 93.2212 45.7257L92.1848 44.6893L94.6303 42.2439L94.7667 42.3802C94.8017 42.4157 94.8435 42.4438 94.8895 42.463C94.9356 42.4822 94.985 42.4921 95.0348 42.4921C95.0847 42.4921 95.1341 42.4822 95.1801 42.463C95.2262 42.4438 95.2679 42.4157 95.303 42.3802C95.3383 42.345 95.3663 42.3032 95.3854 42.2572C95.4045 42.2112 95.4143 42.1619 95.4143 42.112C95.4143 42.0622 95.4045 42.0129 95.3854 41.9669C95.3663 41.9208 95.3383 41.879 95.303 41.8439L93.7591 40.2984ZM93.9818 36.7151L94.853 37.5863L93.3318 39.1075C93.2607 39.1786 93.2207 39.2751 93.2207 39.3757C93.2207 39.4763 93.2607 39.5727 93.3318 39.6439C93.4029 39.715 93.4994 39.7549 93.6 39.7549C93.7006 39.7549 93.797 39.715 93.8682 39.6439L95.3894 38.1226L95.9818 38.7151C96.0529 38.7862 96.1494 38.8262 96.25 38.8262C96.3506 38.8262 96.447 38.7862 96.5182 38.7151C96.5893 38.6439 96.6292 38.5475 96.6292 38.4469C96.6292 38.3463 96.5893 38.2498 96.5182 38.1787L95.9257 37.5863L96.3227 37.1893C96.3579 37.1541 96.3859 37.1123 96.4049 37.0663C96.424 37.0203 96.4338 36.9709 96.4338 36.9211C96.4338 36.8713 96.424 36.822 96.4049 36.776C96.3859 36.73 96.3579 36.6882 96.3227 36.653C96.2875 36.6177 96.2457 36.5898 96.1997 36.5707C96.1537 36.5517 96.1043 36.5419 96.0545 36.5419C96.0047 36.5419 95.9554 36.5517 95.9094 36.5707C95.8634 36.5898 95.8216 36.6177 95.7864 36.653L95.3894 37.0499L94.5182 36.1787C94.447 36.1076 94.3506 36.0676 94.25 36.0676C94.1494 36.0676 94.0529 36.1076 93.9818 36.1787C93.9107 36.2498 93.8707 36.3463 93.8707 36.4469C93.8707 36.5475 93.9107 36.6439 93.9818 36.7151Z" fill="#252525"/>
</svg>
