<svg width="58" height="40" viewBox="0 0 58 40" fill="none" xmlns="http://www.w3.org/2000/svg">
<rect width="58" height="40" rx="6" fill="white"/>
<g clip-path="url(#clip0_116_16402)">
<path d="M49.2501 17.3103V23.8656H46.8995V19.2672H44.6362V23.8656H42.2856V17.3098H49.2501V17.3103Z" fill="black"/>
<path fill-rule="evenodd" clip-rule="evenodd" d="M37.4582 24.1C39.5624 24.1 41.125 22.8152 41.125 20.8675C41.125 18.9823 39.9721 17.7583 38.0454 17.7583C37.1562 17.7583 36.4225 18.07 35.8698 18.6078C36.0018 17.4962 36.9457 16.6846 37.985 16.6846C38.2249 16.6846 40.0307 16.6808 40.0307 16.6808L41.0518 14.7349C41.0518 14.7349 38.7847 14.7863 37.7308 14.7863C35.3228 14.828 33.6963 17.0077 33.6963 19.6551C33.6963 22.7393 35.2826 24.1 37.4582 24.1ZM37.471 19.4819C38.2523 19.4819 38.7939 19.9931 38.7939 20.8672C38.7939 21.654 38.3126 22.3022 37.471 22.304C36.6659 22.304 36.1243 21.7034 36.1243 20.8807C36.1243 20.0063 36.6659 19.4819 37.471 19.4819Z" fill="black"/>
<path d="M31.7829 21.6711C31.7829 21.6711 31.2278 21.9897 30.3987 22.0501C29.4456 22.0782 28.5963 21.4787 28.5963 20.4136C28.5963 19.3746 29.3457 18.7791 30.3747 18.7791C31.0057 18.7791 31.8404 19.2146 31.8404 19.2146C31.8404 19.2146 32.4511 18.0985 32.7675 17.5403C32.1882 17.103 31.4165 16.8633 30.519 16.8633C28.2539 16.8633 26.4995 18.334 26.4995 20.4004C26.4995 22.4931 28.1485 23.9297 30.519 23.8863C31.1816 23.8617 32.0957 23.63 32.6528 23.2736L31.7829 21.6711Z" fill="black"/>
<path d="M8 13.571L10.5537 18.1167V20.8894L8.00299 25.4261L8 13.571Z" fill="#5B57A2"/>
<path d="M17.8052 16.4624L20.1981 15.0019L25.0954 14.9973L17.8052 19.4448V16.4624Z" fill="#D90751"/>
<path d="M17.7918 13.5442L17.8053 19.5625L15.2456 17.9962V9L17.7918 13.5442Z" fill="#FAB718"/>
<path d="M25.0956 14.9974L20.1981 15.002L17.7918 13.5442L15.2456 9L25.0956 14.9974Z" fill="#ED6F26"/>
<path d="M17.8053 25.4512V22.5314L15.2456 20.9949L15.247 30L17.8053 25.4512Z" fill="#63B22F"/>
<path d="M20.1923 24.004L10.5536 18.1167L8 13.571L25.0852 23.9981L20.1923 24.004Z" fill="#1487C9"/>
<path d="M15.2471 30L17.805 25.4512L20.192 24.004L25.0849 23.998L15.2471 30Z" fill="#017F36"/>
<path d="M8.00293 25.426L15.2665 20.995L12.8245 19.5029L10.5537 20.8893L8.00293 25.426Z" fill="#984995"/>
</g>
<defs>
<clipPath id="clip0_116_16402">
<rect width="42" height="21" fill="white" transform="translate(8 9)"/>
</clipPath>
</defs>
</svg>
