<svg width="58" height="40" viewBox="0 0 58 40" fill="none" xmlns="http://www.w3.org/2000/svg">
<g clip-path="url(#clip0_109_665)">
<path d="M49.25 17.31V23.8654H46.8994V19.2669H44.6361V23.8654H42.2855V17.3096H49.25V17.31Z" fill="white" fill-opacity="0.4"/>
<path fill-rule="evenodd" clip-rule="evenodd" d="M37.458 24.0995C39.5622 24.0995 41.1247 22.8147 41.1247 20.867C41.1247 18.9818 39.9719 17.7578 38.0452 17.7578C37.1559 17.7578 36.4222 18.0695 35.8696 18.6073C36.0015 17.4957 36.9455 16.6841 37.9848 16.6841C38.2247 16.6841 40.0305 16.6803 40.0305 16.6803L41.0516 14.7344C41.0516 14.7344 38.7845 14.7858 37.7306 14.7858C35.3226 14.8276 33.696 17.0072 33.696 19.6546C33.696 22.7388 35.2824 24.0995 37.458 24.0995ZM37.4707 19.4814C38.252 19.4814 38.7937 19.9927 38.7937 20.8668C38.7937 21.6535 38.3124 22.3017 37.4707 22.3035C36.6657 22.3035 36.124 21.7029 36.124 20.8802C36.124 20.0058 36.6657 19.4814 37.4707 19.4814Z" fill="white" fill-opacity="0.4"/>
<path d="M31.7828 21.6701C31.7828 21.6701 31.2277 21.9888 30.3986 22.0491C29.4455 22.0772 28.5962 21.4777 28.5962 20.4126C28.5962 19.3736 29.3456 18.7781 30.3746 18.7781C31.0056 18.7781 31.8403 19.2136 31.8403 19.2136C31.8403 19.2136 32.451 18.0975 32.7674 17.5393C32.188 17.1021 31.4164 16.8623 30.5189 16.8623C28.2538 16.8623 26.4994 18.333 26.4994 20.3994C26.4994 22.4922 28.1483 23.9287 30.5189 23.8853C31.1815 23.8608 32.0956 23.629 32.6527 23.2727L31.7828 21.6701Z" fill="white" fill-opacity="0.4"/>
<path d="M8 13.5713L10.5537 18.1169V20.8896L8.00299 25.4263L8 13.5713Z" fill="white" fill-opacity="0.5"/>
<path d="M17.8053 16.4622L20.1982 15.0016L25.0955 14.9971L17.8053 19.4445V16.4622Z" fill="white" fill-opacity="0.5"/>
<path d="M17.7918 13.5442L17.8053 19.5625L15.2456 17.9962V9L17.7918 13.5442Z" fill="white" fill-opacity="0.5"/>
<path d="M25.0956 14.9974L20.1981 15.002L17.7918 13.5442L15.2456 9L25.0956 14.9974Z" fill="white" fill-opacity="0.5"/>
<path d="M17.8053 25.4515V22.5316L15.2456 20.9951L15.247 30.0003L17.8053 25.4515Z" fill="white" fill-opacity="0.5"/>
<path d="M20.1923 24.0043L10.5536 18.1169L8 13.5713L25.0852 23.9983L20.1923 24.0043Z" fill="white" fill-opacity="0.5"/>
<path d="M15.2472 30L17.8052 25.4512L20.1921 24.004L25.085 23.998L15.2472 30Z" fill="white" fill-opacity="0.4"/>
<path d="M8.00293 25.426L15.2665 20.995L12.8245 19.5029L10.5537 20.8893L8.00293 25.426Z" fill="white" fill-opacity="0.5"/>
</g>
<defs>
<clipPath id="clip0_109_665">
<rect width="42" height="21" fill="white" transform="translate(8 9)"/>
</clipPath>
</defs>
</svg>
