<svg width="60" height="60" viewBox="0 0 60 60" fill="none" xmlns="http://www.w3.org/2000/svg">
<path d="M41.1354 19.069C39.469 13.0081 34.2318 7.99264 28.1054 6.589C21.5981 5.09082 14.9136 7.66991 10.2818 12.3663C4.5254 18.1908 4.57722 29.2008 11.6727 36.2199C24.6063 48.8563 45.8909 36.2935 41.1354 19.069ZM10.9281 13.0054C15.3445 8.52809 21.7109 6.04809 27.9009 7.47537C33.7118 8.80627 38.6772 13.5617 40.2581 19.3108C41.5263 23.9017 40.6381 29.0899 37.9545 33.119C36.6609 27.2145 29.6336 28.6145 27.5445 24.6463C28.3227 23.7108 28.8799 22.4735 29.1418 21.0163C29.4063 19.5199 29.4918 15.5672 28.9381 14.1526C28.559 13.1945 27.8281 12.5254 26.9836 12.3608C25.7772 12.1317 24.6109 11.1199 23.179 11.2408C18.6372 11.5699 18.8645 15.8208 18.8709 18.269C18.8709 19.8235 18.8709 21.4317 19.3899 22.9545C19.6721 23.7831 20.1305 24.5408 20.7336 25.1754C19.7327 26.4108 17.8863 26.7617 15.959 27.3626C12.5718 28.4817 10.8599 30.2008 11.2681 34.449C5.54177 27.7181 5.85631 18.1381 10.9281 13.0054ZM26.7972 27.0163L26.3936 26.6126L26.7327 26.2735C26.7538 26.2524 26.7706 26.2273 26.782 26.1997C26.7934 26.1721 26.7993 26.1425 26.7993 26.1126C26.7993 26.0828 26.7934 26.0532 26.782 26.0256C26.7706 25.9979 26.7538 25.9729 26.7327 25.9517C26.7115 25.9306 26.6865 25.9138 26.6588 25.9024C26.6312 25.891 26.6016 25.8851 26.5718 25.8851C26.5419 25.8851 26.5123 25.891 26.4847 25.9024C26.4571 25.9138 26.432 25.9306 26.4109 25.9517L26.0727 26.2908L25.8227 26.0408C26.2059 25.8546 26.5645 25.6213 26.8899 25.3463C27.0799 25.6545 27.3136 25.9472 27.5863 26.2272L26.7972 27.0163ZM17.7881 28.7745L17.2936 28.2799C17.3963 28.1772 17.689 27.9199 17.7118 27.789C17.8772 27.739 18.0427 27.6854 18.2081 27.6317C18.1972 27.7008 18.2081 27.7708 18.2618 27.8245L18.4999 28.0626L17.7881 28.7745ZM16.5154 28.1445L16.6509 28.2799L15.7754 29.1554L15.2263 28.6063C15.5718 28.4599 15.9163 28.3345 16.2372 28.2281C16.3299 28.199 16.4236 28.1726 16.5154 28.1445ZM18.5863 27.5063C18.8445 27.4163 19.099 27.3172 19.3527 27.2099L18.8218 27.7408L18.5863 27.5063ZM24.6072 23.2945C24.6181 23.3254 24.6199 23.359 24.6445 23.3835L25.0799 23.819L24.2463 24.6526L23.7481 24.1535L24.6072 23.2945ZM23.8381 25.6335C23.8818 25.6254 23.9263 25.6172 23.9599 25.5835L24.2463 25.2972L24.3272 25.3781C24.3484 25.3992 24.3734 25.416 24.401 25.4274C24.4287 25.4389 24.4582 25.4447 24.4881 25.4447C24.518 25.4447 24.5476 25.4389 24.5752 25.4274C24.6028 25.416 24.6279 25.3992 24.649 25.3781C24.6702 25.357 24.6869 25.3319 24.6984 25.3043C24.7098 25.2767 24.7157 25.2471 24.7157 25.2172C24.7157 25.1873 24.7098 25.1577 24.6984 25.1301C24.6869 25.1025 24.6702 25.0774 24.649 25.0563L24.5681 24.9754L25.4018 24.1417L26.0845 24.8245C25.4036 25.3308 24.6054 25.6163 23.8381 25.6335ZM23.9245 24.9754L23.6381 25.2617C23.617 25.2828 23.6002 25.3079 23.5887 25.3355C23.5773 25.3631 23.5714 25.3927 23.5714 25.4226C23.5714 25.4525 23.5773 25.4821 23.5887 25.5097C23.6002 25.5374 23.617 25.5624 23.6381 25.5835C23.6699 25.6154 23.7118 25.6217 23.7518 25.6308C23.4896 25.6328 23.2284 25.6007 22.9745 25.5354C22.9372 25.5254 22.9027 25.5026 22.8654 25.4908C22.8972 25.409 22.8963 25.319 22.8309 25.2526L22.7409 25.1626L23.4263 24.4772L23.9245 24.9754ZM26.6545 24.3108C26.5399 24.449 26.5009 24.4654 26.4327 24.529L25.7227 23.819L26.9054 22.6363C26.9444 22.5962 26.9669 22.5429 26.9684 22.487C26.97 22.431 26.9504 22.3766 26.9136 22.3345L27.3172 22.7381L26.2109 23.8445C26.1897 23.8656 26.173 23.8907 26.1615 23.9183C26.1501 23.9459 26.1442 23.9755 26.1442 24.0054C26.1442 24.0353 26.1501 24.0648 26.1615 24.0924C26.173 24.1201 26.1897 24.1451 26.2109 24.1663C26.232 24.1874 26.2571 24.2042 26.2847 24.2156C26.3123 24.227 26.3419 24.2329 26.3718 24.2329C26.4016 24.2329 26.4312 24.227 26.4588 24.2156C26.4865 24.2042 26.5115 24.1874 26.5327 24.1663L27.3799 23.319C27.1761 23.6758 26.9328 24.0085 26.6545 24.3108ZM27.9154 22.1399L27.6381 22.4172L26.3263 21.1054C26.4063 21.1381 26.4699 21.1717 26.569 21.0726L27.1909 20.4508L27.9963 21.2563C28.0374 21.2964 28.0925 21.3192 28.1499 21.3199C28.0899 21.5808 28.0136 21.8563 27.9154 22.1399ZM28.2481 20.8554L28.2463 20.8635L27.5118 20.129L28.0599 19.5808C28.0845 19.5563 28.0854 19.5226 28.0963 19.4926L28.2318 19.6281C28.2726 19.6682 28.3273 19.691 28.3845 19.6917C28.3563 20.0835 28.3154 20.4726 28.2481 20.8554ZM28.4281 17.9245C28.4336 18.3381 28.4272 18.7526 28.4109 19.1654L27.7536 18.5081L28.3827 17.879L28.4281 17.9245ZM27.829 16.6817L28.3772 16.1335C28.4054 16.6908 28.4027 16.7381 28.4163 17.2681L27.829 16.6817ZM28.0854 15.7817L27.1781 16.689C27.157 16.7101 27.1402 16.7352 27.1288 16.7628C27.1174 16.7904 27.1115 16.82 27.1115 16.8499C27.1115 16.8798 27.1174 16.9094 27.1288 16.937C27.1402 16.9646 27.157 16.9897 27.1781 17.0108C27.1993 17.032 27.2243 17.0487 27.252 17.0601C27.2796 17.0716 27.3092 17.0775 27.339 17.0775C27.3689 17.0775 27.3985 17.0716 27.4261 17.0601C27.4537 17.0487 27.4788 17.032 27.4999 17.0108L27.5072 17.0035L28.0618 17.5581L27.4327 18.1872L27.3509 18.1054C27.3297 18.0842 27.3046 18.0675 27.277 18.056C27.2494 18.0446 27.2198 18.0387 27.1899 18.0387C27.1601 18.0387 27.1305 18.0446 27.1029 18.056C27.0753 18.0675 27.0502 18.0842 27.029 18.1054C27.0079 18.1265 26.9911 18.1516 26.9797 18.1792C26.9683 18.2068 26.9624 18.2364 26.9624 18.2663C26.9624 18.2962 26.9683 18.3257 26.9797 18.3534C26.9911 18.381 27.0079 18.4061 27.029 18.4272L27.1109 18.509L27.0663 18.5535C27.0452 18.5747 27.0284 18.5998 27.017 18.6274C27.0055 18.655 26.9997 18.6846 26.9997 18.7145C26.9997 18.7443 27.0055 18.7739 27.017 18.8015C27.0284 18.8291 27.0452 18.8542 27.0663 18.8754C27.0874 18.8965 27.1125 18.9133 27.1401 18.9247C27.1677 18.9361 27.1973 18.942 27.2272 18.942C27.2571 18.942 27.2867 18.9361 27.3143 18.9247C27.3419 18.9133 27.367 18.8965 27.3881 18.8754L27.4327 18.8308L27.8272 19.2254C27.7972 19.2363 27.7636 19.2372 27.739 19.2617L27.1909 19.8099L27.0163 19.6354C26.9952 19.6142 26.9701 19.5975 26.9425 19.586C26.9149 19.5746 26.8853 19.5687 26.8554 19.5687C26.8255 19.5687 26.7959 19.5746 26.7683 19.586C26.7407 19.5975 26.7156 19.6142 26.6945 19.6354C26.6734 19.6565 26.6566 19.6816 26.6452 19.7092C26.6337 19.7368 26.6278 19.7664 26.6278 19.7963C26.6278 19.8262 26.6337 19.8558 26.6452 19.8834C26.6566 19.911 26.6734 19.9361 26.6945 19.9572L26.869 20.1317L26.2472 20.7535C26.1799 20.8208 26.1809 20.9135 26.2145 20.9963L26.1209 20.9026C26.0997 20.8815 26.0746 20.8647 26.047 20.8533C26.0194 20.8419 25.9898 20.836 25.9599 20.836C25.9301 20.836 25.9005 20.8419 25.8729 20.8533C25.8453 20.8647 25.8202 20.8815 25.799 20.9026C25.7779 20.9238 25.7611 20.9489 25.7497 20.9765C25.7383 21.0041 25.7324 21.0337 25.7324 21.0635C25.7324 21.0934 25.7383 21.123 25.7497 21.1506C25.7611 21.1782 25.7779 21.2033 25.799 21.2245L26.8854 22.3099C26.8433 22.2731 26.7888 22.2535 26.7329 22.2551C26.677 22.2566 26.6237 22.2791 26.5836 22.3181L25.4009 23.5008L24.9654 23.0654C24.9409 23.0408 24.9072 23.039 24.8763 23.0281L25.1799 22.7245C25.2011 22.7033 25.2178 22.6782 25.2293 22.6506C25.2407 22.623 25.2466 22.5934 25.2466 22.5635C25.2466 22.5337 25.2407 22.5041 25.2293 22.4765C25.2178 22.4489 25.2011 22.4238 25.1799 22.4026C25.1588 22.3815 25.1337 22.3647 25.1061 22.3533C25.0785 22.3419 25.0489 22.336 25.019 22.336C24.9892 22.336 24.9596 22.3419 24.932 22.3533C24.9043 22.3647 24.8793 22.3815 24.8581 22.4026L23.4254 23.8354L23.2136 23.6235C23.1925 23.6024 23.1674 23.5857 23.1398 23.5742C23.1122 23.5628 23.0826 23.5569 23.0527 23.5569C23.0228 23.5569 22.9932 23.5628 22.9656 23.5742C22.938 23.5857 22.9129 23.6024 22.8918 23.6235C22.8706 23.6447 22.8539 23.6698 22.8424 23.6974C22.831 23.725 22.8251 23.7546 22.8251 23.7845C22.8251 23.8143 22.831 23.8439 22.8424 23.8715C22.8539 23.8991 22.8706 23.9242 22.8918 23.9454L23.1036 24.1572L22.4181 24.8426L21.8709 24.2954C21.8497 24.2742 21.8246 24.2575 21.797 24.246C21.7694 24.2346 21.7398 24.2287 21.7099 24.2287C21.6801 24.2287 21.6505 24.2346 21.6229 24.246C21.5953 24.2575 21.5702 24.2742 21.549 24.2954C21.5279 24.3165 21.5111 24.3416 21.4997 24.3692C21.4883 24.3968 21.4824 24.4264 21.4824 24.4563C21.4824 24.4862 21.4883 24.5158 21.4997 24.5434C21.5111 24.571 21.5279 24.5961 21.549 24.6172L21.9645 25.0326C21.8563 24.9572 21.7409 24.8935 21.6399 24.8054L21.6354 24.8026C21.0345 24.2708 20.5418 23.5108 20.249 22.6617C19.779 21.2835 19.779 19.7517 19.779 18.2708C19.7718 15.6817 19.609 12.4135 23.2472 12.149C24.3736 12.0535 25.4863 13.0045 26.8099 13.2554C27.4427 13.3781 27.8863 13.9735 28.0899 14.4872C28.2463 14.8872 28.3109 15.3154 28.3463 15.7608C28.2636 15.7108 28.159 15.709 28.0854 15.7817ZM21.3509 25.8735L21.7818 26.3045L20.7436 27.3426L20.1981 26.7972C20.6336 26.5526 20.9463 26.3381 21.3509 25.8735ZM22.7372 26.4154C22.8718 26.4517 23.009 26.4754 23.1472 26.4972L22.8818 26.7626L22.4309 26.3108C22.5318 26.3481 22.6336 26.3872 22.7372 26.4154ZM25.3763 26.2381L25.7509 26.6117L25.0572 27.3054L24.2618 26.5099C24.6423 26.4616 25.0162 26.3704 25.3763 26.2381ZM13.4763 29.8181L13.6781 30.0199L12.8209 30.8772L12.6736 30.7299C12.8718 30.3481 12.8863 30.2163 13.4318 29.7117C13.4427 29.7499 13.4472 29.789 13.4763 29.8181ZM12.1481 32.8408L12.3363 33.029L12.1281 33.2372C12.129 33.0999 12.1409 32.9726 12.1481 32.8408ZM12.4645 31.1635L12.4999 31.199L12.4363 31.2626C12.4472 31.2308 12.4527 31.1935 12.4645 31.1635ZM12.3581 35.6126C12.3454 35.5526 12.3363 35.4863 12.3245 35.4245L12.549 35.1999L12.7154 35.3663C12.7581 35.409 12.816 35.4329 12.8763 35.4329C12.9367 35.4329 12.9945 35.409 13.0372 35.3663C13.0799 35.3236 13.1039 35.2657 13.1039 35.2054C13.1039 35.145 13.0799 35.0871 13.0372 35.0445L12.8709 34.8781L13.9763 33.7726C13.9974 33.7515 14.0142 33.7264 14.0256 33.6988C14.0371 33.6712 14.043 33.6416 14.043 33.6117C14.043 33.5818 14.0371 33.5523 14.0256 33.5246C14.0142 33.497 13.9974 33.472 13.9763 33.4508C13.9552 33.4297 13.9301 33.4129 13.9025 33.4015C13.8749 33.3901 13.8453 33.3842 13.8154 33.3842C13.7855 33.3842 13.7559 33.3901 13.7283 33.4015C13.7007 33.4129 13.6756 33.4297 13.6545 33.4508L12.549 34.5563L12.1663 34.1735C12.1563 34.0526 12.1581 33.9426 12.1518 33.8263C12.1681 33.8172 12.1881 33.819 12.2018 33.8054L12.6572 33.3499L12.8881 33.5808C12.9093 33.602 12.9343 33.6187 12.962 33.6302C12.9896 33.6416 13.0192 33.6475 13.049 33.6475C13.0789 33.6475 13.1085 33.6416 13.1361 33.6302C13.1637 33.6187 13.1888 33.602 13.2099 33.5808C13.2311 33.5597 13.2478 33.5346 13.2593 33.507C13.2707 33.4794 13.2766 33.4498 13.2766 33.4199C13.2766 33.39 13.2707 33.3604 13.2593 33.3328C13.2478 33.3052 13.2311 33.2801 13.2099 33.259L12.979 33.0281L13.6436 32.3635C13.6863 32.3209 13.7102 32.263 13.7102 32.2026C13.7102 32.1423 13.6863 32.0844 13.6436 32.0417C13.6009 31.9991 13.543 31.9751 13.4827 31.9751C13.4223 31.9751 13.3644 31.9991 13.3218 32.0417L12.6572 32.7063L12.2036 32.2526C12.2209 32.1281 12.2372 32.0026 12.2618 31.8845C12.3418 31.9126 12.399 31.9399 12.4927 31.8472L12.8218 31.5181L13.0681 31.7645C13.1108 31.8071 13.1687 31.8311 13.229 31.8311C13.2894 31.8311 13.3473 31.8071 13.3899 31.7645C13.4326 31.7218 13.4566 31.6639 13.4566 31.6035C13.4566 31.5432 13.4326 31.4853 13.3899 31.4426L13.1436 31.1963L14.0009 30.339L14.4318 30.7699C14.4744 30.8126 14.5323 30.8366 14.5927 30.8366C14.653 30.8366 14.7109 30.8126 14.7536 30.7699C14.7963 30.7272 14.8202 30.6694 14.8202 30.609C14.8202 30.5486 14.7963 30.4908 14.7536 30.4481L14.3227 30.0172L14.8145 29.5254C14.8572 29.4827 14.8811 29.4248 14.8811 29.3645C14.8811 29.3041 14.8572 29.2462 14.8145 29.2036C14.7718 29.1609 14.7139 29.1369 14.6536 29.1369C14.5932 29.1369 14.5354 29.1609 14.4927 29.2036L13.9999 29.699L13.7981 29.4972C13.7772 29.4763 13.7472 29.4763 13.7209 29.4654C14.0663 29.1963 14.4463 28.9708 14.8363 28.7826C14.8436 28.829 14.8545 28.8772 14.8899 28.9126L15.4545 29.4763L15.0709 29.8599C15.0497 29.881 15.033 29.9061 15.0215 29.9337C15.0101 29.9613 15.0042 29.9909 15.0042 30.0208C15.0042 30.0507 15.0101 30.0803 15.0215 30.1079C15.033 30.1355 15.0497 30.1606 15.0709 30.1817C15.092 30.2029 15.1171 30.2196 15.1447 30.2311C15.1723 30.2425 15.2019 30.2484 15.2318 30.2484C15.2616 30.2484 15.2912 30.2425 15.3188 30.2311C15.3465 30.2196 15.3715 30.2029 15.3927 30.1817L15.7763 29.7981L15.899 29.9208C15.9202 29.942 15.9453 29.9587 15.9729 29.9702C16.0005 29.9816 16.0301 29.9875 16.0599 29.9875C16.0898 29.9875 16.1194 29.9816 16.147 29.9702C16.1746 29.9587 16.1997 29.942 16.2209 29.9208C16.242 29.8997 16.2587 29.8746 16.2702 29.847C16.2816 29.8194 16.2875 29.7898 16.2875 29.7599C16.2875 29.73 16.2816 29.7004 16.2702 29.6728C16.2587 29.6452 16.242 29.6201 16.2209 29.599L16.0981 29.4763L16.9736 28.6008C17.0836 28.7108 17.539 29.219 17.6854 29.219C17.6927 29.219 17.6972 29.2117 17.7045 29.2108C17.8136 29.2981 17.9272 29.279 18.0045 29.2017L18.8227 28.3835L19.2272 28.7881C19.2484 28.8092 19.2734 28.826 19.301 28.8374C19.3287 28.8489 19.3582 28.8547 19.3881 28.8547C19.418 28.8547 19.4476 28.8489 19.4752 28.8374C19.5028 28.826 19.5279 28.8092 19.549 28.7881C19.5702 28.767 19.5869 28.7419 19.5984 28.7143C19.6098 28.6867 19.6157 28.6571 19.6157 28.6272C19.6157 28.5973 19.6098 28.5677 19.5984 28.5401C19.5869 28.5125 19.5702 28.4874 19.549 28.4663L19.1445 28.0617L19.9809 27.2254C19.9818 27.2245 19.9809 27.2226 19.9827 27.2217L20.4236 27.6626L19.9681 28.1181C19.947 28.1392 19.9302 28.1643 19.9188 28.1919C19.9074 28.2195 19.9015 28.2491 19.9015 28.279C19.9015 28.3089 19.9074 28.3385 19.9188 28.3661C19.9302 28.3937 19.947 28.4188 19.9681 28.4399C19.9893 28.461 20.0143 28.4778 20.042 28.4892C20.0696 28.5007 20.0992 28.5066 20.129 28.5066C20.1589 28.5066 20.1885 28.5007 20.2161 28.4892C20.2437 28.4778 20.2688 28.461 20.2899 28.4399L20.7454 27.9845L21.0481 28.2872C21.0908 28.3299 21.1487 28.3538 21.209 28.3538C21.2694 28.3538 21.3273 28.3299 21.3699 28.2872C21.4126 28.2445 21.4366 28.1866 21.4366 28.1263C21.4366 28.0659 21.4126 28.008 21.3699 27.9654L21.0672 27.6626L22.1054 26.6245L22.5636 27.0826L22.0354 27.6108C22.0143 27.632 21.9975 27.657 21.9861 27.6846C21.9746 27.7123 21.9688 27.7418 21.9688 27.7717C21.9688 27.8016 21.9746 27.8312 21.9861 27.8588C21.9975 27.8864 22.0143 27.9115 22.0354 27.9326C22.0565 27.9538 22.0816 27.9705 22.1092 27.982C22.1368 27.9934 22.1664 27.9993 22.1963 27.9993C22.2262 27.9993 22.2558 27.9934 22.2834 27.982C22.311 27.9705 22.3361 27.9538 22.3572 27.9326L22.8854 27.4045L23.9354 28.4554C23.9565 28.4765 23.9816 28.4933 24.0092 28.5047C24.0368 28.5161 24.0664 28.522 24.0963 28.522C24.1262 28.522 24.1558 28.5161 24.1834 28.5047C24.211 28.4933 24.2361 28.4765 24.2572 28.4554C24.2784 28.4342 24.2951 28.4091 24.3065 28.3815C24.318 28.3539 24.3239 28.3243 24.3239 28.2945C24.3239 28.2646 24.318 28.235 24.3065 28.2074C24.2951 28.1798 24.2784 28.1547 24.2572 28.1335L23.2072 27.0826L23.7018 26.5881L24.7399 27.6263L24.5381 27.8281C24.4955 27.8708 24.4715 27.9287 24.4715 27.989C24.4715 28.0494 24.4955 28.1072 24.5381 28.1499C24.5808 28.1926 24.6387 28.2166 24.699 28.2166C24.7594 28.2166 24.8173 28.1926 24.8599 28.1499L25.0618 27.9481L25.5209 28.4072C25.542 28.4283 25.5671 28.4451 25.5947 28.4565C25.6223 28.4679 25.6519 28.4738 25.6818 28.4738C25.7116 28.4738 25.7412 28.4679 25.7688 28.4565C25.7965 28.4451 25.8215 28.4283 25.8427 28.4072C25.8638 28.3861 25.8806 28.361 25.892 28.3334C25.9034 28.3058 25.9093 28.2762 25.9093 28.2463C25.9093 28.2164 25.9034 28.1868 25.892 28.1592C25.8806 28.1316 25.8638 28.1065 25.8427 28.0854L25.3836 27.6263L26.0772 26.9326L26.4809 27.3363L26.3518 27.4654C26.3306 27.4865 26.3139 27.5116 26.3024 27.5392C26.291 27.5668 26.2851 27.5964 26.2851 27.6263C26.2851 27.6562 26.291 27.6857 26.3024 27.7134C26.3139 27.741 26.3306 27.7661 26.3518 27.7872C26.3729 27.8083 26.398 27.8251 26.4256 27.8365C26.4532 27.8479 26.4828 27.8538 26.5127 27.8538C26.5426 27.8538 26.5721 27.8479 26.5998 27.8365C26.6274 27.8251 26.6525 27.8083 26.6736 27.7872L27.9209 26.5399C28.0727 26.6745 28.2336 26.8063 28.4063 26.9345L27.9472 27.3935C27.9261 27.4147 27.9093 27.4398 27.8979 27.4674C27.8865 27.495 27.8806 27.5246 27.8806 27.5545C27.8806 27.5843 27.8865 27.6139 27.8979 27.6415C27.9093 27.6692 27.9261 27.6942 27.9472 27.7154C27.9684 27.7365 27.9934 27.7533 28.021 27.7647C28.0487 27.7761 28.0782 27.782 28.1081 27.782C28.138 27.782 28.1676 27.7761 28.1952 27.7647C28.2228 27.7533 28.2479 27.7365 28.269 27.7154L28.7881 27.1963C31.9299 29.2663 36.8554 29.2045 37.1999 34.1672C31.6254 41.3172 20.0236 43.0017 12.3581 35.6126Z" fill="#252525"/>
<path d="M57.4322 50.3791C54.8378 47.6061 52.1007 44.9701 49.2322 42.4818C47.9085 41.3145 46.5867 40.4727 44.9558 41.1273C43.844 39.8036 43.0785 38.8891 42.1376 37.7882C46.5067 32.1264 48.0622 24.4709 46.1849 17.7064C44.0285 9.86453 37.2522 3.37544 29.3231 1.5609C20.8812 -0.388194 12.2067 3.01453 6.27033 9.03635C-1.24057 16.6145 -1.00966 30.9691 8.07397 39.8736C16.574 48.1845 29.2167 48.4282 37.9603 41.8982L41.014 45.0191C40.6767 45.7564 40.6149 46.5754 40.8858 47.3318C41.0658 47.8018 41.3558 48.2036 41.6749 48.5591C41.6782 48.6644 41.7203 48.7648 41.7931 48.841C41.8659 48.9172 41.9643 48.9638 42.0694 48.9718C42.3903 49.2818 51.1203 57.27 51.4494 57.5709C52.8703 58.8854 54.3267 59.6091 56.1203 58.2909C56.7703 57.8336 57.2531 57.2282 57.7303 56.5954L57.7322 56.5927C59.7222 53.9173 59.3931 52.4691 57.4322 50.3791ZM8.71034 39.2245C0.12488 30.8091 -0.368756 17.0273 6.9167 9.67544C12.6231 3.88817 20.9722 0.565442 29.1194 2.44635C36.7331 4.18908 43.2385 10.4182 45.3094 17.9473C47.6412 26.3482 44.4185 35.8009 37.7358 40.9427C29.4676 47.3563 17.0776 47.4054 8.71034 39.2245ZM41.5658 38.5145C42.3303 39.4109 43.1203 40.3545 44.1312 41.5591C43.0303 42.3491 43.1331 42.8482 42.134 43.6191C41.884 43.8127 41.6903 43.9664 41.4903 44.2073L38.6922 41.3454C39.7334 40.4903 40.6952 39.5428 41.5658 38.5145ZM41.9594 45.1354C42.2822 44.5227 42.6803 44.4209 43.1685 43.9327C43.8831 43.1973 44.094 42.5454 45.0331 42.0727C45.9831 41.5691 46.8185 41.81 47.6958 42.4145L42.2222 47.7936C41.4749 46.8854 41.454 45.9782 41.9594 45.1354ZM42.8467 48.4545L48.4176 42.98C48.4903 43.0427 48.5631 43.1045 48.634 43.1673C51.4799 45.6356 54.1951 48.2506 56.7685 51.0018C56.9576 51.2036 57.1376 51.4054 57.3067 51.6091C56.37 52.8717 55.2849 54.0172 54.0749 55.0209C54.0649 54.9854 54.0612 54.9473 54.0331 54.92L54.0176 54.9045L54.7458 54.1764C54.7749 54.1891 54.8003 54.2118 54.8312 54.2118C54.8611 54.2119 54.8907 54.2061 54.9183 54.1947C54.946 54.1833 54.971 54.1666 54.9922 54.1454C55.0603 54.0773 55.0594 53.9818 55.0231 53.8991L55.2385 53.6836C55.2597 53.6625 55.2764 53.6374 55.2878 53.6098C55.2993 53.5822 55.3052 53.5526 55.3052 53.5227C55.3052 53.4928 55.2993 53.4632 55.2878 53.4356C55.2764 53.408 55.2597 53.3829 55.2385 53.3618C55.2174 53.3407 55.1923 53.3239 55.1647 53.3125C55.1371 53.301 55.1075 53.2952 55.0776 53.2952C55.0477 53.2952 55.0181 53.301 54.9905 53.3125C54.9629 53.3239 54.9378 53.3407 54.9167 53.3618L54.7231 53.5554L54.1112 52.9436C54.1094 52.8882 54.0903 52.8336 54.0485 52.7909C54.0067 52.7482 53.9512 52.73 53.8958 52.7282L53.8567 52.6891C53.8356 52.6679 53.8105 52.6511 53.7829 52.6397C53.7553 52.6282 53.7257 52.6223 53.6958 52.6223C53.6659 52.6223 53.6363 52.6282 53.6087 52.6397C53.5811 52.6511 53.556 52.6679 53.5349 52.6891C53.4961 52.7293 53.4737 52.7825 53.4722 52.8384C53.4707 52.8943 53.4901 52.9487 53.5267 52.9909L52.8149 53.7027L52.7658 53.6536C52.7231 53.611 52.6652 53.587 52.6049 53.587C52.5445 53.587 52.4866 53.611 52.444 53.6536C52.4013 53.6963 52.3773 53.7542 52.3773 53.8145C52.3773 53.8749 52.4013 53.9328 52.444 53.9754L52.4931 54.0245L51.934 54.5836L51.7176 54.3673C51.6965 54.3461 51.6714 54.3294 51.6438 54.3179C51.6162 54.3065 51.5866 54.3006 51.5567 54.3006C51.5268 54.3006 51.4972 54.3065 51.4696 54.3179C51.442 54.3294 51.4169 54.3461 51.3958 54.3673C51.3747 54.3884 51.3579 54.4135 51.3465 54.4411C51.335 54.4687 51.3291 54.4983 51.3291 54.5282C51.3291 54.5581 51.335 54.5876 51.3465 54.6152C51.3579 54.6429 51.3747 54.6679 51.3958 54.6891L51.6122 54.9054L50.7849 55.7327C50.2576 55.2463 43.3712 48.9436 42.8467 48.4545ZM51.8112 56.6691L51.1222 56.0373L51.9358 55.2236L52.7494 56.0373C52.4394 56.2536 52.1312 56.4718 51.8112 56.6691ZM53.8431 53.3154L54.4022 53.8745L53.6958 54.5809L53.1367 54.0218L53.8431 53.3154ZM53.3749 54.9027L52.9067 55.3709C52.8713 55.4064 52.8603 55.4536 52.8531 55.5L52.2558 54.9027L52.8149 54.3436L53.3749 54.9027ZM53.1331 55.7791L53.0994 55.7454C53.1471 55.7418 53.1923 55.723 53.2285 55.6918L53.6967 55.2236L53.7122 55.2391C53.7303 55.2573 53.7567 55.2554 53.7785 55.2663C53.564 55.4391 53.354 55.6163 53.1331 55.7791ZM57.004 56.0491C56.5722 56.6209 56.1394 57.1664 55.5894 57.5527C54.434 58.4045 53.4785 58.1218 52.5049 57.2945C54.5593 55.9895 56.3661 54.3304 57.8412 52.3945C58.5094 53.6327 58.0267 54.6736 57.004 56.0491Z" fill="#252525"/>
<path d="M11.9946 20.8936C12.0157 20.9148 12.0408 20.9315 12.0684 20.943C12.096 20.9544 12.1256 20.9603 12.1555 20.9603C12.1854 20.9603 12.215 20.9544 12.2426 20.943C12.2702 20.9315 12.2953 20.9148 12.3164 20.8936C12.3376 20.8725 12.3543 20.8474 12.3658 20.8198C12.3772 20.7922 12.3831 20.7626 12.3831 20.7327C12.3831 20.7028 12.3772 20.6732 12.3658 20.6456C12.3543 20.618 12.3376 20.5929 12.3164 20.5718L11.9182 20.1736L12.6028 19.4891L12.7037 19.59C12.7464 19.6327 12.8043 19.6566 12.8646 19.6566C12.925 19.6566 12.9828 19.6327 13.0255 19.59C13.0682 19.5473 13.0922 19.4894 13.0922 19.4291C13.0922 19.3687 13.0682 19.3109 13.0255 19.2682L12.9246 19.1673L13.7219 18.37L14.2337 18.8818C14.2548 18.9029 14.2799 18.9197 14.3075 18.9311C14.3351 18.9426 14.3647 18.9485 14.3946 18.9485C14.4245 18.9485 14.4541 18.9426 14.4817 18.9311C14.5093 18.9197 14.5344 18.9029 14.5555 18.8818C14.5766 18.8607 14.5934 18.8356 14.6048 18.808C14.6163 18.7804 14.6222 18.7508 14.6222 18.7209C14.6222 18.691 14.6163 18.6614 14.6048 18.6338C14.5934 18.6062 14.5766 18.5811 14.5555 18.56L14.0437 18.0482L15.0037 17.0882C15.0248 17.067 15.0416 17.042 15.053 17.0144C15.0645 16.9867 15.0703 16.9572 15.0703 16.9273C15.0703 16.8974 15.0645 16.8678 15.053 16.8402C15.0416 16.8126 15.0248 16.7875 15.0037 16.7664C14.9826 16.7452 14.9575 16.7285 14.9299 16.717C14.9023 16.7056 14.8727 16.6997 14.8428 16.6997C14.8129 16.6997 14.7833 16.7056 14.7557 16.717C14.7281 16.7285 14.703 16.7452 14.6819 16.7664L13.721 17.7273L12.9128 16.9191C12.8917 16.898 12.8666 16.8812 12.839 16.8698C12.8114 16.8583 12.7818 16.8524 12.7519 16.8524C12.722 16.8524 12.6924 16.8583 12.6648 16.8698C12.6372 16.8812 12.6121 16.898 12.591 16.9191C12.5698 16.9402 12.5531 16.9653 12.5416 16.9929C12.5302 17.0205 12.5243 17.0501 12.5243 17.08C12.5243 17.1099 12.5302 17.1395 12.5416 17.1671C12.5531 17.1947 12.5698 17.2198 12.591 17.2409L13.3992 18.0491L12.6019 18.8464L11.8682 18.1127C11.8471 18.0916 11.822 18.0748 11.7944 18.0634C11.7668 18.052 11.7372 18.0461 11.7073 18.0461C11.6774 18.0461 11.6479 18.052 11.6202 18.0634C11.5926 18.0748 11.5676 18.0916 11.5464 18.1127C11.5253 18.1339 11.5085 18.1589 11.4971 18.1865C11.4857 18.2142 11.4798 18.2437 11.4798 18.2736C11.4798 18.3035 11.4857 18.3331 11.4971 18.3607C11.5085 18.3883 11.5253 18.4134 11.5464 18.4345L12.2801 19.1682L11.5955 19.8527L10.8246 19.0818C10.7819 19.0391 10.724 19.0152 10.6637 19.0152C10.6033 19.0152 10.5455 19.0391 10.5028 19.0818C10.4601 19.1245 10.4361 19.1824 10.4361 19.2427C10.4361 19.3031 10.4601 19.361 10.5028 19.4036L11.2737 20.1745L10.1292 21.3191C10.108 21.3402 10.0913 21.3653 10.0798 21.3929C10.0684 21.4205 10.0625 21.4501 10.0625 21.48C10.0625 21.5099 10.0684 21.5395 10.0798 21.5671C10.0913 21.5947 10.108 21.6198 10.1292 21.6409C10.1503 21.662 10.1754 21.6788 10.203 21.6902C10.2306 21.7017 10.2602 21.7076 10.2901 21.7076C10.3199 21.7076 10.3495 21.7017 10.3771 21.6902C10.4048 21.6788 10.4298 21.662 10.451 21.6409L11.5955 20.4964L11.9946 20.8936ZM33.2637 22.1609L34.1837 21.2409L34.4764 21.5336C34.5191 21.5763 34.577 21.6003 34.6373 21.6003C34.6977 21.6003 34.7556 21.5763 34.7982 21.5336C34.8409 21.491 34.8649 21.4331 34.8649 21.3727C34.8649 21.3124 34.8409 21.2545 34.7982 21.2118L34.5055 20.9191L35.4146 20.01L35.5228 20.1182C35.5439 20.1393 35.569 20.1561 35.5966 20.1675C35.6242 20.1789 35.6538 20.1848 35.6837 20.1848C35.7136 20.1848 35.7432 20.1789 35.7708 20.1675C35.7984 20.1561 35.8235 20.1393 35.8446 20.1182C35.8657 20.097 35.8825 20.072 35.8939 20.0444C35.9054 20.0167 35.9113 19.9871 35.9113 19.9573C35.9113 19.9274 35.9054 19.8978 35.8939 19.8702C35.8825 19.8426 35.8657 19.8175 35.8446 19.7964L35.7364 19.6882L36.1237 19.3009L36.4673 19.6445C36.4885 19.6657 36.5136 19.6824 36.5412 19.6939C36.5688 19.7053 36.5984 19.7112 36.6282 19.7112C36.6581 19.7112 36.6877 19.7053 36.7153 19.6939C36.7429 19.6824 36.768 19.6657 36.7892 19.6445C36.8103 19.6234 36.827 19.5983 36.8385 19.5707C36.8499 19.5431 36.8558 19.5135 36.8558 19.4836C36.8558 19.4537 36.8499 19.4242 36.8385 19.3965C36.827 19.3689 36.8103 19.3439 36.7892 19.3227L36.4455 18.9791L36.5192 18.9054C36.5618 18.8628 36.5858 18.8049 36.5858 18.7445C36.5858 18.6842 36.5618 18.6263 36.5192 18.5836C36.4765 18.541 36.4186 18.517 36.3582 18.517C36.2979 18.517 36.24 18.541 36.1973 18.5836L36.1237 18.6573L35.5019 18.0354C35.4807 18.0143 35.4557 17.9976 35.4281 17.9861C35.4004 17.9747 35.3709 17.9688 35.341 17.9688C35.3111 17.9688 35.2815 17.9747 35.2539 17.9861C35.2263 17.9976 35.2012 18.0143 35.1801 18.0354C35.1589 18.0566 35.1422 18.0817 35.1307 18.1093C35.1193 18.1369 35.1134 18.1665 35.1134 18.1964C35.1134 18.2262 35.1193 18.2558 35.1307 18.2834C35.1422 18.311 35.1589 18.3361 35.1801 18.3573L35.8019 18.9791L35.4146 19.3664L34.8301 18.7818C34.7874 18.7391 34.7295 18.7152 34.6692 18.7152C34.6088 18.7152 34.5509 18.7391 34.5082 18.7818C34.4656 18.8245 34.4416 18.8824 34.4416 18.9427C34.4416 19.0031 34.4656 19.061 34.5082 19.1036L35.0928 19.6882L34.1837 20.5973L33.711 20.1245C33.6683 20.0819 33.6104 20.0579 33.5501 20.0579C33.4897 20.0579 33.4318 20.0819 33.3892 20.1245C33.3465 20.1672 33.3225 20.2251 33.3225 20.2854C33.3225 20.3458 33.3465 20.4037 33.3892 20.4464L33.8619 20.9191L32.9419 21.8391C32.9207 21.8602 32.904 21.8853 32.8926 21.9129C32.8811 21.9405 32.8752 21.9701 32.8752 22C32.8752 22.0299 32.8811 22.0595 32.8926 22.0871C32.904 22.1147 32.9207 22.1398 32.9419 22.1609C32.963 22.182 32.9881 22.1988 33.0157 22.2102C33.0433 22.2217 33.0729 22.2276 33.1028 22.2276C33.1327 22.2276 33.1623 22.2217 33.1899 22.2102C33.2175 22.1988 33.2426 22.182 33.2637 22.1609ZM55.1573 52.6727L55.4792 52.3509L55.941 52.8127C55.9621 52.8339 55.9872 52.8506 56.0148 52.8621C56.0424 52.8735 56.072 52.8794 56.1019 52.8794C56.1318 52.8794 56.1614 52.8735 56.189 52.8621C56.2166 52.8506 56.2417 52.8339 56.2628 52.8127C56.2839 52.7916 56.3007 52.7665 56.3121 52.7389C56.3236 52.7113 56.3294 52.6817 56.3294 52.6518C56.3294 52.6219 56.3236 52.5923 56.3121 52.5647C56.3007 52.5371 56.2839 52.512 56.2628 52.4909L55.8019 52.03L56.2082 51.6236C56.2294 51.6025 56.2461 51.5774 56.2576 51.5498C56.269 51.5222 56.2749 51.4926 56.2749 51.4627C56.2749 51.4328 56.269 51.4032 56.2576 51.3756C56.2461 51.348 56.2294 51.3229 56.2082 51.3018C56.1871 51.2807 56.162 51.2639 56.1344 51.2525C56.1068 51.2411 56.0772 51.2352 56.0473 51.2352C56.0175 51.2352 55.9879 51.2411 55.9603 51.2525C55.9326 51.2639 55.9076 51.2807 55.8864 51.3018L55.4801 51.7082L55.2419 51.47C55.1992 51.4273 55.1413 51.4033 55.081 51.4033C55.0206 51.4033 54.9627 51.4273 54.9201 51.47C54.8774 51.5127 54.8534 51.5706 54.8534 51.6309C54.8534 51.6913 54.8774 51.7491 54.9201 51.7918L55.1582 52.03L54.8364 52.3518C54.8134 52.3724 54.7948 52.3975 54.7818 52.4255C54.7687 52.4536 54.7616 52.484 54.7607 52.5149C54.7598 52.5458 54.7653 52.5766 54.7767 52.6053C54.7882 52.634 54.8053 52.6601 54.8272 52.682C54.8491 52.7038 54.8751 52.721 54.9039 52.7324C54.9326 52.7439 54.9633 52.7493 54.9943 52.7484C55.0252 52.7476 55.0556 52.7404 55.0836 52.7274C55.1116 52.7144 55.1367 52.6958 55.1573 52.6727ZM48.6546 49.2682C48.6335 49.247 48.6084 49.2302 48.5808 49.2188C48.5532 49.2073 48.5236 49.2014 48.4937 49.2014C48.4638 49.2014 48.4342 49.2073 48.4066 49.2188C48.379 49.2302 48.3539 49.247 48.3328 49.2682L47.5155 50.0855L47.0692 49.6391L47.391 49.3173C47.4337 49.2746 47.4576 49.2167 47.4576 49.1564C47.4576 49.096 47.4337 49.0381 47.391 48.9954C47.3483 48.9528 47.2904 48.9288 47.2301 48.9288C47.1697 48.9288 47.1118 48.9528 47.0692 48.9954L46.7473 49.3173L46.1692 48.7391L46.7582 48.15C46.8009 48.1073 46.8249 48.0494 46.8249 47.9891C46.8249 47.9287 46.8009 47.8709 46.7582 47.8282C46.7156 47.7855 46.6577 47.7615 46.5973 47.7615C46.537 47.7615 46.4791 47.7855 46.4364 47.8282L45.8473 48.4173L45.3282 47.8982C45.2856 47.8555 45.2277 47.8315 45.1673 47.8315C45.107 47.8315 45.0491 47.8555 45.0064 47.8982C44.9638 47.9409 44.9398 47.9987 44.9398 48.0591C44.9398 48.1194 44.9638 48.1773 45.0064 48.22L45.5255 48.7391L45.0937 49.1709C45.0726 49.192 45.0558 49.2171 45.0444 49.2447C45.0329 49.2723 45.0271 49.3019 45.0271 49.3318C45.0271 49.3617 45.0329 49.3913 45.0444 49.4189C45.0558 49.4465 45.0726 49.4716 45.0937 49.4927C45.1148 49.5139 45.1399 49.5306 45.1675 49.5421C45.1951 49.5535 45.2247 49.5594 45.2546 49.5594C45.2845 49.5594 45.3141 49.5535 45.3417 49.5421C45.3693 49.5306 45.3944 49.5139 45.4155 49.4927L45.8473 49.0609L46.4255 49.6391L45.9282 50.1364C45.8856 50.179 45.8616 50.2369 45.8616 50.2973C45.8616 50.3576 45.8856 50.4155 45.9282 50.4582C45.9709 50.5009 46.0288 50.5248 46.0892 50.5248C46.1495 50.5248 46.2074 50.5009 46.2501 50.4582L46.7473 49.9609L47.1937 50.4073L46.8064 50.7945C46.7638 50.8372 46.7398 50.8951 46.7398 50.9554C46.7398 51.0158 46.7638 51.0737 46.8064 51.1164C46.8491 51.159 46.907 51.183 46.9673 51.183C47.0277 51.183 47.0856 51.159 47.1282 51.1164L47.5155 50.7291L48.2401 51.4536C48.2612 51.4748 48.2863 51.4915 48.3139 51.503C48.3415 51.5144 48.3711 51.5203 48.401 51.5203C48.4309 51.5203 48.4604 51.5144 48.4881 51.503C48.5157 51.4915 48.5408 51.4748 48.5619 51.4536C48.583 51.4325 48.5998 51.4074 48.6112 51.3798C48.6227 51.3522 48.6285 51.3226 48.6285 51.2927C48.6285 51.2628 48.6227 51.2332 48.6112 51.2056C48.5998 51.178 48.583 51.1529 48.5619 51.1318L47.8373 50.4073L48.6546 49.59C48.6758 49.5689 48.6926 49.5438 48.704 49.5162C48.7155 49.4886 48.7214 49.459 48.7214 49.4291C48.7214 49.3992 48.7155 49.3696 48.704 49.342C48.6926 49.3144 48.6758 49.2893 48.6546 49.2682Z" fill="#252525"/>
</svg>
