<svg width="20" height="20" viewBox="0 0 20 20" fill="none" xmlns="http://www.w3.org/2000/svg">
<path fill-rule="evenodd" clip-rule="evenodd" d="M15 13.9583C13.9645 13.9583 13.125 14.7978 13.125 15.8333C13.125 16.8689 13.9645 17.7083 15 17.7083C16.0355 17.7083 16.875 16.8689 16.875 15.8333C16.875 14.7978 16.0355 13.9583 15 13.9583ZM11.875 15.8333C11.875 14.1075 13.2741 12.7083 15 12.7083C16.7259 12.7083 18.125 14.1075 18.125 15.8333C18.125 17.5592 16.7259 18.9583 15 18.9583C13.2741 18.9583 11.875 17.5592 11.875 15.8333Z" fill="#2F2B43" fill-opacity="0.7"/>
<path fill-rule="evenodd" clip-rule="evenodd" d="M15 2.29166C13.9645 2.29166 13.125 3.13112 13.125 4.16666C13.125 5.20219 13.9645 6.04166 15 6.04166C16.0355 6.04166 16.875 5.20219 16.875 4.16666C16.875 3.13112 16.0355 2.29166 15 2.29166ZM11.875 4.16666C11.875 2.44077 13.2741 1.04166 15 1.04166C16.7259 1.04166 18.125 2.44077 18.125 4.16666C18.125 5.89255 16.7259 7.29166 15 7.29166C13.2741 7.29166 11.875 5.89255 11.875 4.16666Z" fill="#2F2B43" fill-opacity="0.7"/>
<path fill-rule="evenodd" clip-rule="evenodd" d="M5 8.125C3.96447 8.125 3.125 8.96447 3.125 10C3.125 11.0355 3.96447 11.875 5 11.875C6.03553 11.875 6.875 11.0355 6.875 10C6.875 8.96447 6.03553 8.125 5 8.125ZM1.875 10C1.875 8.27411 3.27411 6.875 5 6.875C6.72589 6.875 8.125 8.27411 8.125 10C8.125 11.7259 6.72589 13.125 5 13.125C3.27411 13.125 1.875 11.7259 1.875 10Z" fill="#2F2B43" fill-opacity="0.7"/>
<path fill-rule="evenodd" clip-rule="evenodd" d="M6.77344 8.20736L12.6068 4.87402L13.2269 5.95933L7.39361 9.29266L6.77344 8.20736Z" fill="#2F2B43" fill-opacity="0.7"/>
<path fill-rule="evenodd" clip-rule="evenodd" d="M12.6068 15.126L6.77344 11.7926L7.39361 10.7073L13.2269 14.0407L12.6068 15.126Z" fill="#2F2B43" fill-opacity="0.7"/>
</svg>
