<svg width="32" height="32" viewBox="0 0 32 32" fill="none" xmlns="http://www.w3.org/2000/svg">
<path d="M11.5465 24.552C10.284 24.4085 9.35653 24.0635 8.86453 23.553C8.55453 23.2325 8.37753 22.789 8.32253 22.1975C8.30338 22.071 8.23651 21.9565 8.13564 21.8777C8.03476 21.7989 7.90755 21.7617 7.7801 21.7737C7.65265 21.7857 7.53464 21.8461 7.4503 21.9424C7.36595 22.0387 7.32167 22.1636 7.32653 22.2915C7.40303 23.1055 7.67803 23.7635 8.14453 24.2475C8.80953 24.9365 9.91653 25.3735 11.4345 25.5455C11.5636 25.5555 11.6916 25.5149 11.7914 25.4325C11.8912 25.35 11.9552 25.232 11.9697 25.1033C11.9843 24.9746 11.9484 24.8453 11.8696 24.7426C11.7907 24.6399 11.6751 24.5717 11.547 24.5525L11.5465 24.552Z" fill="#252525"/>
<path d="M29.5661 12.133C28.9921 11.609 27.8971 11.5155 26.2396 11.8355C26.2111 11.808 26.1901 11.777 26.1606 11.7505C25.1226 10.8125 23.5066 10.5395 21.3576 10.944C21.24 10.9666 21.1345 11.0305 21.0601 11.1242C20.9857 11.2179 20.9474 11.3352 20.9521 11.4548C20.9568 11.5744 21.0043 11.6883 21.0858 11.7758C21.1674 11.8634 21.2776 11.9188 21.3966 11.932C22.7396 12.077 24.7921 12.6355 24.9341 13.373C24.9766 13.594 24.8876 14.433 21.9706 15.9785C15.1146 19.608 6.51905 18.897 5.24605 18.136C5.20185 18.1104 5.15395 18.0919 5.10405 18.081C8.50905 17.383 13.7991 14.3165 14.5376 13.881C15.1661 13.461 20.6831 9.69452 20.8041 6.80902C20.8341 6.09702 20.5391 5.47302 19.9511 5.00402C18.3601 3.73752 15.3836 4.37252 11.1076 6.87902C10.9308 6.74628 10.7347 6.64155 10.5261 6.56852C10.2007 6.45785 9.85339 6.42761 9.51381 6.48038C9.17423 6.53314 8.85248 6.66735 8.57605 6.87152C7.94755 7.33002 7.62155 8.06602 7.70455 8.84002C7.78755 9.61402 8.26205 10.264 8.97455 10.579L9.80955 10.949C9.92992 10.9978 10.0646 10.9979 10.185 10.9492C10.3054 10.9005 10.4021 10.8068 10.4547 10.688C10.5073 10.5692 10.5115 10.4347 10.4666 10.3128C10.4217 10.1909 10.3311 10.0913 10.2141 10.035L9.37905 9.66502C8.99755 9.49602 8.74305 9.14802 8.69905 8.73352C8.65505 8.31902 8.82905 7.92502 9.16555 7.67902C9.31339 7.56939 9.48568 7.49736 9.66755 7.46914C9.84943 7.44092 10.0354 7.45735 10.2096 7.51702C10.5686 7.63702 10.8376 7.91252 10.9481 8.27452L11.2891 9.39202C11.3082 9.45479 11.3396 9.51317 11.3813 9.56383C11.423 9.61448 11.4743 9.65642 11.5323 9.68725C11.5902 9.71808 11.6537 9.7372 11.719 9.74351C11.7843 9.74981 11.8503 9.74319 11.9131 9.72402C11.9758 9.70485 12.0342 9.6735 12.0849 9.63176C12.1355 9.59003 12.1775 9.53872 12.2083 9.48078C12.2391 9.42283 12.2582 9.35939 12.2645 9.29405C12.2708 9.22872 12.2642 9.16279 12.2451 9.10002L11.9046 7.98252C11.8691 7.86602 11.8135 7.76152 11.7611 7.65552C15.4626 5.50902 18.1416 4.84352 19.3281 5.78652C19.6701 6.05902 19.8221 6.37052 19.8051 6.76652C19.7206 8.78352 15.5731 11.986 14.0066 13.034C10.7961 14.924 5.07405 17.716 3.39655 17.163C3.19305 17.0955 3.12805 16.997 3.09355 16.917C2.60705 15.7915 4.10605 13.5055 7.00555 10.95C7.10501 10.8623 7.16554 10.7387 7.17384 10.6063C7.18214 10.474 7.13752 10.3437 7.0498 10.2443C6.96208 10.1448 6.83844 10.0843 6.70609 10.076C6.57374 10.0677 6.44351 10.1123 6.34405 10.2C3.95105 12.3085 1.28555 15.255 2.17505 17.3115C2.33855 17.694 2.65305 17.9715 3.08505 18.1135C3.31605 18.189 3.58605 18.2235 3.88805 18.2235C4.14505 18.2235 4.42605 18.196 4.72305 18.1495C4.69205 18.1695 4.65955 18.188 4.63255 18.216C4.55163 18.2993 4.50245 18.4083 4.49355 18.524C3.98105 18.97 2.87255 20.074 3.23355 21.016C3.51405 21.7475 4.45105 21.906 5.30455 21.917C5.32805 23.012 5.57055 24.653 6.98555 25.904C8.28155 27.0505 10.3006 27.625 13.0106 27.625C14.2671 27.625 15.673 27.5015 17.2231 27.254C27.0041 25.6965 27.6001 20.5085 27.4026 18.3465C27.3541 17.8545 27.3376 17.3515 27.3451 16.8445C28.4971 16.1245 29.7986 14.9735 29.9866 13.383C30.0621 12.7345 29.7996 12.345 29.5661 12.133ZM4.16755 20.658C4.10005 20.483 4.45755 19.956 4.92905 19.488C5.13405 19.917 5.31555 20.4335 5.31905 20.917C4.30905 20.9 4.16855 20.661 4.16755 20.658ZM17.0661 26.2665C12.4785 26.999 9.31005 26.625 7.64755 25.155C6.21755 23.8905 6.28155 22.089 6.31255 21.2225C6.31655 21.1085 6.32005 21.0105 6.32005 20.93C6.32005 20.4155 6.18355 19.897 5.99405 19.425C9.21105 20.118 16.6556 19.924 22.4386 16.8625C25.0301 15.4895 26.1351 14.3205 25.9161 13.184C25.893 13.0635 25.8543 12.9465 25.8011 12.836C26.4171 13.667 26.4726 14.845 26.3966 15.742C26.3175 16.6401 26.3209 17.5435 26.4066 18.441C26.6206 20.774 25.6911 24.8925 17.0661 26.2665ZM28.9931 13.2665C28.8781 14.239 28.1271 15.0335 27.4061 15.5855C27.4566 14.703 27.3761 13.6435 26.9061 12.732C28.3511 12.515 28.7866 12.7755 28.8931 12.872C28.9331 12.908 29.0251 12.9915 28.9931 13.2665Z" fill="#252525"/>
</svg>
