<svg width="24" height="24" viewBox="0 0 24 24" fill="none" xmlns="http://www.w3.org/2000/svg">
<circle cx="11.9999" cy="12" r="9.6" fill="#D9D9D9"/>
<circle cx="11.9999" cy="12" r="9.6" fill="url(#paint0_linear_346_11840)"/>
<path fill-rule="evenodd" clip-rule="evenodd" d="M6.74551 11.8987C9.54411 10.6794 11.4103 9.87552 12.344 9.48714C15.01 8.37825 15.564 8.18563 15.9251 8.17927C16.0045 8.17787 16.1821 8.19755 16.2971 8.29088C16.3942 8.36969 16.4209 8.47614 16.4337 8.55086C16.4465 8.62558 16.4624 8.79578 16.4498 8.92878C16.3053 10.4468 15.6802 14.1305 15.3621 15.8307C15.2276 16.5501 14.9626 16.7913 14.7061 16.8149C14.1486 16.8662 13.7252 16.4465 13.1853 16.0925C12.3404 15.5387 11.863 15.1939 11.0429 14.6534C10.0951 14.0288 10.7095 13.6855 11.2497 13.1245C11.391 12.9777 13.8473 10.7435 13.8949 10.5408C13.9008 10.5155 13.9063 10.421 13.8502 10.3711C13.7941 10.3212 13.7112 10.3382 13.6515 10.3518C13.5667 10.371 12.2169 11.2632 9.60211 13.0283C9.21898 13.2914 8.87196 13.4195 8.56103 13.4128C8.21826 13.4054 7.55891 13.219 7.06875 13.0597C6.46755 12.8643 5.98973 12.7609 6.03133 12.429C6.05301 12.2562 6.29107 12.0794 6.74551 11.8987Z" fill="white"/>
<defs>
<linearGradient id="paint0_linear_346_11840" x1="11.9999" y1="2.40002" x2="11.9999" y2="21.4576" gradientUnits="userSpaceOnUse">
<stop stop-color="#2AABEE"/>
<stop offset="1" stop-color="#229ED9"/>
</linearGradient>
</defs>
</svg>
