<svg width="24" height="24" viewBox="0 0 24 24" fill="none" xmlns="http://www.w3.org/2000/svg">
<path fill-rule="evenodd" clip-rule="evenodd" d="M12.0004 21.6C17.3023 21.6 21.6004 17.302 21.6004 12C21.6004 6.69809 17.3023 2.40002 12.0004 2.40002C6.69846 2.40002 2.40039 6.69809 2.40039 12C2.40039 17.302 6.69846 21.6 12.0004 21.6ZM12.3445 9.48727C11.4108 9.87564 9.5446 10.6795 6.746 11.8988C6.29155 12.0795 6.05349 12.2563 6.03182 12.4292C5.9952 12.7213 6.36106 12.8364 6.85927 12.993C6.92704 13.0143 6.99725 13.0364 7.06924 13.0598C7.5594 13.2191 8.21875 13.4055 8.56152 13.4129C8.87244 13.4197 9.21947 13.2915 9.6026 13.0284C12.2174 11.2633 13.5672 10.3712 13.6519 10.3519C13.7117 10.3384 13.7946 10.3213 13.8507 10.3712C13.9068 10.4211 13.9013 10.5156 13.8954 10.5409C13.8591 10.6954 12.423 12.0306 11.6798 12.7216C11.4481 12.937 11.2837 13.0897 11.2502 13.1246C11.1749 13.2028 11.0982 13.2767 11.0245 13.3478C10.5691 13.7868 10.2276 14.116 11.0434 14.6536C11.4354 14.9119 11.7491 15.1255 12.062 15.3386C12.4038 15.5714 12.7447 15.8035 13.1858 16.0927C13.2982 16.1663 13.4055 16.2428 13.51 16.3173C13.9077 16.6009 14.2651 16.8557 14.7066 16.815C14.9631 16.7914 15.2281 16.5502 15.3626 15.8308C15.6807 14.1306 16.3058 10.4469 16.4503 8.9289C16.4629 8.79591 16.447 8.6257 16.4342 8.55098C16.4214 8.47626 16.3947 8.36981 16.2976 8.291C16.1826 8.19767 16.005 8.17799 15.9256 8.17939C15.5645 8.18575 15.0105 8.37838 12.3445 9.48727Z" fill="#252525"/>
</svg>
