<svg width="24" height="24" viewBox="0 0 24 24" fill="none" xmlns="http://www.w3.org/2000/svg">
<path fill-rule="evenodd" clip-rule="evenodd" d="M11.9999 21.6004C17.3018 21.6004 21.5999 17.3023 21.5999 12.0004C21.5999 6.69846 17.3018 2.40039 11.9999 2.40039C6.69797 2.40039 2.3999 6.69846 2.3999 12.0004C2.3999 17.3023 6.69797 21.6004 11.9999 21.6004ZM12.344 9.48757C11.4103 9.87595 9.54411 10.6798 6.74551 11.8991C6.29107 12.0798 6.05301 12.2566 6.03133 12.4295C5.99471 12.7216 6.36057 12.8367 6.85878 12.9933C6.92655 13.0146 6.99677 13.0367 7.06875 13.0601C7.55891 13.2194 8.21826 13.4058 8.56103 13.4133C8.87196 13.42 9.21898 13.2918 9.60211 13.0287C12.2169 11.2636 13.5667 10.3715 13.6515 10.3522C13.7112 10.3387 13.7941 10.3216 13.8502 10.3715C13.9063 10.4214 13.9008 10.5159 13.8949 10.5412C13.8586 10.6957 12.4225 12.0309 11.6793 12.7219C11.4476 12.9373 11.2833 13.09 11.2497 13.1249C11.1744 13.2031 11.0977 13.277 11.024 13.3481C10.5686 13.7871 10.2271 14.1163 11.0429 14.6539C11.4349 14.9122 11.7486 15.1258 12.0615 15.3389C12.4033 15.5717 12.7442 15.8038 13.1853 16.093C13.2977 16.1666 13.405 16.2431 13.5095 16.3176C13.9073 16.6012 14.2646 16.856 14.7061 16.8153C14.9626 16.7917 15.2276 16.5505 15.3621 15.8311C15.6802 14.1309 16.3053 10.4472 16.4498 8.92921C16.4624 8.79621 16.4465 8.626 16.4337 8.55129C16.4209 8.47657 16.3942 8.37011 16.2971 8.29131C16.1821 8.19798 16.0045 8.1783 15.9251 8.17969C15.564 8.18605 15.01 8.37868 12.344 9.48757Z" fill="white"/>
</svg>
