<svg width="24" height="24" viewBox="0 0 24 24" fill="none" xmlns="http://www.w3.org/2000/svg">
<path fill-rule="evenodd" clip-rule="evenodd" d="M11.9999 21.6C17.3018 21.6 21.5999 17.3019 21.5999 12C21.5999 6.69806 17.3018 2.39999 11.9999 2.39999C6.69797 2.39999 2.3999 6.69806 2.3999 12C2.3999 17.3019 6.69797 21.6 11.9999 21.6ZM12.344 9.48717C11.4103 9.87555 9.54411 10.6794 6.74551 11.8987C6.29107 12.0794 6.05301 12.2562 6.03133 12.4291C5.99471 12.7212 6.36057 12.8363 6.85878 12.9929C6.92655 13.0142 6.99677 13.0363 7.06875 13.0597C7.55891 13.219 8.21826 13.4055 8.56103 13.4129C8.87196 13.4196 9.21898 13.2914 9.60211 13.0283C12.2169 11.2632 13.5667 10.3711 13.6515 10.3518C13.7112 10.3383 13.7941 10.3212 13.8502 10.3711C13.9063 10.421 13.9008 10.5155 13.8949 10.5408C13.8586 10.6953 12.4225 12.0305 11.6793 12.7215C11.4476 12.9369 11.2833 13.0896 11.2497 13.1245C11.1744 13.2027 11.0977 13.2766 11.024 13.3477C10.5686 13.7867 10.2271 14.1159 11.0429 14.6535C11.4349 14.9118 11.7486 15.1254 12.0615 15.3385C12.4033 15.5713 12.7442 15.8034 13.1853 16.0926C13.2977 16.1662 13.405 16.2427 13.5095 16.3173C13.9073 16.6008 14.2646 16.8556 14.7061 16.8149C14.9626 16.7913 15.2276 16.5501 15.3621 15.8307C15.6802 14.1305 16.3053 10.4468 16.4498 8.92881C16.4624 8.79581 16.4465 8.62561 16.4337 8.55089C16.4209 8.47617 16.3942 8.36972 16.2971 8.29091C16.1821 8.19758 16.0045 8.1779 15.9251 8.1793C15.564 8.18566 15.01 8.37828 12.344 9.48717Z" fill="#2F2B43" fill-opacity="0.7"/>
</svg>
