<svg width="32" height="32" viewBox="0 0 32 32" fill="none" xmlns="http://www.w3.org/2000/svg">
<path fill-rule="evenodd" clip-rule="evenodd" d="M24.2649 6.19285C23.6718 5.65395 21.1116 4.04531 15.7697 4.022C15.7697 4.022 9.44397 3.60639 6.37327 6.38773C4.66422 8.07518 4.08846 10.5845 4.02533 13.6468C4.02324 13.7485 4.02085 13.8534 4.01839 13.961C3.94702 17.0931 3.82128 22.6106 9.23638 24.115C9.23638 24.115 9.21435 28.458 9.21181 28.8397C9.21181 29.1066 9.25417 29.2892 9.40669 29.3269C9.51642 29.3536 9.6808 29.2969 9.82061 29.1575C10.7162 28.258 13.5836 24.7988 13.5836 24.7988C17.4309 25.0501 20.4918 24.2904 20.821 24.1828C20.8985 24.1579 21.0101 24.1319 21.149 24.0995C22.4007 23.8077 25.8662 22.9997 26.5057 17.8338C27.2399 11.9182 26.2358 7.8803 24.2649 6.19285ZM15.9946 11.1698C16.0049 10.9729 16.1729 10.8215 16.3699 10.8318C17.1069 10.8702 17.72 11.0933 18.1567 11.5448C18.5917 11.9946 18.805 12.623 18.8424 13.3776C18.8522 13.5746 18.7004 13.7422 18.5034 13.752C18.3064 13.7618 18.1388 13.61 18.129 13.413C18.097 12.767 17.9197 12.3273 17.6433 12.0414C17.3685 11.7573 16.9492 11.5773 16.3327 11.5451C16.1357 11.5348 15.9844 11.3668 15.9946 11.1698ZM15.8364 8.91542C15.6396 8.90102 15.4685 9.04882 15.4541 9.24554C15.4397 9.44227 15.5875 9.61341 15.7842 9.62781C17.1441 9.72733 18.1653 10.1825 18.8959 10.9799C19.6287 11.7806 19.9883 12.7787 19.9618 14.0017C19.9576 14.1989 20.114 14.3622 20.3112 14.3665C20.5084 14.3708 20.6717 14.2144 20.676 14.0172C20.706 12.6304 20.2926 11.4481 19.4228 10.4976L19.4227 10.4975C18.5434 9.53764 17.3362 9.02518 15.8364 8.91542ZM14.8242 7.41643C14.8256 7.21919 14.9866 7.0604 15.1839 7.06178C17.2565 7.07621 19.0084 7.76621 20.4151 9.13744C21.8334 10.5201 22.5349 12.4025 22.5527 14.7405C22.5542 14.9377 22.3955 15.0988 22.1982 15.1003C22.001 15.1018 21.8399 14.9431 21.8384 14.7459C21.8217 12.5552 21.17 10.8709 19.9165 9.64892C18.6512 8.41547 17.0802 7.7893 15.1789 7.77605C14.9816 7.77468 14.8229 7.61367 14.8242 7.41643ZM17.1953 17.8881C16.925 18.2211 16.423 18.1787 16.423 18.1787C12.7536 17.242 11.7716 13.5252 11.7716 13.5252C11.7716 13.5252 11.7275 13.0232 12.0622 12.7529L12.7252 12.2258C13.054 11.9725 13.2637 11.3578 12.929 10.7574C12.6723 10.3068 12.3932 9.86932 12.0927 9.44661C11.8008 9.04795 11.1208 8.23155 11.1183 8.22901C10.7904 7.84221 10.3082 7.75239 9.79984 8.01718C9.7983 8.01718 9.79619 8.01786 9.79416 8.01852C9.79228 8.01913 9.79047 8.01972 9.78925 8.01972C9.2836 8.31106 8.82766 8.68119 8.43861 9.11616C8.43728 9.11881 8.43596 9.12008 8.43463 9.12135C8.43342 9.12251 8.4322 9.12367 8.43098 9.1259C8.11691 9.50494 7.93714 9.87649 7.89166 10.2406C7.88222 10.2942 7.87895 10.3488 7.88192 10.4032C7.88023 10.564 7.9047 10.724 7.95436 10.8769L7.97174 10.8888C8.13018 11.4514 8.52673 12.3885 9.38846 13.951C9.88136 14.8547 10.4498 15.7151 11.0878 16.523C11.4074 16.928 11.75 17.3143 12.1139 17.6801C12.1183 17.6845 12.1226 17.6889 12.127 17.6933C12.1356 17.702 12.1441 17.7106 12.1529 17.719L12.1918 17.758L12.2308 17.797L12.2698 17.836C12.6355 18.1999 13.0218 18.5425 13.4268 18.8621C14.2348 19.5001 15.0954 20.0686 15.9993 20.5614C17.5613 21.4231 18.4993 21.8197 19.0611 21.9781L19.073 21.9955C19.2259 22.0453 19.3858 22.0699 19.5466 22.0684C19.6011 22.071 19.6556 22.0676 19.7093 22.0582C20.0739 22.015 20.4452 21.8355 20.8231 21.5197C20.8253 21.5185 20.8265 21.5173 20.8277 21.5161C20.8289 21.5147 20.8302 21.5134 20.8329 21.5121C21.2678 21.1229 21.6381 20.667 21.9297 20.1614C21.9297 20.1601 21.9303 20.1581 21.9309 20.156C21.9314 20.1541 21.9318 20.1523 21.9318 20.1509C22.1966 19.6425 22.1068 19.1603 21.7179 18.832C21.7174 18.832 21.6857 18.8059 21.632 18.7616C21.4115 18.58 20.8209 18.0933 20.5003 17.8576C20.078 17.5571 19.6409 17.278 19.1907 17.0213C18.59 16.6866 17.9765 16.8963 17.7223 17.225L17.1953 17.8881Z" fill="black"/>
</svg>
