<svg width="24" height="24" viewBox="0 0 24 24" fill="none" xmlns="http://www.w3.org/2000/svg">
<path fill-rule="evenodd" clip-rule="evenodd" d="M18.8192 12.8143C16.0873 6.89523 7.91302 6.89523 5.18115 12.8143C5.00757 13.1904 4.56198 13.3546 4.18589 13.181C3.8098 13.0074 3.64563 12.5618 3.81921 12.1857C7.08734 5.10476 16.913 5.10476 20.1812 12.1857C20.3547 12.5618 20.1906 13.0074 19.8145 13.181C19.4384 13.3546 18.9928 13.1904 18.8192 12.8143Z" fill="#2F2B43" fill-opacity="0.5"/>
<path fill-rule="evenodd" clip-rule="evenodd" d="M12 12.75C12.6904 12.75 13.25 13.3096 13.25 14C13.25 14.6904 12.6904 15.25 12 15.25C11.3096 15.25 10.75 14.6904 10.75 14C10.75 13.3096 11.3096 12.75 12 12.75ZM14.75 14C14.75 12.4812 13.5188 11.25 12 11.25C10.4812 11.25 9.25 12.4812 9.25 14C9.25 15.5188 10.4812 16.75 12 16.75C13.5188 16.75 14.75 15.5188 14.75 14Z" fill="#2F2B43" fill-opacity="0.5"/>
</svg>
