<svg width="24" height="24" viewBox="0 0 24 24" fill="none" xmlns="http://www.w3.org/2000/svg">
<path d="M2.3999 11.616C2.3999 7.27154 2.3999 5.09933 3.74955 3.74968C5.09921 2.40002 7.27142 2.40002 11.6159 2.40002H12.3839C16.7284 2.40002 18.9006 2.40002 20.2503 3.74968C21.5999 5.09933 21.5999 7.27154 21.5999 11.616V12.384C21.5999 16.7285 21.5999 18.9007 20.2503 20.2504C18.9006 21.6 16.7284 21.6 12.3839 21.6H11.6159C7.27142 21.6 5.09921 21.6 3.74955 20.2504C2.3999 18.9007 2.3999 16.7285 2.3999 12.384V11.616Z" fill="#0077FF"/>
<path d="M12.6161 16.2321C8.2401 16.2321 5.74414 13.2321 5.64014 8.24011H7.83214C7.90414 11.9041 9.5201 13.4561 10.8001 13.7761V8.24011H12.8642V11.4001C14.1282 11.2641 15.456 9.82411 15.904 8.24011H17.9681C17.6241 10.1921 16.1841 11.6321 15.1601 12.2241C16.1841 12.7041 17.8241 13.9601 18.4481 16.2321H16.1761C15.6881 14.7121 14.4722 13.5361 12.8642 13.3761V16.2321H12.6161Z" fill="white"/>
</svg>
