<svg width="24" height="24" viewBox="0 0 24 24" fill="none" xmlns="http://www.w3.org/2000/svg">
<path fill-rule="evenodd" clip-rule="evenodd" d="M3.74968 3.74965C2.40002 5.0993 2.40002 7.27151 2.40002 11.616V12.384C2.40002 16.7285 2.40002 18.9007 3.74968 20.2504C5.09933 21.6 7.27154 21.6 11.616 21.6H12.384C16.7285 21.6 18.9007 21.6 20.2504 20.2504C21.6 18.9007 21.6 16.7285 21.6 12.384V11.616C21.6 7.27151 21.6 5.0993 20.2504 3.74965C18.9007 2.39999 16.7285 2.39999 12.384 2.39999H11.616C7.27154 2.39999 5.09933 2.39999 3.74968 3.74965ZM5.64026 8.24004C5.74426 13.232 8.24022 16.232 12.6162 16.232H12.8643V13.376C14.4723 13.536 15.6882 14.712 16.1762 16.232H18.4483C17.8243 13.96 16.1842 12.704 15.1602 12.224C16.1842 11.632 17.6242 10.192 17.9682 8.24004H15.9041C15.4561 9.82404 14.1283 11.264 12.8643 11.4V8.24004H10.8002V13.776C9.52022 13.456 7.90426 11.904 7.83226 8.24004H5.64026Z" fill="#252525"/>
</svg>
