<svg width="24" height="24" viewBox="0 0 24 24" fill="none" xmlns="http://www.w3.org/2000/svg">
<path fill-rule="evenodd" clip-rule="evenodd" d="M3.74968 3.75004C2.40002 5.09969 2.40002 7.27191 2.40002 11.6164V12.3844C2.40002 16.7289 2.40002 18.9011 3.74968 20.2508C5.09933 21.6004 7.27154 21.6004 11.616 21.6004H12.384C16.7285 21.6004 18.9007 21.6004 20.2504 20.2508C21.6 18.9011 21.6 16.7289 21.6 12.3844V11.6164C21.6 7.27191 21.6 5.09969 20.2504 3.75004C18.9007 2.40039 16.7285 2.40039 12.384 2.40039H11.616C7.27154 2.40039 5.09933 2.40039 3.74968 3.75004ZM5.64026 8.24043C5.74426 13.2324 8.24022 16.2324 12.6162 16.2324H12.8643V13.3764C14.4723 13.5364 15.6882 14.7124 16.1762 16.2324H18.4483C17.8243 13.9604 16.1842 12.7044 15.1602 12.2244C16.1842 11.6324 17.6242 10.1924 17.9682 8.24043H15.9041C15.4561 9.82443 14.1283 11.2644 12.8643 11.4004V8.24043H10.8002V13.7764C9.52022 13.4564 7.90426 11.9044 7.83226 8.24043H5.64026Z" fill="white"/>
</svg>
