<svg width="80" height="80" viewBox="0 0 80 80" fill="none" xmlns="http://www.w3.org/2000/svg">
<path d="M75.103 52.7442C74.543 50.8581 72.9248 48.9369 70.9224 48.9151L69.8569 48.8981C69.8909 40.8557 70.48 36.3248 66.3479 34.4472C67.6363 31.989 68.7951 29.8412 69.8 27.9805C73.5127 21.1054 75.2072 17.966 74.4594 15.7163C73.8109 13.766 74.2194 14.3212 48.3988 2.27024C46.2666 1.28358 45.0594 1.43509 43.5248 3.82055C42.8553 4.86943 42.2058 5.93104 41.5769 7.00479C40.7502 8.40807 39.8808 9.78568 38.9697 11.1357C34.743 -3.3237 34.1636 -0.507937 7.16361 10.3212C4.79512 11.2739 4.13331 12.3296 4.80846 14.8424C6.49815 21.309 9.17331 27.7806 12.5503 33.6315C9.39512 34.2302 8.50664 35.9309 8.04361 38.8618C7.38179 43.086 6.76482 65.8969 6.40361 71.2533C6.05815 76.423 7.52603 78.7709 13.6048 78.7709L63.1757 78.2981C70.7115 78.2509 69.7963 73.9612 69.823 64.6339C74.1466 64.1224 74.7879 61.8048 75.1915 58.4812C75.4109 56.6872 75.6618 54.6545 75.103 52.7442ZM74.2072 55.9939C74.1527 55.823 73.2145 54.9272 73.0872 54.7999C74.2279 53.6581 74.2836 54.0084 73.1479 52.8715L73.2715 52.7478C73.4453 52.8407 73.6485 52.8616 73.8375 52.806C74.0909 53.4933 74.2824 54.406 74.2072 55.9939ZM28.8739 31.6036L29.7479 32.4775C29.6618 32.5636 29.1115 33.1127 29.0279 33.2024L28.1854 33.2072C28.0739 33.0824 27.8509 32.863 27.7321 32.7454L28.8739 31.6036ZM35.3672 33.1878L34.5066 33.1866C34.5685 33.0715 34.5709 32.9333 34.4739 32.8363L33.8497 32.2121L35.0436 31.0181L36.1575 32.1321L35.4133 32.8751C35.3285 32.9624 35.3272 33.0799 35.3672 33.1878ZM33.9672 33.1866L32.8739 33.1878L33.4206 32.6412L33.9672 33.1866ZM32.1382 33.1902H31.2303C31.1879 33.0169 30.7369 32.6109 30.6048 32.4787L31.9321 31.1515L32.9927 32.2133C32.8436 32.3624 32.143 32.9963 32.1382 33.1902ZM30.4654 33.1951L29.8848 33.1975L30.1769 32.9054L30.4654 33.1951ZM27.3442 33.2121H27.2654L27.3054 33.1721L27.3442 33.2121ZM23.7757 33.2436L24.1915 32.8278L24.5988 33.2351L23.7757 33.2436ZM35.9588 33.189L36.5879 32.5599L37.2182 33.1902C37.2169 33.1915 35.96 33.189 35.9588 33.189ZM40.0339 28.9842L40.8679 29.8181L39.4339 31.2521L38.6654 30.4836C38.8085 30.3393 40.0363 29.1866 40.0339 28.9842ZM44.9503 30.789L43.823 31.9163L43.1879 31.2812L44.16 30.309C44.1882 30.2809 44.2106 30.2474 44.2259 30.2106C44.2411 30.1738 44.249 30.1343 44.249 30.0945C44.249 30.0546 44.2411 30.0152 44.2259 29.9783C44.2106 29.9415 44.1882 29.9081 44.16 29.8799C44.1369 29.8569 44.103 29.8593 44.0751 29.8448C44.0739 29.6424 42.2678 27.9139 42.1236 27.7696L43.1079 26.7854C43.6935 28.1329 44.3078 29.4677 44.9503 30.789ZM49.8909 30.9963C49.9879 31.1284 50.5503 31.6787 50.6666 31.7951L49.6606 32.8012L48.8739 32.0145L49.8909 30.9963ZM52.406 32.6787L51.5224 31.7951L52.4327 30.8848C52.5624 31.0205 53.4 31.8569 53.5333 31.989L52.5806 32.9418C52.486 33.0363 52.4885 33.1709 52.5454 33.2848L50.0375 33.2799L51.0933 32.2242L51.9769 33.1078C52.0363 33.1672 52.1127 33.1963 52.1915 33.1963C52.2703 33.1963 52.3466 33.1672 52.406 33.1078C52.4343 33.0797 52.4566 33.0462 52.4719 33.0094C52.4872 32.9726 52.4951 32.9331 52.4951 32.8933C52.4951 32.8534 52.4872 32.8139 52.4719 32.7771C52.4566 32.7403 52.4343 32.7069 52.406 32.6787ZM55.7733 30.6072C55.8691 30.7393 56.9576 31.8157 57.0836 31.9405C56.9309 32.0933 55.886 33.1345 55.7382 33.2921L55.3624 33.2909C55.4291 33.1745 55.4327 33.0315 55.3333 32.9333L54.3903 31.9902L55.7733 30.6072ZM60.7709 29.1102C60.7818 29.126 60.7782 29.1454 60.7915 29.1599L61.6897 30.0581L60.4048 31.343L59.4727 30.4109L60.7709 29.1102ZM63.463 31.8315L62.1782 33.1163L60.8315 31.7709L62.1163 30.486L63.463 31.8315ZM62.5466 30.0569L63.9054 28.6981L65.2509 30.0436L63.8921 31.4024L62.5466 30.0569ZM59.1685 33.3405C59.2266 33.3296 59.2848 33.3187 59.3297 33.2739L60.4036 32.1999L61.6751 33.4702C60.8403 33.4083 60.0041 33.3663 59.1672 33.3442L59.1685 33.3405ZM59.9757 31.7709L58.9018 32.8448C58.8909 32.8557 58.8945 32.8727 58.8848 32.8848L57.9406 31.9405L59.0436 30.8375L59.9757 31.7709ZM58.4666 33.3248C57.8384 33.3118 57.2101 33.3029 56.5818 33.2981L57.5103 32.3696L58.4666 33.3248ZM54.8327 33.2884L53.0945 33.2848L53.9624 32.4169L54.8327 33.2884ZM49.2315 33.229C49.206 33.2545 49.2266 33.2509 49.2097 33.2751C48.6933 33.2727 48.1648 33.269 47.623 33.263L48.4448 32.4412L49.2315 33.229ZM38.3503 33.1915L39.4327 32.109L40.5248 33.2012L38.3503 33.1915ZM46.1745 33.2484C44.5794 33.2307 42.9842 33.2174 41.3891 33.2084L41.3236 33.143L42.7575 31.709L43.3927 32.3442C43.1527 32.5854 42.8812 32.7902 43.1285 33.0375C43.1566 33.0657 43.19 33.0881 43.2269 33.1034C43.2637 33.1187 43.3031 33.1265 43.343 33.1265C43.3829 33.1265 43.4223 33.1187 43.4591 33.1034C43.496 33.0881 43.5294 33.0657 43.5576 33.0375L43.8642 32.7309C44.1212 32.7963 44.2642 32.6109 44.2085 32.3866L45.2279 31.3672L46.1745 33.2484ZM43.5539 30.0569L42.7588 30.8521L41.7236 29.8181L42.5188 29.023L43.5539 30.0569ZM42.3297 31.2812L40.8969 32.7151L39.8618 31.6799L41.2957 30.246L42.3297 31.2812ZM39.0048 31.6799L37.7842 32.9005L37.0157 32.1321L38.2363 30.9115L39.0048 31.6799ZM62.5963 33.5563L63.8921 32.2605L65.3563 33.7248L65.2303 33.9624C64.7854 33.8327 64.2509 33.7309 63.3139 33.6472C63.0753 33.6129 62.836 33.5826 62.5963 33.5563ZM69.3576 26.246L68.3685 25.2569L69.423 24.2024L69.8994 24.6799C69.9274 24.7082 69.9609 24.7306 69.9977 24.7458C70.0346 24.761 70.0741 24.7687 70.1139 24.7684C70.1309 24.7684 70.1442 24.7515 70.1612 24.749L69.3576 26.246ZM42.6169 7.6254C45.44 2.88115 45.5975 2.30903 47.886 3.36964C55.566 6.95388 70.4157 13.8702 71.0194 14.1527C72.3794 14.783 73.0654 15.3648 73.3091 16.0993C73.7891 17.5454 72.6957 19.9769 70.3709 24.3539C70.3563 24.3187 70.3563 24.2787 70.3285 24.2509L69.8521 23.7733L70.4339 23.1915C70.463 23.1999 70.4872 23.2254 70.5175 23.2254C70.5574 23.2255 70.5968 23.2177 70.6336 23.2025C70.6704 23.1873 70.7039 23.165 70.7321 23.1369C70.8145 23.0545 70.8182 22.943 70.7866 22.8399L70.9163 22.7102C70.9732 22.6533 71.0052 22.5762 71.0052 22.4957C71.0052 22.4152 70.9732 22.3381 70.9163 22.2812C70.8594 22.2243 70.7823 22.1923 70.7018 22.1923C70.6213 22.1923 70.5442 22.2243 70.4872 22.2812L70.3963 22.3721L70.2169 22.1927L72.0133 20.3975C72.0415 20.3693 72.0638 20.3359 72.0791 20.2991C72.0943 20.2623 72.1022 20.2228 72.1022 20.183C72.1022 20.1431 72.0943 20.1037 72.0791 20.0669C72.0638 20.03 72.0415 19.9966 72.0133 19.9684C71.9851 19.9403 71.9517 19.9179 71.9149 19.9027C71.8781 19.8874 71.8386 19.8796 71.7988 19.8796C71.7589 19.8796 71.7195 19.8874 71.6826 19.9027C71.6458 19.9179 71.6124 19.9403 71.5842 19.9684L69.7891 21.7636L69.5418 21.5163C69.4849 21.4594 69.4077 21.4274 69.3272 21.4274C69.2468 21.4274 69.1696 21.4594 69.1127 21.5163C69.0558 21.5732 69.0238 21.6504 69.0238 21.7309C69.0238 21.8113 69.0558 21.8885 69.1127 21.9454L69.3782 22.2109C69.3066 22.3272 69.303 22.4763 69.4036 22.5769C69.4317 22.6052 69.4651 22.6276 69.502 22.6428C69.5388 22.658 69.5783 22.6657 69.6182 22.6654C69.6727 22.6654 69.7212 22.6327 69.7697 22.6024L69.9672 22.7999L69.4242 23.343L69.3466 23.2654C69.2897 23.2085 69.2126 23.1765 69.1321 23.1765C69.0516 23.1765 68.9744 23.2085 68.9175 23.2654C68.8606 23.3223 68.8287 23.3995 68.8287 23.4799C68.8287 23.5604 68.8606 23.6376 68.9175 23.6945L68.9951 23.7721L67.9406 24.8266L67.6436 24.5309C67.6154 24.5027 67.582 24.4803 67.5452 24.4651C67.5084 24.4498 67.4689 24.442 67.4291 24.442C67.3892 24.442 67.3498 24.4498 67.313 24.4651C67.2761 24.4803 67.2427 24.5027 67.2145 24.5309C67.1863 24.559 67.164 24.5925 67.1488 24.6293C67.1335 24.6661 67.1257 24.7056 67.1257 24.7454C67.1257 24.7852 67.1335 24.8247 67.1488 24.8615C67.164 24.8983 67.1863 24.9318 67.2145 24.9599L67.5115 25.2569L66.3357 26.4327L66.1369 26.2339C66.1088 26.2057 66.0753 26.1834 66.0385 26.1681C66.0017 26.1529 65.9622 26.145 65.9224 26.145C65.8826 26.145 65.8431 26.1529 65.8063 26.1681C65.7695 26.1834 65.736 26.2057 65.7079 26.2339C65.6797 26.2621 65.6573 26.2955 65.6421 26.3323C65.6268 26.3691 65.619 26.4086 65.619 26.4484C65.619 26.4883 65.6268 26.5277 65.6421 26.5645C65.6573 26.6014 65.6797 26.6348 65.7079 26.663L65.9066 26.8618L65.5139 27.2557C65.4857 27.2839 65.4634 27.3173 65.4481 27.3541C65.4329 27.3909 65.425 27.4304 65.425 27.4702C65.425 27.5101 65.4329 27.5495 65.4481 27.5864C65.4634 27.6232 65.4857 27.6566 65.5139 27.6848C65.5421 27.713 65.5755 27.7353 65.6123 27.7506C65.6492 27.7658 65.6886 27.7737 65.7285 27.7737C65.7683 27.7737 65.8078 27.7658 65.8446 27.7506C65.8814 27.7353 65.9148 27.713 65.943 27.6848L66.3369 27.2909L67.5624 28.5163C67.6218 28.5757 67.6982 28.6048 67.7769 28.6048C67.8557 28.6048 67.9321 28.5757 67.9915 28.5163C68.0197 28.4882 68.0421 28.4547 68.0574 28.4179C68.0727 28.3811 68.0805 28.3416 68.0805 28.3018C68.0805 28.2619 68.0727 28.2224 68.0574 28.1856C68.0421 28.1488 68.0197 28.1154 67.9915 28.0872L66.7636 26.8605L67.9394 25.6848L69.046 26.7902C69.0497 26.7939 69.0557 26.7927 69.0606 26.7963L68.7321 27.4036C67.8254 29.0836 66.7903 31.0012 65.6521 33.1624L64.3212 31.8315L65.68 30.4727L66.2157 31.0084C66.2751 31.0678 66.3515 31.0969 66.4303 31.0969C66.5091 31.0969 66.5854 31.0678 66.6448 31.0084C66.673 30.9803 66.6954 30.9468 66.7107 30.91C66.726 30.8732 66.7338 30.8337 66.7338 30.7939C66.7338 30.754 66.726 30.7146 66.7107 30.6777C66.6954 30.6409 66.673 30.6075 66.6448 30.5793L66.1091 30.0436L66.5527 29.5999C66.5809 29.5718 66.6032 29.5383 66.6185 29.5015C66.6337 29.4647 66.6416 29.4252 66.6416 29.3854C66.6416 29.3456 66.6337 29.3061 66.6185 29.2693C66.6032 29.2325 66.5809 29.199 66.5527 29.1709C66.5245 29.1427 66.4911 29.1203 66.4543 29.1051C66.4175 29.0898 66.378 29.082 66.3382 29.082C66.2983 29.082 66.2589 29.0898 66.222 29.1051C66.1852 29.1203 66.1518 29.1427 66.1236 29.1709L65.68 29.6145L64.3345 28.269L64.423 28.1805C64.4799 28.1236 64.5119 28.0465 64.5119 27.966C64.5119 27.8855 64.4799 27.8084 64.423 27.7515C64.3661 27.6946 64.2889 27.6626 64.2085 27.6626C64.128 27.6626 64.0508 27.6946 63.9939 27.7515L63.9054 27.8399L63.7066 27.6412C63.6497 27.5843 63.5726 27.5523 63.4921 27.5523C63.4116 27.5523 63.3344 27.5843 63.2775 27.6412C63.2206 27.6981 63.1887 27.7752 63.1887 27.8557C63.1887 27.9362 63.2206 28.0133 63.2775 28.0702L63.4763 28.269L62.1175 29.6278L61.2194 28.7296C61.1369 28.6472 61.0266 28.6436 60.9224 28.6751C60.9079 28.6399 60.9079 28.5999 60.8788 28.5709C60.8507 28.5427 60.8174 28.5203 60.7807 28.505C60.7439 28.4898 60.7046 28.4819 60.6648 28.4819C60.6251 28.4819 60.5857 28.4898 60.549 28.505C60.5123 28.5203 60.4789 28.5427 60.4509 28.5709L59.0424 29.9793L58.6485 29.5854C58.5916 29.5285 58.5144 29.4965 58.4339 29.4965C58.3534 29.4965 58.2763 29.5285 58.2194 29.5854C58.1625 29.6423 58.1305 29.7195 58.1305 29.7999C58.1305 29.8804 58.1625 29.9576 58.2194 30.0145L58.6133 30.4084L57.5103 31.5115C57.3842 31.3854 56.3079 30.2981 56.1769 30.2012L57 29.3781C57.0281 29.3499 57.0505 29.3165 57.0657 29.2797C57.081 29.2429 57.0888 29.2034 57.0888 29.1636C57.0888 29.1237 57.081 29.0843 57.0657 29.0475C57.0505 29.0107 57.0281 28.9772 57 28.949C56.9718 28.9209 56.9384 28.8985 56.9015 28.8833C56.8647 28.868 56.8253 28.8602 56.7854 28.8602C56.7456 28.8602 56.7061 28.868 56.6693 28.8833C56.6325 28.8985 56.5991 28.9209 56.5709 28.949L53.96 31.5599C53.8315 31.4315 52.9866 30.5842 52.8557 30.4593L53.8521 29.463C53.8803 29.4348 53.9026 29.4014 53.9179 29.3645C53.9331 29.3277 53.941 29.2883 53.941 29.2484C53.941 29.2086 53.9331 29.1691 53.9179 29.1323C53.9026 29.0955 53.8803 29.0621 53.8521 29.0339C53.8239 29.0057 53.7905 28.9834 53.7537 28.9681C53.7168 28.9529 53.6774 28.945 53.6376 28.945C53.5977 28.945 53.5583 28.9529 53.5214 28.9681C53.4846 28.9834 53.4512 29.0057 53.423 29.0339L51.0921 31.3648C50.9757 31.2484 50.4254 30.6872 50.2933 30.5902C50.6194 30.2642 51.2351 29.8315 50.9297 29.526C50.9015 29.4978 50.8681 29.4754 50.8313 29.4601C50.7945 29.4448 50.755 29.437 50.7151 29.437C50.6753 29.437 50.6358 29.4448 50.599 29.4601C50.5622 29.4754 50.5287 29.4978 50.5006 29.526L48.4424 31.5842L47.7091 30.8509C47.4279 30.5696 46.9963 30.9951 47.28 31.2799L48.0133 32.0133L47.2872 32.7393C43.7345 25.8945 41.5951 20.1018 39.4121 12.6593C40.5769 11.0509 41.6133 9.31146 42.6169 7.6254ZM5.89088 12.623C6.15755 12.069 6.85937 11.7502 7.61573 11.446C43.1297 -2.79885 30.8569 -1.90188 42.846 26.1902L41.6945 27.343C41.5066 27.1551 41.3369 27.1684 41.2145 27.2909C40.9672 27.5381 41.2388 27.7442 41.4812 27.9854L42.0909 28.5951L41.2957 29.3902L40.1006 28.1951C40.0724 28.1669 40.039 28.1445 40.0022 28.1292C39.9654 28.1139 39.9259 28.1061 39.886 28.1061C39.8462 28.1061 39.8067 28.1139 39.7699 28.1292C39.7331 28.1445 39.6996 28.1669 39.6715 28.1951C39.5454 28.3212 39.5369 28.4884 39.7357 28.6872C39.5345 28.6848 38.3806 29.9115 38.2363 30.0557L37.6521 29.4715C37.3709 29.1902 36.9394 29.6157 37.223 29.9005L37.8072 30.4848L36.5866 31.7054L35.4715 30.5915L36.7879 29.2739C36.8168 29.246 36.84 29.2126 36.8559 29.1756C36.8718 29.1387 36.8802 29.0989 36.8806 29.0587C36.8811 29.0184 36.8734 28.9785 36.8583 28.9413C36.8431 28.904 36.8206 28.8702 36.7922 28.8417C36.7638 28.8132 36.73 28.7906 36.6928 28.7753C36.6556 28.76 36.6157 28.7523 36.5754 28.7526C36.5352 28.7529 36.4954 28.7612 36.4584 28.777C36.4214 28.7929 36.388 28.8159 36.36 28.8448L35.0436 30.1624L34.8848 30.0048C34.6036 29.7236 34.1721 30.149 34.4557 30.4339L34.6145 30.5927L33.4206 31.7866L32.36 30.7248L33.6133 29.4715C33.6415 29.4433 33.6638 29.4098 33.6791 29.373C33.6943 29.3362 33.7022 29.2968 33.7022 29.2569C33.7022 29.2171 33.6943 29.1776 33.6791 29.1408C33.6638 29.104 33.6415 29.0705 33.6133 29.0424C33.5851 29.0142 33.5517 28.9918 33.5149 28.9766C33.4781 28.9613 33.4386 28.9535 33.3988 28.9535C33.3589 28.9535 33.3195 28.9613 33.2826 28.9766C33.2458 28.9918 33.2124 29.0142 33.1842 29.0424L31.9309 30.2957C31.6121 29.9769 31.183 30.4048 31.5018 30.7248L30.1745 32.0521L29.3006 31.1781L30.1818 30.2969C30.21 30.2687 30.2323 30.2353 30.2476 30.1985C30.2628 30.1617 30.2707 30.1222 30.2707 30.0824C30.2707 30.0425 30.2628 30.0031 30.2476 29.9663C30.2323 29.9294 30.21 29.896 30.1818 29.8678C30.1536 29.8396 30.1202 29.8173 30.0834 29.802C30.0465 29.7868 30.0071 29.779 29.9672 29.779C29.9274 29.779 29.8879 29.7868 29.8511 29.802C29.8143 29.8173 29.7809 29.8396 29.7527 29.8678L27.303 32.3175L26.32 31.3345C26.2918 31.3063 26.2584 31.284 26.2215 31.2687C26.1847 31.2535 26.1453 31.2456 26.1054 31.2456C26.0656 31.2456 26.0261 31.2535 25.9893 31.2687C25.9525 31.284 25.9191 31.3063 25.8909 31.3345C25.8627 31.3627 25.8404 31.3961 25.8251 31.4329C25.8099 31.4697 25.802 31.5092 25.802 31.549C25.802 31.5889 25.8099 31.6283 25.8251 31.6651C25.8404 31.702 25.8627 31.7354 25.8909 31.7636L26.8739 32.7466L26.3988 33.2218L25.3163 33.2315C25.3188 33.0302 24.7612 32.5442 24.6182 32.4024L26.3685 30.6521C26.3966 30.6239 26.419 30.5904 26.4342 30.5536C26.4495 30.5168 26.4573 30.4774 26.4573 30.4375C26.4573 30.3977 26.4495 30.3582 26.4342 30.3214C26.419 30.2846 26.3966 30.2511 26.3685 30.223C26.3403 30.1948 26.3068 30.1724 26.27 30.1572C26.2332 30.142 26.1938 30.1341 26.1539 30.1341C26.1141 30.1341 26.0746 30.142 26.0378 30.1572C26.001 30.1724 25.9675 30.1948 25.9394 30.223L24.1891 31.9733L23.9248 31.709C23.8966 31.6809 23.8632 31.6585 23.8264 31.6433C23.7896 31.628 23.7501 31.6202 23.7103 31.6202C23.6704 31.6202 23.631 31.628 23.5942 31.6433C23.5574 31.6585 23.5239 31.6809 23.4957 31.709C23.4676 31.7372 23.4452 31.7707 23.43 31.8075C23.4147 31.8443 23.4069 31.8837 23.4069 31.9236C23.4069 31.9634 23.4147 32.0029 23.43 32.0397C23.4452 32.0765 23.4676 32.11 23.4957 32.1381L23.76 32.4024L22.9636 33.1987C22.9479 33.2145 22.9515 33.2375 22.9394 33.2557C20.3151 33.286 18.0569 33.326 16.3757 33.3709C15.9927 33.3781 15.6048 33.3818 15.223 33.3902C14.7224 33.3987 14.2691 33.4266 13.8375 33.4642C9.03755 25.269 5.20482 14.0751 5.89088 12.623ZM26.0218 75.9599C26.103 76.1115 27.2788 77.2642 27.4036 77.389L27.366 77.4266L25.4194 77.4448C25.5503 77.1866 25.3454 77.063 25.1321 76.8496L26.0218 75.9599ZM24.8763 77.4509L24.5285 77.4545L24.7042 77.2787L24.8763 77.4509ZM28.2315 77.4181L29.0194 76.6302L29.7927 77.4036L28.2315 77.4181ZM37.6945 74.7515C37.7333 74.9308 39.2485 76.3963 39.3794 76.526L38.5866 77.3187L36.92 77.3345C36.9963 77.2169 37 77.0642 36.8969 76.9612L36.1915 76.2557L37.6945 74.7515ZM44.3357 75.9333L45.9842 74.2848L47.9297 76.2302C47.7976 76.3624 47.0497 77.0545 47.0206 77.2399L42.9915 77.2787L43.9079 76.3624L44.4242 76.8787C44.4524 76.907 44.4858 76.9293 44.5226 76.9446C44.5594 76.9599 44.5989 76.9678 44.6388 76.9678C44.6786 76.9678 44.7181 76.9599 44.7549 76.9446C44.7917 76.9293 44.8252 76.907 44.8533 76.8787C45.143 76.5854 44.6351 76.2327 44.3357 75.9333ZM47.4715 72.2072V72.2096L49.7103 74.1527L48.2097 75.8012L46.0436 73.8557L47.4715 72.2072ZM61.1709 76.2024C60.8872 76.4848 60.4182 76.8084 60.6036 77.109L57.7006 77.1369C57.6085 77.0012 56.8679 76.2739 56.7418 76.1478L58.9297 73.9599L61.1709 76.2024ZM59.3576 73.5321L61.1127 71.7757L63.3539 74.0169L61.5975 75.7721L59.3576 73.5321ZM61.5988 76.6315L62.063 77.0957L61.1248 77.1042L61.5988 76.6315ZM56.8812 77.1454L55.7345 77.1563L56.3127 76.5769L56.8812 77.1454ZM56.3139 75.7199L54.9891 74.3951L57.1769 72.2072L58.5018 73.5321L56.3139 75.7199ZM55.8848 76.149C55.7333 76.3006 54.9976 76.9708 54.9903 77.1636L53.8836 77.1745L53.0472 76.3381L54.56 74.8242L55.8848 76.149ZM53.0339 77.1818L52.1939 77.1902L52.6182 76.766L53.0339 77.1818ZM52.6182 75.909L50.8618 74.1527L52.3745 72.6387L54.1309 74.3951L52.6182 75.909ZM52.1903 76.3369L51.3297 77.1975L47.7842 77.2315L48.3576 76.6581C48.766 77.0666 49.1697 76.6133 48.7866 76.229L50.4351 74.5805L52.1903 76.3369ZM42.1248 77.286L40.6 77.3005C40.8448 77.029 40.4982 76.789 40.2351 76.5272L42.1527 74.6096L43.4775 75.9345L42.1248 77.286ZM40.1576 77.3042L39.4521 77.3115L39.8085 76.9551L40.1576 77.3042ZM36.4169 77.3405L35.0945 77.3527L35.7624 76.6848L36.4169 77.3405ZM62.9127 77.0872L62.0279 76.2024L63.7842 74.4472L65.0545 75.7175C64.7551 76.0169 64.2812 76.3466 64.5672 76.6327C64.5954 76.6609 64.6288 76.6833 64.6656 76.6986C64.7025 76.7138 64.7419 76.7217 64.7818 76.7217C64.8217 76.7217 64.8611 76.7138 64.8979 76.6986C64.9347 76.6833 64.9682 76.6609 64.9963 76.6327L65.4836 76.1454L66.0751 76.7369C65.0969 77.0581 63.9406 77.0775 62.9127 77.0872ZM64.2121 74.0181L65.7527 72.4775L67.023 73.7478L65.4824 75.2884L64.2121 74.0181ZM66.68 76.486L65.9115 75.7175L68.4788 73.1502C68.2594 74.9321 67.6994 75.9418 66.68 76.486ZM68.56 72.2121L67.4521 73.3199L66.1818 72.0496C66.5127 71.7187 67.1369 71.2787 66.8315 70.9721C66.5248 70.6654 66.0848 71.2909 65.7539 71.6218L62.9466 68.8157C62.6654 68.5345 62.2339 68.9599 62.5175 69.2448L65.3248 72.0508L63.7842 73.5915L61.5418 71.349L62.8036 70.0872C62.8318 70.059 62.8541 70.0256 62.8694 69.9888C62.8846 69.952 62.8925 69.9125 62.8925 69.8727C62.8925 69.8328 62.8846 69.7934 62.8694 69.7566C62.8541 69.7197 62.8318 69.6863 62.8036 69.6581C62.7754 69.6299 62.742 69.6076 62.7052 69.5924C62.6684 69.5771 62.6289 69.5693 62.5891 69.5693C62.5492 69.5693 62.5098 69.5771 62.473 69.5924C62.4361 69.6076 62.4027 69.6299 62.3745 69.6581L61.1127 70.9199L59.9248 69.7321C59.6436 69.4509 59.2121 69.8763 59.4957 70.1612L60.6836 71.349L58.9285 73.1054L57.6036 71.7805C57.943 71.4412 58.6388 70.9478 58.3236 70.6315C58.0085 70.3163 57.5151 71.0121 57.1745 71.3515L55.9866 70.1636C55.7054 69.8824 55.2739 70.3078 55.5575 70.5927L56.7454 71.7805L54.5575 73.9684L52.8012 72.2121L54.0339 70.9793C54.3151 70.6981 53.8897 70.2666 53.6048 70.5502L52.3721 71.783L51.5079 70.9187C51.2266 70.6375 50.7951 71.063 51.0788 71.3478L51.943 72.2121L50.4303 73.4496L48.4872 71.2302H48.4848L48.783 71.2072C49.0194 70.9708 48.6533 70.6872 48.3539 70.9854L45.9794 73.3939C45.6497 73.0739 45.2363 72.4909 44.9297 72.7987C44.623 73.1054 45.2279 73.5309 45.5515 73.8557L43.903 75.5054L42.5782 74.1818L43.5975 73.1624C43.8788 72.8812 43.4533 72.4496 43.1685 72.7345L42.1491 73.7539C41.9382 73.543 41.7612 73.3333 41.5297 73.5636C41.2982 73.7939 41.5091 73.9721 41.72 74.183L39.8024 76.1005C39.6715 75.9696 38.2072 74.4545 38.0279 74.4157L38.5212 73.9224C38.8024 73.6412 38.3769 73.2096 38.0921 73.4933L35.7563 75.829L35.1079 75.1805C35.051 75.1236 34.9738 75.0917 34.8933 75.0917C34.8128 75.0917 34.7357 75.1236 34.6788 75.1805C34.6219 75.2374 34.5899 75.3146 34.5899 75.3951C34.5899 75.4756 34.6219 75.5527 34.6788 75.6096L35.3272 76.2581L34.223 77.3624L30.9491 77.3939L32.1963 76.1466L33.2351 77.1854C33.2945 77.2448 33.3709 77.2739 33.4497 77.2739C33.5285 77.2739 33.6048 77.2448 33.6642 77.1854C33.6924 77.1572 33.7148 77.1238 33.7301 77.087C33.7454 77.0502 33.7532 77.0107 33.7532 76.9708C33.7532 76.931 33.7454 76.8915 33.7301 76.8547C33.7148 76.8179 33.6924 76.7845 33.6642 76.7563L32.6254 75.7175L34.5794 73.7636C34.6075 73.7354 34.6299 73.702 34.6451 73.6651C34.6604 73.6283 34.6682 73.5889 34.6682 73.549C34.6682 73.5092 34.6604 73.4697 34.6451 73.4329C34.6299 73.3961 34.6075 73.3627 34.5794 73.3345C34.5512 73.3063 34.5177 73.284 34.4809 73.2687C34.4441 73.2535 34.4047 73.2456 34.3648 73.2456C34.325 73.2456 34.2855 73.2535 34.2487 73.2687C34.2119 73.284 34.1784 73.3063 34.1503 73.3345L32.1963 75.2884L31.823 74.909C31.7948 74.8809 31.7614 74.8585 31.7246 74.8433C31.6878 74.828 31.6483 74.8202 31.6085 74.8202C31.5686 74.8202 31.5292 74.828 31.4923 74.8433C31.4555 74.8585 31.4221 74.8809 31.3939 74.909C31.3657 74.9372 31.3434 74.9706 31.3281 75.0075C31.3129 75.0443 31.305 75.0837 31.305 75.1236C31.305 75.1634 31.3129 75.2029 31.3281 75.2397C31.3434 75.2765 31.3657 75.31 31.3939 75.3381L31.7733 75.7175L30.3685 77.1224L29.4485 76.2024L31.2569 74.3939C31.2851 74.3657 31.3075 74.3323 31.3227 74.2954C31.338 74.2586 31.3458 74.2192 31.3458 74.1793C31.3458 74.1395 31.338 74.1 31.3227 74.0632C31.3075 74.0264 31.2851 73.993 31.2569 73.9648C31.2288 73.9366 31.1953 73.9143 31.1585 73.899C31.1217 73.8838 31.0822 73.8759 31.0424 73.8759C31.0026 73.8759 30.9631 73.8838 30.9263 73.899C30.8895 73.9143 30.856 73.9366 30.8279 73.9648L29.0194 75.7733L28.5866 75.3405C28.5585 75.3124 28.525 75.29 28.4882 75.2748C28.4514 75.2595 28.4119 75.2517 28.3721 75.2517C28.3322 75.2517 28.2928 75.2595 28.256 75.2748C28.2192 75.29 28.1857 75.3124 28.1575 75.3405C28.1294 75.3687 28.107 75.4022 28.0918 75.439C28.0765 75.4758 28.0687 75.5153 28.0687 75.5551C28.0687 75.5949 28.0765 75.6344 28.0918 75.6712C28.107 75.708 28.1294 75.7415 28.1575 75.7696L28.5903 76.2024L27.8315 76.9612C27.7066 76.8363 26.5551 75.6581 26.4036 75.5781L26.8012 75.1805C26.8581 75.1236 26.8901 75.0465 26.8901 74.966C26.8901 74.8855 26.8581 74.8084 26.8012 74.7515C26.7443 74.6946 26.6671 74.6626 26.5866 74.6626C26.5062 74.6626 26.429 74.6946 26.3721 74.7515L24.703 76.4205L23.8388 75.5563C23.7819 75.4994 23.7047 75.4674 23.6242 75.4674C23.5437 75.4674 23.4666 75.4994 23.4097 75.5563C23.3528 75.6132 23.3208 75.6904 23.3208 75.7709C23.3208 75.8513 23.3528 75.9285 23.4097 75.9854L24.2739 76.8496L23.6618 77.4618L13.926 77.5551L13.6036 77.5575C8.39512 77.5575 7.303 75.9357 7.61209 71.3333C7.96967 66.0205 8.59149 43.2618 9.23997 39.1284C9.65331 36.5115 10.2472 34.8642 13.5103 34.8642H13.5139C13.5382 34.8642 13.5612 34.7842 13.5866 34.7818C13.9212 34.7418 14.8339 34.8945 16.1842 34.8557C18.9563 34.7999 60.5648 34.8181 63.1127 35.0399C64.9891 35.3042 66.2982 35.6763 67.1297 36.5127C69.0121 38.4036 68.6703 42.0351 68.6424 48.9042C60.1891 48.7842 58.5454 48.8266 56.1272 49.6957C52.6824 50.9127 49.8982 53.8993 50.0642 57.2824C50.1127 58.2496 50.4691 59.5127 51.1479 60.469C52.6739 62.623 55.446 63.3224 57.9575 63.7212C61.0982 64.2169 65.4982 64.8436 68.6085 64.7212C68.5915 71.2775 68.6072 71.3272 68.56 72.2121ZM65.0666 62.4896L64.0945 61.5175L65.3297 60.2812L66.3018 61.2533L65.0666 62.4896ZM64.8024 63.0824C64.9285 63.3018 65.1394 63.2739 65.2606 63.1527L66.7309 61.6824L67.52 62.4715C67.2412 62.7502 66.8279 63.0375 67.1054 63.3151C67.3842 63.5939 67.6909 63.1587 67.983 62.8666C68.2594 62.9696 68.4363 62.7502 68.3442 62.5054L69.7757 61.0739L70.7479 62.046L70.3939 62.3999C70.337 62.4568 70.305 62.534 70.305 62.6145C70.305 62.695 70.337 62.7721 70.3939 62.829C70.4508 62.8859 70.528 62.9179 70.6085 62.9179C70.6889 62.9179 70.7661 62.8859 70.823 62.829L71.1769 62.4751L71.6642 62.9624C69.7842 63.7818 66.84 63.5175 62.5309 63.0824L63.6666 61.9466L64.8024 63.0824ZM70.4339 58.3224L71.0521 58.9405L69.7757 60.2169L68.9866 59.4278L70.3733 58.0412C70.3491 58.1405 70.3563 58.2448 70.4339 58.3224ZM71.4812 59.3684L72.4533 60.3405L71.1769 61.6169L70.2048 60.6448L71.4812 59.3684ZM69.3466 60.6448L67.9479 62.0436L67.1588 61.2545L68.5576 59.8557L69.3466 60.6448ZM59.4836 62.7187L60.2969 61.9054L61.3466 62.9563C60.7248 62.8839 60.1037 62.8047 59.4836 62.7187ZM72.2206 62.6618L71.6048 62.046L72.8812 60.7696C73.2509 61.1393 73.6679 60.6993 73.3103 60.3405C73.6085 60.0424 73.1806 59.6133 72.8812 59.9115L71.9091 58.9393C72.2436 58.6048 71.8157 58.1757 71.48 58.5102C71.1575 58.1878 70.7466 57.5975 70.44 57.8896C70.4666 57.789 70.4606 57.6812 70.3818 57.6024C70.3536 57.5741 70.3202 57.5518 70.2834 57.5365C70.2466 57.5212 70.2071 57.5133 70.1672 57.5133C70.1274 57.5133 70.0879 57.5212 70.0511 57.5365C70.0143 57.5518 69.9809 57.5741 69.9527 57.6024L68.5576 58.9975L68.1418 58.5818C67.8606 58.3005 67.4291 58.726 67.7127 59.0108L68.1285 59.4266L66.7297 60.8254L65.7575 59.8533L66.5915 59.0193C66.8727 58.7381 66.4472 58.3066 66.1624 58.5902L65.3285 59.4242C64.9479 59.0436 64.5188 59.4715 64.8994 59.8533L63.6642 61.0896L62.7818 60.2084C62.5006 59.9272 62.0691 60.3527 62.3527 60.6375L63.2351 61.5199L61.9721 62.783C61.8994 62.629 60.8485 61.6048 60.7224 61.4787L63.4509 58.7502C63.4791 58.7221 63.5014 58.6886 63.5167 58.6518C63.5319 58.615 63.5397 58.5755 63.5397 58.5357C63.5397 58.4959 63.5319 58.4564 63.5167 58.4196C63.5014 58.3828 63.4791 58.3493 63.4509 58.3212C63.4227 58.293 63.3893 58.2706 63.3525 58.2554C63.3156 58.2401 63.2762 58.2323 63.2363 58.2323C63.1965 58.2323 63.157 58.2401 63.1202 58.2554C63.0834 58.2706 63.05 58.293 63.0218 58.3212L60.2933 61.0496L60.1018 60.8581C59.8182 60.5745 59.3915 61.0048 59.6727 61.2872L59.8642 61.4787C59.7369 61.606 58.8509 62.4642 58.7806 62.6181C51.8472 61.589 50.5442 58.2993 51.663 55.2266C52.366 53.2909 54.2085 51.8024 56.0618 51.0205C60.2218 49.326 68.2 50.463 69.4121 50.1054C70.8594 50.1284 72.3466 49.8424 73.5733 52.2133C73.5442 52.2024 73.5127 52.1915 73.4982 52.1709C73.4732 52.1338 73.4403 52.1027 73.4019 52.0799C73.3635 52.057 73.3205 52.043 73.276 52.0387C73.2315 52.0344 73.1866 52.04 73.1446 52.0551C73.1025 52.0702 73.0643 52.0944 73.0327 52.126L72.5006 52.6581L72.0145 53.1454C71.972 53.1878 71.9431 53.2418 71.9313 53.3007C71.9196 53.3595 71.9256 53.4205 71.9486 53.476C71.9716 53.5314 72.0105 53.5788 72.0604 53.6121C72.1104 53.6454 72.1691 53.6631 72.2291 53.663C72.4085 53.663 72.5794 53.4387 72.7163 53.3018L73.2218 53.8072L72.2594 54.7696C72.2169 54.812 72.1879 54.8661 72.1762 54.9249C72.1645 54.9838 72.1705 55.0448 72.1934 55.1002C72.2164 55.1557 72.2553 55.203 72.3053 55.2363C72.3552 55.2696 72.4139 55.2873 72.4739 55.2872C72.5364 55.2821 72.5958 55.2575 72.6436 55.2169L73.3248 55.8969L72.5551 56.6666L72.2424 56.3515C72.2142 56.3232 72.1808 56.3008 72.144 56.2856C72.1072 56.2703 72.0677 56.2624 72.0279 56.2624C71.988 56.2624 71.9485 56.2703 71.9117 56.2856C71.8749 56.3008 71.8415 56.3232 71.8133 56.3515C71.5563 56.6084 71.8715 56.8387 72.1273 57.0933L71.7733 57.4472C71.7451 57.4754 71.7228 57.5088 71.7075 57.5457C71.6923 57.5825 71.6844 57.6219 71.6844 57.6618C71.6844 57.7016 71.6923 57.7411 71.7075 57.7779C71.7228 57.8147 71.7451 57.8481 71.7733 57.8763C71.8015 57.9045 71.8349 57.9268 71.8717 57.9421C71.9086 57.9573 71.948 57.9652 71.9879 57.9652C72.0277 57.9652 72.0672 57.9573 72.104 57.9421C72.1408 57.9268 72.1742 57.9045 72.2024 57.8763L72.5563 57.5224L73.3576 58.3236C73.3856 58.3519 73.419 58.3745 73.4559 58.3898C73.4927 58.4052 73.5322 58.4131 73.5721 58.4131C73.612 58.4131 73.6515 58.4052 73.6883 58.3898C73.7252 58.3745 73.7586 58.3519 73.7866 58.3236C73.8149 58.2954 73.8372 58.262 73.8525 58.2252C73.8678 58.1884 73.8757 58.1489 73.8757 58.109C73.8757 58.0692 73.8678 58.0297 73.8525 57.9929C73.8372 57.9561 73.8149 57.9226 73.7866 57.8945L72.9854 57.0933L73.7673 56.3115C73.9285 56.429 74.0945 56.4169 74.1939 56.1999C73.943 60.3818 73.4327 61.8581 72.2206 62.6618Z" fill="#252525"/>
<path d="M53.5975 55.087C52.9636 56.8252 53.4157 58.6155 54.7769 59.7597C57.5066 62.0567 62.2799 59.9973 61.7393 55.6022C61.1212 50.5549 55.0618 51.0664 53.5975 55.087ZM55.8933 53.8882C56.189 53.6494 56.5321 53.4591 56.9103 53.3294L57.1224 53.5415L56.3345 54.3294L55.8933 53.8882ZM55.4581 54.31L55.9745 54.8264C55.9743 54.8645 55.9817 54.9022 55.9962 54.9374C56.0107 54.9727 56.0321 55.0047 56.059 55.0316C56.0859 55.0585 56.1179 55.0799 56.1531 55.0944C56.1884 55.1089 56.2261 55.1162 56.2642 55.1161C56.3975 55.2494 56.9575 55.8676 57.1442 55.8906L56.0181 57.0167L54.6836 55.6821C54.8339 55.1973 55.0533 54.767 55.4581 54.31ZM54.5393 56.3949L55.5903 57.4458L54.9309 58.1052C54.6213 57.5914 54.4841 56.9921 54.5393 56.3949ZM55.5563 58.8325C55.4681 58.7561 55.3847 58.6743 55.3066 58.5876L56.0206 57.8737C56.166 58.0191 56.4072 58.3197 56.5915 58.3197C56.6515 58.3198 56.7102 58.3021 56.7601 58.2688C56.81 58.2355 56.849 58.1882 56.8719 58.1327C56.8949 58.0773 56.9009 58.0163 56.8892 57.9574C56.8774 57.8986 56.8485 57.8445 56.806 57.8022L56.4496 57.4458L58.2678 55.6276C58.296 55.5995 58.3184 55.566 58.3337 55.5292C58.349 55.4924 58.3569 55.4529 58.3569 55.4131C58.3569 55.3732 58.349 55.3337 58.3337 55.2969C58.3184 55.2601 58.296 55.2267 58.2678 55.1985C58.0012 54.9319 57.7381 55.2991 57.4702 55.567C57.4484 55.3803 56.8993 54.8894 56.7648 54.7561L57.5527 53.9682L58.566 54.9815C58.8496 55.2652 59.2763 54.8349 58.9951 54.5525L57.9818 53.5391C58.109 53.4118 58.1939 53.3561 58.1709 53.1743C59.6654 53.2676 60.3709 54.3864 60.5393 55.7476C60.9321 58.9537 57.5272 60.487 55.5563 58.8325ZM13.7999 11.2458C13.2872 11.4106 12.7745 11.59 12.2618 11.7694C12.1175 11.584 11.9709 11.3997 11.8606 11.1937C11.6751 10.8434 11.1369 11.1209 11.326 11.4773C11.4206 11.6555 11.5539 11.8106 11.6715 11.9743C11.221 12.1382 10.7724 12.3075 10.326 12.4821C10.1547 12.2647 9.99726 12.0368 9.85449 11.7997C9.65328 11.4603 9.12722 11.7573 9.33085 12.1076C9.45449 12.3173 9.60116 12.51 9.74419 12.7052C9.19146 12.9258 8.75873 13.1391 8.44722 13.6458C8.07631 13.3621 7.55388 12.7985 7.29207 13.144C7.01691 13.5028 7.82055 13.9306 8.21207 14.23C8.01692 14.984 8.17449 15.6118 8.44358 16.35L7.89449 16.4409C7.52722 16.5015 7.57691 17.0434 7.94419 17.0434C7.98419 17.0434 8.61813 16.9367 8.65692 16.9294L9.14904 18.1791L8.58419 18.3003C8.23146 18.3767 8.28722 18.9003 8.64843 18.9003C8.70176 18.9003 9.32116 18.7634 9.37449 18.7512L10.063 20.5015L9.77813 20.5173C9.41086 20.5379 9.43025 21.5318 9.79631 21.5318H9.81449L10.2969 21.2991L10.8739 22.664C10.3539 22.6943 9.66419 22.6506 9.93449 23.1306C10.0969 23.4155 10.7781 23.19 11.1018 23.1415L11.6593 24.5573L11.1975 24.7415C10.8884 24.864 10.9781 25.3258 11.3102 25.3258C11.3999 25.3258 11.7927 25.1561 11.8812 25.1209L12.0606 25.5767C12.1212 25.7343 12.3006 25.8094 12.4533 25.7476C12.7987 25.6118 12.5793 25.2434 12.4436 24.8955C12.7999 24.7524 13.2533 24.6555 13.1127 24.3015C12.9709 23.9476 12.5769 24.19 12.2218 24.3318L11.7163 23.0482L12.0593 22.9973C12.4569 22.9379 12.3624 22.3318 11.9696 22.3985L11.4896 22.47L10.9345 21.0579C11.3163 21.0361 11.7745 21.0882 11.7527 20.7076C11.726 20.2906 11.1345 20.4397 10.7006 20.464L9.9757 18.6215L10.5151 18.5064C10.9006 18.4228 10.7842 17.8349 10.3878 17.9137L9.75025 18.0482L9.27025 16.8264C9.67631 16.7597 10.2024 16.7634 10.1381 16.3767C10.0715 15.9682 9.47873 16.1779 9.05207 16.2482C8.85207 15.7161 8.68116 15.1949 8.74661 14.6361C9.07025 14.8834 9.44601 15.2955 9.68843 14.9755C9.95146 14.6337 9.29813 14.2943 8.9357 14.0167C9.19267 13.5476 9.63752 13.3973 10.1393 13.1997C10.4278 13.5294 10.8121 14.0749 11.103 13.7549C11.3406 13.4967 11.0024 13.2373 10.7515 12.9682C11.1878 12.8009 11.623 12.6325 12.0642 12.4749C12.2157 12.6361 12.7296 13.1634 12.9515 13.1634C13.2448 13.1634 13.3684 12.7815 13.1248 12.6106C12.9757 12.5076 12.8533 12.3743 12.7199 12.2518C13.1418 12.1064 13.5648 11.9561 13.9866 11.8203C14.0244 11.8084 14.0595 11.789 14.0898 11.7634C14.1201 11.7378 14.145 11.7065 14.1632 11.6713C14.1813 11.636 14.1923 11.5975 14.1955 11.558C14.1987 11.5184 14.194 11.4787 14.1818 11.4409C14.1695 11.403 14.1499 11.3679 14.1241 11.3376C14.0983 11.3073 14.0668 11.2823 14.0313 11.2642C13.9958 11.2461 13.9572 11.2351 13.9175 11.232C13.8778 11.2288 13.8378 11.2335 13.7999 11.2458ZM67.4254 66.9815L66.0218 65.5779C65.9936 65.5497 65.9601 65.5274 65.9233 65.5121C65.8865 65.4969 65.8471 65.489 65.8072 65.489C65.7674 65.489 65.7279 65.4969 65.6911 65.5121C65.6543 65.5274 65.6208 65.5497 65.5927 65.5779C65.5645 65.6061 65.5422 65.6395 65.5269 65.6763C65.5117 65.7132 65.5038 65.7526 65.5038 65.7925C65.5038 65.8323 65.5117 65.8717 65.5269 65.9086C65.5422 65.9454 65.5645 65.9788 65.5927 66.007L66.9963 67.4106L66.1842 68.2228L65.3733 67.4118C65.0921 67.1294 64.6606 67.5561 64.9442 67.8409L65.7551 68.6518L64.5127 69.8943C64.229 70.1779 64.6593 70.6046 64.9418 70.3234L66.1842 69.0809C66.326 69.2228 67.7442 70.7149 67.9442 70.7149C68.0042 70.715 68.0629 70.6973 68.1128 70.664C68.1628 70.6307 68.2017 70.5833 68.2247 70.5279C68.2476 70.4724 68.2536 70.4114 68.2419 70.3526C68.2302 70.2937 68.2012 70.2397 68.1587 70.1973L66.6133 68.6518L67.4254 67.8397C67.5696 67.984 67.8921 68.3682 68.0787 68.3682C68.1387 68.3683 68.1974 68.3506 68.2474 68.3173C68.2973 68.284 68.3362 68.2367 68.3592 68.1812C68.3822 68.1258 68.3882 68.0648 68.3765 68.0059C68.3647 67.9471 68.3358 67.893 68.2933 67.8506L67.8545 67.4118C68.1006 67.1658 68.3721 66.9585 68.126 66.7125C68.0979 66.6842 68.0644 66.6618 68.0276 66.6466C67.9908 66.6313 67.9513 66.6234 67.9115 66.6234C67.8716 66.6234 67.8321 66.6313 67.7953 66.6466C67.7585 66.6618 67.7251 66.6842 67.6969 66.7125L67.4254 66.9815Z" fill="#252525"/>
</svg>
