<svg width="24" height="24" viewBox="0 0 24 24" fill="none" xmlns="http://www.w3.org/2000/svg">
<path d="M2.48006 11.9136C2.47946 13.5902 2.91951 15.227 3.75624 16.67L2.3999 21.6L7.46776 20.2771C8.86407 21.0346 10.4361 21.4345 12.0361 21.435H12.0402C17.309 21.435 21.5976 17.1668 21.5999 11.9211C21.6009 9.37891 20.6074 6.98881 18.8024 5.19032C16.9976 3.39208 14.5974 2.40122 12.0398 2.40002C6.77069 2.40002 2.4821 6.66764 2.47982 11.9137L2.48006 11.9136ZM12.0401 21.435H12.0402H12.0401C12.04 21.435 12.0399 21.435 12.0401 21.435Z" fill="url(#paint0_linear_346_11834)"/>
<path fill-rule="evenodd" clip-rule="evenodd" d="M9.56662 7.79025C9.38123 7.38003 9.18617 7.37182 9.00985 7.3646C8.86555 7.35849 8.70051 7.35889 8.53566 7.35889C8.37061 7.35889 8.10255 7.42054 7.87587 7.66704C7.649 7.91355 7.00977 8.50943 7.00977 9.72131C7.00977 10.9333 7.89654 12.1044 8.02008 12.2689C8.14384 12.4331 9.73189 14.9997 12.2467 15.9869C14.337 16.8075 14.7623 16.6443 15.216 16.6032C15.6696 16.5622 16.6799 16.0075 16.8861 15.4323C17.0923 14.8571 17.0923 14.3641 17.0305 14.2612C16.9686 14.1585 16.8036 14.0969 16.5562 13.9738C16.3087 13.8506 15.0922 13.2546 14.8654 13.1724C14.6386 13.0903 14.4736 13.0493 14.3085 13.2959C14.1436 13.5422 13.6697 14.0969 13.5253 14.2612C13.381 14.4258 13.2366 14.4464 12.9892 14.3232C12.7417 14.1995 11.9447 13.9397 10.9993 13.1006C10.2637 12.4477 9.76717 11.6414 9.62276 11.3948C9.47846 11.1485 9.60735 11.0151 9.73142 10.8923C9.84259 10.7819 9.97894 10.6047 10.1027 10.4609C10.2262 10.317 10.2673 10.2144 10.3498 10.0501C10.4324 9.88567 10.3911 9.74181 10.3293 9.6186C10.2673 9.49539 9.78649 8.27727 9.56647 7.79018" fill="white"/>
<defs>
<linearGradient id="paint0_linear_346_11834" x1="12" y1="21.598" x2="12" y2="2.39801" gradientUnits="userSpaceOnUse">
<stop stop-color="#20B038"/>
<stop offset="1" stop-color="#60D66A"/>
</linearGradient>
</defs>
</svg>
