<svg width="24" height="24" viewBox="0 0 24 24" fill="none" xmlns="http://www.w3.org/2000/svg">
<path fill-rule="evenodd" clip-rule="evenodd" d="M3.75636 16.67C2.91963 15.227 2.47958 13.5902 2.48018 11.9136L2.47994 11.9136C2.48222 6.66762 6.77081 2.4 12.0399 2.4C14.5975 2.40119 16.9977 3.39205 18.8025 5.19029C20.6075 6.98879 21.601 9.37889 21.6 11.9211C21.5977 17.1668 17.3092 21.435 12.0403 21.435H12.0362C10.4363 21.4345 8.86419 21.0346 7.46789 20.2771L2.40002 21.6L3.75636 16.67ZM9.00997 7.36461C9.18629 7.37183 9.38135 7.38004 9.56674 7.79026L9.56659 7.79019C9.69312 8.07029 9.90589 8.59212 10.0757 9.00848C10.2011 9.31616 10.3031 9.56625 10.3294 9.6186C10.3912 9.74182 10.4325 9.88567 10.3499 10.0501C10.3376 10.0748 10.3261 10.098 10.3152 10.1203C10.2532 10.2462 10.2077 10.3386 10.1028 10.4609C10.0615 10.5089 10.0188 10.5606 9.97605 10.6124C9.89082 10.7156 9.80559 10.8187 9.73154 10.8923C9.60748 11.0151 9.47858 11.1485 9.62288 11.3948C9.76729 11.6414 10.2639 12.4477 10.9995 13.1006C11.7896 13.8019 12.476 14.0986 12.8247 14.2493C12.8932 14.2789 12.9486 14.3029 12.9893 14.3232C13.2367 14.4464 13.3811 14.4258 13.5254 14.2612C13.6698 14.0969 14.1437 13.5422 14.3087 13.2959C14.4737 13.0493 14.6387 13.0903 14.8656 13.1724C15.0923 13.2546 16.3088 13.8506 16.5563 13.9738C16.6044 13.9977 16.6494 14.0194 16.6912 14.0394C16.864 14.1224 16.9808 14.1785 17.0306 14.2612C17.0924 14.3642 17.0924 14.8572 16.8862 15.4323C16.6801 16.0075 15.6698 16.5622 15.2161 16.6032C15.1725 16.6071 15.1291 16.6122 15.0845 16.6174C14.6652 16.6666 14.1361 16.7286 12.2468 15.9869C9.92293 15.0746 8.39043 12.8137 8.07347 12.3461C8.04744 12.3077 8.0296 12.2814 8.02021 12.2689L8.01728 12.265C7.88334 12.0867 7.00989 10.9242 7.00989 9.72132C7.00989 8.58689 7.57002 7.99225 7.82771 7.71867C7.84531 7.69999 7.8615 7.6828 7.876 7.66705C8.10267 7.42055 8.37074 7.3589 8.53578 7.3589C8.54531 7.3589 8.55484 7.3589 8.56436 7.35889C8.71964 7.35887 8.87401 7.35885 9.00997 7.36461Z" fill="#2F2B43" fill-opacity="0.7"/>
</svg>
