<svg width="24" height="24" viewBox="0 0 24 24" fill="none" xmlns="http://www.w3.org/2000/svg">
<path fill-rule="evenodd" clip-rule="evenodd" d="M3.75636 16.6704C2.91963 15.2274 2.47958 13.5905 2.48018 11.914L2.47994 11.914C2.48222 6.66801 6.77081 2.40039 12.0399 2.40039C14.5975 2.40158 16.9977 3.39245 18.8025 5.19068C20.6075 6.98918 21.601 9.37928 21.6 11.9215C21.5977 17.1672 17.3092 21.4354 12.0403 21.4354H12.0362C10.4363 21.4349 8.86419 21.035 7.46789 20.2775L2.40002 21.6004L3.75636 16.6704ZM9.00997 7.365C9.18629 7.37222 9.38135 7.38043 9.56674 7.79065L9.56659 7.79058C9.69312 8.07068 9.90589 8.59251 10.0757 9.00887C10.2011 9.31656 10.3031 9.56664 10.3294 9.61899C10.3912 9.74221 10.4325 9.88606 10.3499 10.0505C10.3376 10.0751 10.3261 10.0984 10.3152 10.1207C10.2532 10.2465 10.2077 10.339 10.1028 10.4613C10.0615 10.5093 10.0188 10.561 9.97605 10.6127C9.89082 10.7159 9.80559 10.8191 9.73154 10.8927C9.60748 11.0155 9.47858 11.1489 9.62288 11.3952C9.76729 11.6418 10.2639 12.4481 10.9995 13.101C11.7896 13.8023 12.476 14.099 12.8247 14.2497C12.8932 14.2793 12.9486 14.3032 12.9893 14.3235C13.2367 14.4468 13.3811 14.4262 13.5254 14.2616C13.6698 14.0973 14.1437 13.5426 14.3087 13.2963C14.4737 13.0497 14.6387 13.0907 14.8656 13.1728C15.0923 13.255 16.3088 13.851 16.5563 13.9742C16.6044 13.9981 16.6494 14.0198 16.6912 14.0398C16.864 14.1228 16.9808 14.1789 17.0306 14.2616C17.0924 14.3645 17.0924 14.8575 16.8862 15.4327C16.6801 16.0079 15.6698 16.5626 15.2161 16.6036C15.1725 16.6075 15.1291 16.6126 15.0845 16.6178C14.6652 16.667 14.1361 16.729 12.2468 15.9873C9.92293 15.075 8.39043 12.8141 8.07347 12.3465C8.04744 12.3081 8.0296 12.2818 8.02021 12.2693L8.01728 12.2654C7.88334 12.0871 7.00989 10.9246 7.00989 9.72171C7.00989 8.58728 7.57002 7.99264 7.82771 7.71906C7.84531 7.70038 7.8615 7.68319 7.876 7.66744C8.10267 7.42094 8.37074 7.35929 8.53578 7.35929C8.54531 7.35929 8.55484 7.35929 8.56436 7.35929C8.71964 7.35926 8.87401 7.35924 9.00997 7.365Z" fill="white"/>
</svg>
