<svg width="24" height="24" viewBox="0 0 24 24" fill="none" xmlns="http://www.w3.org/2000/svg">
<path d="M12.0004 21.6C17.3023 21.6 21.6004 17.302 21.6004 12C21.6004 6.69809 17.3023 2.40002 12.0004 2.40002C6.69846 2.40002 2.40039 6.69809 2.40039 12C2.40039 17.302 6.69846 21.6 12.0004 21.6Z" fill="#FC3F1D"/>
<path d="M15.4737 18.0265H13.3663V7.60345H12.4275C10.7067 7.60345 9.80527 8.46387 9.80527 9.74826C9.80527 11.2055 10.427 11.8806 11.7132 12.741L12.7731 13.4554L9.72689 18.0247H7.46094L10.2025 13.9453C8.62598 12.8194 7.73884 11.7203 7.73884 9.86583C7.73884 7.54822 9.35457 5.97168 12.4132 5.97168H15.4595V18.0229H15.4737V18.0265Z" fill="white"/>
</svg>
