<svg width="24" height="24" viewBox="0 0 24 24" fill="none" xmlns="http://www.w3.org/2000/svg">
<path fill-rule="evenodd" clip-rule="evenodd" d="M19.5123 5.69147C20.3347 5.91289 20.9831 6.56132 21.2046 7.38372C21.6158 8.88619 21.5999 12.0176 21.5999 12.0176C21.5999 12.0176 21.5999 15.1333 21.2046 16.6357C20.9831 17.4581 20.3347 18.1066 19.5123 18.328C18.0098 18.7234 12 18.7234 12 18.7234C12 18.7234 6.00594 18.7234 4.48766 18.3122C3.66526 18.0908 3.01683 17.4423 2.79541 16.6199C2.40002 15.1333 2.40002 12.0018 2.40002 12.0018C2.40002 12.0018 2.40002 8.88619 2.79541 7.38372C3.01683 6.56132 3.68107 5.89707 4.48766 5.67566C5.99012 5.28027 12 5.28027 12 5.28027C12 5.28027 18.0098 5.28027 19.5123 5.69147ZM15.0842 12.0015L10.0865 14.8799V9.12305L15.0842 12.0015Z" fill="white"/>
</svg>
