<svg width="32" height="32" viewBox="0 0 32 32" fill="none" xmlns="http://www.w3.org/2000/svg">
<path fill-rule="evenodd" clip-rule="evenodd" d="M3.20312 15.741C8.46753 15.6805 11.414 15.3359 13.3752 13.3747C15.3364 11.4135 15.6809 8.46704 15.7415 3.20264C8.87797 3.33889 3.33938 8.87748 3.20312 15.741ZM16.5059 3.20986C16.5666 8.46973 16.9118 11.4144 18.8721 13.3747C20.8025 15.3051 23.6875 15.6692 28.7979 15.7379C28.6617 8.95808 23.2541 3.47183 16.5059 3.20986ZM28.7906 16.5085C23.6847 16.5774 20.8015 16.9421 18.8721 18.8716C16.9426 20.8011 16.5779 23.6842 16.5089 28.7902C23.1739 28.5298 28.5303 23.1734 28.7906 16.5085ZM15.7384 28.7974C15.6697 23.687 15.3056 20.802 13.3752 18.8716C11.4149 16.9113 8.47022 16.5661 3.21035 16.5054C3.47232 23.2536 8.95859 28.6613 15.7384 28.7974Z" fill="black"/>
</svg>
